<svg id="black-envelope" xmlns="http://www.w3.org/2000/svg" width="80" height="56" viewBox="0 0 80 56">
  <g id="Grupo_189" data-name="Grupo 189" transform="translate(0 0)">
    <path id="Trazado_287" data-name="Trazado 287" d="M3.14,7.487,31.956,30.312a7.331,7.331,0,0,0,4.856,1.407,7.312,7.312,0,0,0,4.853-1.407L70.481,7.487c2.309-1.818,1.786-3.308-1.143-3.308H4.291C1.359,4.179.837,5.669,3.14,7.487Z" transform="translate(3.187 -4.179)" fill="#30f2d4"/>
    <path id="Trazado_288" data-name="Trazado 288" d="M75.75,8.01,44.26,31.917a7.645,7.645,0,0,1-8.515,0L4.25,8.01C1.913,6.238,0,7.188,0,10.12V49.346a5.35,5.35,0,0,0,5.333,5.333H74.667A5.35,5.35,0,0,0,80,49.346V10.12C80,7.188,78.087,6.238,75.75,8.01Z" transform="translate(0 1.321)" fill="#30f2d4"/>
  </g>
</svg>
