<svg xmlns="http://www.w3.org/2000/svg" xmlns:xlink="http://www.w3.org/1999/xlink" width="1920" height="983" viewBox="0 0 1920 983">
  <defs>
    <clipPath id="clip-path">
      <rect id="Rect치ngulo_390" data-name="Rect치ngulo 390" width="1920" height="983" fill="#bef7ff"/>
    </clipPath>
  </defs>
  <g id="Enmascarar_grupo_9" data-name="Enmascarar grupo 9" clip-path="url(#clip-path)">
    <g id="Grupo_874" data-name="Grupo 874" transform="translate(2081.706 -285.886) rotate(90)">
      <rect id="Rect치ngulo_185" data-name="Rect치ngulo 185" width="257.884" height="274.149" transform="translate(75.559 579.018)" fill="#69debc"/>
      <path id="Trazado_2296" data-name="Trazado 2296" d="M0,0,257.884,274.15H0Z" transform="translate(75.559 579.018)" fill="#6140ff"/>
      <path id="Trazado_2297" data-name="Trazado 2297" d="M0,0,108.88,115.747H0Z" transform="translate(321.417 330.803)" fill="#6140ff"/>
      <path id="Trazado_2298" data-name="Trazado 2298" d="M0,0,108.953,115.825H0Z" transform="translate(407.012 239.732)" fill="#6140ff"/>
      <path id="Trazado_2315" data-name="Trazado 2315" d="M0,0,108.953,115.825H0Z" transform="translate(238.417 94.97)" fill="#6140ff"/>
      <path id="Trazado_2299" data-name="Trazado 2299" d="M0,0,108.879,115.747H0Z" transform="translate(492.68 148.738)" fill="#69debc"/>
      <path id="Trazado_2300" data-name="Trazado 2300" d="M0,0,108.88,115.747H0Z" transform="translate(590.43 1818.387)" fill="#6140ff"/>
      <path id="Trazado_2301" data-name="Trazado 2301" d="M108.953,115.747,0,0H108.953Z" transform="translate(1060.948 428.258)" fill="#69debc"/>
      <path id="Trazado_2302" data-name="Trazado 2302" d="M108.952,115.825,0,0H108.952Z" transform="translate(1150.424 333.139)" fill="#6140ff"/>
      <path id="Trazado_2303" data-name="Trazado 2303" d="M108.953,115.825,0,0H108.953Z" transform="translate(610.419 446.55)" fill="#69debc"/>
      <path id="Trazado_2304" data-name="Trazado 2304" d="M0,0,108.953,115.824H0Z" transform="translate(754.61 1712.729)" fill="#69debc"/>
      <g id="Grupo_869" data-name="Grupo 869" transform="translate(461.488 722.723)">
        <path id="Trazado_2305" data-name="Trazado 2305" d="M257.884,0c0,75.582-57.845,137.075-128.942,137.075a121.9,121.9,0,0,1-38.88-6.383h0A127.979,127.979,0,0,1,35.439,94.263,141.132,141.132,0,0,1,0,0Z" fill="#6140ff"/>
      </g>
      <g id="Grupo_870" data-name="Grupo 870" transform="translate(461.488 919.034)">
        <path id="Trazado_2306" data-name="Trazado 2306" d="M0,137.075C0,61.493,57.845,0,128.942,0a121.9,121.9,0,0,1,38.88,6.383h0a127.976,127.976,0,0,1,54.623,36.429,141.131,141.131,0,0,1,35.439,94.263Z" fill="#6140ff"/>
      </g>
      <g id="Grupo_871" data-name="Grupo 871" transform="translate(461.488 1115.344)">
        <path id="Trazado_2307" data-name="Trazado 2307" d="M0,137.075C0,61.493,57.845,0,128.942,0a121.9,121.9,0,0,1,38.88,6.383h0a127.976,127.976,0,0,1,54.623,36.429,141.131,141.131,0,0,1,35.439,94.263Z" fill="#69debc"/>
      </g>
      <g id="Grupo_872" data-name="Grupo 872" transform="translate(461.488 1317.959)">
        <path id="Trazado_2308" data-name="Trazado 2308" d="M0,137.075C0,61.493,57.845,0,128.942,0a121.893,121.893,0,0,1,38.88,6.383h0a127.982,127.982,0,0,1,54.623,36.429,141.131,141.131,0,0,1,35.439,94.263Z" fill="#69debc"/>
      </g>
      <g id="Grupo_873" data-name="Grupo 873" transform="translate(986.482 1846.721)">
        <path id="Trazado_2309" data-name="Trazado 2309" d="M257.884,0c0,75.582-57.844,137.075-128.942,137.075a121.894,121.894,0,0,1-38.88-6.383h0A127.985,127.985,0,0,1,35.439,94.264,141.133,141.133,0,0,1,0,0Z" fill="#69debc"/>
      </g>
      <path id="Trazado_2310" data-name="Trazado 2310" d="M505.883,0V292.675H313.605V508.99H0V216.315L192.278,0Z" transform="translate(1040.439 722.723)" fill="#69debc"/>
      <path id="Trazado_2311" data-name="Trazado 2311" d="M0,216.315,192.351,0H0Z" transform="translate(1354.044 1015.399)" fill="#6140ff"/>
      <path id="Trazado_2312" data-name="Trazado 2312" d="M279.855.034,0,7.824,136.282,152.66Z" transform="matrix(0.999, 0.035, -0.035, 0.999, 1220.914, 0)" fill="#6140ff"/>
      <path id="Trazado_2652" data-name="Trazado 2652" d="M0,0,230.216,7.038l7.038,230.216L7.038,230.216Z" transform="translate(1340.562 1399.442) rotate(45)" fill="#69debc"/>
      <path id="Trazado_2653" data-name="Trazado 2653" d="M0,0,156.2,4.775l4.775,156.2L4.775,156.2Z" transform="translate(1217.427 1605.523) rotate(45)" fill="#6140ff"/>
      <path id="Trazado_2314" data-name="Trazado 2314" d="M0,0,278.02,295.555H0Z" transform="translate(155.644 1786.473)" fill="#69debc"/>
      <path id="Trazado_2654" data-name="Trazado 2654" d="M12.031,3.46l120.7-3.69-12.76,417.379-120.7,3.69Z" transform="translate(53.036 1384.167) rotate(-45)" fill="#6140ff"/>
      <path id="Trazado_2655" data-name="Trazado 2655" d="M3.38,1.813,66.447-.115l-3.586,117.3L-.206,119.111Z" transform="translate(242.341 1340.363) rotate(-45)" fill="#69debc"/>
      <path id="Trazado_2656" data-name="Trazado 2656" d="M10.121,1.8,73.189-.127,62.456,350.937-.611,352.865Z" transform="translate(0 971.086) rotate(-45)" fill="#69debc"/>
      <path id="Trazado_2657" data-name="Trazado 2657" d="M10.121,1.8,73.189-.127,62.456,350.937-.611,352.865Z" transform="translate(810.136 463.753) rotate(-45)" fill="#6140ff"/>
      <path id="Trazado_2658" data-name="Trazado 2658" d="M2.676,1.814,65.744-.114l-2.84,92.9L-.164,94.716Z" transform="translate(291.239 1059.297) rotate(-45)" fill="#6140ff"/>
      <path id="Trazado_2659" data-name="Trazado 2659" d="M2.676,1.814,65.744-.114l-2.84,92.9L-.164,94.716Z" transform="translate(787.893 590.587) rotate(-45)" fill="#69debc"/>
      <path id="Trazado_2660" data-name="Trazado 2660" d="M.437.437,15.619-.027l-.464,15.182-15.182.464Z" transform="translate(875.267 1329.065) rotate(-45)" fill="#69debc"/>
      <path id="Trazado_2661" data-name="Trazado 2661" d="M.437.437,15.619-.027l-.464,15.182-15.182.464Z" transform="translate(1029.054 1430.549) rotate(-45)" fill="#6140ff"/>
      <path id="Trazado_2662" data-name="Trazado 2662" d="M.437.437,15.619-.027l-.464,15.182-15.182.464Z" transform="translate(935.215 1785.23) rotate(-45)" fill="#6140ff"/>
      <path id="Trazado_2663" data-name="Trazado 2663" d="M.437.437,15.619-.027l-.464,15.182-15.182.464Z" transform="translate(433.051 1909.932) rotate(-45)" fill="#69debc"/>
      <path id="Trazado_2664" data-name="Trazado 2664" d="M.437.437,15.619-.027l-.464,15.182-15.182.464Z" transform="translate(745.061 1115.366) rotate(-45)" fill="#69debc"/>
      <path id="Trazado_2665" data-name="Trazado 2665" d="M.437.437,15.619-.027l-.464,15.182-15.182.464Z" transform="translate(779.749 1386.479) rotate(-45)" fill="#69debc"/>
      <path id="Trazado_2666" data-name="Trazado 2666" d="M.437.437,15.619-.027l-.464,15.182-15.182.464Z" transform="translate(633.868 614.795) rotate(-45)" fill="#69debc"/>
      <path id="Trazado_2667" data-name="Trazado 2667" d="M.437.437,15.619-.027l-.464,15.182-15.182.464Z" transform="translate(653.832 163.273) rotate(-45)" fill="#6140ff"/>
      <path id="Trazado_2668" data-name="Trazado 2668" d="M.437.437,15.619-.027l-.464,15.182-15.182.464Z" transform="translate(1158.894 636.191) rotate(-45)" fill="#6140ff"/>
      <path id="Trazado_2669" data-name="Trazado 2669" d="M.437.437,15.619-.027l-.464,15.182-15.182.464Z" transform="translate(665.029 1600.838) rotate(-45)" fill="#69debc"/>
      <path id="Trazado_2670" data-name="Trazado 2670" d="M.437.437,15.619-.027l-.464,15.182-15.182.464Z" transform="translate(817.387 1945.305) rotate(-45)" fill="#69debc"/>
      <path id="Trazado_2671" data-name="Trazado 2671" d="M.437.437,15.619-.027l-.464,15.182-15.182.464Z" transform="translate(1183.453 1338.875) rotate(-45)" fill="#69debc"/>
      <path id="Trazado_2672" data-name="Trazado 2672" d="M.437.437,15.619-.027l-.464,15.182-15.182.464Z" transform="translate(293.378 1785.259) rotate(-45)" fill="#6140ff"/>
      <path id="Trazado_2673" data-name="Trazado 2673" d="M.437.437,15.619-.027l-.464,15.182-15.182.464Z" transform="translate(310.376 919.068) rotate(-45)" fill="#fe564a"/>
      <path id="Trazado_2674" data-name="Trazado 2674" d="M.437.437,15.619-.027l-.464,15.182-15.182.464Z" transform="translate(196.825 264.493) rotate(-45)" fill="#69debc"/>
      <path id="Trazado_2675" data-name="Trazado 2675" d="M.437.437,15.619-.027l-.464,15.182-15.182.464Z" transform="translate(237.34 463.329) rotate(-45)" fill="#69debc"/>
      <path id="Trazado_2676" data-name="Trazado 2676" d="M.437.437,15.619-.027l-.464,15.182-15.182.464Z" transform="translate(492 585.62) rotate(-45)" fill="#6140ff"/>
      <path id="Trazado_2677" data-name="Trazado 2677" d="M.437.437,15.619-.027l-.464,15.182-15.182.464Z" transform="translate(653.834 319.727) rotate(-45)" fill="#69debc"/>
      <path id="Trazado_2678" data-name="Trazado 2678" d="M.437.437,15.619-.027l-.464,15.182-15.182.464Z" transform="translate(998.619 275.564) rotate(-45)" fill="#fe564a"/>
      <path id="Trazado_2679" data-name="Trazado 2679" d="M.437.437,15.619-.027l-.464,15.182-15.182.464Z" transform="translate(1102 138.087) rotate(-45)" fill="#6140ff"/>
      <path id="Trazado_2680" data-name="Trazado 2680" d="M.437.437,15.619-.027l-.464,15.182-15.182.464Z" transform="translate(1248.335 573.481) rotate(-45)" fill="#69debc"/>
      <path id="Trazado_2681" data-name="Trazado 2681" d="M0,0,36.405,1.113l4.237,138.6L4.237,138.6Z" transform="translate(387.548 1834.038) rotate(-135)" fill="#6140ff"/>
      <path id="Trazado_2682" data-name="Trazado 2682" d="M0,0,36.405,1.113l4.237,138.6L4.237,138.6Z" transform="translate(493.547 1669.119) rotate(-135)" fill="#69debc"/>
      <path id="Trazado_2683" data-name="Trazado 2683" d="M0,0,36.405,1.113l3.4,111.18L3.4,111.18Z" transform="translate(926.16 1601.79) rotate(-135)" fill="#6140ff"/>
      <path id="Trazado_2684" data-name="Trazado 2684" d="M0,0,36.405,1.113,42.839,211.54,6.433,210.427Z" transform="translate(1244.502 1436.529) rotate(-135)" fill="#69debc"/>
      <path id="Trazado_2685" data-name="Trazado 2685" d="M0,0,45.7,1.4l1.4,45.7L1.4,45.7Z" transform="translate(1111.427 1344.085) rotate(45)" fill="#6140ff"/>
    </g>
  </g>
</svg>
