<svg xmlns="http://www.w3.org/2000/svg" xmlns:xlink="http://www.w3.org/1999/xlink" width="1920" height="960" viewBox="0 0 1920 960">
  <defs>
    <clipPath id="clip-path">
      <rect id="Rectángulo_397" data-name="Rectángulo 397" width="1920" height="960" transform="translate(0 120)" fill="none" stroke="#707070" stroke-width="1"/>
    </clipPath>
  </defs>
  <g id="Enmascarar_grupo_19" data-name="Enmascarar grupo 19" transform="translate(0 -120)" clip-path="url(#clip-path)">
    <g id="Grupo_1104" data-name="Grupo 1104" transform="matrix(-0.259, -0.966, 0.966, -0.259, 1482.275, 2198.352)">
      <rect id="Rectángulo_185" data-name="Rectángulo 185" width="229.415" height="229.415" transform="translate(855.598 598.378)" fill="#69debc"/>
      <path id="Trazado_2296" data-name="Trazado 2296" d="M147,640.9,376.415,870.315H147Z" transform="translate(708.598 -42.52)" fill="#6140ff"/>
      <path id="Trazado_2297" data-name="Trazado 2297" d="M351.6,313.5l96.86,96.86H351.6Z" transform="translate(1105.139 -49.33)" fill="#5c3cf3"/>
      <path id="Trazado_2298" data-name="Trazado 2298" d="M468.5,196.5l96.925,96.925H468.5Z" transform="translate(1881.888 458.44) rotate(150)" fill="#5c3cf3"/>
      <path id="Trazado_2315" data-name="Trazado 2315" d="M468.5,196.5l96.925,96.925H468.5Z" transform="translate(730.353 -118.95)" fill="#6140ff"/>
      <path id="Trazado_2299" data-name="Trazado 2299" d="M585.5,79.6l96.86,96.86H585.5Z" transform="translate(1023.596 32.214)" fill="#69debc"/>
      <path id="Trazado_2300" data-name="Trazado 2300" d="M719,2224.6l96.86,96.86H719Z" transform="translate(977.055 -715.579)" fill="#5c3cf3"/>
      <path id="Trazado_2301" data-name="Trazado 2301" d="M1458.525,535.56,1361.6,438.7h96.925Z" transform="translate(753.03 -92.975)" fill="#69debc"/>
      <path id="Trazado_2302" data-name="Trazado 2302" d="M1580.725,413.425,1483.8,316.5h96.925Z" transform="translate(710.429 -50.376)" fill="#5c3cf3"/>
      <path id="Trazado_2303" data-name="Trazado 2303" d="M843.225,559.125,746.3,462.2h96.925Z" transform="translate(967.538 -101.167)" fill="#69debc"/>
      <path id="Trazado_2304" data-name="Trazado 2304" d="M835.9,2107.6l96.925,96.925H835.9Z" transform="translate(1006.21 -687)" fill="#69debc"/>
      <path id="Trazado_2639" data-name="Trazado 2639" d="M0,0,96.925,96.925H0Z" transform="translate(1332.688 1300.524) rotate(60)" fill="#6140ff"/>
      <g id="Grupo_869" data-name="Grupo 869" transform="translate(1801.528 556.886)">
        <path id="Trazado_2305" data-name="Trazado 2305" d="M772.315,817a114.7,114.7,0,0,1-149.3,109.366h0A115.014,115.014,0,0,1,542.9,817Z" transform="translate(-542.9 -817)" fill="#5c3cf3"/>
      </g>
      <g id="Grupo_870" data-name="Grupo 870" transform="translate(1848.71 756.417)">
        <path id="Trazado_2306" data-name="Trazado 2306" d="M542.9,1183.908a114.7,114.7,0,0,1,149.3-109.367h0a115.015,115.015,0,0,1,80.12,109.367Z" transform="translate(-542.9 -1069.2)" fill="#6140ff"/>
      </g>
      <g id="Grupo_871" data-name="Grupo 871" transform="translate(1848.71 920.693)">
        <path id="Trazado_2307" data-name="Trazado 2307" d="M542.9,1436.108a114.7,114.7,0,0,1,149.3-109.366h0a115.013,115.013,0,0,1,80.12,109.366Z" transform="translate(-542.9 -1321.4)" fill="#69debc"/>
      </g>
      <g id="Grupo_872" data-name="Grupo 872" transform="translate(1749.576 1090.248)">
        <path id="Trazado_2308" data-name="Trazado 2308" d="M542.9,1696.407a114.7,114.7,0,0,1,149.3-109.366h0a115.013,115.013,0,0,1,80.12,109.366Z" transform="translate(-542.9 -1581.7)" fill="#6140ff"/>
      </g>
      <g id="Grupo_873" data-name="Grupo 873" transform="translate(2048.386 1532.729)">
        <path id="Trazado_2309" data-name="Trazado 2309" d="M1489.315,2261a114.7,114.7,0,0,1-149.3,109.366h0A115.015,115.015,0,0,1,1259.9,2261Z" transform="translate(-1259.9 -2261)" fill="#69debc"/>
      </g>
      <path id="Trazado_2310" data-name="Trazado 2310" d="M1502.537,817v244.918H1331.485v181.018H1052.5V998.018L1223.552,817Z" transform="translate(1043.886 -224.86)" fill="#69debc"/>
      <path id="Trazado_2312" data-name="Trazado 2312" d="M248.957,0,0,7.035,120.961,128Z" transform="matrix(0.999, 0.035, -0.035, 0.999, 2256.941, -13.141)" fill="#fff"/>
      <rect id="Rectángulo_186" data-name="Rectángulo 186" width="198.54" height="198.54" transform="translate(2363.377 1158.435) rotate(45)" fill="#5c3cf3"/>
      <rect id="Rectángulo_187" data-name="Rectángulo 187" width="134.705" height="134.705" transform="translate(2253.836 1330.889) rotate(45)" fill="#69debc"/>
      <path id="Trazado_2314" data-name="Trazado 2314" d="M0,0,188.861,188.861H0Z" transform="translate(1262.076 1622.79) rotate(90)" fill="#69debc"/>
      <rect id="Rectángulo_189" data-name="Rectángulo 189" width="53.982" height="186.604" transform="translate(1075.486 1013.736) rotate(-45)" fill="#6140ff"/>
      <rect id="Rectángulo_190" data-name="Rectángulo 190" width="54.39" height="101.159" transform="translate(1389.659 1108.07) rotate(-45)" fill="#69debc"/>
      <rect id="Rectángulo_191" data-name="Rectángulo 191" width="54.39" height="302.76" transform="translate(1484.721 910.71) rotate(-45)" fill="#69debc"/>
      <rect id="Rectángulo_192" data-name="Rectángulo 192" width="54.39" height="302.76" transform="translate(2016.398 241.491) rotate(-45)" fill="#5c3cf3"/>
      <rect id="Rectángulo_193" data-name="Rectángulo 193" width="54.39" height="80.119" transform="translate(1655.018 873.282) rotate(-45)" fill="#6140ff"/>
      <rect id="Rectángulo_194" data-name="Rectángulo 194" width="54.39" height="80.119" transform="translate(1996.714 341.933) rotate(-45)" fill="#69debc"/>
      <rect id="Rectángulo_195" data-name="Rectángulo 195" width="13.093" height="13.093" transform="translate(1949.998 1099.542) rotate(-45)" fill="#69debc"/>
      <rect id="Rectángulo_384" data-name="Rectángulo 384" width="13.093" height="13.093" transform="translate(987.673 720.865) rotate(-45)" fill="#69debc"/>
      <rect id="Rectángulo_196" data-name="Rectángulo 196" width="13.093" height="13.093" transform="translate(2086.807 1184.466) rotate(-45)" fill="#6140ff"/>
      <rect id="Rectángulo_382" data-name="Rectángulo 382" width="13.093" height="13.093" transform="translate(1400.766 1685.153) rotate(-45)" fill="#6140ff"/>
      <rect id="Rectángulo_197" data-name="Rectángulo 197" width="13.093" height="13.093" transform="translate(2003.327 1481.272) rotate(-45)" fill="#6140ff"/>
      <rect id="Rectángulo_198" data-name="Rectángulo 198" width="13.093" height="13.093" transform="translate(1556.599 1585.626) rotate(-45)" fill="#69debc"/>
      <rect id="Rectángulo_199" data-name="Rectángulo 199" width="13.093" height="13.093" transform="translate(1834.166 920.714) rotate(-45)" fill="#69debc"/>
      <rect id="Rectángulo_200" data-name="Rectángulo 200" width="13.093" height="13.093" transform="translate(1865.024 1147.586) rotate(-45)" fill="#69debc"/>
      <rect id="Rectángulo_201" data-name="Rectángulo 201" width="13.093" height="13.093" transform="translate(1202.796 387.104) rotate(-45)" fill="#69debc"/>
      <rect id="Rectángulo_202" data-name="Rectángulo 202" width="13.093" height="13.093" transform="translate(1753.007 123.976) rotate(-45)" fill="#6140ff"/>
      <rect id="Rectángulo_203" data-name="Rectángulo 203" width="13.093" height="13.093" transform="translate(2202.314 519.728) rotate(-45)" fill="#6140ff"/>
      <rect id="Rectángulo_204" data-name="Rectángulo 204" width="13.093" height="13.093" transform="translate(1762.968 1326.969) rotate(-45)" fill="#69debc"/>
      <rect id="Rectángulo_383" data-name="Rectángulo 383" width="13.093" height="13.093" transform="translate(924.656 1426.811) rotate(-45)" fill="#69debc"/>
      <rect id="Rectángulo_205" data-name="Rectángulo 205" width="13.093" height="13.093" transform="translate(1898.507 1615.228) rotate(-45)" fill="#69debc"/>
      <rect id="Rectángulo_206" data-name="Rectángulo 206" width="13.093" height="13.093" transform="translate(2224.161 1107.75) rotate(-45)" fill="#69debc"/>
      <rect id="Rectángulo_207" data-name="Rectángulo 207" width="13.093" height="13.093" transform="translate(1432.346 1481.296) rotate(-45)" fill="#6140ff"/>
      <rect id="Rectángulo_208" data-name="Rectángulo 208" width="13.093" height="13.093" transform="translate(1447.467 756.446) rotate(-45)" fill="#69debc"/>
      <rect id="Rectángulo_209" data-name="Rectángulo 209" width="13.093" height="13.093" transform="translate(1346.452 208.68) rotate(-45)" fill="#69debc"/>
      <rect id="Rectángulo_210" data-name="Rectángulo 210" width="13.093" height="13.093" transform="translate(1382.494 375.072) rotate(-45)" fill="#69debc"/>
      <rect id="Rectángulo_211" data-name="Rectángulo 211" width="13.093" height="13.093" transform="translate(1609.041 477.407) rotate(-45)" fill="#6140ff"/>
      <rect id="Rectángulo_212" data-name="Rectángulo 212" width="13.093" height="13.093" transform="translate(1169.301 663.759) rotate(-45)" fill="#69debc"/>
      <rect id="Rectángulo_213" data-name="Rectángulo 213" width="13.093" height="13.093" transform="translate(1884.291 625.422) rotate(-45)" fill="#fff"/>
      <rect id="Rectángulo_214" data-name="Rectángulo 214" width="13.093" height="13.093" transform="translate(2151.701 102.901) rotate(-45)" fill="#6140ff"/>
      <rect id="Rectángulo_216" data-name="Rectángulo 216" width="31.396" height="119.528" transform="translate(1515.57 1522.116) rotate(-135)" fill="#6140ff"/>
      <rect id="Rectángulo_217" data-name="Rectángulo 217" width="31.396" height="119.528" transform="translate(1609.867 1384.108) rotate(-135)" fill="#69debc"/>
      <rect id="Rectángulo_218" data-name="Rectángulo 218" width="31.396" height="95.883" transform="translate(1994.722 1327.765) rotate(-135)" fill="#5c3cf3"/>
      <rect id="Rectángulo_219" data-name="Rectángulo 219" width="31.396" height="181.474" transform="translate(2277.922 1189.47) rotate(-135)" fill="#69debc"/>
      <rect id="Rectángulo_220" data-name="Rectángulo 220" width="39.408" height="39.408" transform="translate(2159.537 1112.109) rotate(45)" fill="#5c3cf3"/>
      <path id="Trazado_2311" data-name="Trazado 2311" d="M1480.8,1374.017,1651.917,1193H1480.8Z" transform="translate(894.571 -355.943)" fill="#5c3cf3"/>
      <rect id="Rectángulo_215" data-name="Rectángulo 215" width="13.093" height="13.093" transform="translate(2281.882 467.251) rotate(-45)" fill="#69debc"/>
    </g>
  </g>
</svg>
