<svg xmlns="http://www.w3.org/2000/svg" xmlns:xlink="http://www.w3.org/1999/xlink" width="1920" height="960" viewBox="0 0 1920 960">
  <defs>
    <clipPath id="clip-path">
      <rect id="Rectángulo_397" data-name="Rectángulo 397" width="1920" height="960" transform="translate(0 120)" fill="none" stroke="#707070" stroke-width="1"/>
    </clipPath>
  </defs>
  <g id="Enmascarar_grupo_19" data-name="Enmascarar grupo 19" transform="translate(0 -120)" clip-path="url(#clip-path)">
    <g id="Grupo_1086" data-name="Grupo 1086" transform="translate(1447.234 1161.246) rotate(-120)">
      <g id="Grupo_863" data-name="Grupo 863" transform="translate(389.285 572.161)">
        <path id="Trazado_2257" data-name="Trazado 2257" d="M0,0V76.074H74.994" transform="translate(67.149 0)" fill="none" stroke="#fff28b" stroke-miterlimit="10" stroke-width="11.339"/>
        <line id="Línea_107" data-name="Línea 107" x1="67.149" y2="67.149" transform="translate(0 76.073)" fill="none" stroke="#fff28b" stroke-miterlimit="10" stroke-width="11.339"/>
      </g>
      <g id="Grupo_865" data-name="Grupo 865" transform="translate(459.313 101.758)">
        <path id="Trazado_2259" data-name="Trazado 2259" d="M106.805,53.762,53.043,0,0,53.043" transform="translate(0 95.002)" fill="none" stroke="#fff28b" stroke-miterlimit="10" stroke-width="11.339"/>
        <line id="Línea_109" data-name="Línea 109" y1="95.002" transform="translate(53.043)" fill="none" stroke="#fff28b" stroke-miterlimit="10" stroke-width="11.339"/>
      </g>
      <g id="Grupo_866" data-name="Grupo 866" transform="translate(868.181 903.876)">
        <path id="Trazado_2260" data-name="Trazado 2260" d="M76,0V57.577H0" transform="translate(0 0)" fill="none" stroke="#fff28b" stroke-miterlimit="10" stroke-width="11.339"/>
        <line id="Línea_110" data-name="Línea 110" x2="67.149" y2="67.221" transform="translate(76.001 57.577)" fill="none" stroke="#fff28b" stroke-miterlimit="10" stroke-width="11.339"/>
      </g>
      <path id="Trazado_2261" data-name="Trazado 2261" d="M0,69.092H83.2V155.53L238.728,0" transform="translate(501.201 541.142)" fill="none" stroke="#00c691" stroke-miterlimit="10" stroke-width="11.339"/>
      <circle id="Elipse_136" data-name="Elipse 136" cx="14.034" cy="14.034" r="14.034" transform="translate(594.907 771.593)" fill="#00c691" stroke="#707070" stroke-width="1"/>
      <circle id="Elipse_137" data-name="Elipse 137" cx="36.921" cy="36.921" r="36.921" transform="translate(713.227 903.876)" fill="none" stroke="#fff28b" stroke-miterlimit="10" stroke-width="11.339"/>
      <circle id="Elipse_138" data-name="Elipse 138" cx="22.239" cy="22.239" r="22.239" transform="translate(352.436 882.069)" fill="none" stroke="#00c691" stroke-miterlimit="10" stroke-width="11.339"/>
      <circle id="Elipse_139" data-name="Elipse 139" cx="22.239" cy="22.239" r="22.239" transform="translate(269.166 554.456)" fill="none" stroke="#00c691" stroke-miterlimit="10" stroke-width="11.339"/>
      <circle id="Elipse_140" data-name="Elipse 140" cx="5.254" cy="5.254" r="5.254" transform="translate(493.284 722.293)" fill="#fff28b" stroke="#707070" stroke-width="1"/>
      <circle id="Elipse_141" data-name="Elipse 141" cx="5.254" cy="5.254" r="5.254" transform="translate(295.003 722.293)" fill="#fff28b" stroke="#707070" stroke-width="1"/>
      <circle id="Elipse_142" data-name="Elipse 142" cx="5.254" cy="5.254" r="5.254" transform="translate(194.963 965.843)" fill="#fff" stroke="#707070" stroke-width="1"/>
      <circle id="Elipse_143" data-name="Elipse 143" cx="5.254" cy="5.254" r="5.254" transform="translate(440.457 1241.133)" fill="#fff28b" stroke="#707070" stroke-width="1"/>
      <circle id="Elipse_144" data-name="Elipse 144" cx="5.254" cy="5.254" r="5.254" transform="translate(829.965 1101.221)" fill="#fff" stroke="#707070" stroke-width="1"/>
      <circle id="Elipse_145" data-name="Elipse 145" cx="5.254" cy="5.254" r="5.254" transform="translate(701.928 1551.4)" fill="rgba(0,0,0,0)" stroke="#707070" stroke-width="1"/>
      <circle id="Elipse_146" data-name="Elipse 146" cx="5.254" cy="5.254" r="5.254" transform="translate(1083.447 1301.229)" fill="#fff" stroke="#707070" stroke-width="1"/>
      <circle id="Elipse_148" data-name="Elipse 148" cx="5.254" cy="5.254" r="5.254" transform="translate(573.675 1018.094)" fill="#fff28b" stroke="#707070" stroke-width="1"/>
      <circle id="Elipse_150" data-name="Elipse 150" cx="5.254" cy="5.254" r="5.254" transform="translate(1130.948 786.707)" fill="#fff28b" stroke="#707070" stroke-width="1"/>
      <circle id="Elipse_151" data-name="Elipse 151" cx="5.254" cy="5.254" r="5.254" transform="translate(1066.246 995.064)" fill="#fff" stroke="#707070" stroke-width="1"/>
      <circle id="Elipse_152" data-name="Elipse 152" cx="5.254" cy="5.254" r="5.254" transform="translate(691.42 1839.86)" fill="#fff" stroke="#707070" stroke-width="1"/>
      <circle id="Elipse_153" data-name="Elipse 153" cx="5.254" cy="5.254" r="5.254" transform="translate(701.928 276.072)" fill="#00c691" stroke="#707070" stroke-width="1"/>
      <circle id="Elipse_154" data-name="Elipse 154" cx="5.254" cy="5.254" r="5.254" transform="translate(795.634 458.087)" fill="#fff" stroke="#707070" stroke-width="1"/>
      <circle id="Elipse_155" data-name="Elipse 155" cx="5.254" cy="5.254" r="5.254" transform="translate(549.349 417.639)" fill="#00c691" stroke="#707070" stroke-width="1"/>
      <circle id="Elipse_156" data-name="Elipse 156" cx="5.254" cy="5.254" r="5.254" transform="translate(189.638 186.972)" fill="#00c691" stroke="#707070" stroke-width="1"/>
      <circle id="Elipse_157" data-name="Elipse 157" cx="5.254" cy="5.254" r="5.254" transform="translate(589.653 530.922)" fill="#00c691" stroke="#707070" stroke-width="1"/>
      <circle id="Elipse_158" data-name="Elipse 158" cx="5.254" cy="5.254" r="5.254" transform="translate(762.6 659.822)" fill="#00c691" stroke="#707070" stroke-width="1"/>
      <circle id="Elipse_159" data-name="Elipse 159" cx="5.254" cy="5.254" r="5.254" transform="translate(1132.675 1193.848)" fill="#fff28b" stroke="#707070" stroke-width="1"/>
      <circle id="Elipse_162" data-name="Elipse 162" cx="5.254" cy="5.254" r="5.254" transform="translate(540.857 1745.507)" fill="#00c691" stroke="#707070" stroke-width="1"/>
      <circle id="Elipse_163" data-name="Elipse 163" cx="5.254" cy="5.254" r="5.254" transform="translate(666.014 1078.19)" fill="#00c691" stroke="#707070" stroke-width="1"/>
      <circle id="Elipse_164" data-name="Elipse 164" cx="5.254" cy="5.254" r="5.254" transform="translate(1176.506 977.719)" fill="#00c691" stroke="#707070" stroke-width="1"/>
      <circle id="Elipse_167" data-name="Elipse 167" cx="5.254" cy="5.254" r="5.254" transform="translate(841.12 821.973)" fill="#00c691" stroke="#707070" stroke-width="1"/>
      <circle id="Elipse_168" data-name="Elipse 168" cx="5.254" cy="5.254" r="5.254" transform="translate(1165.926 710.13)" fill="#00c691" stroke="#707070" stroke-width="1"/>
      <circle id="Elipse_169" data-name="Elipse 169" cx="5.254" cy="5.254" r="5.254" transform="translate(228.07 466.004)" fill="#00c691" stroke="#707070" stroke-width="1"/>
      <g id="Grupo_867" data-name="Grupo 867" transform="translate(868.181 828.882)">
        <path id="Trazado_2262" data-name="Trazado 2262" d="M0,74.994H76V0" fill="none" stroke="#00c691" stroke-miterlimit="10" stroke-width="11.339"/>
        <line id="Línea_111" data-name="Línea 111" x2="67.149" y2="67.221" transform="translate(76.001 74.994)" fill="none" stroke="#00c691" stroke-miterlimit="10" stroke-width="11.339"/>
      </g>
      <rect id="Rectángulo_181" data-name="Rectángulo 181" width="17.417" height="171.579" transform="translate(729.795 785.198) rotate(45)" fill="#00c691" stroke="#707070" stroke-width="1"/>
      <path id="Trazado_2263" data-name="Trazado 2263" d="M0,160.352,151.139,9.212l87.805,87.8L335.961,0" transform="translate(835.219 567.195)" fill="none" stroke="#fff28b" stroke-miterlimit="10" stroke-width="11.339"/>
      <path id="Trazado_2265" data-name="Trazado 2265" d="M0,0,62.9,125.661,129.98,58.584Z" transform="translate(103.344 1029.106)" fill="#fff28b" stroke="#707070" stroke-width="1"/>
      <path id="Trazado_2266" data-name="Trazado 2266" d="M36.705,0,0,110.26H78.521Z" transform="translate(401.161 315.872)" fill="#fff28b" stroke="#707070" stroke-width="1"/>
      <path id="Trazado_2267" data-name="Trazado 2267" d="M36.705,0,0,110.332H78.521Z" transform="translate(401.161 378.487)" fill="none" stroke="#00c691" stroke-miterlimit="10" stroke-width="11.339"/>
      <path id="Trazado_2641" data-name="Trazado 2641" d="M110.556,0,0,332.318H236.5Z" transform="translate(1098.595 1412.551) rotate(-135)" fill="none" stroke="#00c691" stroke-miterlimit="10" stroke-width="11.339"/>
      <line id="Línea_112" data-name="Línea 112" x1="186.693" y2="186.765" transform="translate(73.548 236.128)" fill="none" stroke="#00c691" stroke-miterlimit="10" stroke-width="11.339"/>
      <line id="Línea_113" data-name="Línea 113" x1="186.693" y2="186.693" transform="translate(39.362 343.437)" fill="none" stroke="#fff28b" stroke-miterlimit="10" stroke-width="11.339"/>
      <circle id="Elipse_170" data-name="Elipse 170" cx="6.693" cy="6.693" r="6.693" transform="translate(325.591 309.179)" fill="#fff28b" stroke="#707070" stroke-width="1"/>
      <circle id="Elipse_171" data-name="Elipse 171" cx="6.693" cy="6.693" r="6.693" transform="translate(1207.309 189.923)" fill="#fff28b" stroke="#707070" stroke-width="1"/>
      <circle id="Elipse_172" data-name="Elipse 172" cx="6.693" cy="6.693" r="6.693" transform="translate(868.181 229.435)" fill="#fff28b" stroke="#707070" stroke-width="1"/>
      <circle id="Elipse_173" data-name="Elipse 173" cx="6.693" cy="6.693" r="6.693" transform="translate(971.028 439.015)" fill="#fff28b" stroke="#707070" stroke-width="1"/>
      <circle id="Elipse_174" data-name="Elipse 174" cx="53.906" cy="53.906" r="53.906" transform="translate(1002.141 74.538)" fill="#fff28b" stroke="#707070" stroke-width="1"/>
      <circle id="Elipse_287" data-name="Elipse 287" cx="211.914" cy="211.914" r="211.914" transform="translate(-146.873 -394.919)" fill="#fff28b" stroke="#707070" stroke-width="1"/>
      <circle id="Elipse_175" data-name="Elipse 175" cx="53.906" cy="53.906" r="53.906" transform="translate(1082.316 74.538)" fill="#00c691" stroke="#707070" stroke-width="1"/>
      <path id="Trazado_2268" data-name="Trazado 2268" d="M244.414,83.271,172.371,11.227,91.835,91.763,0,0" transform="translate(611.964 326.092)" fill="none" stroke="#00c691" stroke-miterlimit="10" stroke-width="11.339"/>
      <path id="Trazado_2269" data-name="Trazado 2269" d="M0,0,84.926,84.926l66.645-66.573,63.55,63.55" transform="translate(835.219 331.346)" fill="none" stroke="#fff28b" stroke-miterlimit="10" stroke-width="11.339"/>
      <line id="Línea_114" data-name="Línea 114" y2="97.377" transform="translate(920.144 416.272)" fill="none" stroke="#fff28b" stroke-miterlimit="10" stroke-width="11.339"/>
      <circle id="Elipse_176" data-name="Elipse 176" cx="22.527" cy="22.527" r="22.527" transform="translate(1043.647 491.122)" fill="none" stroke="#00c691" stroke-miterlimit="10" stroke-width="11.339"/>
      <path id="Trazado_2270" data-name="Trazado 2270" d="M0,0H68.3V64.342" transform="translate(1080.136 445.708)" fill="none" stroke="#00c691" stroke-miterlimit="10" stroke-width="11.339"/>
      <circle id="Elipse_177" data-name="Elipse 177" cx="12.379" cy="12.379" r="12.379" transform="translate(275.499 528.763)" fill="none" stroke="#fff28b" stroke-miterlimit="10" stroke-width="11.339"/>
      <path id="Trazado_2271" data-name="Trazado 2271" d="M17.849,101.767,84.206,34.978,0,0" transform="translate(194.891 1041.053)" fill="none" stroke="#00c691" stroke-miterlimit="10" stroke-width="11.339"/>
      <path id="Trazado_2272" data-name="Trazado 2272" d="M0,0V101.048H104.5V202.239h91.115V153.515" transform="translate(479.681 1018.094)" fill="none" stroke="#fff28b" stroke-miterlimit="10" stroke-width="11.339"/>
      <circle id="Elipse_179" data-name="Elipse 179" cx="29.796" cy="29.796" r="29.796" transform="translate(449.885 988.298)" fill="#00c691" stroke="#707070" stroke-width="1"/>
      <path id="Trazado_2274" data-name="Trazado 2274" d="M0,0H112.131V98.96Z" transform="translate(103.002 695.88) rotate(45)" fill="#00c691" stroke="#707070" stroke-width="1"/>
      <path id="Trazado_2275" data-name="Trazado 2275" d="M51.387,53.474h35.77V0H0" transform="translate(209.789 799.158)" fill="none" stroke="#fff28b" stroke-miterlimit="10" stroke-width="11.339"/>
      <path id="Trazado_2278" data-name="Trazado 2278" d="M1.727,0,30.156,28.429,0,58.585" transform="translate(482.344 834.928)" fill="none" stroke="#fff" stroke-miterlimit="10" stroke-width="11.339"/>
      <path id="Trazado_2280" data-name="Trazado 2280" d="M0,3.094,15.4,18.5,33.9,0" transform="translate(360.281 1398.462)" fill="none" stroke="#fff" stroke-miterlimit="10" stroke-width="11.339"/>
      <path id="Trazado_2281" data-name="Trazado 2281" d="M0,3.094,15.474,18.5,33.97,0" transform="translate(1211.421 1147.41)" fill="rgba(0,0,0,0)" stroke="#fff" stroke-miterlimit="10" stroke-width="11.339"/>
      <path id="Trazado_2640" data-name="Trazado 2640" d="M0,3.094,15.474,18.5,33.97,0" transform="translate(1199.59 1096.352) rotate(120)" fill="rgba(0,0,0,0)" stroke="#fff28b" stroke-miterlimit="10" stroke-width="11.339"/>
      <path id="Trazado_2282" data-name="Trazado 2282" d="M15.474,0,0,15.4,18.5,33.9" transform="translate(237.354 1195.935)" fill="none" stroke="#fff" stroke-miterlimit="10" stroke-width="11.339"/>
      <path id="Trazado_2284" data-name="Trazado 2284" d="M63.119,29.8,33.395,0,0,33.4" transform="translate(568.062 1647.986)" fill="rgba(0,0,0,0)" stroke="#fff" stroke-miterlimit="10" stroke-width="11.339"/>
      <path id="Trazado_2285" data-name="Trazado 2285" d="M0,36.561,36.633,0,53.619,16.985" transform="translate(675.299 183.733)" fill="rgba(0,0,0,0)" stroke="#fff" stroke-miterlimit="10" stroke-width="11.339"/>
      <path id="Trazado_2286" data-name="Trazado 2286" d="M0,38,38,0l24.47,24.47" transform="translate(1124.83 251.242)" fill="none" stroke="#fff" stroke-miterlimit="10" stroke-width="11.339"/>
      <path id="Trazado_2290" data-name="Trazado 2290" d="M0,46.205V0L83.918,23.1l83.918,23.1-83.918,23.1L0,92.411Z" transform="translate(1144.047 797.524)" fill="none" stroke="#00c691" stroke-miterlimit="10" stroke-width="11.339"/>
      <circle id="Elipse_186" data-name="Elipse 186" cx="55.418" cy="55.418" r="55.418" transform="translate(1220.768 323.069)" fill="none" stroke="#00c691" stroke-miterlimit="10" stroke-width="11.339"/>
      <line id="Línea_116" data-name="Línea 116" x2="101.623" y2="30.084" transform="translate(1203.961 712.451)" fill="none" stroke="#fff" stroke-miterlimit="10" stroke-width="11.339"/>
      <path id="Trazado_2295" data-name="Trazado 2295" d="M0,32.387,23.391,9,50.236,35.914,86.149,0" transform="translate(952.747 265.42)" fill="none" stroke="#00c691" stroke-miterlimit="10" stroke-width="11.339"/>
      <line id="Línea_117" data-name="Línea 117" x1="44.982" y1="44.982" transform="translate(555.251 328.827)" fill="none" stroke="#fff28b" stroke-miterlimit="10" stroke-width="11.339"/>
    </g>
  </g>
</svg>
