<svg xmlns="http://www.w3.org/2000/svg" xmlns:xlink="http://www.w3.org/1999/xlink" width="1920" height="983" viewBox="0 0 1920 983">
  <defs>
    <clipPath id="clip-path">
      <rect id="Rectángulo_393" data-name="Rectángulo 393" width="1920" height="983" transform="translate(-859 -7629)" fill="#bef7ff"/>
    </clipPath>
  </defs>
  <g id="Enmascarar_grupo_15" data-name="Enmascarar grupo 15" transform="translate(1061 -6646) rotate(180)" clip-path="url(#clip-path)">
    <g id="Grupo_1125" data-name="Grupo 1125" transform="translate(-465.256 -5435.558) rotate(-90)">
      <path id="Trazado_2711" data-name="Trazado 2711" d="M1566.6,2466.792c5.727-35.626,26.146-67.612,30.253-103.536,2.025-17.6.058-35.507,2.487-52.992,2.2-15.575,7.809-30.315,13.478-44.935,20.767-53.349,44.425-108.31,87.694-144.533,9.2-7.7,22.213-14.561,32.22-8.116,4.57,2.924,7.346,8.116,8.908,13.427,4.4,15.158-.116,31.389-.116,47.2s7.867,34.492,23.138,35.984c12.032,1.194,22.1-8.951,29.733-18.679,67.448-85.872,96.428-203.492,180.3-272.237,7.635-6.266,16.255-12.234,26.031-12.592,13.883-.537,26.03,10.98,31.178,24.228,5.148,13.308,4.8,28.107,4.281,42.37-1.446,38.312-3.644,76.623-5.091,114.993a2907.336,2907.336,0,0,0,6.421,331.495" transform="translate(277.786 -861.055)" fill="#6140ff"/>
      <path id="Trazado_2712" data-name="Trazado 2712" d="M1328.2,0c-32.972,7.1-66.464,14.859-95.849,31.926-43.615,25.362-76.009,73.52-76.356,125.138-.289,51.619,35.922,103.178,85.207,112.189,44.714,8.175,89.313-17.007,134.664-15.4,40.665,1.432,78.265,24.467,107.13,54.066s50.557,65.642,73.579,100.314c10.586,15.933,26.956,33.776,44.714,27.749,6.884-2.327,12.321-8,16.255-14.322,15.676-24.705,11.8-58.064-.81-84.5-12.668-26.436-32.856-48.1-50.5-71.252-27.939-36.7-58.192-104.968-73.117-149.008" transform="translate(2177.232 -1480.625) rotate(85)" fill="#6140ff"/>
      <path id="Trazado_2713" data-name="Trazado 2713" d="M2223.865,356.6q-64.642,67.313-129.284,134.686c-38.062,39.624-78.265,83.724-84.223,139.162-1.389,13.009-.695,26.734,5.263,38.311,10.007,19.514,33.2,28.7,54.606,27.57,21.345-1.134,41.36-10.8,60.333-20.886a906.238,906.238,0,0,0,101.172-62.9" transform="translate(90.978 -236.352)" fill="#6140ff"/>
      <path id="Trazado_2714" data-name="Trazado 2714" d="M1804.689,852.851a912.628,912.628,0,0,1-116.848,55.259c-56.515,21.961-122.516,37.416-175.04,6.624-33.724-19.753-55.416-55.14-78.438-87.364-22.965-32.225-51.483-64.389-89.545-72.147-38.93-7.877-78.323,12.055-109.386,37.536s-57.5,56.99-91.107,78.771c-20.361,13.188-42.863,22.438-63.63,34.79-20.825,12.412-40.55,28.763-50.615,51.261s-8.1,52.1,9.66,68.746c17.354,16.231,43.384,16.231,66.754,15.336q48.329-1.969,96.717-3.879c15.965-.656,32.8-1.074,46.913,6.683,21.808,11.995,30.6,41.474,24.931,66.3s-23.023,45.234-42.516,60.928-41.533,27.689-61.547,42.668c-15.04,11.219-29.848,25.9-32.1,44.935-1.909,16.112,5.611,31.628,13.131,45.89,17.007,32.463,38.757,67.373,73.637,75.608,35.575,8.354,70.282-14.441,100.073-36.163,15.734-11.458,31.583-22.975,45-37.237,9.14-9.668,17.007-20.528,25.915-30.434,49.8-55.677,125.351-77.936,198-88.976,23.485-3.58,47.781-6.206,70.8-.179,35.806,9.309,69.53,39.087,105.105,28.763" transform="translate(506.51 -396.393)" fill="#aeffd6"/>
      <path id="Trazado_2715" data-name="Trazado 2715" d="M2014.036,347.005a23.346,23.346,0,0,0-4.744,6.206,18.617,18.617,0,0,0-1.677,6.624,28.51,28.51,0,0,0,9.024,23.393,26.612,26.612,0,0,0,23.659,6.087,17.525,17.525,0,0,0,8.445-4.356c3.008-2.984,4.512-7.161,5.438-11.338,2.024-8.951,1.677-18.917-3.066-26.675C2041.224,330.833,2024.911,336.264,2014.036,347.005Z" transform="translate(91.927 -228.368)" fill="#6140ff"/>
      <path id="Trazado_2716" data-name="Trazado 2716" d="M812.3,1060.527a15.848,15.848,0,0,0-3.3,4.3,12.493,12.493,0,0,0-1.157,4.595,19.837,19.837,0,0,0,6.247,16.172,18.306,18.306,0,0,0,16.37,4.237,12.349,12.349,0,0,0,5.842-3.044c2.082-2.029,3.124-4.953,3.76-7.877,1.388-6.206,1.157-13.069-2.14-18.44C831.16,1049.308,819.88,1053.127,812.3,1060.527Z" transform="translate(597.665 -517.362)" fill="#6140ff"/>
      <path id="Trazado_2717" data-name="Trazado 2717" d="M1511.3,2321.127a15.845,15.845,0,0,0-3.3,4.3,12.485,12.485,0,0,0-1.157,4.6,19.837,19.837,0,0,0,6.247,16.172,18.479,18.479,0,0,0,16.37,4.237,12.344,12.344,0,0,0,5.842-3.044c2.082-2.029,3.124-4.953,3.76-7.877,1.389-6.206,1.157-13.069-2.14-18.439C1530.1,2309.908,1518.822,2313.727,1511.3,2321.127Z" transform="translate(303.004 -1025.699)" fill="#6140ff"/>
      <path id="Trazado_2718" data-name="Trazado 2718" d="M1945.567,2147.4a7.18,7.18,0,0,0-1.62,2.148,6.232,6.232,0,0,0-.578,2.268,9.769,9.769,0,0,0,3.124,8.056,9.081,9.081,0,0,0,8.156,2.089,5.663,5.663,0,0,0,2.892-1.491,7.513,7.513,0,0,0,1.851-3.939c.694-3.1.579-6.564-1.041-9.25C1955,2141.793,1949.328,2143.7,1945.567,2147.4Z" transform="translate(118.979 -957.063)" fill="#6140ff"/>
      <path id="Trazado_2719" data-name="Trazado 2719" d="M1812.167,1795.7a7.189,7.189,0,0,0-1.62,2.149,6.235,6.235,0,0,0-.578,2.267,9.769,9.769,0,0,0,3.124,8.056,9.08,9.08,0,0,0,8.156,2.089,5.668,5.668,0,0,0,2.893-1.492,7.52,7.52,0,0,0,1.851-3.939c.694-3.1.578-6.564-1.041-9.25C1821.6,1790.094,1815.985,1792,1812.167,1795.7Z" transform="translate(175.213 -815.24)" fill="#6140ff"/>
      <path id="Trazado_2720" data-name="Trazado 2720" d="M1011.967,1771.8a7.181,7.181,0,0,0-1.62,2.148,6.239,6.239,0,0,0-.578,2.268,9.769,9.769,0,0,0,3.124,8.056,9.08,9.08,0,0,0,8.156,2.089,5.665,5.665,0,0,0,2.892-1.492,7.516,7.516,0,0,0,1.851-3.938c.694-3.1.578-6.565-1.041-9.25C1021.4,1766.194,1015.727,1768.1,1011.967,1771.8Z" transform="translate(545.599 -798.714)" fill="#6140ff"/>
      <path id="Trazado_2721" data-name="Trazado 2721" d="M1562.867,2525.7a7.184,7.184,0,0,0-1.62,2.149,6.246,6.246,0,0,0-.578,2.267,9.767,9.767,0,0,0,3.124,8.056,9.081,9.081,0,0,0,8.156,2.089,5.663,5.663,0,0,0,2.892-1.492,7.514,7.514,0,0,0,1.851-3.938c.694-3.1.578-6.564-1.041-9.25C1572.3,2520.094,1566.627,2522,1562.867,2525.7Z" transform="translate(280.304 -1109.613)" fill="#6140ff"/>
      <path id="Trazado_2722" data-name="Trazado 2722" d="M1039.767,1445.473a7.183,7.183,0,0,0-1.62,2.148,6.252,6.252,0,0,0-.579,2.268,9.768,9.768,0,0,0,3.124,8.056,9.079,9.079,0,0,0,8.156,2.089,5.662,5.662,0,0,0,2.892-1.492,7.517,7.517,0,0,0,1.851-3.939c.694-3.1.578-6.564-1.041-9.25C1049.2,1439.8,1043.527,1441.713,1039.767,1445.473Z" transform="translate(500.815 -673.992)" fill="#6140ff"/>
      <path id="Trazado_2723" data-name="Trazado 2723" d="M2036.767,1580.5a7.2,7.2,0,0,0-1.62,2.149,6.25,6.25,0,0,0-.578,2.268,9.77,9.77,0,0,0,3.124,8.056,9.08,9.08,0,0,0,8.156,2.088,5.662,5.662,0,0,0,2.892-1.492,7.511,7.511,0,0,0,1.851-3.939c.694-3.1.579-6.564-1.041-9.25C2046.2,1574.894,2040.527,1576.8,2036.767,1580.5Z" transform="translate(80.533 -728.461)" fill="#6140ff"/>
      <path id="Trazado_2724" data-name="Trazado 2724" d="M1965.667,907.3a7.183,7.183,0,0,0-1.619,2.148,6.242,6.242,0,0,0-.579,2.268,9.771,9.771,0,0,0,3.123,8.056,9.082,9.082,0,0,0,8.156,2.089,5.665,5.665,0,0,0,2.892-1.492,7.512,7.512,0,0,0,1.851-3.938c.694-3.1.579-6.564-1.041-9.25C1975.038,901.694,1969.427,903.6,1965.667,907.3Z" transform="translate(110.506 -456.993)" fill="#6140ff"/>
      <path id="Trazado_2725" data-name="Trazado 2725" d="M1892.667,879.9a7.178,7.178,0,0,0-1.62,2.148,6.24,6.24,0,0,0-.578,2.268,9.768,9.768,0,0,0,3.124,8.056,9.08,9.08,0,0,0,8.156,2.089,5.661,5.661,0,0,0,2.892-1.492,7.515,7.515,0,0,0,1.851-3.938c.694-3.1.578-6.564-1.041-9.25C1902.1,874.294,1896.427,876.2,1892.667,879.9Z" transform="translate(141.278 -445.944)" fill="#6140ff"/>
      <path id="Trazado_2726" data-name="Trazado 2726" d="M951.668,1132.3a7.189,7.189,0,0,0-1.62,2.148,6.245,6.245,0,0,0-.578,2.268,9.77,9.77,0,0,0,3.124,8.056,9.08,9.08,0,0,0,8.156,2.089,5.669,5.669,0,0,0,2.893-1.492,7.518,7.518,0,0,0,1.851-3.938c.694-3.1.578-6.564-1.041-9.25C961.1,1126.693,955.427,1128.6,951.668,1132.3Z" transform="translate(537.953 -547.724)" fill="#6140ff"/>
      <path id="Trazado_2727" data-name="Trazado 2727" d="M1291.168,668.09a7.191,7.191,0,0,0-1.62,2.148,6.246,6.246,0,0,0-.578,2.268,9.769,9.769,0,0,0,3.124,8.056,9.081,9.081,0,0,0,8.156,2.089,5.666,5.666,0,0,0,2.892-1.492,7.516,7.516,0,0,0,1.851-3.938c.694-3.1.579-6.564-1.041-9.25C1300.6,662.48,1294.927,664.33,1291.168,668.09Z" transform="translate(394.838 -360.522)" fill="#6140ff"/>
      <path id="Trazado_2728" data-name="Trazado 2728" d="M1071.467,895.3a7.186,7.186,0,0,0-1.62,2.148,6.243,6.243,0,0,0-.579,2.268,9.768,9.768,0,0,0,3.124,8.056,9.08,9.08,0,0,0,8.156,2.089,5.666,5.666,0,0,0,2.892-1.492,7.515,7.515,0,0,0,1.851-3.938c.694-3.1.578-6.564-1.041-9.25C1080.9,889.694,1075.227,891.6,1071.467,895.3Z" transform="translate(487.452 -452.154)" fill="#6140ff"/>
      <path id="Trazado_2729" data-name="Trazado 2729" d="M1099.167,371.7a7.2,7.2,0,0,0-1.62,2.148,6.251,6.251,0,0,0-.578,2.268,9.77,9.77,0,0,0,3.124,8.056,9.08,9.08,0,0,0,8.156,2.089,5.666,5.666,0,0,0,2.892-1.492,7.513,7.513,0,0,0,1.851-3.939c.694-3.1.579-6.564-1.041-9.25C1108.6,366.094,1102.927,368,1099.167,371.7Z" transform="translate(475.775 -241.012)" fill="#6140ff"/>
      <path id="Trazado_2730" data-name="Trazado 2730" d="M2052.467,498.9a7.192,7.192,0,0,0-1.619,2.148,6.207,6.207,0,0,0-.578,2.268,9.767,9.767,0,0,0,3.124,8.056,9.079,9.079,0,0,0,8.155,2.089,5.666,5.666,0,0,0,2.893-1.492,7.516,7.516,0,0,0,1.851-3.939c.694-3.1.578-6.564-1.041-9.25C2061.9,493.294,2056.228,495.2,2052.467,498.9Z" transform="translate(73.915 -292.305)" fill="#6140ff"/>
      <path id="Trazado_2731" data-name="Trazado 2731" d="M1057.167,2525.7a7.189,7.189,0,0,0-1.62,2.149,6.251,6.251,0,0,0-.579,2.267,9.769,9.769,0,0,0,3.124,8.056,9.08,9.08,0,0,0,8.156,2.089,5.663,5.663,0,0,0,2.892-1.492,7.515,7.515,0,0,0,1.851-3.938c.694-3.1.579-6.564-1.041-9.25C1066.6,2520.094,1060.927,2522,1057.167,2525.7Z" transform="translate(493.48 -1109.613)" fill="#6140ff"/>
      <path id="Trazado_2732" data-name="Trazado 2732" d="M1483.267,2636.2a7.194,7.194,0,0,0-1.62,2.148,6.241,6.241,0,0,0-.578,2.268,9.767,9.767,0,0,0,3.124,8.056,9.081,9.081,0,0,0,8.156,2.089,5.669,5.669,0,0,0,2.892-1.492,7.514,7.514,0,0,0,1.851-3.939c.694-3.1.578-6.564-1.041-9.249C1492.638,2630.594,1487.027,2632.5,1483.267,2636.2Z" transform="translate(313.859 -1154.172)" fill="#6140ff"/>
      <path id="Trazado_2733" data-name="Trazado 2733" d="M1794.9,1680.6a15.854,15.854,0,0,0-3.3,4.3,12.49,12.49,0,0,0-1.157,4.6,19.836,19.836,0,0,0,6.247,16.172,18.307,18.307,0,0,0,16.37,4.237,12.349,12.349,0,0,0,5.843-3.044c2.082-2.029,3.124-4.953,3.76-7.877,1.388-6.206,1.157-13.069-2.14-18.439C1813.76,1669.318,1802.422,1673.137,1794.9,1680.6Z" transform="translate(183.454 -767.387)" fill="#6140ff"/>
      <path id="Trazado_2734" data-name="Trazado 2734" d="M1060.831,1867.51a21.231,21.231,0,0,0-4.339,5.61,17.79,17.79,0,0,0-1.562,6.027,25.858,25.858,0,0,0,8.214,21.185,24.158,24.158,0,0,0,21.46,5.55,16.021,16.021,0,0,0,7.636-3.938c2.719-2.685,4.107-6.5,4.917-10.324,1.793-8.116,1.5-17.127-2.777-24.228C1085.531,1852.77,1070.722,1857.723,1060.831,1867.51Z" transform="translate(405.346 -934.179)" fill="#6140ff"/>
      <path id="Trazado_2735" data-name="Trazado 2735" d="M1758.731,2468.34a21.211,21.211,0,0,0-4.338,5.609,17.8,17.8,0,0,0-1.562,6.027,25.86,25.86,0,0,0,8.214,21.185,24.16,24.16,0,0,0,21.461,5.55,16.021,16.021,0,0,0,7.635-3.939c2.719-2.685,4.107-6.5,4.917-10.324,1.793-8.116,1.5-17.127-2.777-24.228C1783.431,2453.659,1768.622,2458.612,1758.731,2468.34Z" transform="translate(199.322 -1084.175)" fill="#fff"/>
      <path id="Trazado_2736" data-name="Trazado 2736" d="M1128.431,1407.839a21.223,21.223,0,0,0-4.339,5.609,17.8,17.8,0,0,0-1.562,6.027,25.859,25.859,0,0,0,8.214,21.185,24.158,24.158,0,0,0,21.461,5.55,16.016,16.016,0,0,0,7.636-3.938c2.718-2.685,4.107-6.5,4.917-10.324,1.793-8.116,1.5-17.126-2.777-24.228C1153.13,1393.16,1138.264,1398.112,1128.431,1407.839Z" transform="translate(465.022 -656.528)" fill="#6140ff"/>
      <path id="Trazado_2737" data-name="Trazado 2737" d="M1364.35,600.649c2.661-10.443,3.24-21.543,7.289-31.568a46.622,46.622,0,0,1,20.3-23.273c4.049-2.327,8.85-4,13.3-2.566,6.594,2.089,9.66,9.727,11.685,16.59,2.372,7.817,4.4,16.948-.115,23.691-2.6,3.879-7,6.206-9.718,10.026-4.4,6.146-3.644,14.561-5.9,21.841-4.743,15.277-22.039,22.557-37.542,23.034C1334.792,639.258,1361.169,613.121,1364.35,600.649Z" transform="translate(368.973 -311.401)" fill="#6140ff"/>
      <path id="Trazado_2738" data-name="Trazado 2738" d="M890.5,2666.387c83.7-94.168,187.014-169.716,300.912-219.9,10.759-4.774,25.221-8.474,32.625.9,2.6,3.222,3.644,7.519,4.049,11.7,2.14,21.781-11.8,41.415-24.989,58.6q-32.712,42.7-65.481,85.454c-20.188,26.376-40.608,52.932-65.423,74.654-23.485,20.588-50.615,36.58-78.728,49.59" transform="translate(562.794 -1077.119)" fill="#aeffd6"/>
      <path id="Trazado_2739" data-name="Trazado 2739" d="M2146.915,1641.49a190.5,190.5,0,0,1-129.284,7.28c-17.816-5.371-35.633-13.486-54.086-11.4-30.831,3.521-52.408,35.268-57.729,66.776-1.793,10.742-2.14,22.318,2.777,32.045s16.312,16.47,26.262,12.89c9.949-3.64,18.453-16.47,28.055-11.935,3.818,1.79,6.074,6.027,6.71,10.264,1.966,13.367-9.14,24.467-18.337,34.194a174.7,174.7,0,0,0-22.618,29.718c-5.958,9.787-11.048,20.588-11.338,32.1s5.38,23.87,15.734,28.167c5.379,2.268,11.453,2.148,17.122,1.074,22.271-4.356,39.046-23.214,51.945-42.429s24.179-40.519,42.4-54.424c11.049-8.474,24.063-13.665,36.905-18.8l85.032-34.015" transform="translate(135.303 -752.688)" fill="#6140ff"/>
      <path id="Trazado_2740" data-name="Trazado 2740" d="M1503.443,1151.927c-5.668-38.49-30.079-76.384-66.58-86.23-10.123-2.745-21.865-3.819-28.518-12.174-8.33-10.324-3.413-27.51,7.462-34.91s25.278-6.863,37.715-2.864c29.559,9.548,51.482,36.641,62.415,66.538s12.263,62.539,11.8,94.525c-.231,16.888-7.867,135.462-37.31,121.081-17.643-8.593,3.181-48.635,6.3-61.406C1503.443,1208.977,1507.666,1180.273,1503.443,1151.927Z" transform="translate(346.264 -500.989)" fill="#fff"/>
      <path id="Trazado_2741" data-name="Trazado 2741" d="M1417.4,1580.075c-11.106,7.937-14.924,25.72-6.652,36.819s27.592,10.861,34.3-1.253c3.471-6.266,3.355-13.9,3.124-21.125-.058-2.506-.174-5.192-1.562-7.221a11.7,11.7,0,0,0-5.032-3.7,44.046,44.046,0,0,0-28.865-2.268" transform="translate(345.364 -729.643)" fill="#fff"/>
      <path id="Trazado_2742" data-name="Trazado 2742" d="M1866.185,1240.923c.174-9.906,1.851-20.349,8.272-27.749,10.933-12.592,32.509-10.145,43.673,2.268C1965.158,1268.135,1864.507,1341.3,1866.185,1240.923Z" transform="translate(151.506 -578.408)" fill="#fff"/>
      <path id="Trazado_2743" data-name="Trazado 2743" d="M1603.585,190.723c.173-9.906,1.851-20.349,8.272-27.749,10.933-12.591,32.509-10.145,43.673,2.268C1702.558,217.875,1601.908,291.037,1603.585,190.723Z" transform="translate(262.204 -154.915)" fill="#fff"/>
      <path id="Trazado_2744" data-name="Trazado 2744" d="M1997.9,1221.665c-1.5,7.758-4.165,15.695-2.372,23.393,6.594,4.416,15.908,1.313,21-4.893s6.768-14.5,7.751-22.557c2.429-19.812,1.388-40.46-6.421-58.72-5.553-12.949-47.491-58.362-45.987-19.633.521,13.248,14.462,23.393,19.783,34.97C1998.423,1188.963,2001.025,1205.672,1997.9,1221.665Z" transform="translate(106.963 -545.783)" fill="#fff"/>
      <path id="Trazado_2745" data-name="Trazado 2745" d="M1784.582,1353.621c6.016,10.622,14.751,19.215,23.312,27.689,4.107,4.058,9.2,8.414,14.75,7.34,6.247-1.194,9.429-8.773,9.371-15.336-.115-17.306-14.287-31.091-18.163-47.919-2.661-11.517-.926-25.362-9.255-33.418a16.831,16.831,0,0,0-18.915-2.924C1766.535,1298.78,1776.542,1339.538,1784.582,1353.621Z" transform="translate(190.072 -611.679)" fill="#fff"/>
      <path id="Trazado_2746" data-name="Trazado 2746" d="M2254.365,603.1a302.156,302.156,0,0,0-55.417,56.811c-5.321,7.1-10.585,15.4-9.718,24.347,1.157,11.458,12.727,19.633,23.89,19.812s21.634-5.848,30.311-13.128,16.2-15.993,25.279-22.736" transform="translate(15.358 -335.753)" fill="#fff"/>
      <path id="Trazado_2747" data-name="Trazado 2747" d="M2070.409,2611.22c20.42-10.145,43.558-12.293,66.176-14.322,10.527-.955,22.154-1.611,30.6,5.072,12.552,9.966,10.759,29.42,10.586,45.771-.174,16.649,2.661,33.835-2.488,49.59-8.966,27.51-38.814,41.474-66.58,46.188-26.609,4.535-114.534,9.906-113.608-30.972C1995.846,2676.743,2041.371,2625.661,2070.409,2611.22Z" transform="translate(97.159 -1139.512)" fill="#fff"/>
      <path id="Trazado_2748" data-name="Trazado 2748" d="M1368.767,2525.7a7.189,7.189,0,0,0-1.62,2.149,6.246,6.246,0,0,0-.579,2.267,9.769,9.769,0,0,0,3.124,8.056,9.08,9.08,0,0,0,8.156,2.089,5.66,5.66,0,0,0,2.892-1.492,7.512,7.512,0,0,0,1.851-3.938c.694-3.1.578-6.564-1.041-9.25C1378.138,2520.094,1372.527,2522,1368.767,2525.7Z" transform="translate(362.126 -1109.613)" fill="#fff"/>
      <path id="Trazado_2749" data-name="Trazado 2749" d="M1246.867,2643.989a7.186,7.186,0,0,0-1.62,2.149,6.245,6.245,0,0,0-.578,2.267,9.77,9.77,0,0,0,3.124,8.057,9.079,9.079,0,0,0,8.156,2.088,5.668,5.668,0,0,0,2.892-1.491,7.522,7.522,0,0,0,1.851-3.939c.694-3.1.578-6.564-1.041-9.25C1256.3,2638.38,1250.627,2640.23,1246.867,2643.989Z" transform="translate(413.513 -1157.304)" fill="#fff"/>
      <path id="Trazado_2750" data-name="Trazado 2750" d="M1099.167,2674.8a7.188,7.188,0,0,0-1.62,2.148,6.253,6.253,0,0,0-.578,2.268,9.769,9.769,0,0,0,3.124,8.056,9.08,9.08,0,0,0,8.156,2.089,5.663,5.663,0,0,0,2.892-1.492,7.514,7.514,0,0,0,1.851-3.938c.694-3.1.579-6.564-1.041-9.25C1108.6,2669.194,1102.927,2671.1,1099.167,2674.8Z" transform="translate(475.775 -1169.737)" fill="#fff"/>
      <path id="Trazado_2751" data-name="Trazado 2751" d="M1261.167,1132.3a7.191,7.191,0,0,0-1.62,2.148,6.252,6.252,0,0,0-.578,2.268,9.771,9.771,0,0,0,3.124,8.056,9.081,9.081,0,0,0,8.156,2.089,5.67,5.67,0,0,0,2.892-1.492,7.52,7.52,0,0,0,1.851-3.938c.694-3.1.578-6.564-1.041-9.25C1270.6,1126.693,1264.927,1128.6,1261.167,1132.3Z" transform="translate(407.485 -547.724)" fill="#fff"/>
      <path id="Trazado_2752" data-name="Trazado 2752" d="M1605.867,976.69a7.187,7.187,0,0,0-1.62,2.148,6.244,6.244,0,0,0-.579,2.268,9.77,9.77,0,0,0,3.124,8.056,9.081,9.081,0,0,0,8.156,2.089,5.665,5.665,0,0,0,2.892-1.492,7.514,7.514,0,0,0,1.851-3.939c.694-3.1.579-6.564-1.041-9.25C1615.3,971.08,1609.627,972.93,1605.867,976.69Z" transform="translate(262.178 -484.965)" fill="#fff"/>
      <path id="Trazado_2753" data-name="Trazado 2753" d="M2036.767,1777.7a7.2,7.2,0,0,0-1.62,2.148,6.251,6.251,0,0,0-.578,2.267,9.771,9.771,0,0,0,3.124,8.057,9.081,9.081,0,0,0,8.156,2.088,5.662,5.662,0,0,0,2.892-1.492,7.512,7.512,0,0,0,1.851-3.939c.694-3.1.579-6.564-1.041-9.25C2046.2,1772.094,2040.527,1774,2036.767,1777.7Z" transform="translate(80.533 -807.981)" fill="#fff"/>
      <path id="Trazado_2754" data-name="Trazado 2754" d="M2006.167,1692.4a7.182,7.182,0,0,0-1.62,2.148,6.253,6.253,0,0,0-.579,2.268,9.77,9.77,0,0,0,3.124,8.056,9.079,9.079,0,0,0,8.156,2.089,5.663,5.663,0,0,0,2.893-1.492,7.511,7.511,0,0,0,1.851-3.938c.694-3.1.579-6.565-1.041-9.25C2015.6,1686.794,2009.927,1688.7,2006.167,1692.4Z" transform="translate(93.433 -773.584)" fill="#fff"/>
      <path id="Trazado_2755" data-name="Trazado 2755" d="M2155.667,1766.7a7.183,7.183,0,0,0-1.62,2.148,6.247,6.247,0,0,0-.578,2.267,9.768,9.768,0,0,0,3.123,8.056,9.08,9.08,0,0,0,8.156,2.089,5.67,5.67,0,0,0,2.892-1.492,7.517,7.517,0,0,0,1.852-3.939c.694-3.1.578-6.564-1.041-9.25C2165.1,1761.094,2159.485,1763,2155.667,1766.7Z" transform="translate(30.412 -803.546)" fill="#fff"/>
      <path id="Trazado_2756" data-name="Trazado 2756" d="M2106.767,2298.5a7.186,7.186,0,0,0-1.619,2.148,6.245,6.245,0,0,0-.578,2.268,9.769,9.769,0,0,0,3.124,8.056,9.079,9.079,0,0,0,8.156,2.089,5.671,5.671,0,0,0,2.892-1.492,7.522,7.522,0,0,0,1.851-3.939c.694-3.1.578-6.564-1.042-9.25C2116.139,2292.893,2110.528,2294.8,2106.767,2298.5Z" transform="translate(51.025 -1017.994)" fill="#fff"/>
      <path id="Trazado_2757" data-name="Trazado 2757" d="M2020.467,2456a7.2,7.2,0,0,0-1.62,2.148,6.238,6.238,0,0,0-.578,2.268,9.771,9.771,0,0,0,3.123,8.057,9.082,9.082,0,0,0,8.156,2.088,5.672,5.672,0,0,0,2.893-1.492,7.519,7.519,0,0,0,1.851-3.938c.694-3.1.579-6.565-1.041-9.25C2029.9,2450.394,2024.227,2452.3,2020.467,2456Z" transform="translate(87.405 -1081.506)" fill="#fff"/>
      <path id="Trazado_2758" data-name="Trazado 2758" d="M2189.567,2162.273a7.172,7.172,0,0,0-1.62,2.148,6.236,6.236,0,0,0-.579,2.268,9.767,9.767,0,0,0,3.124,8.056,9.079,9.079,0,0,0,8.156,2.089,5.662,5.662,0,0,0,2.893-1.492,7.517,7.517,0,0,0,1.851-3.938c.694-3.1.578-6.564-1.042-9.25C2199,2156.6,2193.327,2158.514,2189.567,2162.273Z" transform="translate(16.121 -963.042)" fill="#fff"/>
      <path id="Trazado_2759" data-name="Trazado 2759" d="M1329.267,1637.1a7.189,7.189,0,0,0-1.62,2.148,6.242,6.242,0,0,0-.578,2.268,9.769,9.769,0,0,0,3.124,8.056,9.081,9.081,0,0,0,8.156,2.088,5.664,5.664,0,0,0,2.892-1.492,7.513,7.513,0,0,0,1.851-3.938c.694-3.1.578-6.564-1.041-9.25C1338.7,1631.493,1333.027,1633.4,1329.267,1637.1Z" transform="translate(378.777 -751.284)" fill="#fff"/>
      <path id="Trazado_2760" data-name="Trazado 2760" d="M2141.367,1269.6a7.181,7.181,0,0,0-1.619,2.148,6.236,6.236,0,0,0-.579,2.268,9.769,9.769,0,0,0,3.123,8.056,9.082,9.082,0,0,0,8.157,2.089,5.66,5.66,0,0,0,2.892-1.492,7.514,7.514,0,0,0,1.851-3.938c.694-3.1.578-6.564-1.041-9.25C2150.8,1263.994,2145.185,1265.9,2141.367,1269.6Z" transform="translate(36.44 -603.09)" fill="#fff"/>
      <path id="Trazado_2761" data-name="Trazado 2761" d="M1304.368,310a7.182,7.182,0,0,0-1.62,2.148,6.245,6.245,0,0,0-.579,2.268,9.77,9.77,0,0,0,3.124,8.056,9.081,9.081,0,0,0,8.156,2.089,5.664,5.664,0,0,0,2.892-1.492,7.511,7.511,0,0,0,1.851-3.939c.694-3.1.578-6.564-1.041-9.25C1313.8,304.394,1308.127,306.3,1304.368,310Z" transform="translate(389.274 -216.131)" fill="#fff"/>
      <path id="Trazado_2762" data-name="Trazado 2762" d="M1778.367,1163.2a7.184,7.184,0,0,0-1.62,2.148,6.246,6.246,0,0,0-.579,2.268,9.769,9.769,0,0,0,3.124,8.056,9.08,9.08,0,0,0,8.156,2.089,5.667,5.667,0,0,0,2.892-1.492,7.514,7.514,0,0,0,1.851-3.939c.694-3.1.579-6.564-1.041-9.25C1787.8,1157.594,1782.128,1159.5,1778.367,1163.2Z" transform="translate(189.461 -560.184)" fill="#fff"/>
      <path id="Trazado_2763" data-name="Trazado 2763" d="M2092.467,850.5a7.194,7.194,0,0,0-1.619,2.148,6.227,6.227,0,0,0-.578,2.268,9.767,9.767,0,0,0,3.123,8.056,9.08,9.08,0,0,0,8.156,2.089,5.668,5.668,0,0,0,2.893-1.492,7.511,7.511,0,0,0,1.851-3.938c.694-3.1.579-6.564-1.042-9.25C2101.838,844.894,2096.227,846.8,2092.467,850.5Z" transform="translate(57.053 -434.088)" fill="#fff"/>
      <path id="Trazado_2764" data-name="Trazado 2764" d="M1717.167,442a7.188,7.188,0,0,0-1.62,2.148,6.242,6.242,0,0,0-.578,2.268,9.77,9.77,0,0,0,3.123,8.056,9.081,9.081,0,0,0,8.156,2.089,5.669,5.669,0,0,0,2.893-1.492,7.515,7.515,0,0,0,1.851-3.939c.694-3.1.578-6.564-1.041-9.25C1726.6,436.394,1720.927,438.3,1717.167,442Z" transform="translate(215.26 -269.36)" fill="#fff"/>
      <path id="Trazado_2765" data-name="Trazado 2765" d="M1826.567,538.5a7.191,7.191,0,0,0-1.62,2.148,6.249,6.249,0,0,0-.578,2.268,9.77,9.77,0,0,0,3.124,8.056,9.08,9.08,0,0,0,8.156,2.089,5.665,5.665,0,0,0,2.892-1.492,7.513,7.513,0,0,0,1.851-3.939c.694-3.1.578-6.564-1.041-9.25C1835.938,532.894,1830.327,534.8,1826.567,538.5Z" transform="translate(169.143 -308.274)" fill="#fff"/>
      <path id="Trazado_2766" data-name="Trazado 2766" d="M1444.967,333.7a7.193,7.193,0,0,0-1.62,2.148,6.247,6.247,0,0,0-.578,2.268,9.77,9.77,0,0,0,3.124,8.056,9.081,9.081,0,0,0,8.156,2.089,5.665,5.665,0,0,0,2.892-1.492,7.515,7.515,0,0,0,1.851-3.939c.694-3.1.579-6.564-1.041-9.25C1454.338,328.094,1448.727,330,1444.967,333.7Z" transform="translate(330.004 -225.688)" fill="#fff"/>
      <path id="Trazado_2767" data-name="Trazado 2767" d="M1329.267,2569a7.189,7.189,0,0,0-1.62,2.148,6.243,6.243,0,0,0-.578,2.268,9.77,9.77,0,0,0,3.124,8.056,9.08,9.08,0,0,0,8.156,2.088,5.662,5.662,0,0,0,2.892-1.492,7.516,7.516,0,0,0,1.851-3.938c.694-3.1.578-6.564-1.041-9.25C1338.7,2563.394,1333.027,2565.3,1329.267,2569Z" transform="translate(378.777 -1127.073)" fill="#fff"/>
      <path id="Trazado_2768" data-name="Trazado 2768" d="M1305.467,2519.3a7.188,7.188,0,0,0-1.62,2.149,6.237,6.237,0,0,0-.579,2.267,9.768,9.768,0,0,0,3.124,8.056,9.081,9.081,0,0,0,8.156,2.089,5.664,5.664,0,0,0,2.892-1.492,7.512,7.512,0,0,0,1.851-3.938c.694-3.1.578-6.564-1.041-9.249C1314.9,2513.694,1309.227,2515.6,1305.467,2519.3Z" transform="translate(388.81 -1107.032)" fill="#fff"/>
      <path id="Trazado_2769" data-name="Trazado 2769" d="M118.334,82.789c27.26-10.81,54.21-23.536,81.036-35.5A690.541,690.541,0,0,1,334.182,2.674c14.807-3.22,31.287-5.52,43.678,4.907,13.32,11.193,17.347,33.963,14.311,53.589S380.4,98.046,372.594,115.525c-13.258,29.669-24.41,61.409-27.57,95.064S347.5,280.2,364.788,306.5c21.374,32.506,57.494,45.616,91.321,43.852s66.291-16.406,98.074-30.9Q666.257,268.51,778.271,217.489c23.109-10.5,49.378-20.929,71.5-7.436,20.011,12.19,37.111,43.929,45.784,68.538,3.717,10.58,6.257,22.156,5.266,33.656-1.673,18.936-12.763,34.652-25.154,46C802,425.558,714.953,473.013,632.306,520.469c-78,44.772-159.47,86.478-229.912,148.193A418.18,418.18,0,0,0,282.141,846.754c-17.161,48.989-43.43,91.155-80.355,119.444-33.889,25.913-78.372,37.642-117.032,22.693-24.162-9.276-43.058-40.939-54.52-67.542C17.1,890.76,11.586,856.031,9.666,821.455c-2.044-37.412.558-77.125,17.719-108.021,21.622-39.022,63.5-58.879,77.319-102.961,12.577-40.249-3.16-84.791-18.586-123.43-31.845-79.348-64-159.463-80.541-245.557-6.443-33.579-9.975-71.3,4.709-100.661,14.373-28.9,36.181-34.959,60.963-41.859A478.448,478.448,0,0,0,118.334,82.789Z" transform="translate(1072.466 779.73)" fill="#6140ff"/>
      <path id="Trazado_2770" data-name="Trazado 2770" d="M1355.951,2019.937c5.148-1.969,10.412-4,15.907-3.938s11.338,2.685,13.709,7.817c3.934,8.534-3.182,17.962-10.065,24.169a226.82,226.82,0,0,1-98.164,51.738c-8.908,2.148-18.626,3.64-26.956-.179-34.36-15.813,10.817-38.67,23.369-44.816C1300.42,2041.48,1328.243,2030.679,1355.951,2019.937Z" transform="translate(416.417 -905.504)" fill="#fff"/>
      <path id="Trazado_2771" data-name="Trazado 2771" d="M1426.964,2022.3c8.241-3.152,16.667-6.4,25.463-6.3s18.149,4.3,21.945,12.513c6.3,13.66-5.093,28.752-16.111,38.687a363.074,363.074,0,0,1-157.131,82.818c-14.259,3.439-29.815,5.827-43.148-.286-55-25.313,17.315-61.9,37.408-71.737C1338.074,2056.787,1382.612,2039.5,1426.964,2022.3Z" transform="translate(-69.188 -1387.325)" fill="#6140ff"/>
      <path id="Trazado_2772" data-name="Trazado 2772" d="M1015.882,2199.421c-.173-8.235.4-17.782,6.826-22.676s16.139-2.387,21.808,3.461,8.156,14.143,10.123,22.14c3.876,15.575,7.578,55.14-17.874,52.991C1013.105,2253.367,1016.171,2215.414,1015.882,2199.421Z" transform="translate(509.95 -969.278)" fill="#fff"/>
      <path id="Trazado_2773" data-name="Trazado 2773" d="M.019,19.056c-.131-6.209.305-13.407,5.146-17.1s12.168-1.8,16.442,2.61,6.149,10.664,7.632,16.692C32.161,33,34.952,62.834,15.763,61.213-2.074,59.729.237,31.114.019,19.056Z" transform="matrix(0.035, 0.999, -0.999, 0.035, 1215.167, 1449.967)" fill="#fff"/>
      <path id="Trazado_2774" data-name="Trazado 2774" d="M768.395,2186.975c-3.124,6.8-6.71,13.665-7.636,21.125-.926,7.519,1.446,15.992,7.751,19.812,5.5,3.282,12.668,2.267,18.106-1.074s9.487-8.652,13.073-14.023c23.312-35.029,33.2-79.248,27.072-121.26-4.859-33.478-36.905-38.55-40.781-2.8C782.162,2123.719,783.608,2153.8,768.395,2186.975Z" transform="translate(617.567 -924.905)" fill="#fff"/>
      <path id="Trazado_2775" data-name="Trazado 2775" d="M689.767,2519.3a7.186,7.186,0,0,0-1.62,2.149,6.239,6.239,0,0,0-.579,2.267,9.769,9.769,0,0,0,3.124,8.056,9.081,9.081,0,0,0,8.156,2.089,5.664,5.664,0,0,0,2.892-1.492,7.513,7.513,0,0,0,1.851-3.938c.694-3.1.579-6.564-1.041-9.249C699.2,2513.694,693.527,2515.6,689.767,2519.3Z" transform="translate(648.356 -1107.032)" fill="#fff"/>
      <path id="Trazado_2776" data-name="Trazado 2776" d="M1170.468,2091.4a7.177,7.177,0,0,0-1.62,2.148,6.238,6.238,0,0,0-.579,2.268,9.768,9.768,0,0,0,3.124,8.056,9.08,9.08,0,0,0,8.156,2.089,5.66,5.66,0,0,0,2.892-1.492,7.516,7.516,0,0,0,1.851-3.939c.694-3.1.578-6.565-1.041-9.25C1179.9,2085.794,1174.227,2087.7,1170.468,2091.4Z" transform="translate(445.719 -934.481)" fill="#fff"/>
      <path id="Trazado_2777" data-name="Trazado 2777" d="M795.767,1955.2a7.193,7.193,0,0,0-1.62,2.148,6.246,6.246,0,0,0-.578,2.268,9.77,9.77,0,0,0,3.124,8.056,9.081,9.081,0,0,0,8.156,2.089,5.669,5.669,0,0,0,2.892-1.492,7.516,7.516,0,0,0,1.851-3.938c.694-3.1.578-6.564-1.041-9.25C805.2,1949.594,799.527,1951.5,795.767,1955.2Z" transform="translate(578.873 -867.159)" fill="#fff"/>
      <path id="Trazado_2778" data-name="Trazado 2778" d="M1568.868,2076a7.2,7.2,0,0,0-1.62,2.149,6.24,6.24,0,0,0-.579,2.268,9.769,9.769,0,0,0,3.124,8.055,9.081,9.081,0,0,0,8.156,2.089,5.665,5.665,0,0,0,2.892-1.492,7.518,7.518,0,0,0,1.851-3.938c.694-3.1.578-6.565-1.041-9.25C1578.3,2070.394,1572.627,2072.3,1568.868,2076Z" transform="translate(277.775 -928.271)" fill="#fff"/>
      <path id="Trazado_2779" data-name="Trazado 2779" d="M1060.831,1867.51a21.231,21.231,0,0,0-4.339,5.61,17.79,17.79,0,0,0-1.562,6.027,25.858,25.858,0,0,0,8.214,21.185,24.158,24.158,0,0,0,21.46,5.55,16.021,16.021,0,0,0,7.636-3.938c2.719-2.685,4.107-6.5,4.917-10.324,1.793-8.116,1.5-17.127-2.777-24.228C1085.531,1852.77,1070.722,1857.723,1060.831,1867.51Z" transform="translate(211.09 -939.689)" fill="#2de8f5"/>
      <path id="Trazado_2780" data-name="Trazado 2780" d="M1058.943,1864.578a14.544,14.544,0,0,0-2.972,3.843,12.19,12.19,0,0,0-1.07,4.129,17.717,17.717,0,0,0,5.628,14.514,16.551,16.551,0,0,0,14.7,3.8,10.98,10.98,0,0,0,5.231-2.7,13.789,13.789,0,0,0,3.369-7.073c1.229-5.56,1.03-11.734-1.9-16.6C1075.865,1854.48,1065.719,1857.873,1058.943,1864.578Z" transform="translate(158.737 -771.554)" fill="#fff"/>
      <path id="Trazado_2781" data-name="Trazado 2781" d="M1056.568,1860.892a6.139,6.139,0,0,0-1.255,1.622,5.146,5.146,0,0,0-.452,1.743,7.476,7.476,0,0,0,2.375,6.125,6.985,6.985,0,0,0,6.2,1.6,4.63,4.63,0,0,0,2.208-1.139,5.818,5.818,0,0,0,1.422-2.985,9.652,9.652,0,0,0-.8-7.005C1063.71,1856.63,1059.428,1858.063,1056.568,1860.892Z" transform="translate(167.003 -902.597)" fill="#fff"/>
      <path id="Trazado_2782" data-name="Trazado 2782" d="M1056.665,1861.042a6.479,6.479,0,0,0-1.324,1.712,5.431,5.431,0,0,0-.477,1.84,7.893,7.893,0,0,0,2.507,6.466,7.374,7.374,0,0,0,6.551,1.694,4.891,4.891,0,0,0,2.331-1.2,6.143,6.143,0,0,0,1.5-3.151,10.191,10.191,0,0,0-.848-7.4C1064.2,1856.543,1059.684,1858.055,1056.665,1861.042Z" transform="translate(279.792 -977.771)" fill="#2de8f5"/>
      <path id="Trazado_2783" data-name="Trazado 2783" d="M296.618,502.082c56.034-32.223,114.048-62.467,172.742-86.9,16.884-8.411,36.181-20.162,36.985-38.964.928-21.338-20.9-40.572-34.7-54.241C401.883,252.772,392.791,144.1,345.787,57.827c-5.69-10.39-12-20.657-20.657-28.7-12.864-12-29.873-18.431-46.943-22.636C195.682-13.731,105.26,14.719,42.3,71.681,29.434,83.308,17.435,96.3,9.766,111.882c-21.832,44.407-3.649,97.844,20.6,140.952S85.592,338,90.169,387.23c4.7,50.53-19.235,98.648-31.975,147.755-5.2,19.977-8.411,41.686-.618,60.8,13.359,32.965,45.149,31.728,69.332,13.668,32.656-24.368,67.724-46.077,102.42-67.353C251.407,528.614,273.858,515.193,296.618,502.082Z" transform="translate(1141.33 -320.694)" fill="#6140ff"/>
      <path id="Trazado_2784" data-name="Trazado 2784" d="M753.78,584.671a12.746,12.746,0,0,0-2.314,2.984,10.132,10.132,0,0,0-.81,3.223,13.541,13.541,0,0,0,4.4,11.279,13.136,13.136,0,0,0,11.453,2.984,8.573,8.573,0,0,0,4.049-2.089,10.51,10.51,0,0,0,2.6-5.49c.983-4.356.81-9.13-1.5-12.89C766.911,576.853,759.044,579.479,753.78,584.671Z" transform="translate(568.039 -315.313)" fill="#fff"/>
      <path id="Trazado_2785" data-name="Trazado 2785" d="M848.18,627.77a12.747,12.747,0,0,0-2.314,2.984,10.128,10.128,0,0,0-.81,3.223,13.541,13.541,0,0,0,4.4,11.278,13.136,13.136,0,0,0,11.453,2.984,8.571,8.571,0,0,0,4.049-2.089,10.507,10.507,0,0,0,2.6-5.49c.983-4.356.81-9.13-1.5-12.89C861.369,619.953,853.444,622.579,848.18,627.77Z" transform="translate(650.86 -345.092)" fill="#fff"/>
      <path id="Trazado_2786" data-name="Trazado 2786" d="M753.78,709.87a12.746,12.746,0,0,0-2.314,2.984,10.131,10.131,0,0,0-.81,3.223,13.541,13.541,0,0,0,4.4,11.278,13.136,13.136,0,0,0,11.453,2.984,8.573,8.573,0,0,0,4.049-2.089,10.508,10.508,0,0,0,2.6-5.49c.983-4.356.81-9.13-1.5-12.89C766.911,702.053,759.044,704.679,753.78,709.87Z" transform="translate(610.747 -325.846)" fill="#00c691"/>
      <path id="Trazado_2787" data-name="Trazado 2787" d="M848.18,731.454a12.746,12.746,0,0,0-2.314,2.984,10.13,10.13,0,0,0-.81,3.223,13.542,13.542,0,0,0,4.4,11.279,13.137,13.137,0,0,0,11.453,2.984,8.573,8.573,0,0,0,4.049-2.089,10.508,10.508,0,0,0,2.6-5.49c.983-4.356.81-9.13-1.5-12.89C861.369,723.577,853.444,726.262,848.18,731.454Z" transform="translate(570.953 -422.713)" fill="#fff"/>
      <path id="Trazado_2788" data-name="Trazado 2788" d="M760.317,441c38.467,37.058,56.341,90.825,83.124,137.611,1.273,2.208,2.776,4.595,5.09,5.55,3.239,1.253,6.71-.656,9.6-2.506,7.346-4.655,15.271-9.966,17.932-18.38,2.14-6.743.4-14.023-1.562-20.826-15.5-52.454-50.094-97.986-94.172-128.3a227.054,227.054,0,0,0-71.555-33.06c-8.156-2.148-33.782-10.921-40.839-4.177-7.694,7.34-1.967,16.291,5.5,21.244,11.916,7.877,32.914,8.175,46.508,14.8A155.085,155.085,0,0,1,760.317,441Z" transform="translate(601.668 -386.812)" fill="#fff"/>
      <path id="Trazado_2789" data-name="Trazado 2789" d="M1059.722,1865.788a17.3,17.3,0,0,0-3.536,4.572,14.5,14.5,0,0,0-1.273,4.912,21.075,21.075,0,0,0,6.7,17.267,19.691,19.691,0,0,0,17.491,4.523,13.062,13.062,0,0,0,6.224-3.21c2.216-2.189,3.347-5.3,4.007-8.414,1.462-6.615,1.226-13.959-2.263-19.747C1079.854,1853.774,1067.784,1857.811,1059.722,1865.788Z" transform="translate(122.917 -1732.579)" fill="#00dea3"/>
      <path id="Trazado_2790" data-name="Trazado 2790" d="M96.032,66.6c38.467,37.058,56.342,90.825,83.124,137.611,1.273,2.208,2.776,4.595,5.09,5.55,3.239,1.253,6.71-.656,9.6-2.506,7.346-4.655,15.271-9.966,17.932-18.38,2.14-6.743.405-14.023-1.562-20.826-15.5-52.454-50.094-97.986-94.172-128.3A227.054,227.054,0,0,0,44.492,6.682C36.336,4.534,10.71-4.239,3.653,2.5-4.04,9.845,1.686,18.8,9.148,23.749c11.916,7.877,32.914,8.175,46.508,14.8A155.084,155.084,0,0,1,96.032,66.6Z" transform="matrix(-0.035, 0.999, -0.999, -0.035, 1326.76, 127.79)" fill="#00dea3"/>
    </g>
  </g>
</svg>
