<svg xmlns="http://www.w3.org/2000/svg" width="1953.662" height="1163.591" viewBox="0 0 1953.662 1163.591">
  <g id="Grupo_1140" data-name="Grupo 1140" transform="translate(3151.731 7727.684)">
    <g id="Grupo_863" data-name="Grupo 863" transform="translate(-2656.567 -6902.987) rotate(-90)">
      <path id="Trazado_2257" data-name="Trazado 2257" d="M0,0V77.932H69.885" transform="translate(62.574 0)" fill="none" stroke="#fff28b" stroke-miterlimit="10" stroke-width="11.339"/>
      <line id="Línea_107" data-name="Línea 107" x1="62.574" y2="68.789" transform="translate(0 77.932)" fill="none" stroke="#fff28b" stroke-miterlimit="10" stroke-width="11.339"/>
    </g>
    <g id="Grupo_864" data-name="Grupo 864" transform="translate(-1575.775 -6812.378) rotate(-90)">
      <path id="Trazado_2258" data-name="Trazado 2258" d="M0,76.826H70.823V0" transform="translate(0 0)" fill="none" stroke="#fff28b" stroke-miterlimit="10" stroke-width="11.339"/>
      <line id="Línea_108" data-name="Línea 108" x2="62.574" y2="68.789" transform="translate(70.824 76.826)" fill="none" stroke="#fff28b" stroke-miterlimit="10" stroke-width="11.339"/>
    </g>
    <g id="Grupo_865" data-name="Grupo 865" transform="translate(-3138.46 -6968.244) rotate(-90)">
      <path id="Trazado_2259" data-name="Trazado 2259" d="M99.529,55.076,49.429,0,0,54.338" transform="translate(0 97.322)" fill="none" stroke="#fff28b" stroke-miterlimit="10" stroke-width="11.339"/>
      <line id="Línea_109" data-name="Línea 109" y1="97.322" transform="translate(49.429 0)" fill="none" stroke="#fff28b" stroke-miterlimit="10" stroke-width="11.339"/>
    </g>
    <g id="Grupo_866" data-name="Grupo 866" transform="translate(-2316.751 -7349.255) rotate(-90)">
      <path id="Trazado_2260" data-name="Trazado 2260" d="M70.823,0V58.983H0" transform="translate(0 0)" fill="none" stroke="#fff28b" stroke-miterlimit="10" stroke-width="11.339"/>
      <line id="Línea_110" data-name="Línea 110" x2="62.574" y2="68.863" transform="translate(70.823 58.983)" fill="none" stroke="#fff28b" stroke-miterlimit="10" stroke-width="11.339"/>
    </g>
    <path id="Trazado_2261" data-name="Trazado 2261" d="M0,70.78H77.53v88.549L222.463,0" transform="translate(-2688.345 -7007.277) rotate(-90)" fill="none" stroke="#00c691" stroke-miterlimit="10" stroke-width="11.339"/>
    <ellipse id="Elipse_136" data-name="Elipse 136" cx="13.078" cy="14.377" rx="13.078" ry="14.377" transform="translate(-2452.265 -7094.6) rotate(-90)" fill="#00c691"/>
    <ellipse id="Elipse_137" data-name="Elipse 137" cx="34.406" cy="37.823" rx="34.406" ry="37.823" transform="translate(-2316.751 -7204.859) rotate(-90)" fill="none" stroke="#fff28b" stroke-miterlimit="10" stroke-width="11.339"/>
    <ellipse id="Elipse_138" data-name="Elipse 138" cx="20.724" cy="22.782" rx="20.724" ry="22.782" transform="translate(-2339.091 -6868.648) rotate(-90)" fill="none" stroke="#00c691" stroke-miterlimit="10" stroke-width="11.339"/>
    <ellipse id="Elipse_139" data-name="Elipse 139" cx="20.724" cy="22.782" rx="20.724" ry="22.782" transform="translate(-2674.705 -6791.051) rotate(-90)" fill="none" stroke="#00c691" stroke-miterlimit="10" stroke-width="11.339"/>
    <ellipse id="Elipse_140" data-name="Elipse 140" cx="4.896" cy="5.382" rx="4.896" ry="5.382" transform="translate(-2502.769 -6999.9) rotate(-90)" fill="#fff28b"/>
    <ellipse id="Elipse_141" data-name="Elipse 141" cx="4.896" cy="5.382" rx="4.896" ry="5.382" transform="translate(-2502.769 -6815.128) rotate(-90)" fill="#fff28b"/>
    <ellipse id="Elipse_142" data-name="Elipse 142" cx="4.896" cy="5.382" rx="4.896" ry="5.382" transform="translate(-2253.27 -6721.904) rotate(-90)" fill="#fff"/>
    <ellipse id="Elipse_143" data-name="Elipse 143" cx="4.896" cy="5.382" rx="4.896" ry="5.382" transform="translate(-1971.257 -6950.672) rotate(-90)" fill="#fff28b"/>
    <ellipse id="Elipse_144" data-name="Elipse 144" cx="4.896" cy="5.382" rx="4.896" ry="5.382" transform="translate(-2114.586 -7313.643) rotate(-90)" fill="#fff"/>
    <ellipse id="Elipse_145" data-name="Elipse 145" cx="4.896" cy="5.382" rx="4.896" ry="5.382" transform="translate(-1653.411 -7194.329) rotate(-90)" fill="rgba(0,0,0,0)"/>
    <ellipse id="Elipse_146" data-name="Elipse 146" cx="4.896" cy="5.382" rx="4.896" ry="5.382" transform="translate(-1909.693 -7549.855) rotate(-90)" fill="#fff"/>
    <ellipse id="Elipse_147" data-name="Elipse 147" cx="4.896" cy="5.382" rx="4.896" ry="5.382" transform="translate(-1411.654 -7478.361) rotate(-90)" fill="#fff"/>
    <ellipse id="Elipse_148" data-name="Elipse 148" cx="4.896" cy="5.382" rx="4.896" ry="5.382" transform="translate(-2199.743 -7074.814) rotate(-90)" fill="#fff28b"/>
    <ellipse id="Elipse_149" data-name="Elipse 149" cx="4.896" cy="5.382" rx="4.896" ry="5.382" transform="translate(-1658.793 -7636.573) rotate(-90)" fill="#fff28b"/>
    <ellipse id="Elipse_150" data-name="Elipse 150" cx="4.896" cy="5.382" rx="4.896" ry="5.382" transform="translate(-2436.781 -7594.12) rotate(-90)" fill="#fff28b"/>
    <ellipse id="Elipse_151" data-name="Elipse 151" cx="4.896" cy="5.382" rx="4.896" ry="5.382" transform="translate(-2223.336 -7533.826) rotate(-90)" fill="#fff"/>
    <ellipse id="Elipse_152" data-name="Elipse 152" cx="4.896" cy="5.382" rx="4.896" ry="5.382" transform="translate(-1357.906 -7184.537) rotate(-90)" fill="#fff"/>
    <ellipse id="Elipse_153" data-name="Elipse 153" cx="4.896" cy="5.382" rx="4.896" ry="5.382" transform="translate(-2959.888 -7194.329) rotate(-90)" fill="#00c691"/>
    <ellipse id="Elipse_154" data-name="Elipse 154" cx="4.896" cy="5.382" rx="4.896" ry="5.382" transform="translate(-2773.428 -7281.651) rotate(-90)" fill="#fff"/>
    <ellipse id="Elipse_155" data-name="Elipse 155" cx="4.896" cy="5.382" rx="4.896" ry="5.382" transform="translate(-2814.864 -7052.146) rotate(-90)" fill="#00c691"/>
    <ellipse id="Elipse_156" data-name="Elipse 156" cx="4.896" cy="5.382" rx="4.896" ry="5.382" transform="translate(-3051.165 -6716.941) rotate(-90)" fill="#00c691"/>
    <ellipse id="Elipse_157" data-name="Elipse 157" cx="4.896" cy="5.382" rx="4.896" ry="5.382" transform="translate(-2698.814 -7089.704) rotate(-90)" fill="#00c691"/>
    <ellipse id="Elipse_158" data-name="Elipse 158" cx="4.896" cy="5.382" rx="4.896" ry="5.382" transform="translate(-2566.766 -7250.867) rotate(-90)" fill="#00c691"/>
    <ellipse id="Elipse_159" data-name="Elipse 159" cx="4.896" cy="5.382" rx="4.896" ry="5.382" transform="translate(-2019.697 -7595.729) rotate(-90)" fill="#fff28b"/>
    <ellipse id="Elipse_160" data-name="Elipse 160" cx="4.896" cy="5.382" rx="4.896" ry="5.382" transform="translate(-1796.702 -7557.201) rotate(-90)" fill="#fff28b"/>
    <ellipse id="Elipse_161" data-name="Elipse 161" cx="4.896" cy="5.382" rx="4.896" ry="5.382" transform="translate(-1664.471 -7410.22) rotate(-90)" fill="#00c691"/>
    <ellipse id="Elipse_162" data-name="Elipse 162" cx="4.896" cy="5.382" rx="4.896" ry="5.382" transform="translate(-1454.564 -7044.231) rotate(-90)" fill="#00c691"/>
    <ellipse id="Elipse_163" data-name="Elipse 163" cx="4.896" cy="5.382" rx="4.896" ry="5.382" transform="translate(-2138.179 -7160.862) rotate(-90)" fill="#00c691"/>
    <ellipse id="Elipse_164" data-name="Elipse 164" cx="4.896" cy="5.382" rx="4.896" ry="5.382" transform="translate(-2241.105 -7636.573) rotate(-90)" fill="#00c691"/>
    <ellipse id="Elipse_165" data-name="Elipse 165" cx="4.896" cy="5.382" rx="4.896" ry="5.382" transform="translate(-1722.348 -6730.824) rotate(-90)" fill="#00c691"/>
    <ellipse id="Elipse_166" data-name="Elipse 166" cx="4.896" cy="5.382" rx="4.896" ry="5.382" transform="translate(-1382.974 -6795.41) rotate(-90)" fill="#00c691"/>
    <ellipse id="Elipse_167" data-name="Elipse 167" cx="4.896" cy="5.382" rx="4.896" ry="5.382" transform="translate(-2400.654 -7324.038) rotate(-90)" fill="#00c691"/>
    <ellipse id="Elipse_168" data-name="Elipse 168" cx="4.896" cy="5.382" rx="4.896" ry="5.382" transform="translate(-2515.229 -7626.714) rotate(-90)" fill="#00c691"/>
    <ellipse id="Elipse_169" data-name="Elipse 169" cx="4.896" cy="5.382" rx="4.896" ry="5.382" transform="translate(-2765.318 -6752.755) rotate(-90)" fill="#00c691"/>
    <g id="Grupo_867" data-name="Grupo 867" transform="translate(-2393.576 -7349.255) rotate(-90)">
      <path id="Trazado_2262" data-name="Trazado 2262" d="M0,76.825H70.823V0" transform="translate(0 0)" fill="none" stroke="#00c691" stroke-miterlimit="10" stroke-width="11.339"/>
      <line id="Línea_111" data-name="Línea 111" x2="62.574" y2="68.863" transform="translate(70.823 76.826)" fill="none" stroke="#00c691" stroke-miterlimit="10" stroke-width="11.339"/>
    </g>
    <path id="Trazado_2937" data-name="Trazado 2937" d="M0,0,17.036.806l7.94,167.83L7.94,167.83Z" transform="translate(-2438.327 -7220.297) rotate(-45)" fill="#00c691"/>
    <path id="Trazado_2263" data-name="Trazado 2263" d="M0,164.268,140.842,9.438l81.823,89.949L313.072,0" transform="translate(-2661.655 -7318.539) rotate(-90)" fill="none" stroke="#fff28b" stroke-miterlimit="10" stroke-width="11.339"/>
    <path id="Trazado_2264" data-name="Trazado 2264" d="M123.539,16.663,78.5,66.176,69.348,76.236,0,0" transform="translate(-1686.27 -6612.529) rotate(-90)" fill="#00c691" stroke="#fff" stroke-miterlimit="10" stroke-width="11.339"/>
    <path id="Trazado_2265" data-name="Trazado 2265" d="M0,0,58.617,128.731l62.507-68.716Z" transform="translate(-2188.462 -6636.527) rotate(-90)" fill="#fff28b"/>
    <path id="Trazado_2266" data-name="Trazado 2266" d="M34.2,0,0,112.953H73.171Z" transform="translate(-2919.116 -6914.053) rotate(-90)" fill="#fff28b"/>
    <path id="Trazado_2267" data-name="Trazado 2267" d="M34.2,0,0,113.027H73.171Z" transform="translate(-2854.972 -6914.053) rotate(-90)" fill="none" stroke="#00c691" stroke-miterlimit="10" stroke-width="11.339"/>
    <line id="Línea_112" data-name="Línea 112" x1="173.974" y2="191.327" transform="translate(-3000.808 -6608.761) rotate(-90)" fill="none" stroke="#00c691" stroke-miterlimit="10" stroke-width="11.339"/>
    <line id="Línea_113" data-name="Línea 113" x1="173.974" y2="191.253" transform="translate(-2890.878 -6576.904) rotate(-90)" fill="none" stroke="#fff28b" stroke-miterlimit="10" stroke-width="11.339"/>
    <ellipse id="Elipse_170" data-name="Elipse 170" cx="6.237" cy="6.857" rx="6.237" ry="6.857" transform="translate(-2925.973 -6843.632) rotate(-90)" fill="#fff28b"/>
    <ellipse id="Elipse_171" data-name="Elipse 171" cx="6.237" cy="6.857" rx="6.237" ry="6.857" transform="translate(-3048.142 -7665.279) rotate(-90)" fill="#fff28b"/>
    <ellipse id="Elipse_172" data-name="Elipse 172" cx="6.237" cy="6.857" rx="6.237" ry="6.857" transform="translate(-3007.665 -7349.255) rotate(-90)" fill="#fff28b"/>
    <ellipse id="Elipse_173" data-name="Elipse 173" cx="6.237" cy="6.857" rx="6.237" ry="6.857" transform="translate(-2792.966 -7445.095) rotate(-90)" fill="#fff28b"/>
    <ellipse id="Elipse_174" data-name="Elipse 174" cx="50.234" cy="55.223" rx="50.234" ry="55.223" transform="translate(-3151.731 -7396.471) rotate(-90)" fill="#fff28b"/>
    <ellipse id="Elipse_175" data-name="Elipse 175" cx="50.234" cy="55.223" rx="50.234" ry="55.223" transform="translate(-3151.731 -7471.185) rotate(-90)" fill="#00c691"/>
    <path id="Trazado_2268" data-name="Trazado 2268" d="M227.762,85.3,160.627,11.5,85.578,94,0,0" transform="translate(-2908.647 -7110.494) rotate(-90)" fill="none" stroke="#00c691" stroke-miterlimit="10" stroke-width="11.339"/>
    <path id="Trazado_2269" data-name="Trazado 2269" d="M0,0,79.14,87l62.1-68.2,59.22,65.1" transform="translate(-2903.265 -7318.539) rotate(-90)" fill="none" stroke="#fff28b" stroke-miterlimit="10" stroke-width="11.339"/>
    <line id="Línea_114" data-name="Línea 114" y2="99.755" transform="translate(-2816.264 -7397.678) rotate(-90)" fill="none" stroke="#fff28b" stroke-miterlimit="10" stroke-width="11.339"/>
    <ellipse id="Elipse_176" data-name="Elipse 176" cx="20.992" cy="23.077" rx="20.992" ry="23.077" transform="translate(-2739.586 -7512.767) rotate(-90)" fill="none" stroke="#00c691" stroke-miterlimit="10" stroke-width="11.339"/>
    <path id="Trazado_2270" data-name="Trazado 2270" d="M0,0H63.647V65.914" transform="translate(-2786.109 -7546.77) rotate(-90)" fill="none" stroke="#00c691" stroke-miterlimit="10" stroke-width="11.339"/>
    <ellipse id="Elipse_177" data-name="Elipse 177" cx="11.536" cy="12.681" rx="11.536" ry="12.681" transform="translate(-2701.026 -6796.953) rotate(-90)" fill="none" stroke="#fff28b" stroke-miterlimit="10" stroke-width="11.339"/>
    <path id="Trazado_2938" data-name="Trazado 2938" d="M0,0,142.838,6.758l1.272,26.892L1.272,26.892Z" transform="translate(-2063.104 -7426.684) rotate(-45)" fill="none" stroke="#00c691" stroke-width="11.339"/>
    <ellipse id="Elipse_178" data-name="Elipse 178" cx="39.1" cy="42.984" rx="39.1" ry="42.984" transform="translate(-1944.567 -7336.915) rotate(-90)" fill="#00c691"/>
    <path id="Trazado_2939" data-name="Trazado 2939" d="M0,0,142.838-6.758l-1.272,26.892L-1.272,26.892Z" transform="translate(-1858.668 -7318.878) rotate(-135)" fill="#fff28b"/>
    <path id="Trazado_2271" data-name="Trazado 2271" d="M16.633,104.253,78.469,35.832,0,0" transform="translate(-2176.223 -6721.837) rotate(-90)" fill="none" stroke="#00c691" stroke-miterlimit="10" stroke-width="11.339"/>
    <path id="Trazado_2272" data-name="Trazado 2272" d="M0,0V103.516H97.382V207.178H182.29V157.264" transform="translate(-2199.743 -6987.224) rotate(-90)" fill="none" stroke="#fff28b" stroke-miterlimit="10" stroke-width="11.339"/>
    <path id="Trazado_2273" data-name="Trazado 2273" d="M0,0V103.515H97.449V207.178h84.908" transform="translate(-2132.797 -6926.259) rotate(-90)" fill="none" stroke="#00c691" stroke-miterlimit="10" stroke-width="11.339"/>
    <ellipse id="Elipse_179" data-name="Elipse 179" cx="27.766" cy="30.524" rx="27.766" ry="30.524" transform="translate(-2230.267 -6959.458) rotate(-90)" fill="#00c691"/>
    <path id="Trazado_2274" data-name="Trazado 2274" d="M0,0,109.681,5.189l4.58,96.8Z" transform="translate(-2529.827 -6636.208) rotate(-45)" fill="#00c691"/>
    <path id="Trazado_2275" data-name="Trazado 2275" d="M47.886,54.78H81.219V0H0" transform="translate(-2424.026 -6735.72) rotate(-90)" fill="none" stroke="#fff28b" stroke-miterlimit="10" stroke-width="11.339"/>
    <path id="Trazado_2276" data-name="Trazado 2276" d="M0,0,73.171,80.438,146.074.369,287.788,156.232" transform="translate(-1610.796 -7336.982) rotate(-90)" fill="none" stroke="#00c691" stroke-miterlimit="10" stroke-width="11.339"/>
    <path id="Trazado_2277" data-name="Trazado 2277" d="M0,64.661,58.819,0l56.538,62.154" transform="translate(-1549.527 -7425.579) rotate(-90)" fill="none" stroke="#fff28b" stroke-miterlimit="10" stroke-width="11.339"/>
    <rect id="Rectángulo_184" data-name="Rectángulo 184" width="61.971" height="73.434" transform="translate(-1610.796 -6785.82) rotate(-90)" fill="none" stroke="#fff" stroke-miterlimit="10" stroke-width="11.339"/>
    <path id="Trazado_2278" data-name="Trazado 2278" d="M1.61,0,28.1,29.123,0,60.016" transform="translate(-2387.383 -6989.706) rotate(-90)" fill="none" stroke="#fff" stroke-miterlimit="10" stroke-width="11.339"/>
    <path id="Trazado_2279" data-name="Trazado 2279" d="M4.628,58.688,28.973,31.851,0,0" transform="translate(-1809.938 -7542.343) rotate(-90)" fill="rgba(0,0,0,0)" stroke="#fff" stroke-miterlimit="10" stroke-width="11.339"/>
    <path id="Trazado_2280" data-name="Trazado 2280" d="M0,3.17,14.353,18.949,31.589,0" transform="translate(-1810.085 -6875.958) rotate(-90)" fill="none" stroke="#fff" stroke-miterlimit="10" stroke-width="11.339"/>
    <path id="Trazado_2281" data-name="Trazado 2281" d="M0,3.17,14.419,18.948,31.656,0" transform="translate(-2118.715 -7600.625) rotate(-90)" fill="rgba(0,0,0,0)" stroke="#fff" stroke-miterlimit="10" stroke-width="11.339"/>
    <path id="Trazado_2282" data-name="Trazado 2282" d="M14.42,0,0,15.778,17.236,34.726" transform="translate(-2017.559 -6761.407) rotate(-90)" fill="none" stroke="#fff" stroke-miterlimit="10" stroke-width="11.339"/>
    <path id="Trazado_2283" data-name="Trazado 2283" d="M0,16.736l11.8,13.05L38.9,0" transform="translate(-1942.355 -7218.272) rotate(-90)" fill="rgba(0,0,0,0)" stroke="#fff" stroke-miterlimit="10" stroke-width="11.339"/>
    <path id="Trazado_2284" data-name="Trazado 2284" d="M58.818,30.524,31.119,0,0,34.211" transform="translate(-1554.467 -7069.583) rotate(-90)" fill="rgba(0,0,0,0)" stroke="#fff" stroke-miterlimit="10" stroke-width="11.339"/>
    <path id="Trazado_2285" data-name="Trazado 2285" d="M0,37.454,34.137,0,49.965,17.4" transform="translate(-3054.483 -7169.514) rotate(-90)" fill="rgba(0,0,0,0)" stroke="#fff" stroke-miterlimit="10" stroke-width="11.339"/>
    <path id="Trazado_2286" data-name="Trazado 2286" d="M0,38.929,35.412,0l22.8,25.068" transform="translate(-2985.325 -7588.419) rotate(-90)" fill="none" stroke="#fff" stroke-miterlimit="10" stroke-width="11.339"/>
    <path id="Trazado_2287" data-name="Trazado 2287" d="M0,202.754,184.5,0,364.647,198.036" transform="translate(-1406.493 -7204.859) rotate(-90)" fill="none" stroke="#fff28b" stroke-miterlimit="10" stroke-width="11.339"/>
    <ellipse id="Elipse_180" data-name="Elipse 180" cx="35.613" cy="39.15" rx="35.613" ry="39.15" transform="translate(-1282.039 -7351.603) rotate(-90)" fill="none" stroke="#00c691" stroke-miterlimit="10" stroke-width="11.339"/>
    <ellipse id="Elipse_181" data-name="Elipse 181" cx="35.613" cy="39.15" rx="35.613" ry="39.15" transform="translate(-1282.039 -6864.289) rotate(-90)" fill="#00c691"/>
    <ellipse id="Elipse_182" data-name="Elipse 182" cx="61.635" cy="67.757" rx="61.635" ry="67.757" transform="translate(-1339.179 -6899.902) rotate(-90)" fill="#fff28b"/>
    <ellipse id="Elipse_183" data-name="Elipse 183" cx="36.284" cy="39.887" rx="36.284" ry="39.887" transform="translate(-1796.298 -7069.583) rotate(-90)" fill="#00c691"/>
    <path id="Trazado_2288" data-name="Trazado 2288" d="M43.057,0H86.182L64.653,40.993l-21.6,40.994L21.529,40.993,0,0Z" transform="translate(-1765.184 -7019.551) rotate(-90)" fill="none" stroke="#fff28b" stroke-miterlimit="10" stroke-width="11.339"/>
    <path id="Trazado_2289" data-name="Trazado 2289" d="M43.057,0H86.115L64.586,40.993,43.057,82.06,21.529,40.993,0,0Z" transform="translate(-1679.438 -7598.412) rotate(-90)" fill="none" stroke="#fff28b" stroke-miterlimit="10" stroke-width="11.339"/>
    <path id="Trazado_2291" data-name="Trazado 2291" d="M0,0H149.293V90.613l78.335,86.115" transform="translate(-1871.207 -6636.527) rotate(-90)" fill="none" stroke="#fff28b" stroke-miterlimit="10" stroke-width="11.339"/>
    <path id="Trazado_2292" data-name="Trazado 2292" d="M81.085,90.981V0H0" transform="translate(-1908.735 -6735.72) rotate(-90)" fill="none" stroke="#00c691" stroke-miterlimit="10" stroke-width="11.339"/>
    <ellipse id="Elipse_184" data-name="Elipse 184" cx="24.463" cy="26.893" rx="24.463" ry="26.893" transform="translate(-1426.557 -6676.821) rotate(-90)" fill="#00c691"/>
    <ellipse id="Elipse_187" data-name="Elipse 187" cx="24.48" cy="26.911" rx="24.48" ry="26.911" transform="translate(-1759.655 -7250.532) rotate(-90)" fill="rgba(0,0,0,0)" stroke="#fff" stroke-miterlimit="10" stroke-width="11.339"/>
    <line id="Línea_115" data-name="Línea 115" x2="57.209" transform="translate(-1732.744 -7275.012) rotate(-90)" fill="none" stroke="#fff28b" stroke-miterlimit="10" stroke-width="11.339"/>
    <path id="Trazado_2293" data-name="Trazado 2293" d="M0,50.21,40.978,5.16,72.7,40.035,109.119,0" transform="translate(-1486.636 -7179.507) rotate(-90)" fill="none" stroke="#fff28b" stroke-miterlimit="10" stroke-width="11.339"/>
    <ellipse id="Elipse_188" data-name="Elipse 188" cx="29.443" cy="32.367" rx="29.443" ry="32.367" transform="translate(-1523.796 -7262.805) rotate(-90)" fill="none" stroke="#00c691" stroke-miterlimit="10" stroke-width="11.339"/>
    <ellipse id="Elipse_189" data-name="Elipse 189" cx="15.828" cy="17.4" rx="15.828" ry="17.4" transform="translate(-1435.69 -7206.334) rotate(-90)" fill="#00c691"/>
    <line id="Línea_116" data-name="Línea 116" x2="94.7" y2="30.819" transform="translate(-2522.851 -7631.229) rotate(-90)" fill="none" stroke="#fff" stroke-miterlimit="10" stroke-width="11.339"/>
    <ellipse id="Elipse_190" data-name="Elipse 190" cx="30.449" cy="33.473" rx="30.449" ry="33.473" transform="translate(-1367.048 -7630.336) rotate(-90)" fill="none" stroke="#fff" stroke-miterlimit="10" stroke-width="11.339"/>
    <path id="Trazado_2294" data-name="Trazado 2294" d="M44.4,48.809,0,0" transform="translate(-1382.383 -7616.386) rotate(-90)" fill="none" stroke="#fff28b" stroke-miterlimit="10" stroke-width="11.339"/>
    <ellipse id="Elipse_191" data-name="Elipse 191" cx="9.859" cy="10.838" rx="9.859" ry="10.838" transform="translate(-1411.728 -7666.687) rotate(-90)" fill="#fff28b"/>
    <path id="Trazado_2295" data-name="Trazado 2295" d="M0,33.178,21.8,9.216,46.813,36.791,80.28,0" transform="translate(-2970.8 -7428.06) rotate(-90)" fill="none" stroke="#00c691" stroke-miterlimit="10" stroke-width="11.339"/>
    <line id="Línea_117" data-name="Línea 117" x1="41.917" y1="46.081" transform="translate(-2905.845 -7057.645) rotate(-90)" fill="none" stroke="#fff28b" stroke-miterlimit="10" stroke-width="11.339"/>
  </g>
</svg>
