<svg xmlns="http://www.w3.org/2000/svg" width="215" height="146.771" viewBox="0 0 215 146.771">
  <g id="Grupo_1110" data-name="Grupo 1110" transform="translate(-21.674 -51.991)">
    <g id="Grupo_1063" data-name="Grupo 1063" transform="translate(21.674 51.991)">
      <path id="Trazado_2497" data-name="Trazado 2497" d="M226.065,158.538l-.005-.077v-.076c.005-.3.146-3.065,3.339-8.186,2.162-3.469,3.049-10.187-1.748-14.26-2.5-2.125-1.434-5.3-.491-8.1,1.528-4.542,2.971-8.831-4.393-12.846-1.792-.977-24.018.067-30.816.375a.826.826,0,0,1-.849-.967c.049-.278.1-.554.158-.775.073-.416.218-.787.3-1.23.9-5.147,5.649-20.73,5.868-21.83.788-3.2,1.041-7.317.353-15.666a42.541,42.541,0,0,0-1.369-8.36,10.959,10.959,0,0,1-.387,1.393,4.947,4.947,0,0,1-1.1,1.869,5.665,5.665,0,0,1-1.975,1.208c-.009.026-.015.051-.024.076a4.957,4.957,0,0,1-1.1,1.869,7.038,7.038,0,0,1-3.7,1.676,20.731,20.731,0,0,1-3.59.3c-.89.006-1.77-.033-2.646-.091l-.008.063a.987.987,0,0,0-.363.187,1.585,1.585,0,0,0-.453,1.506,1.376,1.376,0,0,0,1,.946c.382.188.781.369,1.175.524a17.96,17.96,0,0,0,2.365.752,19.476,19.476,0,0,0,5.078.554,20.272,20.272,0,0,1-5.21,1.027,19.969,19.969,0,0,1-2.739-.007c-.358-.028-.706-.076-1.057-.119a1.927,1.927,0,0,0-1.668.115.836.836,0,0,0-.295.638c.144.063.285.136.43.193a17.943,17.943,0,0,0,2.365.751,33.375,33.375,0,0,0,6.37.713,20.437,20.437,0,0,1-7.794,1.866c-.262.007-.517.011-.772.012-.1.387-.219.768-.332,1.15.232.04-.166,1.846-.621,1.893-2.775,7.693-8.167,14.372-13.579,19.578a87.858,87.858,0,0,1-18.685,15.086l0-.007c-.295.166-.591.325-.895.486q-1.263.651-2.558,1.175c-1.727.7-4.5,2.451-4.823,2.016-.367-.467,4.543-4.692,5.989-5.71.077-.434.156-.88.238-1.348.9-5.148,5.47-20.45,5.65-21.724.788-3.2,1.042-7.318.353-15.665a42.462,42.462,0,0,0-1.369-8.361,10.787,10.787,0,0,1-.386,1.393,4.974,4.974,0,0,1-1.1,1.869A5.669,5.669,0,0,1,146.21,77.6c-.008.026-.014.051-.023.076a4.975,4.975,0,0,1-1.1,1.869,7.028,7.028,0,0,1-3.7,1.675,20.653,20.653,0,0,1-3.591.3c-.89.006-1.769-.033-2.645-.091l-.021.155a.969.969,0,0,0-.276.15,1.589,1.589,0,0,0-.454,1.507,1.433,1.433,0,0,0,1.124.991c.321.15.651.3.974.423a18.069,18.069,0,0,0,2.366.752,19.464,19.464,0,0,0,5.078.553,20.236,20.236,0,0,1-5.211,1.028,19.978,19.978,0,0,1-2.74-.007c-.515-.04-1.009-.093-1.52-.171a1.5,1.5,0,0,0-1.131.224.836.836,0,0,0-.295.619c.118.051.237.108.355.154a17.918,17.918,0,0,0,2.366.752,33.358,33.358,0,0,0,6.369.713,20.223,20.223,0,0,1-5.07,1.579,20.019,20.019,0,0,1-2.723.285c-.264.008-.52.012-.777.012-.1.388-.217.769-.331,1.151.232.04-.166,1.846-.623,1.894-2.734,7.494-8.017,14.026-13.382,19.177a89.382,89.382,0,0,1-17.524,14.371l.022.019a18.115,18.115,0,0,1-2.715,1.823,23.039,23.039,0,0,1-2.8,1.342c-1.894.775-5.453,2.157-5.724,1.721-.25-.274,5.069-4.674,6.658-5.834.086-.484.172-.977.265-1.5.9-5.15,5.16-20.274,5.652-21.73,1.269-5.538,1.041-7.318.352-15.665a42.464,42.464,0,0,0-1.369-8.36,10.77,10.77,0,0,1-.386,1.392,4.974,4.974,0,0,1-1.1,1.869,5.674,5.674,0,0,1-1.975,1.208c-.009.026-.015.051-.024.076a4.972,4.972,0,0,1-1.1,1.87,7.037,7.037,0,0,1-3.7,1.675,20.737,20.737,0,0,1-3.591.3c-1.007.007-2-.04-2.992-.113a.923.923,0,0,0-.251.139,1.588,1.588,0,0,0-.453,1.507,1.333,1.333,0,0,0,.878.9,15.194,15.194,0,0,0,1.52.7,17.917,17.917,0,0,0,2.366.751,19.466,19.466,0,0,0,5.078.554,20.271,20.271,0,0,1-5.211,1.027,19.966,19.966,0,0,1-2.739-.007c-.506-.039-.991-.092-1.493-.168a1.841,1.841,0,0,0-1.56.145.838.838,0,0,0-.293.528c.25.114.5.223.755.322a17.962,17.962,0,0,0,2.366.751,33.359,33.359,0,0,0,6.37.713,20.244,20.244,0,0,1-5.071,1.579,20.02,20.02,0,0,1-2.723.286c-.263.007-.52.011-.777.012-.1.388-.236.764-.351,1.147.239.041-.155,1.85-.617,1.9-2.743,7.512-8.034,14.061-13.414,19.216a87.125,87.125,0,0,1-13.625,11.769,38.844,38.844,0,0,1-4.186,3.209,7.09,7.09,0,0,1-1.685.581c-1.1.205-2.159.39-3.2.569a16.548,16.548,0,0,1,2.329,3.153,36.033,36.033,0,0,1,3.285,8.283,68.829,68.829,0,0,1,2.2,17.531,74.815,74.815,0,0,1-.562,8.845,55.678,55.678,0,0,1-1.83,8.691,34.006,34.006,0,0,1-3.561,8.185,15.6,15.6,0,0,1-2.9,3.464h0c7-.969,33.065-4.384,49.139-4.069,5.469.112,10.918.638,16.689,1.194,13.869,1.338,29.585,2.854,50.517-1.165l.161-.031.163,0c6.881.112,44.271-1.5,50.21-5.059.189-.113.36-.228.534-.343a10.915,10.915,0,0,0,1.154-4.847c.114-1.607.223-3.127,1.236-4.291a11.68,11.68,0,0,1,2-1.657c.122-.087.25-.18.376-.273a4.054,4.054,0,0,1,.719-1.223,11.675,11.675,0,0,1,2-1.657c.325-.233.669-.483,1.021-.751C225.354,167.634,226.5,164.172,226.065,158.538Z" transform="translate(-22.86 -52.65)" fill="#bef7ff"/>
      <path id="Trazado_2498" data-name="Trazado 2498" d="M41.608,152.6c.748,0,1.835,1.788,1.835,4.59s-1.087,4.591-1.835,4.591H30.161a4.172,4.172,0,0,0,.595-1.423,21.1,21.1,0,0,0,.014-6.485A4.6,4.6,0,0,0,30.3,152.6Z" transform="translate(-22.059 -48.972)" fill="#e3e1e1"/>
      <path id="Trazado_2499" data-name="Trazado 2499" d="M30.289,172.926a4.409,4.409,0,0,0,.468-1.232,21.1,21.1,0,0,0,.014-6.484,4.378,4.378,0,0,0-.594-1.464H41.609c.748,0,1.835,1.788,1.835,4.591s-1.087,4.59-1.835,4.59Z" transform="translate(-22.059 -48.638)" fill="#e3e1e1"/>
      <path id="Trazado_2500" data-name="Trazado 2500" d="M28.2,173.365a1.437,1.437,0,0,1-1.119-.541,3.878,3.878,0,0,1-.8-1.29,7,7,0,0,1-.378-3.086,11.345,11.345,0,0,1,.662-2.984c.335-.9,1-1.822,1.637-1.818a1.34,1.34,0,0,1,.963.551,6.024,6.024,0,0,1,.8,1.221,6.556,6.556,0,0,1,.013,6.066C29.533,172.364,28.931,173.3,28.2,173.365Z" transform="translate(-21.865 -46.989)" fill="#e3e1e1"/>
      <path id="Trazado_2501" data-name="Trazado 2501" d="M25.906,157.1a11.353,11.353,0,0,1,.662-2.985c.335-.9,1-1.822,1.637-1.817a1.338,1.338,0,0,1,.963.55,6.053,6.053,0,0,1,.8,1.221,6.559,6.559,0,0,1,.013,6.067c-.452.879-1.054,1.815-1.78,1.881a1.44,1.44,0,0,1-1.119-.541,3.888,3.888,0,0,1-.8-1.29A7,7,0,0,1,25.906,157.1Z" transform="translate(-21.865 -48.949)" fill="#e3e1e1"/>
      <path id="Trazado_2502" data-name="Trazado 2502" d="M177.509,57.473l.853-1.407a2.945,2.945,0,0,1,.586-.516,3.215,3.215,0,0,1,1.033-.145,10.259,10.259,0,0,1,1.475.022,6.334,6.334,0,0,1,4.815,2.546,9.285,9.285,0,0,1,1.475,5.389A12.637,12.637,0,0,1,187.4,66.2a7.841,7.841,0,0,1-.427,1.3,2.5,2.5,0,0,1-.574.906,4.454,4.454,0,0,1-2.238.771c-.205.026-.421.029-.632.044l-.88.052c-.449.008-.9,0-1.359-.022-.98-.049-1.971-.153-2.958-.293-.181-.027-.363-.059-.544-.088l-.93-.15h0l-.285-.053C176.426,66.866,176.082,60.833,177.509,57.473Z" transform="translate(-17.162 -52.145)" fill="#6140ff"/>
      <path id="Trazado_2503" data-name="Trazado 2503" d="M132.491,63.835l.852-1.407a2.971,2.971,0,0,1,.586-.516,3.219,3.219,0,0,1,1.033-.145,10.26,10.26,0,0,1,1.475.022,6.33,6.33,0,0,1,4.815,2.546,9.285,9.285,0,0,1,1.475,5.389,12.64,12.64,0,0,1-.344,2.843,7.851,7.851,0,0,1-.428,1.3,2.494,2.494,0,0,1-.574.906,4.45,4.45,0,0,1-2.238.771c-.205.026-.421.029-.631.044l-.88.053c-.449.007-.9,0-1.359-.022-.98-.049-1.97-.154-2.958-.293-.182-.027-.363-.059-.544-.088l-.931-.15h0l-.284-.053C131.407,73.228,131.063,67.2,132.491,63.835Z" transform="translate(-18.474 -52.433)" fill="#6140ff"/>
      <path id="Trazado_2504" data-name="Trazado 2504" d="M86.621,70.04l.853-1.407a2.942,2.942,0,0,1,.585-.516,3.22,3.22,0,0,1,1.033-.145,10.268,10.268,0,0,1,1.476.022,6.332,6.332,0,0,1,4.814,2.546,9.294,9.294,0,0,1,1.476,5.39,12.694,12.694,0,0,1-.345,2.842,7.936,7.936,0,0,1-.427,1.3,2.491,2.491,0,0,1-.575.907,4.46,4.46,0,0,1-2.238.77c-.2.026-.421.029-.631.044l-.88.053c-.449.007-.9,0-1.359-.023-.979-.048-1.97-.153-2.958-.293-.182-.026-.363-.059-.544-.088l-.931-.15h0l-.285-.054C85.537,79.433,85.193,73.4,86.621,70.04Z" transform="translate(-19.812 -52.715)" fill="#6140ff"/>
      <path id="Trazado_2505" data-name="Trazado 2505" d="M54.24,187.138s2.561-.051,4.9-12.58c0,0,17.035,9.568,30.74,6.869s28.793,1.511,28.793,1.511,28.422,1.889,34.387-1.511,32.03-3.628,32.03-3.628,4.336,3.736-16.83,5.841-24.323,3.449-24.323,3.449-25.089,1.464-31.931-1.168-34.211,0-34.211,0Z" transform="translate(-16.511 -47.483)" fill="#69debc"/>
      <path id="Trazado_2506" data-name="Trazado 2506" d="M98.641,84.992c.315,0,2.375,7.785.116,17.427-1.206,5.148-2.6,6.39-3.508,12.632-.57,3.929-.481,6.644-1.287,6.783-1.069.184-2.815-4.327-3.742-7.6-1.968-6.945-3.011-18.072,1.52-20.468,1.685-.891,2.9.08,4.562-1.17C99.281,90.355,98.38,84.994,98.641,84.992Z" transform="translate(-19.726 -50.312)" fill="#abfbfb"/>
      <path id="Trazado_2507" data-name="Trazado 2507" d="M144.373,76.041c.316,0,2.375,7.785.117,17.427-1.206,5.149-2.6,6.39-3.509,12.632-.569,3.929-.48,6.645-1.286,6.784-1.069.184-2.815-4.327-3.743-7.6-1.967-6.945-3.011-18.072,1.521-20.468,1.684-.891,2.9.081,4.561-1.169C145.014,81.4,144.113,76.044,144.373,76.041Z" transform="translate(-18.393 -50.767)" fill="#abfbfb"/>
      <path id="Trazado_2508" data-name="Trazado 2508" d="M189.9,69.257c.315,0,2.375,7.785.116,17.427-1.206,5.148-2.6,6.39-3.508,12.632-.57,3.929-.481,6.644-1.287,6.784-1.069.183-2.815-4.328-3.742-7.6-1.967-6.945-3.011-18.072,1.52-20.468,1.685-.891,2.9.08,4.562-1.169C190.545,74.62,189.643,69.259,189.9,69.257Z" transform="translate(-17.067 -52.774)" fill="#abfbfb"/>
      <path id="Trazado_2509" data-name="Trazado 2509" d="M102.058,126.187c-.595-2.491,7.748-3.607,15.912-12.636,2.13-2.356,5.975-8.324,7.178-8.2.869.092.431,1.542,1.033,4.112,2.077,8.858,5.574,10.564,4.742,13.215C128.811,129.4,102.861,129.549,102.058,126.187Z" transform="translate(-18.712 -49.902)" fill="#69debc"/>
      <path id="Trazado_2510" data-name="Trazado 2510" d="M150.2,118.193c-.7-2.464,7.593-3.922,15.38-13.278,2.032-2.442,5.629-8.562,6.835-8.485.873.055.494,1.524,1.2,4.066,2.44,8.766,6,10.327,5.28,13.01C177.064,120.3,151.143,121.519,150.2,118.193Z" transform="translate(-16.95 -50.233)" fill="#69debc"/>
      <path id="Trazado_2511" data-name="Trazado 2511" d="M82.218,112.149c-.768-2.526-.423-4-1.3-4.037-1.209-.049-4.662,6.155-6.635,8.643-5.494,6.927-11.334,9.69-13.84,11.623l0-.006-.025.026a4.134,4.134,0,0,0-1.078,1.1,12.154,12.154,0,0,1-8.559,3.5c5.28,3.276,6.906,16.884,6.906,16.884a18.832,18.832,0,0,0,1.035-2.978,19.3,19.3,0,0,1,7.787-10.853,53.331,53.331,0,0,1,14.994-6.367H81.5c3.326-1.135,5.821-2.686,6.3-4.656C88.462,122.332,84.863,120.855,82.218,112.149Z" transform="translate(-22.994 -48.855)" fill="#69debc"/>
      <path id="Trazado_2512" data-name="Trazado 2512" d="M32.719,157.845a1.289,1.289,0,0,1,1.172-1.191c2.361-.215,6.722-.281,7.792.1,1.035.368.937,4.518-.632,4.377-2.682-.241-7.236.508-8.231-.515C32.4,160.187,32.652,158.778,32.719,157.845Z" transform="translate(-22.169 -49.123)" fill="#fff"/>
      <path id="Trazado_2513" data-name="Trazado 2513" d="M32.719,169.148a1.289,1.289,0,0,1,1.172-1.192c2.361-.215,6.722-.281,7.792.1,1.035.368.937,4.518-.632,4.377-2.682-.242-7.236.509-8.231-.515C32.4,171.489,32.652,170.08,32.719,169.148Z" transform="translate(-22.169 -47.176)" fill="#fff"/>
      <ellipse id="Elipse_285" data-name="Elipse 285" cx="1.187" cy="2.462" rx="1.187" ry="2.462" transform="translate(4.792 107.246)" fill="#fff"/>
      <ellipse id="Elipse_286" data-name="Elipse 286" cx="1.187" cy="2.462" rx="1.187" ry="2.462" transform="translate(4.792 120.491)" fill="#fff"/>
      <path id="Trazado_2514" data-name="Trazado 2514" d="M40.331,172.965H41.35c1.418,0,2.566-2.383,2.566-5.321s-1.148-5.322-2.566-5.322c1.418,0,2.566-2.383,2.566-5.322s-1.148-5.321-2.566-5.321h-1.4c.743-2.055,1.634-3.211,2.371-3.211,1.575,0,3.863,5.213,3.863,13.382s-2.287,13.382-3.863,13.382C41.709,175.231,40.985,174.424,40.331,172.965Z" transform="translate(-22.503 -46.3)" fill="#961caf"/>
      <path id="Trazado_2515" data-name="Trazado 2515" d="M42.553,175.719c2.671,0,4.837-6.428,4.837-14.357s-2.166-14.357-4.837-14.357c-1.332,0-2.537,1.6-3.413,4.186H37.91c.832-6.722,2.458-11.209,3.991-12.81l.242,3.447.431-3.966a1.272,1.272,0,0,1,.39-.122l.168,3.515.306-3.462a1.565,1.565,0,0,1,.351.175l.224,6.167.434-5.583c2.138,2.5,4.4,10.535,4.4,22.322,0,11.832-2.277,19.883-4.422,22.347l-.268-4.673-.524,5.333a1.249,1.249,0,0,1-.229.082l-.4-2.642-.472,2.549c-1.55-.815-3.334-4.863-4.353-11.393h1.315C40.327,174.5,41.393,175.719,42.553,175.719Z" transform="translate(-22.41 -45.814)" fill="#6140ff"/>
      <path id="Trazado_2516" data-name="Trazado 2516" d="M39.953,177.274a15.385,15.385,0,0,0,2,5.739c.5.767.824,1.125,1.551,1,1.878-.324,3.772-7.78,3.284-7.812-.769-.052-.609,2.505-2.535,3.257a3.377,3.377,0,0,1-2.431-.052C40.733,178.91,39.953,176.3,39.953,177.274Z" transform="translate(-22.503 -47.558)" fill="#6140ff"/>
      <path id="Trazado_2517" data-name="Trazado 2517" d="M44.883,188.568l-.261-3.084-.435,3.529-.056.028L43.874,185l-.358,3.439a3.285,3.285,0,0,1-2.052-1.048c-2.51-2.41-4.52-7.908-5.627-14.755v-.387H36.8c1.144,7.466,3.355,12.529,5.9,12.529,3.714,0,6.725-10.8,6.725-24.132s-3.011-24.132-6.725-24.132c-2.753,0-5.119,5.944-6.159,14.448h-.994v-.465c1.251-9.565,4.142-16.28,6.985-17.489l.241,1.47.321-1.637a2.19,2.19,0,0,1,.329-.046l.148,2.116.247-2.279c.123.031.253.048.37.09l.083.029a4.048,4.048,0,0,1,.683.337,6.454,6.454,0,0,1,1.632,1.533A14.522,14.522,0,0,1,48.424,138a40.135,40.135,0,0,1,2.088,7.51,76.265,76.265,0,0,1,1,7.784c.215,2.611.329,5.233.309,7.857a75.028,75.028,0,0,1-.35,7.836,65.8,65.8,0,0,1-1.142,7.744,37.149,37.149,0,0,1-2.326,7.422,14.456,14.456,0,0,1-1.974,3.3A7.719,7.719,0,0,1,44.883,188.568Z" transform="translate(-22.303 -45.582)" fill="#2df5f5"/>
      <path id="Trazado_2518" data-name="Trazado 2518" d="M38.717,183.609c.288.958,1.277,4.671,2.954,5.935a3.209,3.209,0,0,0,2.4.7c2.6-.222,4.968-5.358,4.292-5.38-1.064-.034-2.216,2.807-3.744,3.246a4.225,4.225,0,0,1-2.537-.263C40.491,186.961,38.717,182.943,38.717,183.609Z" transform="translate(-22.447 -47.89)" fill="#219b95"/>
      <g id="Grupo_1059" data-name="Grupo 1059" transform="translate(163.786 5.034)">
        <path id="Trazado_2519" data-name="Trazado 2519" d="M181.224,67.9s4.524,1.52,5.485-.727,1.161-10.709-3.8-9.85C180.523,57.738,181.224,67.9,181.224,67.9Z" transform="translate(-181.128 -57.264)" fill="#6140ff"/>
      </g>
      <g id="Grupo_1060" data-name="Grupo 1060" transform="translate(116.823 11.57)">
        <path id="Trazado_2520" data-name="Trazado 2520" d="M135.5,74.748s4.524,1.521,5.485-.727,1.161-10.709-3.8-9.85C134.8,64.583,135.5,74.748,135.5,74.748Z" transform="translate(-135.407 -64.11)" fill="#6140ff"/>
      </g>
      <g id="Grupo_1061" data-name="Grupo 1061" transform="translate(69.442 16.618)">
        <path id="Trazado_2521" data-name="Trazado 2521" d="M89.375,80.036s4.524,1.521,5.485-.727,1.162-10.708-3.8-9.849C88.675,69.872,89.375,80.036,89.375,80.036Z" transform="translate(-89.279 -69.398)" fill="#6140ff"/>
      </g>
      <g id="Grupo_1062" data-name="Grupo 1062">
        <path id="Trazado_2522" data-name="Trazado 2522" d="M180.4,63.312a21.806,21.806,0,0,0-.243-3.421,21.822,21.822,0,0,0-.243,3.421,21.6,21.6,0,0,0,.243,3.422A21.592,21.592,0,0,0,180.4,63.312Z" transform="translate(-17.699 -52.349)"/>
        <path id="Trazado_2523" data-name="Trazado 2523" d="M135.384,69.674a21.823,21.823,0,0,0-.243-3.422,21.943,21.943,0,0,0-.243,3.422,21.6,21.6,0,0,0,.243,3.422A21.593,21.593,0,0,0,135.384,69.674Z" transform="translate(-18.83 -52.638)"/>
        <path id="Trazado_2524" data-name="Trazado 2524" d="M89.515,75.879a21.927,21.927,0,0,0-.244-3.421,22.046,22.046,0,0,0-.243,3.421A21.6,21.6,0,0,0,89.27,79.3,21.71,21.71,0,0,0,89.515,75.879Z" transform="translate(-19.982 -52.919)"/>
        <path id="Trazado_2525" data-name="Trazado 2525" d="M231.785,130.273c-.313-.265.475-2.61.771-3.492,1.515-4.51,3.168-13.945-6.3-17.71-1.86-.74-23.07-.385-28.1-.466.867-4.861,1.914-10.126,3.345-13.748,2.211-5.59,3.315-9.112,2.245-22.1-.6-7.267-1.832-11.63-4.121-14.589l-.109-.144c-.166-.208-.3-.378-.449-.538-2.908-3.358-7.642-5.209-14.055-5.486-.087,0-.174-.005-.26-.005a5.22,5.22,0,0,0-3.859,1.654c-3.124,3.209-3.613,10.644-3.467,16.352-.111.825-.223,1.679-.342,2.581q-.269,2.051-.586,4.4a3.283,3.283,0,0,0-1.244,2.425,3.631,3.631,0,0,0,.354,1.98A3.538,3.538,0,0,0,174.3,83.18a3.7,3.7,0,0,0-.154,1.98,2.288,2.288,0,0,0,.624,1.166c-3.781,11.742-15.045,21.365-21.672,26.206l-.618.082a67.553,67.553,0,0,1,2.885-11.236c2.211-5.591,3.315-9.113,2.244-22.106-.6-7.276-1.835-11.642-4.13-14.6l-.091-.119c-.161-.2-.308-.384-.462-.556-2.909-3.354-7.641-5.2-14.05-5.479-.088,0-.175-.006-.26-.006a5.22,5.22,0,0,0-3.859,1.654c-3.125,3.208-3.613,10.644-3.467,16.352-.112.825-.224,1.678-.342,2.579q-.269,2.052-.587,4.406a3.281,3.281,0,0,0-1.243,2.425,3.632,3.632,0,0,0,.354,1.98,3.54,3.54,0,0,0-1.313,1.794,3.706,3.706,0,0,0-.154,1.98,2.287,2.287,0,0,0,.617,1.159c-3.953,12.147-16,22-23.063,26.926l-.247.041a70.773,70.773,0,0,1,3.041-12.07c2.211-5.59,3.315-9.113,2.245-22.106-.6-7.272-1.834-11.636-4.126-14.6l-.1-.13c-.163-.2-.305-.38-.457-.548C103,67,98.271,65.153,91.86,64.877c-.088,0-.175-.005-.26-.005a5.215,5.215,0,0,0-3.859,1.653c-3.124,3.209-3.613,10.644-3.467,16.352-.112.825-.224,1.678-.342,2.58q-.269,2.051-.586,4.405A3.28,3.28,0,0,0,82.1,92.287a3.63,3.63,0,0,0,.354,1.98,3.544,3.544,0,0,0-1.313,1.794,3.7,3.7,0,0,0-.153,1.98,2.28,2.28,0,0,0,.617,1.16c-5.033,15.471-23.1,27.149-27.16,29.611-4.533.848-7.893,1.487-9.709,1.836-5.57.3-9.889,7.617-11.916,20.157H27.309c-3.318,0-5.635,3.8-5.635,9.231a13.415,13.415,0,0,0,1.356,6.231,14.012,14.012,0,0,0-1.044,5.59c0,5.435,2.317,9.231,5.636,9.231h5.694c1.477,7.155,3.862,12.591,6.751,15.364a7.426,7.426,0,0,0,5.19,2.312c.072,0,.145,0,.217,0l.053,0,.053-.006,1.744-.235c.3-.044,29.19-4.25,47.385-4.25.754,0,1.487.007,2.2.023,5.248.107,10.551.618,16.164,1.161a235.343,235.343,0,0,0,23.529,1.434,144.174,144.174,0,0,0,27.272-2.592c.277,0,.736.006,1.346.006,5.776,0,43.17-1.409,50.17-5.609,6.189-3.712,6.537-8.614,6.746-11.542a9.183,9.183,0,0,1,.231-1.824,12.435,12.435,0,0,1,1.233-.956c3.136-2.259,8.96-6.454,8.094-18.644.072-.465.487-2.461,2.655-5.943C237.279,145.076,238.418,135.915,231.785,130.273ZM182.5,57.711l.414,4.741.5-6.252a3.164,3.164,0,0,1,.629-.554,3.453,3.453,0,0,1,1.109-.156,11.019,11.019,0,0,1,1.584.024,6.8,6.8,0,0,1,5.17,2.734,9.969,9.969,0,0,1,1.584,5.786,13.568,13.568,0,0,1-.37,3.052,8.422,8.422,0,0,1-.458,1.4,2.683,2.683,0,0,1-.616.973,4.782,4.782,0,0,1-2.4.828c-.22.028-.453.031-.679.047l-.49-5.616-.455,5.672c-.482.008-.97,0-1.459-.024-1.053-.052-2.117-.164-3.176-.315-.195-.029-.389-.064-.584-.094l-.527-6.041L181.8,69.8h-.005l-.305-.057C181.333,67.8,180.964,61.319,182.5,57.711Zm-46.141,6.521.413,4.741.5-6.252a3.191,3.191,0,0,1,.629-.554,3.457,3.457,0,0,1,1.109-.156,11.018,11.018,0,0,1,1.584.024,6.8,6.8,0,0,1,5.17,2.734,9.969,9.969,0,0,1,1.584,5.786,13.571,13.571,0,0,1-.369,3.052,8.524,8.524,0,0,1-.459,1.4,2.692,2.692,0,0,1-.616.973,4.778,4.778,0,0,1-2.4.828c-.22.028-.452.031-.677.047l-.49-5.616-.455,5.672c-.482.007-.97,0-1.46-.024-1.053-.052-2.115-.165-3.176-.315-.195-.029-.388-.064-.583-.094l-.528-6.041-.471,5.88h0l-.305-.057C135.191,74.316,134.822,67.84,136.354,64.232ZM89.34,70.592l.413,4.741.5-6.252a3.157,3.157,0,0,1,.628-.555,3.458,3.458,0,0,1,1.109-.156,11.028,11.028,0,0,1,1.585.024,6.8,6.8,0,0,1,5.169,2.734,9.978,9.978,0,0,1,1.585,5.787,13.63,13.63,0,0,1-.37,3.051,8.521,8.521,0,0,1-.458,1.4,2.688,2.688,0,0,1-.617.974,4.788,4.788,0,0,1-2.4.827c-.219.028-.452.031-.677.047l-.49-5.615-.455,5.672c-.482.007-.97,0-1.46-.025-1.052-.051-2.115-.164-3.175-.315-.2-.028-.389-.064-.584-.094L89.115,76.8l-.473,5.88h0l-.305-.058C88.177,80.676,87.808,74.2,89.34,70.592ZM42.663,155.106c.8,0,1.97,1.92,1.97,4.928s-1.167,4.929-1.97,4.929H30.373a4.48,4.48,0,0,0,.639-1.528,18.535,18.535,0,0,0,.373-3.7,14.432,14.432,0,0,0-.358-3.265,4.945,4.945,0,0,0-.508-1.366Zm1.045,25.549c2.869,0,5.193-6.9,5.193-15.414s-2.325-15.414-5.193-15.414c-1.43,0-2.724,1.718-3.664,4.494H38.723c.894-7.217,2.639-12.034,4.285-13.753l.258,3.7.463-4.258a1.351,1.351,0,0,1,.418-.131l.18,3.774.329-3.716a1.679,1.679,0,0,1,.377.188l.242,6.621.465-5.994c2.3,2.681,4.722,11.31,4.722,23.965,0,12.7-2.445,21.347-4.748,23.992l-.288-5.017-.563,5.725a1.34,1.34,0,0,1-.246.088l-.427-2.836-.506,2.737c-1.665-.875-3.579-5.221-4.674-12.232h1.411C41.319,179.349,42.462,180.655,43.708,180.655Zm-2.14-3.48h1.095c1.521,0,2.754-2.558,2.754-5.713s-1.233-5.714-2.754-5.714c1.521,0,2.754-2.558,2.754-5.714s-1.233-5.713-2.754-5.713h-1.5c.8-2.207,1.755-3.448,2.546-3.448,1.691,0,4.147,5.6,4.147,14.368s-2.456,14.368-4.147,14.368C43.047,179.608,42.27,178.742,41.568,177.175ZM26.013,159.956a12.189,12.189,0,0,1,.71-3.205c.36-.961,1.077-1.957,1.758-1.95a1.437,1.437,0,0,1,1.034.59,6.5,6.5,0,0,1,.863,1.311,7.5,7.5,0,0,1,.559,3.318,6.943,6.943,0,0,1-.544,3.2c-.485.944-1.132,1.948-1.912,2.019a1.546,1.546,0,0,1-1.2-.581,4.176,4.176,0,0,1-.861-1.385A7.514,7.514,0,0,1,26.013,159.956Zm2.468,16.911a1.543,1.543,0,0,1-1.2-.581,4.165,4.165,0,0,1-.861-1.385,7.51,7.51,0,0,1-.406-3.313,12.181,12.181,0,0,1,.71-3.2c.36-.962,1.077-1.957,1.758-1.952a1.439,1.439,0,0,1,1.034.591,6.469,6.469,0,0,1,.863,1.311,7.557,7.557,0,0,1,.638,3.317,6.985,6.985,0,0,1-.623,3.2C29.907,175.791,29.261,176.8,28.481,176.866Zm2.028-.477a4.734,4.734,0,0,0,.5-1.323,15.566,15.566,0,0,0,.538-3.337,18.071,18.071,0,0,0-.523-3.624,4.7,4.7,0,0,0-.638-1.572H42.663c.8,0,1.97,1.92,1.97,4.929s-1.167,4.928-1.97,4.928ZM46.635,194.7l-.28-3.311-.467,3.789-.06.03-.276-4.341-.383,3.692a3.522,3.522,0,0,1-2.2-1.125c-2.7-2.587-4.854-8.49-6.041-15.842v-.415h1.037c1.227,8.016,3.6,13.451,6.33,13.451,3.987,0,7.219-11.6,7.219-25.909s-3.232-25.909-7.219-25.909c-2.957,0-5.5,6.381-6.613,15.512H36.612v-.5c1.344-10.269,4.447-17.478,7.5-18.777l.258,1.578.343-1.758a2.343,2.343,0,0,1,.354-.049l.159,2.271.266-2.447c.131.033.271.051.4.1.03.01.06.019.089.031a4.272,4.272,0,0,1,.733.362,6.929,6.929,0,0,1,1.753,1.646,15.592,15.592,0,0,1,1.973,3.633,43.012,43.012,0,0,1,2.242,8.063,81.884,81.884,0,0,1,1.077,8.357c.231,2.8.355,5.619.332,8.435a80.548,80.548,0,0,1-.376,8.413,70.649,70.649,0,0,1-1.225,8.314,39.953,39.953,0,0,1-2.5,7.968,15.482,15.482,0,0,1-2.12,3.547A8.287,8.287,0,0,1,46.635,194.7ZM230.8,147.565c-3.151,5.064-3.29,7.8-3.3,8.1l0,.075.006.076c.777,10.024-3.509,13.111-6.345,15.154a11.531,11.531,0,0,0-1.976,1.639c-1,1.151-1.108,2.653-1.221,4.243-.189,2.652-.4,5.658-4.724,8.251-5.863,3.518-42.777,5.113-49.571,5l-.161,0-.159.031c-20.665,3.975-36.182,2.475-49.874,1.152-5.7-.549-11.078-1.07-16.477-1.181-15.869-.312-41.6,3.065-48.514,4.024h0a15.421,15.421,0,0,0,2.86-3.425,33.659,33.659,0,0,0,3.516-8.094,55.142,55.142,0,0,0,1.807-8.6,74.122,74.122,0,0,0,.555-8.747,68.175,68.175,0,0,0-2.172-17.337,35.669,35.669,0,0,0-3.243-8.191,15.424,15.424,0,0,0-2.71-3.541,7.6,7.6,0,0,0-1.854-1.273,4.732,4.732,0,0,0-.546-.205l-.005-.181c2.761-.527,5.753-.988,9.032-1.6a6.99,6.99,0,0,0,1.664-.575,38.406,38.406,0,0,0,4.132-3.173c7.73-5.436,20.948-16.483,24.594-30.535.253,0,.507-.005.767-.012a19.761,19.761,0,0,0,2.689-.283,19.969,19.969,0,0,0,5.006-1.562,19.185,19.185,0,0,1-5.044-.007,17.988,17.988,0,0,1-2.4-.489l-.241-.072a1.816,1.816,0,0,1-1.57-.6.876.876,0,0,1,.175-1.118,1.815,1.815,0,0,1,1.54-.143c.5.075.975.127,1.474.166a19.677,19.677,0,0,0,2.7.007,19.984,19.984,0,0,0,5.144-1.016,19.187,19.187,0,0,1-5.013-.548,17.658,17.658,0,0,1-2.336-.743,14.984,14.984,0,0,1-1.5-.692,1.32,1.32,0,0,1-.867-.894,1.572,1.572,0,0,1,.447-1.49,1.02,1.02,0,0,1,.6-.218c.136-1.02.267-2,.388-2.93.014-.112.029-.214.043-.324l.064.008q.852.1,1.708.176c1.141.1,2.29.153,3.452.145a20.438,20.438,0,0,0,3.545-.3,6.936,6.936,0,0,0,3.654-1.657,4.921,4.921,0,0,0,1.084-1.848,10.7,10.7,0,0,0,.47-1.786,15.708,15.708,0,0,0,.216-3.553,12.9,12.9,0,0,0-1.289-5.108c2.979,1.642,4.679,5.546,5.393,14.221.789,9.583.327,13.539-.762,16.962l-.006.01a8.887,8.887,0,0,1-1.094.907,3.548,3.548,0,0,1-2.257.789,4.085,4.085,0,0,0,2.484.713c-.108.275-.217.554-.331.84-1.855,4.691-3.074,11.666-3.962,16.759-.1.577-.2,1.123-.29,1.651l0,.006a20.208,20.208,0,0,1-2,2.118c-1.351,1.264-4.812,3.188-4.546,3.48.268.43,3.782-.936,5.652-1.7a22.57,22.57,0,0,0,2.761-1.326,17.881,17.881,0,0,0,2.68-1.8l-.022-.018c5.965-3.735,24.033-16.251,28.4-33.07.253,0,.506,0,.767-.012A19.587,19.587,0,0,0,136.584,92a19.94,19.94,0,0,0,5.006-1.561,19.132,19.132,0,0,1-5.043-.008,17.749,17.749,0,0,1-2.4-.488,1.709,1.709,0,0,1-1.417-.6.876.876,0,0,1,.175-1.117A1.484,1.484,0,0,1,134.023,88c.5.077.992.129,1.5.169a19.694,19.694,0,0,0,2.7.007,19.951,19.951,0,0,0,5.144-1.017,19.186,19.186,0,0,1-5.013-.547,17.818,17.818,0,0,1-2.336-.744c-.319-.126-.645-.27-.961-.418a1.416,1.416,0,0,1-1.11-.98,1.573,1.573,0,0,1,.448-1.49.957.957,0,0,1,.273-.149c.149-1.111.291-2.186.423-3.188.014-.112.028-.213.043-.323l.063.008q.853.1,1.708.176c1.142.1,2.29.153,3.453.145a20.459,20.459,0,0,0,3.545-.3,6.933,6.933,0,0,0,3.654-1.656,4.921,4.921,0,0,0,1.084-1.848,10.8,10.8,0,0,0,.47-1.786,15.653,15.653,0,0,0,.215-3.555,12.9,12.9,0,0,0-1.288-5.108c2.977,1.642,4.678,5.546,5.393,14.221.789,9.584.327,13.54-.762,16.962l-.007.011a8.876,8.876,0,0,1-1.093.907,3.556,3.556,0,0,1-2.257.789A4.078,4.078,0,0,0,151.8,99c-.108.276-.218.555-.331.842-1.855,4.689-3.073,11.663-3.962,16.754q-.186,1.07-.356,2.022c-.58.555-1.186,1.095-1.821,1.609-1.367,1.1-4.354,2.861-3.97,3.348.323.43,3.056-1.306,4.762-1.994.852-.348,1.694-.733,2.525-1.162.3-.159.592-.317.883-.481l0,.007c1.054-.607,24.656-14.414,29.737-34.172.252,0,.5-.005.763-.012a19.758,19.758,0,0,0,2.689-.283,19.968,19.968,0,0,0,5.006-1.562,19.176,19.176,0,0,1-5.043-.007,17.8,17.8,0,0,1-2.4-.49c-.066-.017-.132-.038-.2-.057a1.619,1.619,0,0,1-1.29-.6.876.876,0,0,1,.174-1.117,1.9,1.9,0,0,1,1.648-.114c.346.043.69.09,1.043.118a19.683,19.683,0,0,0,2.7.007,19.985,19.985,0,0,0,5.144-1.016,19.2,19.2,0,0,1-5.013-.548,17.7,17.7,0,0,1-2.335-.744c-.39-.154-.783-.333-1.16-.519a1.359,1.359,0,0,1-.985-.936,1.57,1.57,0,0,1,.447-1.489.975.975,0,0,1,.359-.185c.145-1.078.284-2.122.411-3.1.015-.112.029-.213.043-.323l.064.008q.852.1,1.708.176c1.142.1,2.29.153,3.453.144a20.334,20.334,0,0,0,3.544-.3,6.926,6.926,0,0,0,3.654-1.656,4.895,4.895,0,0,0,1.084-1.848,10.7,10.7,0,0,0,.47-1.786,15.592,15.592,0,0,0,.216-3.555,12.9,12.9,0,0,0-1.289-5.108c2.978,1.642,4.679,5.546,5.394,14.221.789,9.585.326,13.541-.762,16.963l-.007.01a8.889,8.889,0,0,1-1.094.907,3.551,3.551,0,0,1-2.256.789,4.077,4.077,0,0,0,2.483.712c-.107.276-.217.554-.331.841-1.853,4.687-3.287,11.767-4.176,16.858-.077.439-.22.806-.293,1.217-.055.218-.107.491-.155.767a.816.816,0,0,0,.837.956c6.712-.3,28.655-1.338,30.425-.372,7.271,3.972,5.846,8.214,4.338,12.705-.931,2.771-1.985,5.913.485,8.013C233.809,137.491,232.934,144.135,230.8,147.565Z" transform="translate(-21.674 -51.991)"/>
      </g>
    </g>
    <g id="Grupo_1065" data-name="Grupo 1065" transform="translate(81.976 139.105)">
      <g id="Grupo_1064" data-name="Grupo 1064">
        <path id="Trazado_2526" data-name="Trazado 2526" d="M81.1,150.473a5.766,5.766,0,0,1-1.842,3.209q-1.511,1.24-3.025,2.447a.974.974,0,0,0,.69.656l1.08.378q2.712,1.5,2.878,3.812a5.1,5.1,0,0,1-.982,3.367,10.811,10.811,0,0,1-2.616,2.479l-2.873,1.964a1.6,1.6,0,0,1-.8.278,1.461,1.461,0,0,1-1.5-.741q-.127-2.626-.25-5.224a45.374,45.374,0,0,1-.026-5.178,1.227,1.227,0,0,1-.728-.953.721.721,0,0,1,.2-.532,4.6,4.6,0,0,1,.6-.56,66.027,66.027,0,0,0-.473-8.757,2.454,2.454,0,0,1-2.03-1.174.581.581,0,0,1,.082-.382.891.891,0,0,0,.112-.416,2.63,2.63,0,0,1,1.555-.645,22.192,22.192,0,0,1,2.9.2,7.913,7.913,0,0,1,2.465.671q3.5,1.508,4.211,3.12A3.71,3.71,0,0,1,81.1,150.473Zm-3.048-1.351q-.241-1.143-2-1.646a5.848,5.848,0,0,1-.81-.349,1.22,1.22,0,0,0-.642-.205.808.808,0,0,0-.277.082q.006.534.05,1.126.059.813.323,2.74.221,1.773.262,2.775a1.321,1.321,0,0,0,.632-.375c.276-.239.433-.371.474-.4a4.228,4.228,0,0,0,1.55-1.587A3.038,3.038,0,0,0,78.048,149.122Zm-.058,12.311a3.689,3.689,0,0,0,.015-.661,2.531,2.531,0,0,0-.712-1.612,6.9,6.9,0,0,0-2.086-.637,1.2,1.2,0,0,0-.462.128c.035.207.063.434.081.686a17.78,17.78,0,0,1-.028,2.026,17.687,17.687,0,0,0-.024,2.059,6.106,6.106,0,0,0,.379,1.793,4.939,4.939,0,0,1,1.105-1.006,4.593,4.593,0,0,0,1.046-.938A4.044,4.044,0,0,0,77.99,161.433Z" transform="translate(-69.397 -135.558)"/>
        <path id="Trazado_2527" data-name="Trazado 2527" d="M86.4,148.025q.127.9.2,1.869.152,2.124.023,6.434t.026,6.5q.059.812.146,1.59a1.125,1.125,0,0,1-1.158.931c-.9.022-1.416-.328-1.55-1.05a20.17,20.17,0,0,1-.291-2.3,57.3,57.3,0,0,1,.059-6.378,56.673,56.673,0,0,0,.063-6.345c-.038-.541-.1-1.071-.176-1.589a1.1,1.1,0,0,1,1.019-.67,2.369,2.369,0,0,1,1.211.258.39.39,0,0,1,.181-.107c.061,0,.1.1.116.306a1.354,1.354,0,0,0,.032.438A.2.2,0,0,0,86.4,148.025Z" transform="translate(-70.046 -135.672)"/>
        <path id="Trazado_2528" data-name="Trazado 2528" d="M96.7,144.072c.04.562-.309.944-1.048,1.142a3.74,3.74,0,0,0-1.764.788,13.3,13.3,0,0,0-2.814,9.777A15.274,15.274,0,0,0,92.32,160.9q.864,1.946,1.22,2.549A5.133,5.133,0,0,0,95.6,165.5c.323.123.646.236.966.339a.863.863,0,0,1,.557.745,1.416,1.416,0,0,1-.263.93.677.677,0,0,1-.681.363,6.4,6.4,0,0,1-1.278-.317,10.915,10.915,0,0,1-3.516-3.483q-.488-.689-1-1.42a7.048,7.048,0,0,1-.775-1.405,39.18,39.18,0,0,1-.821-3.991,18.577,18.577,0,0,1-.277-2.115,14.267,14.267,0,0,1,2.541-9.634,5.224,5.224,0,0,1,3.743-2.528,2.629,2.629,0,0,1,1.631.417C96.586,143.493,96.675,143.719,96.7,144.072Z" transform="translate(-70.261 -135.489)"/>
        <path id="Trazado_2529" data-name="Trazado 2529" d="M106.8,143.73a68.272,68.272,0,0,1-2.557,9.414q-2.277,6.789-2.878,9.342a4.249,4.249,0,0,0-.066,1.26,13.068,13.068,0,0,1,.095,1.313,1.052,1.052,0,0,1-1.078,1.175,1.677,1.677,0,0,1-1.166-.277c-.427-.252-.641-.534-.642-.849a17.737,17.737,0,0,1,.782-5.3q.788-2.569,1.577-5.137a65.271,65.271,0,0,0-4.4-8.411.61.61,0,0,1-.116-.305.828.828,0,0,1,.345-.669,1.28,1.28,0,0,1,.745-.351q.062,0,1.211.259a22.556,22.556,0,0,1,1.844,2.943q.831,1.542,1.633,3.085.49-1.919.982-3.806a16.926,16.926,0,0,1,1.338-3.675.918.918,0,0,1,.842-.5A2,2,0,0,1,106.8,143.73Z" transform="translate(-70.618 -135.501)"/>
        <path id="Trazado_2530" data-name="Trazado 2530" d="M117.083,142.609q.06.843-1.047,1.142a3.741,3.741,0,0,0-1.764.787,13.3,13.3,0,0,0-2.815,9.777,15.274,15.274,0,0,0,1.247,5.124q.861,1.946,1.219,2.549a5.138,5.138,0,0,0,2.062,2.049q.484.186.966.34a.862.862,0,0,1,.556.745,1.41,1.41,0,0,1-.263.93.679.679,0,0,1-.681.363,6.438,6.438,0,0,1-1.278-.317,10.89,10.89,0,0,1-3.515-3.484q-.488-.687-1-1.42a7.082,7.082,0,0,1-.777-1.4,39.529,39.529,0,0,1-.819-3.991,18.831,18.831,0,0,1-.279-2.115,14.269,14.269,0,0,1,2.543-9.633,5.222,5.222,0,0,1,3.742-2.528,2.619,2.619,0,0,1,1.632.418C116.969,142.03,117.058,142.256,117.083,142.609Z" transform="translate(-71.185 -135.423)"/>
        <path id="Trazado_2531" data-name="Trazado 2531" d="M127.131,157.27q-.062.036-3.468,2.867a21.618,21.618,0,0,1-3.556,2.495.828.828,0,0,1-.368.121,1.027,1.027,0,0,1-.853-.505q-.616-.71-.649-.739-.261-2.748-.206-7.689.093-5.258-.073-7.573-.115-1.594-.341-2.994a1.4,1.4,0,0,1,1-.48c.791-.057,1.271.2,1.438.774q.276,2.556.331,7.685t.3,7.687a15.459,15.459,0,0,0,2.185-1.477,21.66,21.66,0,0,1,2.117-1.566,4.07,4.07,0,0,0,.541-.1,4.043,4.043,0,0,1,.575-.1.961.961,0,0,1,.94.436A.988.988,0,0,1,127.131,157.27Z" transform="translate(-71.583 -135.48)"/>
        <path id="Trazado_2532" data-name="Trazado 2532" d="M138.313,144.424a33.773,33.773,0,0,1-3.325,1.336,33.976,33.976,0,0,0-3.325,1.338,16.213,16.213,0,0,0-.147,3.653,3.308,3.308,0,0,0,1.169.1,10.562,10.562,0,0,0,1.456-.261,10.855,10.855,0,0,1,1.457-.263,2.892,2.892,0,0,1,1.526.267,2.223,2.223,0,0,1,.5.781.383.383,0,0,1-.195.36,3.807,3.807,0,0,0-.406.468.709.709,0,0,1-.606.295,13.292,13.292,0,0,1-2.392.361,6.984,6.984,0,0,0-2.315.542,15.6,15.6,0,0,0-.331,3.7,3.405,3.405,0,0,0,.353,1.42q1.542.926,5.153.509a.852.852,0,0,0,.515-.272.82.82,0,0,1,.452-.267q.859-.252,1.25,1.229a1.245,1.245,0,0,1-.105.933.928.928,0,0,1-.734.508,23.388,23.388,0,0,1-6.6-.122,3.312,3.312,0,0,1-1.662-.853,2.8,2.8,0,0,1-.933-1.629,21.207,21.207,0,0,1-.35-4.873q-.916-.53-.863-1.1c.008-.189.157-.371.448-.55s.45-.35.479-.521.043-1.165.038-2.985q-1.776-.218-1.813-1.188a1.681,1.681,0,0,1,.99-1.516q.971-.475,1.941-.956a14.837,14.837,0,0,1,2.829-1.27q1.5-.516,3-1a1.919,1.919,0,0,1,.373-.058,4.054,4.054,0,0,1,2.015.515c.026.081.09.234.189.457a1.742,1.742,0,0,1,.16.491A.479.479,0,0,1,138.313,144.424Z" transform="translate(-72.008 -135.469)"/>
        <path id="Trazado_2533" data-name="Trazado 2533" d="M158.6,144.909a5.765,5.765,0,0,1-1.841,3.21q-1.514,1.24-3.026,2.446a.971.971,0,0,0,.69.657l1.079.377q2.712,1.5,2.879,3.812a5.112,5.112,0,0,1-.982,3.368,10.816,10.816,0,0,1-2.617,2.479l-2.873,1.964a1.6,1.6,0,0,1-.8.277,1.46,1.46,0,0,1-1.5-.74q-.127-2.628-.25-5.225a45.616,45.616,0,0,1-.027-5.178,1.226,1.226,0,0,1-.727-.952.715.715,0,0,1,.2-.533,4.675,4.675,0,0,1,.6-.56,66.206,66.206,0,0,0-.473-8.757,2.456,2.456,0,0,1-2.031-1.174.583.583,0,0,1,.083-.382.883.883,0,0,0,.111-.416,2.633,2.633,0,0,1,1.556-.645,22.079,22.079,0,0,1,2.9.2,7.915,7.915,0,0,1,2.465.67q3.5,1.509,4.211,3.121A3.713,3.713,0,0,1,158.6,144.909Zm-3.047-1.35q-.241-1.144-2-1.647a5.658,5.658,0,0,1-.811-.349,1.22,1.22,0,0,0-.641-.205.786.786,0,0,0-.277.083c0,.355.021.731.05,1.126.038.543.145,1.455.323,2.741q.219,1.771.262,2.774a1.325,1.325,0,0,0,.632-.375c.275-.238.433-.37.474-.394a4.228,4.228,0,0,0,1.55-1.587A3.04,3.04,0,0,0,155.553,143.559Zm-.059,12.31a3.686,3.686,0,0,0,.016-.661,2.528,2.528,0,0,0-.712-1.611,6.875,6.875,0,0,0-2.086-.637,1.161,1.161,0,0,0-.462.128,6.852,6.852,0,0,1,.08.685,17.972,17.972,0,0,1-.027,2.027,17.717,17.717,0,0,0-.025,2.058,6.129,6.129,0,0,0,.38,1.793,4.917,4.917,0,0,1,1.105-1.005,4.616,4.616,0,0,0,1.046-.938A4.038,4.038,0,0,0,155.494,155.869Z" transform="translate(-72.91 -135.306)"/>
        <path id="Trazado_2534" data-name="Trazado 2534" d="M171.586,151.1q-1.545,4.286-4.861,5.309a3.656,3.656,0,0,1-.806.153,5.089,5.089,0,0,1-3.731-1.678,4.816,4.816,0,0,1-1.463-3.317,10.89,10.89,0,0,1,1.019-5.065,7.556,7.556,0,0,1,1.3-2.039,2.731,2.731,0,0,1,1.773-1.1,1.428,1.428,0,0,1,.965.307,8.649,8.649,0,0,0,2.413.831,3.538,3.538,0,0,1,2.245,1.534,8.1,8.1,0,0,1,1.351,3.513A3.666,3.666,0,0,1,171.586,151.1Zm-2.638-1.757q-.382-2.263-1.413-2.63a.8.8,0,0,0-.285-.042c-.251.017-.547.247-.893.691a3.015,3.015,0,0,1-.908.914c-.141.072-.354.025-.638-.143a1.432,1.432,0,0,0-.551-.243.2.2,0,0,0-.151.074,3.624,3.624,0,0,0-.886,2.983,4.031,4.031,0,0,0,.789,2.236q.965,1.216,1.56,1.174a3.487,3.487,0,0,0,2.531-1.908A4.324,4.324,0,0,0,168.949,149.342Z" transform="translate(-73.536 -135.506)"/>
        <path id="Trazado_2535" data-name="Trazado 2535" d="M182.781,153.275q-.062.036-3.467,2.867a21.635,21.635,0,0,1-3.557,2.5.821.821,0,0,1-.368.119,1.028,1.028,0,0,1-.853-.5c-.411-.474-.627-.72-.648-.74q-.262-2.748-.207-7.688.095-5.26-.073-7.574-.115-1.594-.341-2.994a1.4,1.4,0,0,1,1-.48q1.189-.086,1.439.775.276,2.555.331,7.684t.3,7.686a15.414,15.414,0,0,0,2.185-1.476,21.56,21.56,0,0,1,2.117-1.566,4,4,0,0,0,.541-.1,4.251,4.251,0,0,1,.574-.105.961.961,0,0,1,.941.436A.988.988,0,0,1,182.781,153.275Z" transform="translate(-74.106 -135.298)"/>
        <path id="Trazado_2536" data-name="Trazado 2536" d="M198.567,136.074a1.566,1.566,0,0,1-.968,1.388q-1.995.647-6.965,1.819-.066,7.82.305,13.006.142,1.968.341,3.869a2.8,2.8,0,0,1,0,.909.574.574,0,0,1-.592.514,1.942,1.942,0,0,1-1.552-.657,2.874,2.874,0,0,1-.774-1.593q-.146-1.15-.238-2.432-.147-2.061-.187-6.548-.026-4.3-.219-6.546a11.474,11.474,0,0,0-2.332.325,19.442,19.442,0,0,1-2.355.42,3.753,3.753,0,0,1-2.558-.639c-.289-.527-.434-.8-.435-.824a.748.748,0,0,1,.184-.488,21.293,21.293,0,0,1,4.047-.924,11.416,11.416,0,0,0,3.988-1.3,7.715,7.715,0,0,0,2.525.2,10.389,10.389,0,0,0,2.663-.537,16.216,16.216,0,0,0,1.873-.575,5.246,5.246,0,0,1,1.861-.322q.563-.041.5.434Q198.526,135.512,198.567,136.074Z" transform="translate(-74.413 -135.134)"/>
        <path id="Trazado_2537" data-name="Trazado 2537" d="M201.8,136.461q.046.624-.828,1.157a.663.663,0,0,1-.528.07c-.3-.06-.457-.092-.478-.09a.544.544,0,0,0-.361.213,5.628,5.628,0,0,0-1.392,4.243,4.962,4.962,0,0,0,.4,1.667q.15.335,2.722,4.671a11.924,11.924,0,0,1,1.864,4.984,7,7,0,0,1-.605,3.37,5.116,5.116,0,0,1-1.308,1.476,2.88,2.88,0,0,1-1.576.772,1.523,1.523,0,0,1-.537-.055q-.967-.339-1.011-.963a1.519,1.519,0,0,1,.4-.94.851.851,0,0,1,.579-.229.675.675,0,0,0,.6-.42,6.489,6.489,0,0,0,.454-2.857q-.146-2.031-2.437-5.744a14.48,14.48,0,0,1-2.457-6.024,7.514,7.514,0,0,1,.5-3.458,5.145,5.145,0,0,1,2.227-2.64,3.251,3.251,0,0,1,1.381-.445,2.536,2.536,0,0,1,2.019.578A1.034,1.034,0,0,1,201.8,136.461Z" transform="translate(-75.104 -135.137)"/>
      </g>
    </g>
  </g>
</svg>
