<svg id="black-envelope" xmlns="http://www.w3.org/2000/svg" width="35" height="26" viewBox="0 0 35 26">
  <g id="Grupo_189" data-name="Grupo 189" transform="translate(0 0)">
    <path id="Trazado_287" data-name="Trazado 287" d="M2.331,5.715l12.607,10.6a3.077,3.077,0,0,0,2.125.653,3.069,3.069,0,0,0,2.123-.653l12.607-10.6c1.01-.844.781-1.536-.5-1.536H2.835C1.552,4.179,1.324,4.871,2.331,5.715Z" transform="translate(0.437 -4.179)" fill="#6c5ce6"/>
    <path id="Trazado_288" data-name="Trazado 288" d="M33.141,7.532l-13.777,11.1a3.185,3.185,0,0,1-3.725,0L1.859,7.532C.837,6.709,0,7.15,0,8.512V26.724A2.415,2.415,0,0,0,2.333,29.2H32.667A2.415,2.415,0,0,0,35,26.724V8.512C35,7.15,34.163,6.709,33.141,7.532Z" transform="translate(0 -3.2)" fill="#6c5ce6"/>
  </g>
</svg>
