<svg xmlns="http://www.w3.org/2000/svg" width="544.541" height="371.736" viewBox="0 0 544.541 371.736">
  <g id="Grupo_1110" data-name="Grupo 1110" transform="translate(-21.674 -51.991)">
    <g id="Grupo_1063" data-name="Grupo 1063" transform="translate(21.674 51.991)">
      <path id="Trazado_2497" data-name="Trazado 2497" d="M499.25,299.554l-.013-.194,0-.192c.013-.756.371-7.762,8.456-20.732,5.477-8.786,7.722-25.8-4.428-36.117-6.337-5.381-3.631-13.427-1.244-20.525,3.87-11.5,7.525-22.368-11.128-32.537-4.538-2.475-60.831.171-78.048.95a2.093,2.093,0,0,1-2.151-2.449c.123-.7.258-1.4.4-1.964.184-1.053.552-1.992.749-3.116,2.28-13.036,14.307-52.505,14.861-55.29,2-8.093,2.637-18.532.894-39.679a107.743,107.743,0,0,0-3.468-21.173,27.746,27.746,0,0,1-.981,3.528,12.528,12.528,0,0,1-2.782,4.733,14.348,14.348,0,0,1-5,3.061c-.024.066-.037.129-.061.192a12.553,12.553,0,0,1-2.779,4.733c-2.979,2.819-6.332,3.609-9.376,4.245a52.5,52.5,0,0,1-9.092.769c-2.254.016-4.483-.084-6.7-.231l-.021.16a2.5,2.5,0,0,0-.92.473,4.016,4.016,0,0,0-1.146,3.814,3.485,3.485,0,0,0,2.527,2.4c.968.475,1.977.935,2.976,1.328a45.481,45.481,0,0,0,5.99,1.906,49.326,49.326,0,0,0,12.86,1.4,51.344,51.344,0,0,1-13.2,2.6,50.577,50.577,0,0,1-6.936-.018c-.907-.071-1.788-.192-2.677-.3-1.586-.438-3.255-.509-4.226.291a2.117,2.117,0,0,0-.747,1.617c.365.16.723.344,1.089.488a45.452,45.452,0,0,0,5.99,1.9c4.118,1.021,14.151,2.061,16.134,1.806a51.761,51.761,0,0,1-19.741,4.725c-.663.018-1.31.029-1.956.031-.252.979-.555,1.945-.841,2.914.586.1-.421,4.675-1.572,4.793-7.028,19.485-20.685,36.4-34.393,49.586a222.522,222.522,0,0,1-47.324,38.209l-.01-.018c-.747.42-1.5.824-2.267,1.231q-3.2,1.65-6.479,2.977c-4.375,1.761-11.388,6.208-12.216,5.106-.931-1.184,11.506-11.883,15.169-14.461.195-1.1.394-2.229.6-3.415,2.28-13.038,13.854-51.794,14.309-55.022,2-8.1,2.64-18.535.894-39.677a107.551,107.551,0,0,0-3.468-21.176,27.332,27.332,0,0,1-.978,3.528A12.6,12.6,0,0,1,302,91.5a14.356,14.356,0,0,1-5,3.061c-.021.066-.037.129-.058.192a12.6,12.6,0,0,1-2.782,4.733c-2.979,2.819-6.332,3.609-9.374,4.242a52.313,52.313,0,0,1-9.1.772c-2.253.016-4.481-.084-6.7-.231l-.053.394a2.457,2.457,0,0,0-.7.381,4.024,4.024,0,0,0-1.149,3.817,3.629,3.629,0,0,0,2.848,2.509c.812.381,1.649.748,2.466,1.071a45.767,45.767,0,0,0,5.992,1.906,49.3,49.3,0,0,0,12.86,1.4,51.254,51.254,0,0,1-13.2,2.6,50.6,50.6,0,0,1-6.939-.018c-1.3-.1-2.556-.236-3.849-.433a3.811,3.811,0,0,0-2.863.567,2.118,2.118,0,0,0-.747,1.567c.3.129.6.273.9.391a45.383,45.383,0,0,0,5.992,1.906c4.115,1.021,14.149,2.061,16.131,1.806a51.221,51.221,0,0,1-12.842,4,50.7,50.7,0,0,1-6.9.722c-.668.021-1.317.031-1.967.031-.255.982-.549,1.948-.839,2.916.586.1-.421,4.675-1.578,4.8-6.926,18.981-20.3,35.524-33.893,48.57-16.691,18.065-35.623,30.922-44.384,36.4l.055.047a45.88,45.88,0,0,1-6.876,4.617,58.349,58.349,0,0,1-7.084,3.4c-4.8,1.963-13.812,5.463-14.5,4.36-.634-.693,12.839-11.839,16.862-14.776.218-1.226.436-2.475.671-3.8,2.282-13.044,13.068-51.35,14.314-55.036,3.213-14.025,2.637-18.535.891-39.677a107.551,107.551,0,0,0-3.468-21.173,27.277,27.277,0,0,1-.978,3.525,12.6,12.6,0,0,1-2.782,4.733,14.372,14.372,0,0,1-5,3.061c-.024.066-.037.129-.06.192a12.591,12.591,0,0,1-2.782,4.735c-2.976,2.817-6.329,3.607-9.374,4.242a52.523,52.523,0,0,1-9.1.769c-2.551.018-5.07-.1-7.578-.286a2.338,2.338,0,0,0-.636.352,4.022,4.022,0,0,0-1.146,3.817,3.377,3.377,0,0,0,2.224,2.289,38.483,38.483,0,0,0,3.849,1.772,45.379,45.379,0,0,0,5.992,1.9,49.3,49.3,0,0,0,12.86,1.4,51.343,51.343,0,0,1-13.2,2.6,50.567,50.567,0,0,1-6.936-.018c-1.281-.1-2.511-.234-3.781-.425-1.5-.37-3.037-.386-3.952.367a2.122,2.122,0,0,0-.742,1.336c.634.289,1.278.564,1.912.816a45.5,45.5,0,0,0,5.992,1.9c4.115,1.021,14.149,2.061,16.134,1.806a51.271,51.271,0,0,1-12.845,4,50.7,50.7,0,0,1-6.9.725c-.665.018-1.317.029-1.967.031-.255.982-.6,1.935-.889,2.906.6.105-.392,4.686-1.562,4.806-6.947,19.026-20.349,35.613-33.974,48.67a220.663,220.663,0,0,1-34.508,29.807c-4.538,3.52-7.914,6.77-10.6,8.127a17.955,17.955,0,0,1-4.267,1.473c-2.79.52-5.469.987-8.1,1.441a41.912,41.912,0,0,1,5.9,7.985,91.262,91.262,0,0,1,8.319,20.979c3.952,14.5,5.443,29.486,5.572,44.4a189.49,189.49,0,0,1-1.423,22.4,141.02,141.02,0,0,1-4.636,22.013,86.128,86.128,0,0,1-9.019,20.73,39.506,39.506,0,0,1-7.336,8.773l-.005,0c17.733-2.454,83.746-11.1,124.457-10.306,13.852.283,27.653,1.617,42.27,3.024,35.126,3.389,74.933,7.229,127.946-2.95l.408-.079.413.005c17.428.283,112.128-3.8,127.168-12.813.479-.286.912-.577,1.352-.869,2.33-4.142,2.645-8.361,2.924-12.277.289-4.071.565-7.919,3.132-10.867a29.585,29.585,0,0,1,5.069-4.2c.31-.221.634-.457.952-.69a10.268,10.268,0,0,1,1.822-3.1,29.574,29.574,0,0,1,5.069-4.2c.823-.591,1.693-1.223,2.585-1.9C497.449,322.593,500.357,313.823,499.25,299.554Z" transform="translate(15.418 -31.367)" fill="#bef7ff"/>
      <path id="Trazado_2498" data-name="Trazado 2498" d="M59.154,152.6c1.893,0,4.647,4.529,4.647,11.625s-2.754,11.628-4.647,11.628H30.161a10.568,10.568,0,0,0,1.506-3.605,38.408,38.408,0,0,0,.653-8.206,38.2,38.2,0,0,0-.617-8.219,11.663,11.663,0,0,0-1.2-3.223Z" transform="translate(-9.64 109.857)" fill="#e3e1e1"/>
      <path id="Trazado_2499" data-name="Trazado 2499" d="M30.46,187a11.168,11.168,0,0,0,1.185-3.122,38.4,38.4,0,0,0,.653-8.206,38.164,38.164,0,0,0-.617-8.216,11.088,11.088,0,0,0-1.5-3.709H59.132c1.893,0,4.647,4.529,4.647,11.628S61.025,187,59.132,187Z" transform="translate(-9.617 127.793)" fill="#e3e1e1"/>
      <path id="Trazado_2500" data-name="Trazado 2500" d="M31.772,188.262a3.639,3.639,0,0,1-2.834-1.371,9.823,9.823,0,0,1-2.031-3.267,17.717,17.717,0,0,1-.957-7.815,28.736,28.736,0,0,1,1.676-7.558c.849-2.27,2.541-4.616,4.147-4.6a3.393,3.393,0,0,1,2.44,1.4,15.259,15.259,0,0,1,2.036,3.093,16.606,16.606,0,0,1,.034,15.363C35.137,185.726,33.612,188.1,31.772,188.262Z" transform="translate(-15.714 131.819)" fill="#e3e1e1"/>
      <path id="Trazado_2501" data-name="Trazado 2501" d="M25.949,164.461a28.755,28.755,0,0,1,1.676-7.561c.849-2.268,2.541-4.616,4.147-4.6a3.389,3.389,0,0,1,2.44,1.393,15.331,15.331,0,0,1,2.036,3.093,16.611,16.611,0,0,1,.034,15.366c-1.144,2.227-2.669,4.6-4.509,4.763a3.647,3.647,0,0,1-2.834-1.371,9.848,9.848,0,0,1-2.031-3.267A17.725,17.725,0,0,1,25.949,164.461Z" transform="translate(-15.714 109.459)" fill="#e3e1e1"/>
      <path id="Trazado_2502" data-name="Trazado 2502" d="M179.166,60.671l2.159-3.564A7.459,7.459,0,0,1,182.81,55.8a8.143,8.143,0,0,1,2.616-.368,25.983,25.983,0,0,1,3.736.056,16.042,16.042,0,0,1,12.2,6.449c2.72,3.837,3.75,8.8,3.736,13.649a32.007,32.007,0,0,1-.873,7.2,19.86,19.86,0,0,1-1.081,3.3,6.328,6.328,0,0,1-1.453,2.295c-1.134,1.008-3.378,1.678-5.668,1.954-.52.065-1.066.073-1.6.111l-2.229.133c-1.136.019-2.287,0-3.441-.056-2.483-.123-4.993-.387-7.493-.742-.459-.068-.919-.15-1.378-.222l-2.355-.38-.012,0-.721-.135C176.424,84.461,175.554,69.182,179.166,60.671Z" transform="translate(226.952 -47.177)" fill="#6140ff"/>
      <path id="Trazado_2503" data-name="Trazado 2503" d="M134.149,67.033l2.157-3.564a7.528,7.528,0,0,1,1.485-1.308,8.154,8.154,0,0,1,2.616-.368,25.986,25.986,0,0,1,3.736.056,16.031,16.031,0,0,1,12.2,6.449c2.72,3.837,3.75,8.8,3.736,13.649a32.016,32.016,0,0,1-.87,7.2,19.882,19.882,0,0,1-1.083,3.3,6.318,6.318,0,0,1-1.453,2.295c-1.132,1.008-3.378,1.678-5.668,1.954-.52.065-1.066.073-1.6.111l-2.229.133c-1.136.017-2.287,0-3.443-.056-2.483-.123-4.991-.389-7.491-.742-.462-.068-.919-.15-1.378-.222l-2.357-.38-.01,0-.72-.135C131.4,90.823,130.534,75.544,134.149,67.033Z" transform="translate(154.626 -38.156)" fill="#6140ff"/>
      <path id="Trazado_2504" data-name="Trazado 2504" d="M88.279,73.238l2.159-3.564a7.45,7.45,0,0,1,1.482-1.308A8.154,8.154,0,0,1,94.537,68a26.008,26.008,0,0,1,3.738.056A16.038,16.038,0,0,1,110.468,74.5c2.72,3.837,3.75,8.8,3.738,13.652a32.15,32.15,0,0,1-.873,7.2,20.1,20.1,0,0,1-1.081,3.3,6.31,6.31,0,0,1-1.456,2.3c-1.132,1.006-3.378,1.676-5.668,1.951-.517.065-1.066.073-1.6.111l-2.229.135c-1.136.017-2.287,0-3.443-.058-2.481-.121-4.991-.387-7.491-.742-.462-.065-.919-.15-1.378-.222l-2.358-.38h-.01l-.721-.138C85.535,97.028,84.664,81.749,88.279,73.238Z" transform="translate(80.931 -29.358)" fill="#6140ff"/>
      <path id="Trazado_2505" data-name="Trazado 2505" d="M54.24,206.419s6.487-.128,12.414-31.861c0,0,43.145,24.232,77.857,17.4s72.925,3.828,72.925,3.828,71.986,4.785,87.094-3.828,81.124-9.188,81.124-9.188,10.982,9.461-42.626,14.793-61.6,8.736-61.6,8.736S217.88,210,200.551,203.336s-86.649,0-86.649,0Z" transform="translate(41.317 147.291)" fill="#69debc"/>
      <path id="Trazado_2506" data-name="Trazado 2506" d="M114.124,84.992c.8-.007,6.016,19.718.295,44.139-3.054,13.04-6.594,16.183-8.886,31.994-1.444,9.952-1.219,16.829-3.259,17.179-2.708.467-7.13-10.96-9.478-19.254-4.983-17.59-7.626-45.771,3.849-51.84,4.268-2.256,7.341.2,11.555-2.964C115.744,98.576,113.462,85,114.124,84.992Z" transform="translate(85.749 2.844)" fill="#abfbfb"/>
      <path id="Trazado_2507" data-name="Trazado 2507" d="M159.855,76.041c.8-.007,6.016,19.718.3,44.139-3.054,13.04-6.594,16.183-8.888,31.994-1.441,9.952-1.216,16.831-3.257,17.182-2.708.467-7.13-10.96-9.481-19.256-4.981-17.59-7.626-45.771,3.852-51.84,4.265-2.256,7.338.206,11.553-2.962C161.478,89.625,159.2,76.048,159.855,76.041Z" transform="translate(159.22 -12.029)" fill="#abfbfb"/>
      <path id="Trazado_2508" data-name="Trazado 2508" d="M205.387,69.257c.8-.007,6.016,19.718.295,44.139-3.054,13.04-6.594,16.183-8.886,31.994-1.444,9.952-1.219,16.829-3.259,17.182-2.708.464-7.13-10.963-9.478-19.256-4.981-17.59-7.626-45.771,3.849-51.84,4.268-2.256,7.341.2,11.555-2.962C207.009,82.841,204.724,69.262,205.387,69.257Z" transform="translate(232.367 -27.509)" fill="#abfbfb"/>
      <path id="Trazado_2509" data-name="Trazado 2509" d="M102.1,158.121c-1.506-6.308,19.624-9.135,40.3-32,5.394-5.968,15.134-21.082,18.18-20.76,2.2.232,1.09,3.9,2.616,10.414,5.261,22.436,14.118,26.757,12.01,33.471C169.864,166.257,104.139,166.637,102.1,158.121Z" transform="translate(108.989 35.09)" fill="#69debc"/>
      <path id="Trazado_2510" data-name="Trazado 2510" d="M150.265,151.553c-1.765-6.241,19.232-9.933,38.953-33.631,5.145-6.185,14.256-21.686,17.312-21.491,2.21.14,1.25,3.859,3.042,10.3,6.18,22.2,15.206,26.155,13.374,32.952C218.3,156.9,152.649,159.977,150.265,151.553Z" transform="translate(187.23 20.575)" fill="#69debc"/>
      <path id="Trazado_2511" data-name="Trazado 2511" d="M130.4,118.338c-1.944-6.4-1.071-10.136-3.284-10.225-3.061-.123-11.807,15.588-16.8,21.89C96.4,147.546,81.605,154.544,75.258,159.44l0-.015-.063.065a10.47,10.47,0,0,0-2.73,2.781c-10.528,9.783-21.677,8.876-21.677,8.876,13.374,8.3,17.491,42.763,17.491,42.763A47.7,47.7,0,0,0,70.9,206.37a48.881,48.881,0,0,1,19.723-27.487c16.909-11.171,37.976-16.125,37.976-16.125h-.017c8.424-2.875,14.742-6.8,15.963-11.792C146.212,144.127,137.1,140.387,130.4,118.338Z" transform="translate(19.602 41.97)" fill="#69debc"/>
      <path id="Trazado_2512" data-name="Trazado 2512" d="M32.926,159.937a3.265,3.265,0,0,1,2.969-3.018c5.98-.544,17.025-.711,19.735.256,2.621.931,2.372,11.444-1.6,11.086-6.792-.612-18.328,1.286-20.847-1.306C32.123,165.868,32.757,162.3,32.926,159.937Z" transform="translate(-6.205 115.429)" fill="#fff"/>
      <path id="Trazado_2513" data-name="Trazado 2513" d="M32.926,171.241a3.265,3.265,0,0,1,2.969-3.02c5.98-.544,17.025-.711,19.735.256,2.621.931,2.372,11.444-1.6,11.086-6.792-.612-18.328,1.289-20.847-1.3C32.123,177.17,32.757,173.6,32.926,171.241Z" transform="translate(-6.205 137.684)" fill="#fff"/>
      <ellipse id="Elipse_285" data-name="Elipse 285" cx="3.007" cy="6.236" rx="3.007" ry="6.236" transform="translate(12.137 271.628)" fill="#fff"/>
      <ellipse id="Elipse_286" data-name="Elipse 286" cx="3.007" cy="6.236" rx="3.007" ry="6.236" transform="translate(12.137 305.174)" fill="#fff"/>
      <path id="Trazado_2514" data-name="Trazado 2514" d="M40.91,210.515h2.58c3.591,0,6.5-6.035,6.5-13.478s-2.909-13.48-6.5-13.48c3.591,0,6.5-6.035,6.5-13.48S47.081,156.6,43.49,156.6H39.953c1.881-5.206,4.139-8.134,6.006-8.134,3.99,0,9.783,13.2,9.783,33.895s-5.793,33.894-9.783,33.894C44.4,216.255,42.567,214.212,40.91,210.515Z" transform="translate(4.244 110.294)" fill="#961caf"/>
      <path id="Trazado_2515" data-name="Trazado 2515" d="M49.671,233.931c6.765,0,12.252-16.28,12.252-36.363S56.436,161.2,49.671,161.2c-3.373,0-6.427,4.052-8.644,10.6H37.91c2.106-17.025,6.226-28.389,10.107-32.444l.612,8.731,1.091-10.044a3.22,3.22,0,0,1,.989-.31l.426,8.9.776-8.767a3.961,3.961,0,0,1,.89.442l.568,15.62,1.1-14.14c5.416,6.325,11.139,26.682,11.139,56.536,0,29.968-5.767,50.358-11.2,56.6L53.728,241.1,52.4,254.6a3.165,3.165,0,0,1-.58.208l-1.008-6.69-1.194,6.456c-3.927-2.065-8.443-12.317-11.026-28.856h3.329C44.032,230.851,46.731,233.931,49.671,233.931Z" transform="translate(1.347 95.087)" fill="#6140ff"/>
      <path id="Trazado_2516" data-name="Trazado 2516" d="M39.953,178.92c.53,3.535,1.99,9.875,5.061,14.537,1.277,1.942,2.087,2.848,3.929,2.532,4.756-.82,9.553-19.706,8.318-19.786-1.949-.131-1.543,6.345-6.42,8.25a8.553,8.553,0,0,1-6.156-.131C41.928,183.064,39.953,176.463,39.953,178.92Z" transform="translate(4.244 149.619)" fill="#6140ff"/>
      <path id="Trazado_2517" data-name="Trazado 2517" d="M59.192,274.307l-.66-7.81-1.1,8.939c-.046.024-.1.046-.143.07l-.65-10.24-.907,8.709a8.321,8.321,0,0,1-5.2-2.655c-6.357-6.1-11.449-20.028-14.251-37.371v-.979h2.447c2.9,18.911,8.5,31.733,14.933,31.733,9.406,0,17.032-27.366,17.032-61.12s-7.626-61.12-17.032-61.12c-6.973,0-12.965,15.054-15.6,36.593H35.547v-1.177c3.167-24.225,10.491-41.233,17.692-44.3l.609,3.724.812-4.147a5.543,5.543,0,0,1,.834-.116l.375,5.358.626-5.772c.312.077.641.121.938.227.07.024.14.046.21.073a10.247,10.247,0,0,1,1.729.854,16.345,16.345,0,0,1,4.135,3.883,36.782,36.782,0,0,1,4.654,8.572,101.65,101.65,0,0,1,5.288,19.022,193.164,193.164,0,0,1,2.541,19.716c.544,6.613.834,13.255.783,19.9a190.024,190.024,0,0,1-.887,19.846A166.656,166.656,0,0,1,73,244.335a94.091,94.091,0,0,1-5.89,18.8,36.615,36.615,0,0,1-5,8.368A19.548,19.548,0,0,1,59.192,274.307Z" transform="translate(-2.003 87.839)" fill="#2df5f5"/>
      <path id="Trazado_2518" data-name="Trazado 2518" d="M38.717,183.722c.73,2.428,3.235,11.831,7.481,15.032a8.127,8.127,0,0,0,6.071,1.78c6.582-.563,12.583-13.569,10.871-13.627-2.7-.087-5.612,7.109-9.483,8.221a10.7,10.7,0,0,1-6.424-.667C43.209,192.214,38.717,182.037,38.717,183.722Z" transform="translate(2.492 160.019)" fill="#219b95"/>
      <g id="Grupo_1059" data-name="Grupo 1059" transform="translate(414.828 12.75)">
        <path id="Trazado_2519" data-name="Trazado 2519" d="M181.372,84.209s11.459,3.849,13.891-1.842,2.94-27.124-9.633-24.948C179.6,58.463,181.372,84.209,181.372,84.209Z" transform="translate(-181.128 -57.264)" fill="#6140ff"/>
      </g>
      <g id="Grupo_1060" data-name="Grupo 1060" transform="translate(295.883 29.303)">
        <path id="Trazado_2520" data-name="Trazado 2520" d="M135.651,91.053s11.458,3.852,13.891-1.84,2.94-27.124-9.631-24.948C133.874,65.309,135.651,91.053,135.651,91.053Z" transform="translate(-135.407 -64.11)" fill="#6140ff"/>
      </g>
      <g id="Grupo_1061" data-name="Grupo 1061" transform="translate(175.879 42.089)">
        <path id="Trazado_2521" data-name="Trazado 2521" d="M89.523,96.341s11.459,3.852,13.891-1.842,2.943-27.122-9.631-24.946C87.748,70.6,89.523,96.341,89.523,96.341Z" transform="translate(-89.279 -69.398)" fill="#6140ff"/>
      </g>
      <g id="Grupo_1062" data-name="Grupo 1062">
        <path id="Trazado_2522" data-name="Trazado 2522" d="M181.149,68.554a55.234,55.234,0,0,0-.617-8.663,55.271,55.271,0,0,0-.617,8.663,54.709,54.709,0,0,0,.617,8.666A54.7,54.7,0,0,0,181.149,68.554Z" transform="translate(230.939 -40.789)"/>
        <path id="Trazado_2523" data-name="Trazado 2523" d="M136.13,74.918a55.281,55.281,0,0,0-.617-8.666,55.569,55.569,0,0,0-.617,8.666,54.7,54.7,0,0,0,.617,8.666A54.693,54.693,0,0,0,136.13,74.918Z" transform="translate(159.072 -31.77)"/>
        <path id="Trazado_2524" data-name="Trazado 2524" d="M90.263,81.121a55.537,55.537,0,0,0-.619-8.663,55.838,55.838,0,0,0-.617,8.663,54.705,54.705,0,0,0,.617,8.666A54.985,54.985,0,0,0,90.263,81.121Z" transform="translate(85.846 -22.97)"/>
        <path id="Trazado_2525" data-name="Trazado 2525" d="M553.833,250.261c-.792-.672,1.2-6.609,1.952-8.844,3.837-11.422,8.024-35.32-15.955-44.855-4.712-1.874-58.429-.976-71.162-1.181,2.2-12.313,4.847-25.648,8.473-34.819,5.6-14.158,8.4-23.078,5.685-55.987-1.519-18.405-4.639-29.456-10.438-36.951l-.275-.363c-.421-.527-.768-.958-1.137-1.363-7.365-8.5-19.355-13.193-35.6-13.893-.221-.01-.441-.013-.659-.013a13.22,13.22,0,0,0-9.774,4.19c-7.912,8.128-9.151,26.959-8.782,41.416-.28,2.09-.566,4.252-.867,6.537q-.681,5.195-1.485,11.152a8.316,8.316,0,0,0-3.151,6.142,9.2,9.2,0,0,0,.9,5.015,8.962,8.962,0,0,0-3.323,4.543,9.362,9.362,0,0,0-.389,5.015,5.794,5.794,0,0,0,1.581,2.954c-9.576,29.739-38.106,54.112-54.888,66.373l-1.565.208c1.807-9.558,4.2-20.6,7.308-28.459,5.6-14.161,8.4-23.08,5.683-55.989-1.519-18.429-4.647-29.487-10.459-36.982l-.231-.3c-.408-.514-.779-.974-1.171-1.407-7.367-8.494-19.353-13.177-35.585-13.878-.223-.01-.444-.016-.659-.016a13.22,13.22,0,0,0-9.774,4.19c-7.915,8.125-9.151,26.959-8.782,41.416-.283,2.09-.568,4.25-.867,6.531q-.681,5.2-1.487,11.16a8.309,8.309,0,0,0-3.149,6.142,9.2,9.2,0,0,0,.9,5.015,8.964,8.964,0,0,0-3.325,4.543,9.386,9.386,0,0,0-.389,5.015,5.793,5.793,0,0,0,1.563,2.936c-10.013,30.764-40.52,55.719-58.414,68.2l-.626.1c2-10.828,4.465-22.385,7.7-30.57,5.6-14.158,8.4-23.08,5.685-55.989-1.519-18.418-4.644-29.472-10.451-36.966l-.249-.33c-.413-.514-.774-.963-1.158-1.389-7.367-8.5-19.353-13.182-35.59-13.883-.223-.01-.444-.013-.659-.013a13.208,13.208,0,0,0-9.774,4.187c-7.912,8.128-9.151,26.959-8.782,41.416-.283,2.09-.569,4.25-.867,6.534q-.681,5.194-1.485,11.157a8.307,8.307,0,0,0-3.152,6.142,9.193,9.193,0,0,0,.9,5.015,8.976,8.976,0,0,0-3.325,4.543,9.361,9.361,0,0,0-.387,5.015,5.774,5.774,0,0,0,1.563,2.939c-12.746,39.183-58.512,68.761-68.79,75-11.482,2.147-19.991,3.767-24.591,4.649C65.979,251.956,55.04,270.5,49.9,302.26H35.946c-8.4,0-14.272,9.613-14.272,23.379a33.977,33.977,0,0,0,3.434,15.781,35.49,35.49,0,0,0-2.645,14.158c0,13.766,5.869,23.379,14.275,23.379h14.42c3.741,18.122,9.781,31.891,17.1,38.913,4.047,3.886,8.471,5.856,13.146,5.856.182,0,.366-.005.55-.01l.135-.005.135-.016,4.418-.594c.761-.112,73.93-10.765,120.015-10.765,1.911,0,3.767.018,5.579.057,13.291.27,26.723,1.565,40.94,2.941,18.519,1.786,37.646,3.632,59.592,3.632a365.158,365.158,0,0,0,69.073-6.565c.7.008,1.864.016,3.408.016,14.628,0,109.338-3.569,127.068-14.207,15.674-9.4,16.557-21.816,17.086-29.233a23.26,23.26,0,0,1,.584-4.621,31.5,31.5,0,0,1,3.123-2.422c7.944-5.721,22.694-16.347,20.5-47.22.182-1.179,1.233-6.233,6.723-15.051C567.747,287.751,570.631,264.549,553.833,250.261ZM428.994,66.479l1.049,12.009,1.269-15.835a8.009,8.009,0,0,1,1.594-1.4,8.744,8.744,0,0,1,2.809-.395,27.909,27.909,0,0,1,4.011.06,17.224,17.224,0,0,1,13.094,6.923c2.92,4.12,4.026,9.447,4.011,14.654a34.365,34.365,0,0,1-.937,7.731,21.328,21.328,0,0,1-1.16,3.546,6.794,6.794,0,0,1-1.56,2.464c-1.218,1.083-3.627,1.8-6.085,2.1-.558.07-1.147.078-1.718.119l-1.241-14.223-1.152,14.366c-1.22.021-2.456,0-3.694-.06-2.666-.132-5.361-.415-8.045-.8-.493-.073-.986-.161-1.48-.239l-1.334-15.3-1.194,14.893-.013,0-.774-.145C426.051,92.02,425.116,75.617,428.994,66.479ZM312.131,82.994,313.177,95l1.269-15.835a8.081,8.081,0,0,1,1.594-1.4,8.755,8.755,0,0,1,2.809-.395,27.9,27.9,0,0,1,4.011.06,17.212,17.212,0,0,1,13.094,6.923c2.92,4.12,4.026,9.447,4.011,14.654a34.367,34.367,0,0,1-.935,7.731,21.589,21.589,0,0,1-1.163,3.546,6.819,6.819,0,0,1-1.56,2.464c-1.215,1.082-3.626,1.8-6.085,2.1-.558.07-1.145.078-1.716.119l-1.241-14.223-1.153,14.366c-1.22.018-2.456,0-3.7-.06-2.666-.132-5.358-.418-8.045-.8-.493-.073-.984-.161-1.477-.239l-1.337-15.3L310.363,113.6l-.01,0-.774-.145C309.184,108.536,308.25,92.132,312.131,82.994ZM193.055,99.1l1.046,12.009,1.272-15.835a8,8,0,0,1,1.591-1.4,8.756,8.756,0,0,1,2.809-.395,27.932,27.932,0,0,1,4.013.06,17.219,17.219,0,0,1,13.091,6.923c2.92,4.12,4.026,9.447,4.013,14.657a34.52,34.52,0,0,1-.937,7.728,21.58,21.58,0,0,1-1.16,3.546,6.809,6.809,0,0,1-1.563,2.466c-1.215,1.08-3.626,1.8-6.085,2.095-.556.07-1.145.078-1.716.119l-1.241-14.221-1.153,14.366c-1.22.018-2.456,0-3.7-.062-2.663-.13-5.358-.415-8.042-.8-.5-.07-.986-.161-1.48-.239l-1.334-15.3-1.2,14.893h-.01l-.774-.148C190.109,124.644,189.174,108.24,193.055,99.1ZM74.834,313.155c2.033,0,4.989,4.862,4.989,12.481s-2.957,12.484-4.989,12.484H43.706a11.346,11.346,0,0,0,1.617-3.871,46.944,46.944,0,0,0,.945-9.363,36.553,36.553,0,0,0-.906-8.271,12.525,12.525,0,0,0-1.288-3.46Zm2.648,64.709c7.266,0,13.154-17.479,13.154-39.04s-5.888-39.04-13.154-39.04c-3.621,0-6.9,4.351-9.28,11.383H64.855c2.264-18.278,6.685-30.479,10.854-34.832l.654,9.374,1.173-10.784a3.421,3.421,0,0,1,1.059-.332l.457,9.558.833-9.413a4.253,4.253,0,0,1,.955.475l.613,16.77L82.632,276.8c5.815,6.791,11.959,28.646,11.959,60.7,0,32.174-6.191,54.066-12.024,60.766l-.729-12.707-1.425,14.5a3.393,3.393,0,0,1-.623.223L78.707,393.1l-1.282,6.931c-4.216-2.217-9.065-13.224-11.837-30.98h3.575C71.43,374.557,74.325,377.864,77.481,377.864Zm-5.42-8.813h2.772c3.852,0,6.975-6.48,6.975-14.47s-3.123-14.472-6.975-14.472c3.852,0,6.975-6.479,6.975-14.472s-3.123-14.47-6.975-14.47h-3.8c2.02-5.589,4.444-8.733,6.448-8.733,4.283,0,10.5,14.176,10.5,36.39s-6.22,36.39-10.5,36.39C75.807,375.214,73.839,373.02,72.061,369.051Zm-39.4-43.612a30.873,30.873,0,0,1,1.8-8.118c.911-2.435,2.728-4.956,4.452-4.94a3.638,3.638,0,0,1,2.619,1.5,16.457,16.457,0,0,1,2.186,3.32c1.246,2.487,1.41,5.519,1.415,8.4a17.586,17.586,0,0,1-1.378,8.094c-1.228,2.391-2.866,4.935-4.841,5.114a3.916,3.916,0,0,1-3.042-1.472,10.574,10.574,0,0,1-2.181-3.507A19.03,19.03,0,0,1,32.663,325.439Zm6.251,42.83a3.907,3.907,0,0,1-3.042-1.472,10.548,10.548,0,0,1-2.181-3.507,19.022,19.022,0,0,1-1.028-8.39,30.852,30.852,0,0,1,1.8-8.115c.911-2.437,2.728-4.956,4.452-4.943a3.643,3.643,0,0,1,2.619,1.5,16.383,16.383,0,0,1,2.186,3.32,19.14,19.14,0,0,1,1.615,8.4,17.69,17.69,0,0,1-1.578,8.094C42.527,365.546,40.889,368.093,38.914,368.27Zm5.137-1.207a11.99,11.99,0,0,0,1.272-3.351,39.426,39.426,0,0,0,1.363-8.452,45.77,45.77,0,0,0-1.324-9.179,11.905,11.905,0,0,0-1.615-3.982H74.834c2.033,0,4.989,4.862,4.989,12.484s-2.957,12.481-4.989,12.481Zm40.842,46.369-.709-8.385L83,414.643c-.049.026-.1.049-.153.075l-.7-10.994-.971,9.351a8.92,8.92,0,0,1-5.579-2.85c-6.827-6.552-12.294-21.5-15.3-40.123v-1.051h2.627c3.107,20.3,9.122,34.069,16.032,34.069,10.1,0,18.283-29.381,18.283-65.62s-8.185-65.62-18.283-65.62c-7.489,0-13.919,16.162-16.749,39.287h-2.7V309.9c3.4-26.009,11.264-44.268,19-47.557l.654,4,.87-4.452a5.943,5.943,0,0,1,.9-.125l.4,5.753.675-6.2c.332.083.685.13,1,.244.075.026.153.049.226.078a10.821,10.821,0,0,1,1.856.916,17.551,17.551,0,0,1,4.439,4.169,39.489,39.489,0,0,1,5,9.2,108.939,108.939,0,0,1,5.677,20.422,207.4,207.4,0,0,1,2.728,21.167c.584,7.1.9,14.231.841,21.365a204.014,204.014,0,0,1-.953,21.307,178.926,178.926,0,0,1-3.1,21.058,101.192,101.192,0,0,1-6.326,20.181,39.214,39.214,0,0,1-5.368,8.985A20.989,20.989,0,0,1,84.893,413.431Zm466.44-119.374c-7.98,12.827-8.333,19.755-8.346,20.5l-.005.19.016.192c1.968,25.388-8.888,33.207-16.071,38.381a29.207,29.207,0,0,0-5,4.151c-2.536,2.915-2.806,6.718-3.092,10.747-.478,6.716-1.02,14.33-11.965,20.9-14.849,8.909-108.344,12.951-125.55,12.671l-.408-.005-.4.078c-52.339,10.067-91.639,6.269-126.318,2.918-14.431-1.392-28.057-2.71-41.732-2.991C172.262,401,107.088,409.55,89.581,411.98l.005,0a39.057,39.057,0,0,0,7.243-8.676,85.25,85.25,0,0,0,8.9-20.5,139.664,139.664,0,0,0,4.577-21.769,187.732,187.732,0,0,0,1.4-22.154c-.127-14.75-1.6-29.57-5.5-43.91A90.342,90.342,0,0,0,98,274.221a39.065,39.065,0,0,0-6.864-8.969,19.242,19.242,0,0,0-4.7-3.224,11.984,11.984,0,0,0-1.384-.519l-.013-.46c6.993-1.334,14.571-2.5,22.875-4.047a17.7,17.7,0,0,0,4.213-1.456c2.653-1.342,5.986-4.559,10.464-8.037,19.579-13.769,53.056-41.748,62.289-77.338.641,0,1.285-.013,1.942-.031a50.046,50.046,0,0,0,6.812-.716,50.575,50.575,0,0,0,12.679-3.956,48.589,48.589,0,0,1-12.775-.018,45.553,45.553,0,0,1-6.082-1.238c-.2-.057-.4-.119-.61-.182-1.667,0-3.315-.434-3.977-1.526a2.219,2.219,0,0,1,.444-2.832c.9-.745,2.419-.729,3.9-.363,1.254.19,2.469.322,3.733.421a49.832,49.832,0,0,0,6.848.018,50.616,50.616,0,0,0,13.029-2.573,48.6,48.6,0,0,1-12.7-1.389,44.72,44.72,0,0,1-5.916-1.882,37.94,37.94,0,0,1-3.8-1.752,3.342,3.342,0,0,1-2.2-2.264,3.982,3.982,0,0,1,1.132-3.774,2.583,2.583,0,0,1,1.532-.553c.345-2.583.675-5.078.984-7.422.036-.283.073-.543.109-.82l.161.021q2.157.261,4.325.447c2.889.244,5.8.387,8.743.366a51.759,51.759,0,0,0,8.979-.761c3.006-.628,6.316-1.41,9.255-4.2a12.463,12.463,0,0,0,2.746-4.681,27.1,27.1,0,0,0,1.192-4.525,39.786,39.786,0,0,0,.548-9,32.676,32.676,0,0,0-3.266-12.938c7.544,4.159,11.85,14.047,13.66,36.019,2,24.272.828,34.29-1.929,42.96l-.016.026a22.509,22.509,0,0,1-2.77,2.3,8.986,8.986,0,0,1-5.716,2c1.641,1.347,4.05,1.76,6.293,1.807-.273.7-.55,1.4-.838,2.129-4.7,11.882-7.785,29.547-10.036,42.446-.257,1.461-.5,2.845-.735,4.182l-.008.016a51.184,51.184,0,0,1-5.054,5.363c-3.421,3.2-12.188,8.073-11.513,8.813.678,1.09,9.579-2.37,14.314-4.314a57.159,57.159,0,0,0,6.993-3.359,45.286,45.286,0,0,0,6.788-4.566l-.055-.047c15.108-9.46,60.87-41.159,71.923-83.758.641,0,1.282-.01,1.942-.031a49.613,49.613,0,0,0,6.809-.716,50.5,50.5,0,0,0,12.679-3.954,48.457,48.457,0,0,1-12.772-.021,44.955,44.955,0,0,1-6.075-1.236c-1.529-.065-2.978-.511-3.59-1.521a2.218,2.218,0,0,1,.444-2.83,3.758,3.758,0,0,1,2.827-.561c1.277.195,2.513.327,3.8.428a49.879,49.879,0,0,0,6.851.018,50.532,50.532,0,0,0,13.029-2.575,48.6,48.6,0,0,1-12.7-1.386,45.128,45.128,0,0,1-5.916-1.885c-.807-.319-1.633-.683-2.435-1.059a3.585,3.585,0,0,1-2.811-2.482,3.983,3.983,0,0,1,1.134-3.775,2.423,2.423,0,0,1,.69-.376c.376-2.814.737-5.537,1.072-8.073.036-.283.07-.54.109-.818l.158.021q2.161.261,4.325.446c2.892.244,5.8.387,8.746.366a51.816,51.816,0,0,0,8.979-.763c3-.626,6.313-1.407,9.254-4.2a12.464,12.464,0,0,0,2.746-4.68,27.353,27.353,0,0,0,1.192-4.525,39.642,39.642,0,0,0,.545-9,32.672,32.672,0,0,0-3.263-12.938c7.541,4.159,11.848,14.047,13.66,36.019,2,24.275.828,34.292-1.929,42.96l-.018.029a22.485,22.485,0,0,1-2.767,2.3,9.006,9.006,0,0,1-5.716,2c1.641,1.347,4.05,1.76,6.293,1.8-.273.7-.553,1.4-.839,2.131-4.7,11.876-7.783,29.539-10.036,42.433q-.471,2.71-.9,5.122c-1.469,1.4-3,2.773-4.613,4.076-3.463,2.775-11.028,7.245-10.054,8.481.818,1.09,7.741-3.307,12.061-5.049,2.157-.883,4.291-1.856,6.4-2.944.761-.4,1.5-.8,2.238-1.217l.01.018c2.669-1.537,62.448-36.507,75.316-86.549.639,0,1.277-.013,1.931-.031a50.047,50.047,0,0,0,6.812-.716,50.573,50.573,0,0,0,12.679-3.956,48.567,48.567,0,0,1-12.772-.018,45.076,45.076,0,0,1-6.082-1.241c-.166-.044-.335-.1-.5-.145a4.1,4.1,0,0,1-3.268-1.516,2.218,2.218,0,0,1,.441-2.83c.961-.792,2.609-.722,4.174-.288.877.109,1.747.228,2.643.3a49.846,49.846,0,0,0,6.848.018,50.62,50.62,0,0,0,13.029-2.573,48.621,48.621,0,0,1-12.7-1.389,44.822,44.822,0,0,1-5.913-1.885c-.987-.389-1.983-.844-2.939-1.314a3.443,3.443,0,0,1-2.495-2.37,3.975,3.975,0,0,1,1.132-3.772,2.469,2.469,0,0,1,.909-.467c.366-2.731.719-5.374,1.041-7.842.039-.283.073-.54.109-.818l.161.021q2.157.261,4.325.446c2.892.244,5.8.387,8.746.366a51.5,51.5,0,0,0,8.977-.763c3.006-.626,6.316-1.407,9.255-4.2a12.4,12.4,0,0,0,2.746-4.68,27.092,27.092,0,0,0,1.192-4.525,39.489,39.489,0,0,0,.548-9A32.676,32.676,0,0,0,458.6,69.423c7.544,4.159,11.85,14.047,13.662,36.019,2,24.277.825,34.295-1.929,42.963l-.018.026a22.511,22.511,0,0,1-2.77,2.3,8.994,8.994,0,0,1-5.714,2c1.641,1.347,4.05,1.76,6.29,1.8-.27.7-.55,1.4-.839,2.131-4.693,11.871-8.325,29.8-10.576,42.7-.195,1.111-.558,2.04-.742,3.081-.14.553-.27,1.243-.392,1.942a2.068,2.068,0,0,0,2.121,2.422c17-.771,72.577-3.388,77.058-.942,18.415,10.059,14.807,20.8,10.986,32.179-2.357,7.019-5.028,14.976,1.228,20.3C558.96,268.542,556.743,285.368,551.333,294.057Z" transform="translate(-21.674 -51.991)"/>
      </g>
    </g>
    <g id="Grupo_1065" data-name="Grupo 1065" transform="translate(174.404 272.63)">
      <g id="Grupo_1064" data-name="Grupo 1064">
        <path id="Trazado_2526" data-name="Trazado 2526" d="M99.029,159.64a14.6,14.6,0,0,1-4.667,8.127q-3.826,3.141-7.662,6.2a2.466,2.466,0,0,0,1.748,1.661q1.425.5,2.735.958,6.869,3.8,7.29,9.655a12.929,12.929,0,0,1-2.488,8.528,27.381,27.381,0,0,1-6.625,6.279q-3.638,2.488-7.276,4.974a4.042,4.042,0,0,1-2.021.7,3.7,3.7,0,0,1-3.789-1.876q-.323-6.652-.633-13.231a114.928,114.928,0,0,1-.065-13.115,3.108,3.108,0,0,1-1.845-2.413,1.827,1.827,0,0,1,.5-1.347,11.663,11.663,0,0,1,1.528-1.419,167.236,167.236,0,0,0-1.2-22.18q-3.768-.45-5.141-2.974a1.471,1.471,0,0,1,.208-.967,2.256,2.256,0,0,0,.283-1.054,6.662,6.662,0,0,1,3.939-1.634,56.223,56.223,0,0,1,7.351.505,20.041,20.041,0,0,1,6.243,1.7q8.864,3.819,10.665,7.9A9.4,9.4,0,0,1,99.029,159.64Zm-7.72-3.421q-.609-2.894-5.07-4.169a14.809,14.809,0,0,1-2.05-.885,3.09,3.09,0,0,0-1.627-.52,2.047,2.047,0,0,0-.7.208q.014,1.353.126,2.853.149,2.06.817,6.94.559,4.49.662,7.029a3.346,3.346,0,0,0,1.6-.95c.7-.6,1.1-.941,1.2-1a10.709,10.709,0,0,0,3.927-4.019A7.7,7.7,0,0,0,91.309,156.218ZM91.161,187.4a9.339,9.339,0,0,0,.039-1.673,6.41,6.41,0,0,0-1.8-4.084c-2.783-1.124-4.546-1.666-5.283-1.613a3.035,3.035,0,0,0-1.17.324c.09.525.16,1.1.206,1.739a45.032,45.032,0,0,1-.07,5.131,44.8,44.8,0,0,0-.06,5.216,15.466,15.466,0,0,0,.96,4.541,12.51,12.51,0,0,1,2.8-2.549,11.632,11.632,0,0,0,2.65-2.377A10.243,10.243,0,0,0,91.161,187.4Z" transform="translate(-69.397 -121.863)"/>
        <path id="Trazado_2527" data-name="Trazado 2527" d="M90.491,149.585q.323,2.281.5,4.734.384,5.379.058,16.3t.065,16.454q.149,2.056.37,4.028a2.85,2.85,0,0,1-2.933,2.357c-2.273.056-3.586-.832-3.927-2.66a51.086,51.086,0,0,1-.738-5.832,145.115,145.115,0,0,1,.15-16.154,143.543,143.543,0,0,0,.16-16.07c-.1-1.371-.249-2.713-.445-4.023a2.79,2.79,0,0,1,2.58-1.7,6,6,0,0,1,3.068.653.987.987,0,0,1,.459-.271c.155-.01.254.247.293.774a3.429,3.429,0,0,0,.08,1.11A.5.5,0,0,0,90.491,149.585Z" transform="translate(-49.08 -118.299)"/>
        <path id="Trazado_2528" data-name="Trazado 2528" d="M109.317,145.751c.1,1.424-.783,2.391-2.655,2.892-2.447.658-3.934,1.318-4.468,1.995Q94,160.6,95.066,175.4a38.684,38.684,0,0,0,3.155,12.975q2.187,4.929,3.09,6.456a13,13,0,0,0,5.22,5.191c.817.312,1.637.6,2.447.858a2.186,2.186,0,0,1,1.41,1.886,3.587,3.587,0,0,1-.665,2.355,1.715,1.715,0,0,1-1.724.919,16.217,16.217,0,0,1-3.238-.8q-3.953-1.944-8.905-8.821-1.237-1.745-2.522-3.6a17.851,17.851,0,0,1-1.963-3.559,99.235,99.235,0,0,1-2.079-10.109,47.043,47.043,0,0,1-.7-5.356q-1.008-14,6.436-24.4,4.338-6.031,9.481-6.4a6.66,6.66,0,0,1,4.13,1.057C109.024,144.286,109.252,144.857,109.317,145.751Z" transform="translate(-42.352 -124.013)"/>
        <path id="Trazado_2529" data-name="Trazado 2529" d="M122.818,144.486a172.916,172.916,0,0,1-6.475,23.843q-5.767,17.2-7.29,23.662a10.759,10.759,0,0,0-.167,3.192,33.1,33.1,0,0,1,.239,3.325,2.663,2.663,0,0,1-2.73,2.976,4.247,4.247,0,0,1-2.952-.7c-1.081-.638-1.622-1.352-1.625-2.15a44.924,44.924,0,0,1,1.98-13.419q1.995-6.507,3.994-13.011-6.7-14.624-11.151-21.3a1.546,1.546,0,0,1-.295-.774,2.1,2.1,0,0,1,.873-1.695,3.242,3.242,0,0,1,1.886-.89q.156-.011,3.068.655a57.129,57.129,0,0,1,4.671,7.455q2.1,3.906,4.137,7.815,1.24-4.86,2.488-9.64a42.87,42.87,0,0,1,3.39-9.309,2.326,2.326,0,0,1,2.133-1.265A5.063,5.063,0,0,1,122.818,144.486Z" transform="translate(-31.19 -123.645)"/>
        <path id="Trazado_2530" data-name="Trazado 2530" d="M129.7,144.288q.152,2.136-2.652,2.892-3.67.983-4.468,1.992-8.2,9.97-7.13,24.762a38.685,38.685,0,0,0,3.158,12.977q2.18,4.929,3.088,6.456a13.013,13.013,0,0,0,5.223,5.189q1.226.472,2.447.861a2.184,2.184,0,0,1,1.407,1.886,3.573,3.573,0,0,1-.665,2.355,1.721,1.721,0,0,1-1.724.919,16.306,16.306,0,0,1-3.238-.8q-3.957-1.944-8.9-8.823-1.237-1.741-2.522-3.6a17.939,17.939,0,0,1-1.968-3.557,100.127,100.127,0,0,1-2.075-10.109,47.7,47.7,0,0,1-.706-5.356q-1-14,6.441-24.4,4.338-6.032,9.478-6.4a6.634,6.634,0,0,1,4.132,1.059C129.409,142.823,129.637,143.394,129.7,144.288Z" transform="translate(-13.452 -126.087)"/>
        <path id="Trazado_2531" data-name="Trazado 2531" d="M141.714,179.5q-.156.091-8.784,7.261a54.75,54.75,0,0,1-9.007,6.318,2.1,2.1,0,0,1-.933.307,2.6,2.6,0,0,1-2.159-1.279q-1.56-1.8-1.644-1.872-.66-6.96-.522-19.474.236-13.318-.184-19.181-.29-4.037-.863-7.583a3.538,3.538,0,0,1,2.536-1.216c2-.145,3.218.513,3.641,1.961q.7,6.474.839,19.464t.762,19.469a39.165,39.165,0,0,0,5.535-3.741,54.853,54.853,0,0,1,5.363-3.965,10.31,10.31,0,0,0,1.371-.254,10.234,10.234,0,0,1,1.456-.263,2.435,2.435,0,0,1,2.382,1.1A2.5,2.5,0,0,1,141.714,179.5Z" transform="translate(-1.024 -124.313)"/>
        <path id="Trazado_2532" data-name="Trazado 2532" d="M155.653,147.322a85.538,85.538,0,0,1-8.422,3.385,86.049,86.049,0,0,0-8.422,3.39q-.569,2.107-.372,9.251a8.378,8.378,0,0,0,2.962.261,26.755,26.755,0,0,0,3.687-.66,27.5,27.5,0,0,1,3.69-.665,7.325,7.325,0,0,1,3.866.677,5.629,5.629,0,0,1,1.257,1.978.97.97,0,0,1-.493.912,9.639,9.639,0,0,0-1.028,1.185,1.8,1.8,0,0,1-1.535.747,33.668,33.668,0,0,1-6.059.914,17.69,17.69,0,0,0-5.864,1.373,39.5,39.5,0,0,0-.839,9.362,8.624,8.624,0,0,0,.895,3.6q3.906,2.347,13.052,1.289a2.157,2.157,0,0,0,1.3-.689,2.077,2.077,0,0,1,1.144-.677q2.176-.638,3.165,3.112a3.153,3.153,0,0,1-.266,2.362,2.35,2.35,0,0,1-1.859,1.286,59.237,59.237,0,0,1-16.72-.309,8.389,8.389,0,0,1-4.21-2.162,7.1,7.1,0,0,1-2.362-4.125,53.717,53.717,0,0,1-.887-12.341q-2.321-1.342-2.186-2.785c.019-.479.4-.941,1.134-1.393s1.139-.887,1.214-1.32.109-2.95.1-7.561q-4.5-.551-4.592-3.008-.087-2.3,2.507-3.84,2.459-1.2,4.916-2.42a37.576,37.576,0,0,1,7.164-3.216q3.8-1.306,7.609-2.534a4.855,4.855,0,0,1,.945-.147,10.268,10.268,0,0,1,5.1,1.3c.065.205.227.592.479,1.158a4.41,4.41,0,0,1,.406,1.243A1.214,1.214,0,0,1,155.653,147.322Z" transform="translate(12.28 -124.641)"/>
        <path id="Trazado_2533" data-name="Trazado 2533" d="M176.533,154.076a14.6,14.6,0,0,1-4.662,8.129q-3.833,3.141-7.665,6.195a2.46,2.46,0,0,0,1.748,1.664l2.732.955q6.869,3.8,7.292,9.655a12.949,12.949,0,0,1-2.488,8.531,27.4,27.4,0,0,1-6.628,6.279q-3.638,2.484-7.275,4.974a4.046,4.046,0,0,1-2.017.7,3.7,3.7,0,0,1-3.791-1.874q-.323-6.655-.633-13.233a115.541,115.541,0,0,1-.068-13.115,3.106,3.106,0,0,1-1.842-2.411,1.81,1.81,0,0,1,.5-1.349,11.845,11.845,0,0,1,1.528-1.419,167.687,167.687,0,0,0-1.2-22.18c-2.512-.3-4.224-1.286-5.143-2.974a1.477,1.477,0,0,1,.21-.967,2.235,2.235,0,0,0,.281-1.054,6.668,6.668,0,0,1,3.941-1.634,55.92,55.92,0,0,1,7.351.508,20.048,20.048,0,0,1,6.243,1.7q8.864,3.823,10.665,7.9A9.4,9.4,0,0,1,176.533,154.076Zm-7.718-3.419q-.609-2.9-5.07-4.171a14.333,14.333,0,0,1-2.053-.885,3.089,3.089,0,0,0-1.625-.52,1.99,1.99,0,0,0-.7.21c.01.9.053,1.852.126,2.851.1,1.376.367,3.685.817,6.942q.555,4.486.663,7.026a3.357,3.357,0,0,0,1.6-.95c.7-.6,1.1-.938,1.2-1a10.709,10.709,0,0,0,3.927-4.019A7.7,7.7,0,0,0,168.815,150.657Zm-.15,31.179a9.332,9.332,0,0,0,.041-1.673,6.4,6.4,0,0,0-1.8-4.081q-4.178-1.69-5.283-1.613a2.943,2.943,0,0,0-1.17.324,17.356,17.356,0,0,1,.2,1.736,45.516,45.516,0,0,1-.068,5.133,44.874,44.874,0,0,0-.063,5.213,15.523,15.523,0,0,0,.962,4.541,12.45,12.45,0,0,1,2.8-2.546,11.692,11.692,0,0,0,2.65-2.377A10.228,10.228,0,0,0,168.665,181.836Z" transform="translate(40.499 -129.753)"/>
        <path id="Trazado_2534" data-name="Trazado 2534" d="M188.264,162.966q-3.913,10.855-12.312,13.446a9.26,9.26,0,0,1-2.041.387q-4.5.323-9.449-4.251a12.2,12.2,0,0,1-3.7-8.4,27.583,27.583,0,0,1,2.58-12.829,19.139,19.139,0,0,1,3.284-5.165c1.516-1.751,3.015-2.684,4.49-2.788a3.618,3.618,0,0,1,2.445.779q1.175.87,6.112,2.106a8.961,8.961,0,0,1,5.687,3.886q3.148,5.1,3.421,8.9A9.284,9.284,0,0,1,188.264,162.966Zm-6.681-4.449q-.968-5.731-3.578-6.661a2.012,2.012,0,0,0-.723-.106c-.636.044-1.386.626-2.261,1.751a7.635,7.635,0,0,1-2.3,2.314c-.358.181-.9.063-1.615-.363a3.629,3.629,0,0,0-1.4-.617.518.518,0,0,0-.382.189q-2.6,2.575-2.244,7.556a10.21,10.21,0,0,0,2,5.663q2.445,3.079,3.951,2.974,3.482-.25,6.41-4.833Q182.236,162.048,181.583,158.517Z" transform="translate(60.073 -123.476)"/>
        <path id="Trazado_2535" data-name="Trazado 2535" d="M197.364,175.508q-.156.091-8.782,7.261a54.79,54.79,0,0,1-9.009,6.32,2.08,2.08,0,0,1-.931.3,2.6,2.6,0,0,1-2.162-1.274c-1.04-1.2-1.589-1.823-1.642-1.874q-.664-6.96-.525-19.472.239-13.322-.184-19.184-.29-4.037-.863-7.583a3.541,3.541,0,0,1,2.534-1.216q3.01-.218,3.644,1.963.7,6.47.839,19.462t.762,19.467a39.037,39.037,0,0,0,5.535-3.738,54.589,54.589,0,0,1,5.363-3.965,10.116,10.116,0,0,0,1.371-.251,10.767,10.767,0,0,1,1.453-.266,2.435,2.435,0,0,1,2.384,1.1A2.5,2.5,0,0,1,197.364,175.508Z" transform="translate(77.884 -129.978)"/>
        <path id="Trazado_2536" data-name="Trazado 2536" d="M226.965,137.516q-.511,2.9-2.452,3.516-5.052,1.639-17.641,4.606-.167,19.806.774,32.942.359,4.983.863,9.8a7.088,7.088,0,0,1,.007,2.3,1.454,1.454,0,0,1-1.5,1.3,4.919,4.919,0,0,1-3.932-1.664,7.279,7.279,0,0,1-1.961-4.036q-.37-2.912-.6-6.158-.374-5.219-.474-16.585-.065-10.888-.554-16.58a29.059,29.059,0,0,0-5.907.822,49.236,49.236,0,0,1-5.965,1.064,9.5,9.5,0,0,1-6.478-1.618c-.733-1.335-1.1-2.033-1.1-2.087a1.9,1.9,0,0,1,.467-1.236q2.466-1.059,10.25-2.341,6.829-1.208,10.1-3.288a19.54,19.54,0,0,0,6.4.5A26.313,26.313,0,0,0,214,137.415a41.074,41.074,0,0,0,4.744-1.456,13.285,13.285,0,0,1,4.712-.815q1.425-.105,1.274,1.1Q226.861,136.092,226.965,137.516Z" transform="translate(87.487 -135.134)"/>
        <path id="Trazado_2537" data-name="Trazado 2537" d="M211.788,138.382q.116,1.581-2.1,2.93a1.678,1.678,0,0,1-1.337.176c-.757-.152-1.158-.232-1.211-.227a1.378,1.378,0,0,0-.914.539,14.253,14.253,0,0,0-3.525,10.748,12.567,12.567,0,0,0,1.02,4.222q.381.849,6.893,11.831,4.341,7.323,4.722,12.624a17.733,17.733,0,0,1-1.533,8.535,12.957,12.957,0,0,1-3.313,3.738,7.3,7.3,0,0,1-3.992,1.956,3.856,3.856,0,0,1-1.361-.14q-2.448-.86-2.56-2.44a3.847,3.847,0,0,1,1.02-2.382,2.155,2.155,0,0,1,1.468-.58,1.71,1.71,0,0,0,1.516-1.064,16.434,16.434,0,0,0,1.151-7.237q-.37-5.143-6.173-14.549t-6.224-15.257a19.031,19.031,0,0,1,1.279-8.758,13.031,13.031,0,0,1,5.641-6.686,8.233,8.233,0,0,1,3.5-1.127,6.423,6.423,0,0,1,5.114,1.463A2.619,2.619,0,0,1,211.788,138.382Z" transform="translate(109.093 -135.03)"/>
      </g>
    </g>
  </g>
</svg>
