<svg xmlns="http://www.w3.org/2000/svg" width="25.962" height="22.422" viewBox="0 0 25.962 22.422">
  <g id="down-arrow" transform="translate(25.962 -32.304) rotate(90)">
    <g id="Grupo_319" data-name="Grupo 319" transform="translate(32.304)">
      <path id="Trazado_1191" data-name="Trazado 1191" d="M54.685,14.392a.535.535,0,0,0-.494-.334H48.335V.541A.538.538,0,0,0,47.8,0h-8.55a.538.538,0,0,0-.534.541V14.058H32.838a.536.536,0,0,0-.494.333.546.546,0,0,0,.115.589L43.121,25.8a.531.531,0,0,0,.757,0L54.569,14.982A.544.544,0,0,0,54.685,14.392Z" transform="translate(-32.304)" fill="#6c5ce6"/>
    </g>
  </g>
</svg>
