<?xml version="1.0" encoding="utf-8"?>
<!-- Generator: Adobe Illustrator 23.0.1, SVG Export Plug-In . SVG Version: 6.00 Build 0)  -->
<svg version="1.1" id="Capa_1" xmlns="http://www.w3.org/2000/svg" xmlns:xlink="http://www.w3.org/1999/xlink" x="0px" y="0px"
	 viewBox="0 0 54 54" style="enable-background:new 0 0 54 54;" xml:space="preserve">
<style type="text/css">
	.st0{fill:#FFF28B;}
</style>
<g id="black-envelope" transform="translate(1195.271 7898.919)">
	<g id="Grupo_189" transform="translate(0 0)">
		<path id="Trazado_287" class="st0" d="M-1179-7880l9.1,7.2c0.4,0.3,1,0.5,1.5,0.4c0.5,0,1.1-0.1,1.5-0.4l9.1-7.2
			c0.7-0.6,0.6-1-0.4-1h-20.6C-1179.6-7881-1179.7-7880.5-1179-7880z"/>
		<path id="Trazado_288" class="st0" d="M-1157-7878l-10,7.6c-0.8,0.5-1.9,0.5-2.7,0l-10-7.6c-0.7-0.6-1.3-0.3-1.3,0.7v12.4
			c0,0.9,0.8,1.7,1.7,1.7h22c0.9,0,1.7-0.8,1.7-1.7v-12.4C-1155.6-7878.3-1156.2-7878.6-1157-7878z"/>
	</g>
</g>
</svg>
