<svg xmlns="http://www.w3.org/2000/svg" xmlns:xlink="http://www.w3.org/1999/xlink" width="987" height="960" viewBox="0 0 987 960">
  <defs>
    <clipPath id="clip-path">
      <rect id="Rectángulo_397" data-name="Rectángulo 397" width="987" height="960" transform="translate(-8189 -14500)" fill="none" stroke="#707070" stroke-width="1"/>
    </clipPath>
  </defs>
  <g id="Enmascarar_grupo_19" data-name="Enmascarar grupo 19" transform="translate(8189 14500)" clip-path="url(#clip-path)">
    <g id="Grupo_1092" data-name="Grupo 1092" transform="translate(-8274.658 -14652.842)">
      <path id="Trazado_2040" data-name="Trazado 2040" d="M213.5,297.092c-5.871,3.821-11.808,7.69-16.179,12.443-5.349,5.825-8.024,12.723-9.459,19.667-6.263,30.432,12.4,62.868,46.775,81.369s83.113,22.416,122.386,9.74c4.5-1.445,9-3.169,12.134-5.965,7.633-6.851,3.849-16.824-.326-25.073q-22.9-45.3-45.862-90.644c-5.154-10.113-10.568-20.6-21.072-28.335C268.886,246.061,237.246,281.713,213.5,297.092Z" transform="translate(-65.997 -140.551)" fill="none" stroke="#6140ff" stroke-miterlimit="10" stroke-width="6"/>
      <path id="Trazado_2041" data-name="Trazado 2041" d="M300.542,419.715a47.158,47.158,0,0,0,20.68,7.27c7.763.7,16.179-1.072,21.137-5.406,5.61-4.847,5.871-11.7,5.937-17.942.065-11,0-22.416-6.654-32.3-12.526-18.641-42.143-21.251-55.517-2.423C274.381,385.508,281.231,407.551,300.542,419.715Z" transform="translate(-98.566 -190.706)" fill="#6140ff"/>
      <path id="Trazado_2042" data-name="Trazado 2042" d="M331.545,67.9c.587-11.045-8.611-22.463-23.094-26.284-7.307-1.911-15.266-1.911-23.029-1.538-13.569.652-27.53,2.423-38.686,7.969C219.663,61.469,219.6,98.239,254.5,105.6,285.814,112.22,330.306,91.156,331.545,67.9Z" transform="translate(-80.12 -21.903)" fill="none" stroke="#ffee7a" stroke-miterlimit="10" stroke-width="6"/>
      <path id="Trazado_2043" data-name="Trazado 2043" d="M374.8,1.3Q344.368,45.48,313.87,89.66c-9.851,14.307-19.963,29.407-18.919,45.3,2.153,31.877,47.167,54.479,56.235,85.7,7.633,26.331-12.2,52.988-37.446,72.981s-56.431,35.978-79.459,57.229a134.732,134.732,0,0,0-26.421,32.949c-11.417,20.319-17.875,44.366-43.252,56.716-29.618,14.4-70.326,5.686-104.706,12.956" transform="translate(-21.932 -1.3)" fill="none" stroke="#ffee7a" stroke-miterlimit="10" stroke-width="6"/>
      <path id="Trazado_2044" data-name="Trazado 2044" d="M78.5,496.053c40.708-3.216,85.853,6.012,120.363-9.694,36.99-16.824,42.209-52.988,60.149-81.556,20.224-32.2,58.779-56.344,89.441-84.026s54.473-64.406,38.034-97.681c-8.155-16.591-25.377-30.059-35.75-46-17.745-27.4-13.439-60.445,5.35-87.428,18.854-27.03,50.82-48.468,86.505-64.639,8.872-4.054,18.2-7.829,28.444-9.414,20.876-3.262,42.8,3.169,59.171,12.956,54.147,32.389,54.669,93.486,101.836,131,23.355,18.595,58.91,32.576,64.846,57.182,9.264,38.261-60.279,67.435-57.018,106.163" transform="translate(-28.398 -8.488)" fill="none" stroke="#6140ff" stroke-miterlimit="10" stroke-width="6"/>
      <path id="Trazado_2045" data-name="Trazado 2045" d="M692.5,358.153c11.156-15.1,22.442-30.525,26.747-47.349,4.24-16.824.457-35.558-15.592-48.188-10.112-7.923-24.268-13-33.076-21.671-14.352-14.121-10.7-33.368-10.307-50.8.457-20.039-4.632-40.685-19.963-57.509-15.331-16.777-42.078-29.08-70.13-28.1-28.444.979-52.908,14.727-71.7,30.013-19.571,15.938-36.076,36.118-32.554,57.182,4.436,26.517,38.229,45.205,53.364,69.625,18.2,29.36,7.307,64.313-14.744,92.321s-54.212,51.077-82.069,76.336c-27.791,25.259-52.19,54.433-54.147,86.542-.652,10.626,1.3,21.531,7.633,31.178,7.176,10.859,19.441,19.48,31.51,27.869q68.793,47.885,137.651,95.816" transform="translate(-129.11 -56.396)" fill="none" stroke="#fff" stroke-miterlimit="10" stroke-width="6"/>
      <path id="Trazado_2046" data-name="Trazado 2046" d="M671.034,394.031c12.265-20.739,24.529-44.506,11.416-64.965-14.156-22.09-54.017-32.9-62.954-56.344-5.415-14.214,2.284-29.081,5.61-43.621s-.13-32.483-18.658-38.96c-12.852-4.474-28.248-1.678-41.752,1.678-16.44,4.055-33.01,8.994-45.405,17.709s-19.9,21.95-14.678,33.787c6.98,15.8,31.966,22.975,48.145,34.766,16.7,12.21,23.942,29.64,25.443,46.7,2.088,24.141-6.393,48.654-24.008,69.3-20.419,23.908-51.8,41.8-78.872,62.122-27.008,20.319-51.081,45.578-50.429,73.587.783,35.232,39.338,63.427,75.219,87.568,19.245,12.956,42.47,26.844,68.565,24.094" transform="translate(-148.808 -100.896)" fill="rgba(0,0,0,0)" stroke="#ffee7a" stroke-miterlimit="10" stroke-width="6"/>
      <path id="Trazado_2047" data-name="Trazado 2047" d="M618.535,906.135c-14.156-13.7-20.68-31.271-17.875-48.188S615.469,825,633.67,814" transform="translate(-209.691 -435.254)" fill="none" stroke="#6140ff" stroke-miterlimit="10" stroke-width="6"/>
      <path id="Trazado_2048" data-name="Trazado 2048" d="M690.851,552.783c4.045-5.406,8.807-10.672,15.657-14.307s16.114-5.453,24.138-3.262c11.221,3.029,16.244,12.536,16.766,21.111.718,11.7-5.284,24.187-18.658,30.9C689.09,607.122,675.651,573.1,690.851,552.783Z" transform="translate(-239.146 -285.885)" fill="none" stroke="#6140ff" stroke-miterlimit="10" stroke-width="6"/>
      <path id="Trazado_2049" data-name="Trazado 2049" d="M764.9,3.1c10.5,20.645,44.035,33.834,74.11,29.034,20.158-3.216,36.99-13.142,56.5-18.036s46.449-2.1,53.169,11.837c5.089,10.626-4.567,22.323-17.418,28.8s-28.444,9.414-42.6,14.354C874.5,73.984,860.734,82,858.19,93.091c-2.479,10.765,6.393,21.391,17.81,28.614s25.312,12.117,37.512,18.688c28.574,15.286,46.254,38.867,58.323,62.868,7.046,13.981,14.874,30.292,34.445,35.232,13.047,3.309,28.248.047,38.555-6.618a43.734,43.734,0,0,0,18.593-26c.914-3.449,1.5-7.084,4.371-9.973,3.653-3.682,10.242-5.22,16.44-6.058,27.074-3.728,56.365,1.818,77.307,14.633,17.744,10.812,29.944,26.564,50.82,33.974,10.373,3.682,22.442,5.126,31.314,10.393A26.186,26.186,0,0,1,1256.4,276.8c-1.892,10.159-8.481,19.48-15,28.614-33.075,46.51-66.934,96.329-60.149,148.292.587,4.474,2.088,9.647,7.633,11.744,3.2,1.212,7.111,1.118,10.764.932,38.49-1.818,76.524-7.457,115.079-9.367,38.49-1.864,78.676.28,112.861,13.049" transform="translate(-267.007 -2.261)" fill="none" stroke="#f26941" stroke-miterlimit="10" stroke-width="6"/>
      <path id="Trazado_2050" data-name="Trazado 2050" d="M1080,613.991a836.419,836.419,0,0,1,123.821-19.34c20.746-1.678,44.036-2.05,59.627,7.876,12.134,7.736,16.505,20.086,16.831,31.69.783,26.564-15.592,51.683-31.575,75.637-6.524,9.74-13.178,19.667-23.877,27.263-27.6,19.62-71.957,18.175-110.643,15.379" transform="translate(-376.543 -317.64)" fill="none" stroke="#f26941" stroke-miterlimit="10" stroke-width="6"/>
      <path id="Trazado_2051" data-name="Trazado 2051" d="M1099.6,759.708c14.156,2.19,28.574,4.1,43.057,3.728,39.338-1.025,76.393-20.738,89.049-47.349,1.892-4.008,3.327-8.2,3.132-12.443-.457-9.927-9.851-18.828-21.594-24.14s-25.639-7.643-39.339-9.321c-9.72-1.212-19.7-2.144-29.422-.932s-19.311,4.754-24.4,10.765" transform="translate(-383.357 -357.661)" fill="none" stroke="#f8f8f8" stroke-miterlimit="10" stroke-width="6"/>
      <path id="Trazado_2052" data-name="Trazado 2052" d="M1138.807,727.666a36.267,36.267,0,0,1,22.115-3.076c3.262.559,6.589,1.724,8.22,3.822,1.566,2.1,1.174,4.66,1.174,7.037,0,3.4.783,7.037-1.435,10.066a17.585,17.585,0,0,1-4.371,3.728,19.765,19.765,0,0,1-6.85,3.448c-2.87.606-5.937.14-8.807.559-1.892.28-3.719.885-5.61.792a13.731,13.731,0,0,1-4.567-1.212,31.764,31.764,0,0,1-7.829-3.868C1122.563,742.625,1130.652,731.86,1138.807,727.666Z" transform="translate(-393.011 -387.228)" fill="none" stroke="#ffee7a" stroke-miterlimit="10" stroke-width="6"/>
      <path id="Trazado_2053" data-name="Trazado 2053" d="M1138.27,17.5c21.333,5.732,39.86,21.81,33.336,37.376-2.153,5.126-6.72,9.554-11.286,13.841-17.679,16.684-36.924,34.207-39.534,55.085-1.37,10.765,3.784,23.3,17.744,27.449,16.766,4.94,34.185-4.567,50.559-10.02a113.5,113.5,0,0,1,35.685-5.546,44.446,44.446,0,0,1,12.265,1.4,39.584,39.584,0,0,1,11.938,6.338c18.789,13.608,32.358,30.479,49.842,44.926s40.969,27.123,67.717,27.636c6.067.093,12.395-.466,17.614-2.656a33.455,33.455,0,0,0,11.025-7.969c12.786-13.142,19.31-28.987,32.1-42.129a14.6,14.6,0,0,1,5.415-3.868c5.545-2.051,12,.652,17.614,2.61a72.812,72.812,0,0,0,39.86,1.631" transform="translate(-390.648 -9.95)" fill="none" stroke="#fff" stroke-miterlimit="10" stroke-width="6"/>
      <path id="Trazado_2054" data-name="Trazado 2054" d="M1708.581,436.8a116.619,116.619,0,0,1-33.4,13.049c-10.177,2.33-21.137,3.5-30.075,7.69-8.937,4.148-15.331,12.676-10.568,19.527,5.088,7.317,18.657,8.342,29.552,10.765,27.6,6.105,45.014,24.979,60.149,42.549" transform="translate(-568.75 -233.842)" fill="none" stroke="#ffee7a" stroke-miterlimit="10" stroke-width="6"/>
      <path id="Trazado_2055" data-name="Trazado 2055" d="M1644.338,93.152c-17.549,12.21-44.3,17.15-67.912,12.63-12.135-2.33-23.095-6.9-33.924-11.418q-22.213-9.3-44.492-18.548c-12.33-5.126-24.986-10.486-33.663-18.548-8.676-8.109-12.46-19.713-5.48-28.568" transform="translate(-506.986 -15.931)" fill="none" stroke="#ffee7a" stroke-miterlimit="10" stroke-width="6"/>
      <path id="Trazado_2056" data-name="Trazado 2056" d="M1517.077,657.4c.522,33.275-25.573,63.707-34.054,96.422-2.675,10.206-3.066,21.857,6.459,29.733,9.329,7.69,25.052,9.181,39.273,9.833q29.063,1.328,58.257,1.072c26.095-.28,55.778-2.843,70.978-17.989" transform="translate(-516.072 -351.635)" fill="none" stroke="#2de8f5" stroke-miterlimit="10" stroke-width="6"/>
      <path id="Trazado_2057" data-name="Trazado 2057" d="M1646.082,740.7c2.936,6.851,5.872,14.354,2.218,21.018-1.892,3.542-5.48,6.478-9,9.367-7.7,6.245-15.331,12.49-23.029,18.735-4.371,3.542-8.872,7.13-14.744,9.227-5.349,1.911-11.416,2.377-17.353,2.843-9.459.746-19.571,1.445-28.052-1.678-13.178-4.8-17.549-16.684-17.94-27.263-.718-20.319,8.416-40.778,25.508-57.042,3.588-3.4,7.7-6.758,13.113-8.528,5.023-1.631,10.764-1.818,16.244-1.4C1621.488,708.171,1638.319,722.618,1646.082,740.7Z" transform="translate(-535.804 -377.473)" fill="none" stroke="#fff" stroke-miterlimit="10" stroke-width="6"/>
      <path id="Trazado_2102" data-name="Trazado 2102" d="M1630.319,735.6c2.507,5.85,5.014,12.258,1.894,17.949-1.615,3.025-4.68,5.532-7.688,8-6.574,5.333-13.092,10.666-19.666,16-3.733,3.025-7.577,6.089-12.591,7.88-4.568,1.632-9.749,2.03-14.819,2.428-8.078.637-16.713,1.234-23.955-1.433-11.254-4.1-14.986-14.248-15.321-23.282-.613-17.352,7.187-34.823,21.783-48.713,3.064-2.905,6.574-5.771,11.2-7.283a36.665,36.665,0,0,1,13.872-1.194C1609.316,707.823,1623.69,720.16,1630.319,735.6Z" transform="translate(-612.696 -625.787)" fill="none" stroke="#f26941" stroke-miterlimit="10" stroke-width="6"/>
      <path id="Trazado_2058" data-name="Trazado 2058" d="M1093.3,972.1c14.417,5.686,31.9,4.614,48.276,5.22,28.248,1.025,55.713,7.456,80.895,16.5,19.7,7.084,38.816,16.218,50.494,29.593,12.982,14.866,15.266,33.135,16.244,50.611,1.631,30.758.2,62.169,12.721,91.576,7.176,16.917,18.984,33.042,21.333,50.611.718,5.126.522,10.532-2.805,15.1-6,8.342-20.158,11.558-32.814,14.028-45.6,8.948-94.855,21.018-119.385,49.866-8.546,10.066-13.374,21.484-21.072,31.877s-19.245,20.272-35.163,23.255" transform="translate(-381.167 -519.674)" fill="none" stroke="#6140ff" stroke-miterlimit="10" stroke-width="6"/>
      <path id="Trazado_2059" data-name="Trazado 2059" d="M1120.6,1205.445c46.188,18.734,98.574,29.686,151.612,31.644,2.61.093,5.35.14,7.5-.932a7.549,7.549,0,0,0,3.392-3.868c7.959-17.2-7.894-34.812-14.222-52.335-5.546-15.426-3.654-31.877-9.786-47.209-8.22-20.459-30.27-37.236-37.055-57.975-2.675-8.109-2.936-16.684-7.894-24.187-6.589-10.02-20.745-16.637-35.62-19.713s-30.6-3.169-46.058-3.169" transform="translate(-390.657 -549.363)" fill="none" stroke="#fff" stroke-miterlimit="10" stroke-width="6"/>
      <path id="Trazado_2060" data-name="Trazado 2060" d="M1120.15,1075.1c21.4,10.02,37.186,25.958,43.318,43.667,4.828,13.888,4.893,30.152,19.767,39.753,7.111,4.66,16.635,6.9,24.855,10.532,13.7,6.058,23.682,16.218,27.009,27.5,1.174,4.008,1.5,8.3-.587,12.117-1.435,2.656-4.045,4.894-6.915,6.851-16.048,10.952-43.122,12.4-61.323,3.309-11.873-5.919-19.31-15.239-29.422-22.649s-25.573-13.049-38.751-8.808" transform="translate(-382.835 -574.673)" fill="none" stroke="#f26941" stroke-miterlimit="10" stroke-width="6"/>
      <path id="Trazado_2061" data-name="Trazado 2061" d="M501.737,1296.768c-2.088,8.9-11.156,16.031-19.963,22.556-11.221,8.249-22.768,16.5-36.729,22.23-13.961,5.779-30.662,8.9-46.319,6.245s-29.553-12.024-31.184-23.488c-.783-5.639,1.37-11.278,4.045-16.637,8.22-16.172,22.181-30.851,40.186-42.316,6.2-3.915,12.982-7.6,17.092-12.676,11.09-13.748-1.957-31.55-19.7-41.057s-39.795-14.354-57.083-24.234c-10.634-6.105-19.049-13.888-28.378-20.972s-20.158-13.7-33.271-16.4-28.9-.606-37.12,7.177c-7.763,7.41-6.98,17.616-5.089,26.75,8.416,39.846,31.966,79.365,22.377,119.071-3.131,13-9.851,25.492-13.5,38.448-8.089,28.615-1.37,58.161,5.48,86.962,2.218,9.46,4.762,19.387,13.178,26.844,10.047,8.948,26.617,12.676,42.535,14.54,40.708,4.754,82.265.373,123.038-4.008,10.96-1.165,22.507-2.516,31.249-7.457,8.416-4.753,12.852-12.163,17.875-18.968a144.839,144.839,0,0,1,29.618-29.64" transform="translate(-86.957 -614.075)" fill="none" stroke="#f26941" stroke-miterlimit="10" stroke-width="6"/>
      <path id="Trazado_2062" data-name="Trazado 2062" d="M472.038,1696.245c.522-5.732-3.262-11.558-9.655-14.96-6.263-3.355-14.352-4.334-22.116-4.287A26.332,26.332,0,0,0,431,1678.3a11.352,11.352,0,0,0-7.307,11.231c.2,6.338,4.306,12.536,10.96,16.684C449.661,1715.539,470.668,1711.718,472.038,1696.245Z" transform="translate(-148.394 -896.066)" fill="none" stroke="#6140ff" stroke-miterlimit="10" stroke-width="6"/>
      <path id="Trazado_2063" data-name="Trazado 2063" d="M1512.509,1079.847c-6-13.469-13.309-28.1-30.27-35.326-12.917-5.452-28.835-5.452-43.84-5.08-20.55.513-41.23,1.352-61.193,4.8-4.306.746-8.677,1.631-12,3.635-7.241,4.287-7.633,11.93-8.22,18.641-1.37,16.032-7.046,31.83-16.57,46.324-11.482,17.476-29.031,34.719-25.965,53.92,3.392,21.344,30.858,36.025,45.341,54.852,9.329,12.117,13.178,26.378,10.96,40.125-1.239,7.457-4.371,14.96-11.09,20.692-7.829,6.665-19.637,10.16-30.923,13.422-29.292,8.342-58.975,16.451-85.4,28.754s-49.646,29.36-59.953,50.611c-6.458,13.328-7.7,27.729-13.9,41.151-6.459,13.935-18.006,26.331-29.487,38.541-1.174,1.258-2.675,2.656-4.763,2.8-2.349.14-4.306-1.3-5.741-2.61-4.045-3.635-8.155-7.224-12.2-10.859" transform="translate(-389.509 -555.559)" fill="none" stroke="#fff" stroke-miterlimit="10" stroke-width="6"/>
      <path id="Trazado_2064" data-name="Trazado 2064" d="M1250.9,1737.7c3.727.691,7.383-1.152,10.106-3.1,10.249-7.373,15.625-17.409,20.75-27.137,3.261-6.2,6.558-12.647,5.985-19.252a4.679,4.679,0,0,0-1.577-3.456,8.213,8.213,0,0,0-4.874-1.255c-4.3,0-8.314,1.536-11.97,3.175-12.615,5.658-24.8,13.85-29.064,24.347C1237.639,1717.293,1240.434,1735.726,1250.9,1737.7Z" transform="translate(-412.051 -877.246)" fill="#2de8f5"/>
      <path id="Trazado_2065" data-name="Trazado 2065" d="M1541.7,1261.182c9.133-6.245,18.527-12.816,22.768-21.3.783-1.491,1.435-3.169,3.262-4.1,3-1.538,7.176-.326,10.177,1.165,7.633,3.728,13.83,8.995,17.745,14.959,4.632,7.084,5.936,15.006,7.176,22.789l6.85,42.083c.783,4.754,1.435,9.927-2.218,13.935-4.175,4.567-12.917,6.059-20.419,4.94s-13.961-4.334-20.094-7.6c-11.417-6.012-22.507-12.49-31.118-20.552-7.241-6.8-16.245-18.176-14.809-27.217C1522.454,1271.994,1533.74,1266.634,1541.7,1261.182Z" transform="translate(-529.799 -660.091)" fill="none" stroke="#f26941" stroke-miterlimit="10" stroke-width="6"/>
      <path id="Trazado_2066" data-name="Trazado 2066" d="M1511.126,1112.669c5.676-8.529,12.069-17.663,23.812-22,14.483-5.313,33.141-1.212,44.362,7.13s16.375,20.039,18.789,31.55c2.414,11.464,2.544,23.208,5.61,34.58,2.414,8.9,6.654,17.43,10.7,26,9.264,19.527,17.941,39.473,19.571,60.072,1.109,13.888-1.957,29.22-16.309,38.588-11.156,7.27-27.008,9.507-42.013,10.812-11.417.978-23.811,1.491-33.662-2.8-10.895-4.754-15.788-13.981-20.746-22.37a195.012,195.012,0,0,0-36.011-43.807c-8.872-8.156-22.311-16.964-27.008-26.937-4.306-9.181,3.2-16.032,8.677-24.234C1481.9,1157.221,1496.383,1134.9,1511.126,1112.669Z" transform="translate(-507.577 -581.717)" fill="none" stroke="#6140ff" stroke-miterlimit="10" stroke-width="6"/>
      <path id="Trazado_2067" data-name="Trazado 2067" d="M1451.051,1556.3c-10.96,11.138-27.465,18.781-43.514,26.1q-30.433,13.841-60.866,27.729c-13.374,6.105-26.878,12.257-41.752,16.171-19.049,5.033-39.86,6.292-58.257,12.4-31.771,10.532-51.277,33.694-65.5,56.577a311.079,311.079,0,0,0-17.941,33.088c-3,6.385-5.806,13-11.547,18.362-10.177,9.46-27.335,13.282-41.1,20.039" transform="translate(-291.975 -831.618)" fill="none" stroke="#ffee7a" stroke-miterlimit="10" stroke-width="6"/>
      <path id="Trazado_2068" data-name="Trazado 2068" d="M1002.1,2050.725c9.59-3.076,19.571-6.431,25.769-12.443,10.047-9.787,7.111-23.488,1.566-34.953-9.59-19.713-25.638-37.749-46.514-52.336-13.308-9.274-33.728-17.383-49.45-10.346-7.111,3.215-11.286,8.808-15,14.26a403.689,403.689,0,0,0-22.7,37.376c-7.241,13.515-13.635,27.636-12.982,42.083.718,15.659,10.96,36.024,36.337,34.719C948.144,2067.6,975.935,2059.16,1002.1,2050.725Z" transform="translate(-307.967 -1035.424)" fill="none" stroke="#2de8f5" stroke-miterlimit="10" stroke-width="6"/>
      <path id="Trazado_2069" data-name="Trazado 2069" d="M957.949,2084.538a59.416,59.416,0,0,0,11.156.28c7.046-.14,14.091.373,21.072-.28s14.091-2.7,18.136-6.8c3.849-3.868,4.371-8.9,3.719-13.608-2.74-18.175-25.182-34.253-50.755-34.952-5.089-.14-10.373.326-14.744,2.19-9.786,4.148-11.808,13.561-11.938,21.717C934.333,2064.872,938.639,2081.369,957.949,2084.538Z" transform="translate(-325.993 -1084.104)" fill="none" stroke="#ffee7a" stroke-miterlimit="10" stroke-width="6"/>
      <path id="Trazado_2070" data-name="Trazado 2070" d="M756.376,1989.876c6.067-8.156,5.219-18.781-2.609-26.145s-22.246-10.812-34.576-7.969c-7.372,1.724-13.5,5.359-19.245,9.088-4.827,3.216-9.655,6.711-11.938,11.138a24.8,24.8,0,0,0-2.087,6.618c-2.675,12.257-2.218,34.626,22.7,31.784C725.388,2012.526,748.482,2000.408,756.376,1989.876Z" transform="translate(-239.172 -1044.387)" fill="none" stroke="#6140ff" stroke-miterlimit="10" stroke-width="6"/>
      <path id="Trazado_2071" data-name="Trazado 2071" d="M597.281,1904.4c-7.894,10.672-27.008,13.422-41.491,19.667a64.432,64.432,0,0,0-29.161,24.607c-9.329,14.913-10.764,32.249-3.979,47.862,4.24,9.786,11.547,18.735,16.44,28.381,10.7,20.925,10.568,45.531,30.792,62.5,20.028,16.777,53.495,20.692,83.961,24.234,6.2.7,12.656,1.538,17.549,4.334,5.284,2.982,7.829,7.783,9.786,12.4,11.938,28.335,8.742,58.674,5.415,88.173" transform="translate(-181.327 -1017.491)" fill="none" stroke="#6140ff" stroke-miterlimit="10" stroke-width="6"/>
      <path id="Trazado_2072" data-name="Trazado 2072" d="M1.7,1156c20.093,10.486,46.514,12.629,68.108,21.437,41.687,17.1,56.431,54.34,65.629,88.08,6.263,23.022,11.612,47.629-.783,69.392-6.654,11.651-17.94,21.624-25.573,32.948-11.482,17.01-14.287,36.351-14.091,55.225.261,35.465,15.4,75.777,60.019,91.2,29.422,10.16,66.869,7.55,92.115,22.463,9.394,5.546,16.114,13.1,21.789,20.785,19.31,26.051,28.835,55.132,43.448,82.721s35.946,54.945,71.109,70.324c14.874,6.525,31.705,10.626,46.253,17.616,36.4,17.523,52.581,53.827,37.055,83.187" transform="translate(-1.7 -617.871)" fill="none" stroke="#f26941" stroke-miterlimit="10" stroke-width="6"/>
      <path id="Trazado_2073" data-name="Trazado 2073" d="M545.391,2471.7c-9.655-20.086-21.2-41.85-46.775-52.662-16.57-6.991-37.316-8.482-52.581-16.824-5.545-3.03-10.177-6.851-16.048-9.554-20.289-9.18-46.775-1.631-68.3,6.012-9.916,3.542-19.832,7.038-29.748,10.579-2.544.932-5.219,1.864-6.98,3.449-3.979,3.588-2.022,9.181,2.479,12.443s10.829,4.847,16.766,6.525c31.966,8.9,60.932,23.208,83.83,41.477" transform="translate(-113.323 -1275.954)" fill="none" stroke="#6140ff" stroke-miterlimit="10" stroke-width="6"/>
      <path id="Trazado_2074" data-name="Trazado 2074" d="M99.25,2046.489c13.765,9.228,34.511,9.927,53.364,10.16,39.795.466,79.786.885,118.993-3.821,3.131-.373,6.393-.839,8.807-2.237,3.066-1.771,4.175-4.753,4.828-7.55,2.936-13.794-3.914-27.962-14.874-39.519s-25.769-20.925-40.578-30.059c-10.242-6.338-20.615-12.63-31.966-17.9-21.137-9.833-45.275-16.032-66.281-25.958S91.813,1904.489,90.9,1886.5" transform="translate(-32.708 -1007.933)" fill="none" stroke="#6140ff" stroke-miterlimit="10" stroke-width="6"/>
      <path id="Trazado_2075" data-name="Trazado 2075" d="M206.011,2125.592c6.915,7.876,19.441,13.422,32.423,13.1,4.828-.093,9.851-1.118,13.308-3.542a13.394,13.394,0,0,0,5.349-9.041c1.631-9.554-4.436-20.133-16.57-24.327-6.067-2.1-34.184-5.5-39.795-2C193.224,2104.434,201.9,2120.885,206.011,2125.592Z" transform="translate(-69.86 -1121.01)" fill="none" stroke="#f26941" stroke-miterlimit="10" stroke-width="6"/>
      <path id="Trazado_2076" data-name="Trazado 2076" d="M1180.067,1811.545c32.228-29.453,64.977-59.652,82.069-94.978,3.262-6.758,6.2-14.027,13.308-19.061,12.33-8.715,31.967-7.876,49.189-8.995,78.285-5.126,133.215-59.7,209.021-74.612" transform="translate(-305.362 -862.374)" fill="none" stroke="#6140ff" stroke-miterlimit="10" stroke-width="6"/>
      <path id="Trazado_2077" data-name="Trazado 2077" d="M1020.493,2475.485c15.461-12.49,16.114-30.8,15.592-47.489-.2-7.224-1.435-15.659-10.112-19.434a38.432,38.432,0,0,0-8.872-2.237c-10.177-1.771-20.419-3.542-30.857-3.636-10.438-.14-21.268,1.539-29.553,6.059-6.328,3.449-10.829,8.3-14.548,13.329-3.979,5.453-7.176,11.371-7.568,17.523-1.044,15.845,15.788,29.081,31.444,40.359" transform="translate(-325.974 -1283.557)" fill="#fff" stroke="#fff" stroke-miterlimit="10" stroke-width="6"/>
      <path id="Trazado_2078" data-name="Trazado 2078" d="M1173.494,2216.89c-16.179-24.187-19.115-52.754-8.024-78.386a69.074,69.074,0,0,1,24.268-30.152c9.394-6.478,21.072-10.952,32.554-15.426q43.057-16.847,84.678-35.465c12.2-5.452,24.464-11.091,34.315-18.548,9.394-7.084,16.375-15.612,22.833-24.187,8.024-10.532,15.527-21.437,18.854-33.182,3.849-13.888,1.7-28.428,6.98-42.083,5.545-14.26,19.571-26.7,37.838-33.694,18.266-6.944,40.577-8.342,60.28-3.682,17.483,4.1,32.227,12.536,46.58,20.785q29.063,16.707,58.126,33.508" transform="translate(-403.951 -1014.803)" fill="none" stroke="#f26941" stroke-miterlimit="10" stroke-width="6"/>
      <path id="Trazado_2079" data-name="Trazado 2079" d="M1577.584,2014.655c-10.373.373-17.484-6.851-24.2-12.49-10.764-9.041-24.986-15.566-38.947-21.95-12.656-5.779-27.791-11.791-41.947-8.109a36.632,36.632,0,0,0-16.636,10.066c-19.636,19.807-17.679,46.37-27.922,69.486-15.592,35.279-58.257,60.352-98.835,83.327q-27.693,15.659-55.386,31.364c-13.5,7.643-28.118,16.684-29.684,28.941-.978,7.55,3.262,14.82,7.5,21.764q11.547,19.014,23.681,37.842" transform="translate(-433.513 -1053.041)" fill="none" stroke="#f26941" stroke-miterlimit="10" stroke-width="6"/>
      <path id="Trazado_2080" data-name="Trazado 2080" d="M1350.706,2307.815c-5.023-5.36-10.112-10.766-15.135-16.125-10.568-11.278-21.593-25.259-13.7-37.609,2.74-4.288,7.5-7.736,12.134-11.092q21.235-15.24,42.47-30.525c47.3-33.927,96.813-70.837,109.273-117.86,2.414-9.134,4.045-19.387,13.9-25.539,9.524-5.918,24.333-5.779,35.75-1.911s20.158,10.812,28.248,17.8c25.834,22.417,47.623,47.116,64.846,73.4" transform="translate(-459.691 -1102.931)" fill="none" stroke="#ffee7a" stroke-miterlimit="10" stroke-width="6"/>
      <path id="Trazado_2081" data-name="Trazado 2081" d="M1601.288,2361.843c-23.225-35.652-27.857-75.963-27.791-115.3,0-11.651.456-23.3,1.239-34.906.914-13.328,1.957-27.729-8.285-38.867a13.069,13.069,0,0,0-6.524-4.241c-3.523-.839-7.372.093-10.568,1.351-16.9,6.618-24.138,20.925-31.379,33.694a230.873,230.873,0,0,1-37.185,48.934c-16.636,16.684-36.6,31.737-51.408,49.26-14.809,17.57-24.268,38.774-17.092,58.58" transform="translate(-491.206 -1158.358)" fill="none" stroke="#fff" stroke-miterlimit="10" stroke-width="6"/>
      <path id="Trazado_2082" data-name="Trazado 2082" d="M1490.7,2480.579c1.239-32.016,25.051-61,48.276-88.406,1.7-2,3.784-4.195,6.98-4.521,4.11-.419,7.307,2.377,9.459,4.94,7.568,8.808,13.83,18.409,15.722,28.661,1.109,6.105.652,12.3,1.7,18.408a74.81,74.81,0,0,0,4.566,14.54c2.871,7.41,5.676,14.82,8.546,22.23" transform="translate(-519.312 -1275.509)" fill="none" stroke="#f26941" stroke-miterlimit="10" stroke-width="6"/>
      <path id="Trazado_2083" data-name="Trazado 2083" d="M771.294,1504.268c.065-3.915.326-7.922,2.153-11.651,2.675-5.406,8.351-9.74,14.222-13.655,17.549-11.651,39.925-21.391,63.868-20.179,23.486,1.212,44.035,13.1,55.582,27.775s15.461,31.783,17.157,48.561c1.37,13.468.457,28.661-13.178,37.982-12.917,8.855-32.75,9.321-50.69,9.321-24.921-.047-53.756,3.681-68.826-13C775.535,1551.757,771.033,1524.82,771.294,1504.268Z" transform="translate(-269.226 -779.492)" fill="none" stroke="#fff" stroke-miterlimit="10" stroke-width="6"/>
      <path id="Trazado_2084" data-name="Trazado 2084" d="M845.024,1585.554c8.742,7.55,22.638,11.511,36.337,11.464a15.446,15.446,0,0,0,4.7-.512,12.644,12.644,0,0,0,5.676-3.962c7.763-8.528,12.982-18.641,11.808-28.754C897.932,1513.178,806.795,1552.652,845.024,1585.554Z" transform="translate(-291.614 -822.703)" fill="#ffee7a"/>
      <path id="Trazado_2104" data-name="Trazado 2104" d="M840.575,1563.662c4.577,3.953,11.852,6.027,19.025,6a8.09,8.09,0,0,0,2.459-.268,6.62,6.62,0,0,0,2.971-2.074c4.065-4.465,6.8-9.76,6.182-15.054C868.275,1525.769,820.559,1546.436,840.575,1563.662Z" transform="translate(-67.515 -837.508)" fill="none" stroke="#2de8f5" stroke-miterlimit="10" stroke-width="6"/>
      <path id="Trazado_2085" data-name="Trazado 2085" d="M752.8,1308.643c18.789-8.855,41.1-13.841,63.607-14.214,13.765-.233,27.791,1.212,41.3-.792a78.42,78.42,0,0,0,48.993-27.5c10.7-13.235,15.722-28.382,19.506-43.434,2.349-9.181,4.5-18.874,12.591-26.191s24.268-11.091,34.445-5.219" transform="translate(-262.8 -635.178)" fill="none" stroke="#6140ff" stroke-miterlimit="10" stroke-width="6"/>
      <path id="Trazado_2086" data-name="Trazado 2086" d="M935.386,1157.83c-26.617-4.1-56.235,7.084-66.477,25.119-8.155,14.354-4.893,31.411-15.722,44.832-6.719,8.3-18.006,14.121-29.683,18.828-41.491,16.731-91.855,21.9-138.3,14.261" transform="translate(-239.301 -618.396)" fill="none" stroke="#ffee7a" stroke-miterlimit="10" stroke-width="6"/>
      <path id="Trazado_2087" data-name="Trazado 2087" d="M761.953,928.882c-7.241-9.833-16.962-18.688-23.42-28.8-15.787-24.793-8.807-56.064,16.962-76.15,13.243-10.3,30.466-17.476,47.428-24.513q38.066-15.8,76.067-31.6c4.5-1.864,9.329-3.822,14.548-3.635,5.089.14,9.655,2.33,13.374,4.847,19.441,13.282,19.375,35.419,14.287,54.293s-13.83,38.308-6.785,56.9c2.153,5.732,5.872,11.418,4.632,17.29-1.24,5.919-7.176,10.719-12.852,15.1q-30.629,23.7-61.193,47.4c-13.308,10.3-37.642,29.873-58.975,18.315C769.39,969.287,771.738,942.211,761.953,928.882Z" transform="translate(-254.926 -408.649)" fill="none" stroke="#ffee7a" stroke-miterlimit="10" stroke-width="6"/>
      <path id="Trazado_2088" data-name="Trazado 2088" d="M800.888,963.115c-3.523-5.313-6.654-10.859-7.372-16.731-2.218-18.362,19.376-33.554,40.839-43.807a363.466,363.466,0,0,1,34.967-14.494c3.588-1.3,7.568-2.563,11.547-2.1a11.89,11.89,0,0,1,10.764,11.6c0,5.08-2.479,9.973-2.544,15.053-.131,12.63,14.678,23.488,14.483,36.071-.261,13.282-34.511,46.324-51.668,51.031C829.4,1005.943,808.651,974.859,800.888,963.115Z" transform="translate(-276.9 -473.64)" fill="none" stroke="#f8f8f8" stroke-miterlimit="10" stroke-width="6"/>
      <path id="Trazado_2089" data-name="Trazado 2089" d="M748.9,763.126c41.883-26.564,99.291-40.312,155.135-37.05,3.131.187,6.459.42,9.394-.373a17.984,17.984,0,0,0,5.088-2.377c6.133-3.868,10.634-9.088,12.787-14.727" transform="translate(-261.445 -378.974)" fill="none" stroke="#2de8f5" stroke-miterlimit="10" stroke-width="6"/>
      <path id="Trazado_2090" data-name="Trazado 2090" d="M834.171,705.9c-14.091,2.051-28.183,4.148-42.209,6.2-15.526,2.284-31.966,4.893-43.579,12.583-4.7,3.123-8.481,6.991-13.9,9.507-6.067,2.843-13.569,3.635-20.811,3.915A153.383,153.383,0,0,1,659.4,730.18" transform="translate(-230.332 -377.533)" fill="none" stroke="#ffee7a" stroke-miterlimit="10" stroke-width="6"/>
      <path id="Trazado_2091" data-name="Trazado 2091" d="M975.916,1502.9c17.157,19.2,18.593,43.248,19.506,65.99.392,10.253.718,21.018-5.675,30.246-8.416,12.116-26.486,18.967-43.383,25.026-12.591,4.521-25.182,8.994-37.772,13.515-9.264,3.309-18.789,6.758-25.9,12.117s-11.612,13.189-8.676,20.319" transform="translate(-304.622 -803.103)" fill="none" stroke="#ffee7a" stroke-miterlimit="10" stroke-width="6"/>
      <path id="Trazado_2092" data-name="Trazado 2092" d="M723.424,1795.245c-5.48,2.563-6,8.715-2.153,12.536s10.7,5.593,17.288,5.872a22.308,22.308,0,0,0,6.132-.419c7.959-1.771,10.308-10.066,5.089-14.773-5.154-4.66-15.2-5.5-22.833-3.076" transform="translate(-250.973 -958.574)" fill="none" stroke="#ffee7a" stroke-miterlimit="10" stroke-width="6"/>
      <path id="Trazado_2093" data-name="Trazado 2093" d="M1019.1,1632.266c3.262-10.206,16.309-16.964,27.074-24.141,19.114-12.769,33.271-30.2,33.858-48.887.2-5.779-.914-11.558-1.957-17.29-3.327-17.523-6.654-35.092-12.917-52.149" transform="translate(-355.373 -796.109)" fill="none" stroke="#fff" stroke-miterlimit="10" stroke-width="6"/>
      <path id="Trazado_2095" data-name="Trazado 2095" d="M535.537,1397.3c-14.222,5.08-26.16,13.375-33.728,23.348-6.132,8.062-8.416,19.62,1.761,25.259,5.35,2.983,12.852,3.355,19.571,2.517,16.962-2.1,31.836-11.418,36.859-23.162" transform="translate(-173.73 -746.717)" fill="none" stroke="#6140ff" stroke-miterlimit="10" stroke-width="6"/>
      <path id="Trazado_2096" data-name="Trazado 2096" d="M359.29,1303.659c-5.284-7.363-14.352-14.959-10.569-22.743,10.177-2.889,20.876,2.89,28.9,8.249,7.7,5.126,15.4,10.3,23.029,15.426,2.805,1.864,5.676,3.868,6.915,6.431,2.349,5.033-2.283,10.206-6.654,14.494-4.5,4.334-9.329,8.808-16.309,10.812C357.789,1343.971,365.814,1312.7,359.29,1303.659Z" transform="translate(-122.021 -684.16)" fill="none" stroke="#ffee7a" stroke-miterlimit="10" stroke-width="6"/>
      <path id="Trazado_2097" data-name="Trazado 2097" d="M314.1,1115.472c-7.111-9.693-23.094-13.934-37.9-16.73-12.982-2.47-27.269-4.381-39.338-.28s-18.984,13.282-23.355,22.276" transform="translate(-75.327 -585.871)" fill="none" stroke="#ffee7a" stroke-miterlimit="10" stroke-width="6"/>
      <path id="Trazado_2098" data-name="Trazado 2098" d="M595.6,1110.2c12.069,1.724,24.66,1.165,36.794,2.843s24.594,6.292,28.966,14.54c5.154,9.694-3.066,20.739-14.483,27.17-13.5,7.6-35.033,10.159-47.1,1.4" transform="translate(-208.154 -593.415)" fill="none" stroke="#6140ff" stroke-miterlimit="10" stroke-width="6"/>
      <path id="Trazado_2099" data-name="Trazado 2099" d="M702.391,1524.3c-7.894,12.257-7.5,27.077,1.109,39.1,4.632,6.478,11.612,12.257,14.026,19.34" transform="translate(-243.314 -814.531)" fill="none" stroke="#ffee7a" stroke-miterlimit="10" stroke-width="6"/>
      <path id="Trazado_2100" data-name="Trazado 2100" d="M713.8,1256.86v20.133c0,3.961.13,8.249,3.458,11.464,3.588,3.449,10.242,4.754,16.244,4.288s11.612-2.423,17.027-4.334c3.979-1.4,8.09-2.889,10.764-5.453a11.5,11.5,0,0,0,3.523-9.134c-.261-8.3-7.437-16.4-18.006-19.76-10.634-3.355-24.138-1.631-32.031,4.427" transform="translate(-249.243 -669.331)" fill="none" stroke="#ffee7a" stroke-miterlimit="10" stroke-width="6"/>
      <path id="Trazado_2101" data-name="Trazado 2101" d="M537.557,905.056a207.45,207.45,0,0,1-5.415-37.236c-.587-10.672.848-23.022,13.048-29.22" transform="translate(-186.057 -448.39)" fill="none" stroke="#ffee7a" stroke-miterlimit="10" stroke-width="6"/>
      <path id="Trazado_2103" data-name="Trazado 2103" d="M-6.6,75.581A287.208,287.208,0,0,1-4.3,33.7C-2.775,21.559.885,7.223,13.014-1.547" transform="matrix(0.799, 0.602, -0.602, 0.799, 828.712, 52.368)" fill="none" stroke="#ffee7a" stroke-miterlimit="10" stroke-width="6"/>
      <path id="Trazado_2105" data-name="Trazado 2105" d="M1613.181,730.059c2.041,4.763,4.082,9.979,1.542,14.612-1.315,2.462-3.809,4.5-6.259,6.512-5.352,4.341-10.658,8.683-16.01,13.024-3.039,2.462-6.168,4.957-10.25,6.415-3.719,1.328-7.937,1.652-12.064,1.976-6.576.518-13.606,1-19.5-1.166-9.161-3.337-12.2-11.6-12.473-18.953-.5-14.126,5.851-28.349,17.733-39.656a24.276,24.276,0,0,1,9.116-5.929,29.852,29.852,0,0,1,11.293-.972C1596.083,707.445,1607.785,717.488,1613.181,730.059Z" transform="translate(-518.716 -362.229)" fill="#f26941"/>
      <path id="Trazado_2106" data-name="Trazado 2106" d="M1258.053,1771.231c6.033,1.119,11.95-1.865,16.359-5.014,16.591-11.935,25.293-28.18,33.589-43.928,5.279-10.029,10.616-20.472,9.688-31.164a7.577,7.577,0,0,0-2.552-5.594c-1.972-1.533-5.047-2.031-7.89-2.031-6.961,0-13.458,2.487-19.376,5.139-20.42,9.158-40.144,22.42-47.047,39.411C1236.589,1738.2,1241.113,1768.04,1258.053,1771.231Z" transform="translate(-427.046 -894.059)" fill="none" stroke="#2de8f5" stroke-miterlimit="10" stroke-width="6"/>
    </g>
  </g>
</svg>
