<svg xmlns="http://www.w3.org/2000/svg" width="30" height="30" viewBox="0 0 30 30">
  <g id="instagram" transform="translate(0 0)">
    <path id="Trazado_289" data-name="Trazado 289" d="M0,6.233V23.767A6.233,6.233,0,0,0,6.233,30H23.767A6.233,6.233,0,0,0,30,23.767V6.233A6.233,6.233,0,0,0,23.767,0H6.233A6.233,6.233,0,0,0,0,6.233ZM18.178,23.5A9.1,9.1,0,0,1,6.5,11.822,8.607,8.607,0,0,1,11.822,6.5,9.1,9.1,0,0,1,23.5,18.178,8.606,8.606,0,0,1,18.178,23.5ZM25.41,5.929a1.172,1.172,0,0,1-2.055.555.713.713,0,0,1-.061-.081,1.175,1.175,0,0,1-.047-1.246,1.165,1.165,0,0,1,1.592-.426,1.174,1.174,0,0,1,.583,1.1.721.721,0,0,1-.012.1Zm0,0" fill="#6c5ce6"/>
    <path id="Trazado_290" data-name="Trazado 290" d="M171.811,164.523a7.288,7.288,0,1,0,7.288,7.288A7.3,7.3,0,0,0,171.811,164.523Zm0,0" transform="translate(-156.811 -156.811)" fill="#6c5ce6"/>
  </g>
</svg>
