<svg xmlns="http://www.w3.org/2000/svg" width="1099" height="1127.847" viewBox="0 0 1099 1127.847">
  <g id="Grupo_1140" data-name="Grupo 1140" transform="translate(5922 10459.847)">
    <rect id="Rectángulo_389" data-name="Rectángulo 389" width="204" height="352" transform="translate(-5373 -9684)" fill="#9df0fa"/>
    <rect id="Rectángulo_388" data-name="Rectángulo 388" width="337" height="126" transform="translate(-5160 -10162)" fill="#9df0fa"/>
    <g id="Grupo_1093" data-name="Grupo 1093" transform="translate(-5905.745 -11355.359)">
      <line id="Línea_474" data-name="Línea 474" x1="17.435" transform="translate(602.302 982.937)" fill="none" stroke="#196fbc" stroke-linecap="round" stroke-miterlimit="10" stroke-width="7"/>
      <line id="Línea_475" data-name="Línea 475" x1="17.479" transform="translate(797.295 1092.406)" fill="none" stroke="#196fbc" stroke-linecap="round" stroke-miterlimit="10" stroke-width="7"/>
      <line id="Línea_476" data-name="Línea 476" y2="17.435" transform="translate(605.78 1097.311)" fill="none" stroke="#196fbc" stroke-linecap="round" stroke-miterlimit="10" stroke-width="7"/>
      <circle id="Elipse_199" data-name="Elipse 199" cx="8.918" cy="8.918" r="8.918" transform="translate(819.055 1002.111)" fill="none" stroke="#196fbc" stroke-linecap="round" stroke-miterlimit="10" stroke-width="7"/>
      <circle id="Elipse_200" data-name="Elipse 200" cx="8.918" cy="8.918" r="8.918" transform="translate(582.995 1038.719)" fill="none" stroke="#196fbc" stroke-linecap="round" stroke-miterlimit="10" stroke-width="7"/>
      <circle id="Elipse_220" data-name="Elipse 220" cx="8.918" cy="8.918" r="8.918" transform="translate(891.172 1015.392) rotate(180)" fill="none" stroke="#196fbc" stroke-linecap="round" stroke-miterlimit="10" stroke-width="7"/>
      <circle id="Elipse_201" data-name="Elipse 201" cx="8.918" cy="8.918" r="8.918" transform="translate(510.581 985.078)" fill="none" stroke="#196fbc" stroke-linecap="round" stroke-miterlimit="10" stroke-width="7"/>
      <path id="Trazado_2407" data-name="Trazado 2407" d="M734.42,372.62,722.2,384.838a1.986,1.986,0,0,1-2.809-2.809l10.835-10.835L719.438,360.4a1.986,1.986,0,0,1,2.809-2.809l12.218,12.218a1.951,1.951,0,0,1,.58,1.427,2.087,2.087,0,0,1-.624,1.382Zm0,0" transform="translate(110.363 783.193)" fill="#a2f4fc"/>
      <path id="Trazado_2423" data-name="Trazado 2423" d="M734.42,372.62,722.2,384.838a1.986,1.986,0,0,1-2.809-2.809l10.835-10.835L719.438,360.4a1.986,1.986,0,0,1,2.809-2.809l12.218,12.218a1.951,1.951,0,0,1,.58,1.427,2.087,2.087,0,0,1-.624,1.382Zm0,0" transform="translate(1.101 1271.932)" fill="#a2f4fc"/>
      <g id="Grupo_1019" data-name="Grupo 1019" transform="translate(772.369 1149.436)">
        <circle id="Elipse_202" data-name="Elipse 202" cx="3.656" cy="3.656" r="3.656" transform="translate(34.067)" fill="#a2f4fc"/>
        <circle id="Elipse_203" data-name="Elipse 203" cx="3.656" cy="3.656" r="3.656" transform="translate(17.033)" fill="#a2f4fc"/>
        <circle id="Elipse_204" data-name="Elipse 204" cx="3.656" cy="3.656" r="3.656" fill="#a2f4fc"/>
      </g>
      <g id="Grupo_1026" data-name="Grupo 1026" transform="translate(663.107 1638.175)">
        <circle id="Elipse_202-2" data-name="Elipse 202" cx="3.656" cy="3.656" r="3.656" transform="translate(34.067)" fill="#a2f4fc"/>
        <circle id="Elipse_203-2" data-name="Elipse 203" cx="3.656" cy="3.656" r="3.656" transform="translate(17.033)" fill="#a2f4fc"/>
        <circle id="Elipse_204-2" data-name="Elipse 204" cx="3.656" cy="3.656" r="3.656" fill="#a2f4fc"/>
      </g>
      <g id="Grupo_1027" data-name="Grupo 1027" transform="translate(778.243 1638.175)">
        <circle id="Elipse_202-3" data-name="Elipse 202" cx="3.656" cy="3.656" r="3.656" transform="translate(34.067)" fill="#a2f4fc"/>
        <circle id="Elipse_203-3" data-name="Elipse 203" cx="3.656" cy="3.656" r="3.656" transform="translate(17.033)" fill="#a2f4fc"/>
        <circle id="Elipse_204-3" data-name="Elipse 204" cx="3.656" cy="3.656" r="3.656" fill="#a2f4fc"/>
      </g>
      <g id="Grupo_1028" data-name="Grupo 1028" transform="translate(861.658 1638.175)">
        <circle id="Elipse_202-4" data-name="Elipse 202" cx="3.656" cy="3.656" r="3.656" transform="translate(34.067)" fill="#a2f4fc"/>
        <circle id="Elipse_203-4" data-name="Elipse 203" cx="3.656" cy="3.656" r="3.656" transform="translate(17.033)" fill="#a2f4fc"/>
        <circle id="Elipse_204-4" data-name="Elipse 204" cx="3.656" cy="3.656" r="3.656" fill="#a2f4fc"/>
      </g>
      <circle id="Elipse_205" data-name="Elipse 205" cx="8.517" cy="8.517" r="8.517" transform="translate(705.573 1016.603)" fill="#fff"/>
      <circle id="Elipse_206" data-name="Elipse 206" cx="8.517" cy="8.517" r="8.517" transform="translate(736.251 1146.137)" fill="#fff"/>
      <circle id="Elipse_207" data-name="Elipse 207" cx="9.364" cy="9.364" r="9.364" transform="translate(582.906 1154.654)" fill="#fff"/>
      <circle id="Elipse_208" data-name="Elipse 208" cx="8.918" cy="8.918" r="8.918" transform="translate(582.995 1155.5)" fill="none" stroke="#196fbc" stroke-linecap="round" stroke-miterlimit="10" stroke-width="7"/>
      <path id="Trazado_2651" data-name="Trazado 2651" d="M0,0V98.009" transform="translate(591.824 1057.09)" fill="none" stroke="#196fbc" stroke-linecap="round" stroke-width="7"/>
      <line id="Línea_501" data-name="Línea 501" y2="98.009" transform="translate(882.343 997.022) rotate(180)" fill="none" stroke="#196fbc" stroke-linecap="round" stroke-miterlimit="10" stroke-width="7"/>
      <circle id="Elipse_209" data-name="Elipse 209" cx="8.918" cy="8.918" r="8.918" transform="translate(704.86 1016.603)" fill="none" stroke="#196fbc" stroke-linecap="round" stroke-miterlimit="10" stroke-width="7"/>
      <path id="Trazado_2408" data-name="Trazado 2408" d="M45.1,29.2H228.722a1.294,1.294,0,0,1,1.293,1.293V50.514" transform="translate(483.673 964.839)" fill="none" stroke="#196fbc" stroke-linecap="round" stroke-miterlimit="10" stroke-width="7"/>
      <circle id="Elipse_210" data-name="Elipse 210" cx="8.918" cy="8.918" r="8.918" transform="translate(736.251 1145.78)" fill="none" stroke="#196fbc" stroke-linecap="round" stroke-miterlimit="10" stroke-width="7"/>
      <path id="Trazado_2409" data-name="Trazado 2409" d="M530.4,213.133v-62.2a2.779,2.779,0,0,1,2.765-2.765h77.319a2.778,2.778,0,0,0,2.765-2.765V87.3" transform="translate(214.769 932.646)" fill="none" stroke="#196fbc" stroke-linecap="round" stroke-miterlimit="10" stroke-width="7"/>
      <g id="Grupo_1021" data-name="Grupo 1021" transform="translate(371.941 1146.079) rotate(180)">
        <line id="Línea_475-2" data-name="Línea 475" x1="17.479" transform="translate(61.044 90.295)" fill="none" stroke="#196fbc" stroke-linecap="round" stroke-miterlimit="10" stroke-width="7"/>
        <circle id="Elipse_199-2" data-name="Elipse 199" cx="8.918" cy="8.918" r="8.918" transform="translate(82.804)" fill="none" stroke="#196fbc" stroke-linecap="round" stroke-miterlimit="10" stroke-width="7"/>
        <path id="Trazado_2407-2" data-name="Trazado 2407" d="M15.6,15.6,3.378,27.813a2.019,2.019,0,0,1-2.809,0A2.019,2.019,0,0,1,.569,25L11.4,14.169.613,3.378a2.019,2.019,0,0,1,0-2.809,2.019,2.019,0,0,1,2.809,0L15.64,12.786a1.951,1.951,0,0,1,.58,1.427A2.088,2.088,0,0,1,15.6,15.6Zm0,0" transform="translate(92.937 138.107)" fill="#a2f4fc"/>
        <g id="Grupo_1019-2" data-name="Grupo 1019" transform="translate(36.118 147.326)">
          <circle id="Elipse_202-5" data-name="Elipse 202" cx="3.656" cy="3.656" r="3.656" transform="translate(34.067)" fill="#a2f4fc"/>
          <circle id="Elipse_203-5" data-name="Elipse 203" cx="3.656" cy="3.656" r="3.656" transform="translate(17.033)" fill="#a2f4fc"/>
          <circle id="Elipse_204-5" data-name="Elipse 204" cx="3.656" cy="3.656" r="3.656" fill="#a2f4fc"/>
        </g>
        <circle id="Elipse_206-2" data-name="Elipse 206" cx="8.517" cy="8.517" r="8.517" transform="translate(0 144.026)" fill="#fff"/>
        <circle id="Elipse_210-2" data-name="Elipse 210" cx="8.918" cy="8.918" r="8.918" transform="translate(0 143.669)" fill="none" stroke="#196fbc" stroke-linecap="round" stroke-miterlimit="10" stroke-width="7"/>
        <path id="Trazado_2409-2" data-name="Trazado 2409" d="M0,125.833V63.63a2.779,2.779,0,0,1,2.765-2.765H80.084A2.778,2.778,0,0,0,82.848,58.1V0" transform="translate(8.918 17.836)" fill="none" stroke="#196fbc" stroke-linecap="round" stroke-miterlimit="10" stroke-width="7"/>
      </g>
      <g id="Grupo_1023" data-name="Grupo 1023" transform="translate(379.656 1753.358)">
        <line id="Línea_479" data-name="Línea 479" y2="17.435" transform="translate(22.875 58.591)" fill="none" stroke="#196fbc" stroke-linecap="round" stroke-miterlimit="10" stroke-width="7"/>
        <circle id="Elipse_213" data-name="Elipse 213" cx="8.918" cy="8.918" r="8.918" transform="translate(0.089 0)" fill="none" stroke="#196fbc" stroke-linecap="round" stroke-miterlimit="10" stroke-width="7"/>
        <circle id="Elipse_211" data-name="Elipse 211" cx="9.364" cy="9.364" r="9.364" transform="translate(0 115.934)" fill="#fff"/>
        <circle id="Elipse_212" data-name="Elipse 212" cx="8.918" cy="8.918" r="8.918" transform="translate(0.089 116.781)" fill="none" stroke="#196fbc" stroke-linecap="round" stroke-miterlimit="10" stroke-width="7"/>
        <line id="Línea_478" data-name="Línea 478" y2="98.009" transform="translate(8.918 18.371)" fill="none" stroke="#196fbc" stroke-linecap="round" stroke-miterlimit="10" stroke-width="7"/>
      </g>
      <g id="Grupo_1025" data-name="Grupo 1025" transform="translate(620.965 1724.39) rotate(180)">
        <line id="Línea_479-2" data-name="Línea 479" y2="17.435" transform="translate(22.786 36.269)" fill="none" stroke="#196fbc" stroke-linecap="round" stroke-miterlimit="10" stroke-width="7"/>
        <circle id="Elipse_213-2" data-name="Elipse 213" cx="8.918" cy="8.918" r="8.918" transform="translate(0)" fill="none" stroke="#196fbc" stroke-linecap="round" stroke-miterlimit="10" stroke-width="7"/>
        <circle id="Elipse_212-2" data-name="Elipse 212" cx="8.918" cy="8.918" r="8.918" transform="translate(0 116.781)" fill="none" stroke="#196fbc" stroke-linecap="round" stroke-miterlimit="10" stroke-width="7"/>
        <line id="Línea_478-2" data-name="Línea 478" y2="98.009" transform="translate(8.829 18.371)" fill="none" stroke="#196fbc" stroke-linecap="round" stroke-miterlimit="10" stroke-width="7"/>
      </g>
      <g id="Grupo_1029" data-name="Grupo 1029" transform="translate(526.991 1641.453) rotate(-90)">
        <line id="Línea_479-3" data-name="Línea 479" y2="17.435" transform="translate(22.786 36.269)" fill="none" stroke="#196fbc" stroke-linecap="round" stroke-miterlimit="10" stroke-width="7"/>
        <circle id="Elipse_213-3" data-name="Elipse 213" cx="8.918" cy="8.918" r="8.918" fill="none" stroke="#196fbc" stroke-linecap="round" stroke-miterlimit="10" stroke-width="7"/>
        <line id="Línea_478-3" data-name="Línea 478" y2="37.528" transform="translate(8.829 18.371)" fill="none" stroke="#196fbc" stroke-linecap="round" stroke-miterlimit="10" stroke-width="7"/>
      </g>
      <g id="Grupo_1024" data-name="Grupo 1024" transform="translate(629.996 1241.697)">
        <path id="Trazado_2410" data-name="Trazado 2410" d="M97.919,234.4H72.012a3.307,3.307,0,0,0-3.312,3.312v23.6a3.307,3.307,0,0,0,3.312,3.312H97.919a3.307,3.307,0,0,0,3.312-3.312v-23.6A3.307,3.307,0,0,0,97.919,234.4Z" transform="translate(-29.545 -98.658)" fill="none" stroke="#196fbc" stroke-linecap="round" stroke-miterlimit="10" stroke-width="7"/>
        <line id="Línea_480" data-name="Línea 480" y2="7.393" transform="translate(63.701 147.453)" fill="none" stroke="#196fbc" stroke-linecap="round" stroke-miterlimit="10" stroke-width="7"/>
        <line id="Línea_481" data-name="Línea 481" x1="112.083" transform="translate(62.045 285.738)" fill="none" stroke="#196fbc" stroke-linecap="round" stroke-miterlimit="10" stroke-width="7"/>
        <line id="Línea_482" data-name="Línea 482" x1="112.142" transform="translate(198.97 285.738)" fill="none" stroke="#196fbc" stroke-linecap="round" stroke-miterlimit="10" stroke-width="7"/>
        <circle id="Elipse_214" data-name="Elipse 214" cx="6.21" cy="6.21" r="6.21" transform="translate(216.951 74.939)" fill="none" stroke="#196fbc" stroke-linecap="round" stroke-miterlimit="10" stroke-width="7"/>
        <line id="Línea_483" data-name="Línea 483" x1="21.293" transform="translate(241.201 81.327)" fill="none" stroke="#196fbc" stroke-linecap="round" stroke-miterlimit="10" stroke-width="7"/>
        <circle id="Elipse_215" data-name="Elipse 215" cx="2.543" cy="2.543" r="2.543" transform="translate(220.618 157.626)" fill="#385ffc"/>
        <circle id="Elipse_216" data-name="Elipse 216" cx="2.543" cy="2.543" r="2.543" transform="translate(220.618 145.797)" fill="#385ffc"/>
        <circle id="Elipse_217" data-name="Elipse 217" cx="2.543" cy="2.543" r="2.543" transform="translate(220.618 133.908)" fill="#385ffc"/>
        <path id="Trazado_2411" data-name="Trazado 2411" d="M71.288,4.9H86.074A2.12,2.12,0,0,1,88.2,7.029V34.947a2.12,2.12,0,0,1-2.129,2.129H31.719a2.12,2.12,0,0,1-2.129-2.129V30.156a2.12,2.12,0,0,0-2.129-2.129H4.629A2.12,2.12,0,0,1,2.5,25.9V15.487a2.651,2.651,0,0,1,2.662-2.662H29.53" transform="translate(-2.5 -4.9)" fill="none" stroke="#196fbc" stroke-linecap="round" stroke-miterlimit="10" stroke-width="7"/>
        <line id="Línea_484" data-name="Línea 484" x2="30.461" transform="translate(41.994 9.582)" fill="none" stroke="#196fbc" stroke-linecap="round" stroke-miterlimit="10" stroke-width="7"/>
        <line id="Línea_485" data-name="Línea 485" x2="30.461" transform="translate(41.994 20.287)" fill="none" stroke="#196fbc" stroke-linecap="round" stroke-miterlimit="10" stroke-width="7"/>
        <path id="Trazado_2412" data-name="Trazado 2412" d="M75.6,59.2V69.669a1.969,1.969,0,0,0,1.952,1.952h22.831a1.969,1.969,0,0,0,1.952-1.952V59.791" transform="translate(-32.364 -27.083)" fill="none" stroke="#196fbc" stroke-linecap="round" stroke-miterlimit="10" stroke-width="7"/>
        <line id="Línea_486" data-name="Línea 486" y2="54.119" transform="translate(56.544 44.538)" fill="none" stroke="#196fbc" stroke-linecap="round" stroke-miterlimit="10" stroke-width="7"/>
        <path id="Trazado_2413" data-name="Trazado 2413" d="M79.7,192.007V177.339a2.84,2.84,0,0,1,2.839-2.839h15.2a2.84,2.84,0,0,1,2.839,2.839v14.668" transform="translate(-34.039 -74.187)" fill="none" stroke="#196fbc" stroke-linecap="round" stroke-miterlimit="10" stroke-width="7"/>
        <path id="Trazado_2414" data-name="Trazado 2414" d="M60.7,222.857V208.721A2.713,2.713,0,0,1,63.421,206h38.445a2.713,2.713,0,0,1,2.721,2.721v14.136" transform="translate(-26.277 -87.056)" fill="none" stroke="#196fbc" stroke-linecap="round" stroke-miterlimit="10" stroke-width="7"/>
        <line id="Línea_487" data-name="Línea 487" x2="63.642" transform="translate(23.718 135.801)" fill="none" stroke="#196fbc" stroke-linecap="round" stroke-miterlimit="10" stroke-width="7"/>
        <path id="Trazado_2415" data-name="Trazado 2415" d="M147.4,17.8H253.864V34.42H147.4" transform="translate(-61.696 -10.17)" fill="none" stroke="#196fbc" stroke-linecap="round" stroke-miterlimit="10" stroke-width="7"/>
        <path id="Trazado_2416" data-name="Trazado 2416" d="M353.288,4.9H329.866A2.373,2.373,0,0,0,327.5,7.266V33.527a2.373,2.373,0,0,0,2.366,2.366h23.422a2.373,2.373,0,0,0,2.366-2.366V7.266A2.373,2.373,0,0,0,353.288,4.9Z" transform="translate(-135.273 -4.9)" fill="none" stroke="#196fbc" stroke-linecap="round" stroke-miterlimit="10" stroke-width="7"/>
        <path id="Trazado_2417" data-name="Trazado 2417" d="M388.586,17.3H377.407a2.31,2.31,0,0,0-2.307,2.307V30.785a2.31,2.31,0,0,0,2.307,2.307h11.179a2.31,2.31,0,0,0,2.307-2.307V19.607A2.39,2.39,0,0,0,388.586,17.3Z" transform="translate(-154.719 -9.966)" fill="none" stroke="#196fbc" stroke-linecap="round" stroke-miterlimit="10" stroke-width="7"/>
        <circle id="Elipse_218" data-name="Elipse 218" cx="14.566" cy="14.566" r="14.566" transform="translate(148.62 0.93)" fill="#9df0fa" stroke="#196fbc" stroke-linecap="round" stroke-miterlimit="10" stroke-width="7"/>
        <circle id="Elipse_219" data-name="Elipse 219" cx="2.543" cy="2.543" r="2.543" transform="translate(160.347 12.717)" fill="#196fbc"/>
        <line id="Línea_488" data-name="Línea 488" y1="24.901" transform="translate(155.024 30.342)" fill="none" stroke="#196fbc" stroke-linecap="round" stroke-miterlimit="10" stroke-width="7"/>
        <line id="Línea_489" data-name="Línea 489" y1="24.901" transform="translate(170.225 30.342)" fill="none" stroke="#196fbc" stroke-linecap="round" stroke-miterlimit="10" stroke-width="7"/>
        <path id="Trazado_2418" data-name="Trazado 2418" d="M285.585,111.845V98.3H238.8V204.823" transform="translate(-99.036 -43.057)" fill="none" stroke="#196fbc" stroke-linecap="round" stroke-miterlimit="10" stroke-width="7"/>
        <line id="Línea_490" data-name="Línea 490" x2="12.421" transform="translate(157.508 74.407)" fill="none" stroke="#196fbc" stroke-linecap="round" stroke-miterlimit="10" stroke-width="7"/>
        <line id="Línea_491" data-name="Línea 491" x2="17.448" transform="translate(155.024 86.236)" fill="none" stroke="#196fbc" stroke-linecap="round" stroke-miterlimit="10" stroke-width="7"/>
        <line id="Línea_492" data-name="Línea 492" x2="12.421" transform="translate(157.508 98.065)" fill="none" stroke="#196fbc" stroke-linecap="round" stroke-miterlimit="10" stroke-width="7"/>
        <line id="Línea_493" data-name="Línea 493" x2="12.421" transform="translate(157.508 182.054)" fill="none" stroke="#196fbc" stroke-linecap="round" stroke-miterlimit="10" stroke-width="7"/>
        <line id="Línea_494" data-name="Línea 494" x2="17.448" transform="translate(155.024 193.883)" fill="none" stroke="#196fbc" stroke-linecap="round" stroke-miterlimit="10" stroke-width="7"/>
        <line id="Línea_495" data-name="Línea 495" x2="12.421" transform="translate(157.508 205.713)" fill="none" stroke="#196fbc" stroke-linecap="round" stroke-miterlimit="10" stroke-width="7"/>
        <path id="Trazado_2419" data-name="Trazado 2419" d="M278.7,237.136H268.234A1.843,1.843,0,0,1,266.4,235.3V224.834A1.843,1.843,0,0,1,268.234,223H278.7a1.843,1.843,0,0,1,1.834,1.834V235.3A1.843,1.843,0,0,1,278.7,237.136Z" transform="translate(-110.312 -94.001)" fill="none" stroke="#196fbc" stroke-linecap="round" stroke-miterlimit="10" stroke-width="7"/>
        <line id="Línea_496" data-name="Línea 496" y2="176.908" transform="translate(186.549 91.323)" fill="none" stroke="#196fbc" stroke-linecap="round" stroke-miterlimit="10" stroke-width="7"/>
        <path id="Trazado_2420" data-name="Trazado 2420" d="M298.38,474.192V462.481A4.089,4.089,0,0,0,294.3,458.4H179.081A4.089,4.089,0,0,0,175,462.481v11.711" transform="translate(-72.972 -190.169)" fill="none" stroke="#196fbc" stroke-linecap="round" stroke-miterlimit="10" stroke-width="7"/>
        <path id="Trazado_2421" data-name="Trazado 2421" d="M150.2,419.122v-48.8a7.386,7.386,0,0,1,2.129-5.2l39.392-39.392a7.386,7.386,0,0,1,5.2-2.129H202.6" transform="translate(-62.84 -135.099)" fill="none" stroke="#196fbc" stroke-linecap="round" stroke-miterlimit="10" stroke-width="7"/>
        <path id="Trazado_2422" data-name="Trazado 2422" d="M370.3,419.122v-48.8a7.386,7.386,0,0,0-2.129-5.2l-39.392-39.392a7.386,7.386,0,0,0-5.2-2.129H317.9" transform="translate(-131.351 -135.099)" fill="none" stroke="#196fbc" stroke-linecap="round" stroke-miterlimit="10" stroke-width="7"/>
        <line id="Línea_497" data-name="Línea 497" y2="86.768" transform="translate(139.764 180.339)" fill="none" stroke="#196fbc" stroke-linecap="round" stroke-miterlimit="10" stroke-width="7"/>
        <line id="Línea_498" data-name="Línea 498" y1="13.249" x2="13.249" transform="translate(106.228 213.047)" fill="none" stroke="#196fbc" stroke-linecap="round" stroke-miterlimit="10" stroke-width="7"/>
        <line id="Línea_499" data-name="Línea 499" x2="13.249" y2="13.249" transform="translate(207.132 213.047)" fill="none" stroke="#196fbc" stroke-linecap="round" stroke-miterlimit="10" stroke-width="7"/>
        <line id="Línea_500" data-name="Línea 500" x2="9.582" transform="translate(159.519 274.441)" fill="none" stroke="#196fbc" stroke-linecap="round" stroke-miterlimit="10" stroke-width="7"/>
      </g>
      <g id="Grupo_1031" data-name="Grupo 1031" transform="translate(213.847 1575.118)">
        <path id="Trazado_2424" data-name="Trazado 2424" d="M23.5,13H135.816a9.727,9.727,0,0,1,9.751,9.751v78.715" transform="translate(1.172 -0.664)" fill="none" stroke="#196fbc" stroke-linecap="round" stroke-miterlimit="10" stroke-width="7"/>
        <circle id="Elipse_221" data-name="Elipse 221" cx="12.336" cy="12.336" r="12.336" transform="translate(134.403 100.803)" fill="none" stroke="#196fbc" stroke-linecap="round" stroke-miterlimit="10" stroke-width="7"/>
        <circle id="Elipse_222" data-name="Elipse 222" cx="12.336" cy="12.336" r="12.336" transform="translate(0 0)" fill="none" stroke="#196fbc" stroke-linecap="round" stroke-miterlimit="10" stroke-width="7"/>
        <line id="Línea_502" data-name="Línea 502" x2="38.065" transform="translate(62.737 28.079)" fill="none" stroke="#196fbc" stroke-linecap="round" stroke-miterlimit="10" stroke-width="7"/>
        <line id="Línea_503" data-name="Línea 503" y2="23.967" transform="translate(165.772 52.164)" fill="none" stroke="#196fbc" stroke-linecap="round" stroke-miterlimit="10" stroke-width="7"/>
      </g>
      <g id="Grupo_1033" data-name="Grupo 1033" transform="translate(729.276 1706.986)">
        <line id="Línea_504" data-name="Línea 504" y2="9.702" transform="translate(287.331 0)" fill="none" stroke="#196fbc" stroke-linecap="round" stroke-miterlimit="10" stroke-width="7"/>
        <line id="Línea_505" data-name="Línea 505" x1="86.463" transform="translate(0 181.386)" fill="none" stroke="#196fbc" stroke-linecap="round" stroke-miterlimit="10" stroke-width="7"/>
        <line id="Línea_506" data-name="Línea 506" x1="156.006" transform="translate(112.386 181.386)" fill="none" stroke="#196fbc" stroke-linecap="round" stroke-miterlimit="10" stroke-width="7"/>
        <circle id="Elipse_223" data-name="Elipse 223" cx="8.15" cy="8.15" r="8.15" transform="translate(212.898 85.221)" fill="none" stroke="#196fbc" stroke-linecap="round" stroke-miterlimit="10" stroke-width="7"/>
        <line id="Línea_507" data-name="Línea 507" x1="15.833" transform="translate(249.377 92.827)" fill="none" stroke="#196fbc" stroke-linecap="round" stroke-miterlimit="10" stroke-width="7"/>
        <circle id="Elipse_224" data-name="Elipse 224" cx="9.314" cy="9.314" r="9.314" transform="translate(48.121 116.966)" fill="#fff"/>
        <circle id="Elipse_225" data-name="Elipse 225" cx="9.314" cy="9.314" r="9.314" transform="translate(125.348 117.354)" fill="#fff"/>
        <g id="Grupo_1032" data-name="Grupo 1032" transform="translate(25.846 14.669)">
          <path id="Trazado_2425" data-name="Trazado 2425" d="M173.722,45.561V23.052A1.557,1.557,0,0,0,172.17,21.5H40.457A1.557,1.557,0,0,0,38.9,23.052V95.234a1.557,1.557,0,0,1-1.552,1.552h0A1.557,1.557,0,0,0,35.8,98.339V110.99a1.557,1.557,0,0,0,1.552,1.552h.776a1.557,1.557,0,0,1,1.552,1.552v13.039a1.557,1.557,0,0,1-1.552,1.552h-.776a1.557,1.557,0,0,0-1.552,1.552v31.124a1.557,1.557,0,0,0,1.552,1.552H38.9a1.557,1.557,0,0,1,1.552,1.552v19.326a1.557,1.557,0,0,0,1.552,1.552H59.395a1.557,1.557,0,0,0,1.552-1.552V170.366" transform="translate(-35.8 -21.5)" fill="none" stroke="#196fbc" stroke-linecap="round" stroke-miterlimit="10" stroke-width="7"/>
          <path id="Trazado_2426" data-name="Trazado 2426" d="M53.223,21.5V62.791A1.723,1.723,0,0,1,51.515,64.5h0a1.723,1.723,0,0,0-1.708,1.708v87.162a1.58,1.58,0,0,1-.466,1.164l-.776.776a1.711,1.711,0,0,0-.466,1.164v11.254a1.723,1.723,0,0,0,1.708,1.708H86.985" transform="translate(-38.553 -21.5)" fill="none" stroke="#196fbc" stroke-linecap="round" stroke-miterlimit="10" stroke-width="7"/>
          <path id="Trazado_2427" data-name="Trazado 2427" d="M50.4,192.2H169.229a1.889,1.889,0,0,1,1.863,1.863v11.642a1.889,1.889,0,0,1-1.863,1.863H99.686" transform="translate(-39.068 -59.711)" fill="none" stroke="#196fbc" stroke-linecap="round" stroke-miterlimit="10" stroke-width="7"/>
          <path id="Trazado_2428" data-name="Trazado 2428" d="M200.908,153.989V65.275a.861.861,0,0,0-.854-.854h0a.861.861,0,0,1-.854-.854V21.5" transform="translate(-72.377 -21.5)" fill="none" stroke="#196fbc" stroke-linecap="round" stroke-miterlimit="10" stroke-width="7"/>
          <line id="Línea_508" data-name="Línea 508" y2="18.55" transform="translate(58.755 102.529)" fill="none" stroke="#196fbc" stroke-linecap="round" stroke-miterlimit="10" stroke-width="7"/>
          <line id="Línea_509" data-name="Línea 509" y2="26.467" transform="translate(71.561 98.571)" fill="none" stroke="#196fbc" stroke-linecap="round" stroke-miterlimit="10" stroke-width="7"/>
          <line id="Línea_510" data-name="Línea 510" y2="18.55" transform="translate(84.367 102.529)" fill="none" stroke="#196fbc" stroke-linecap="round" stroke-miterlimit="10" stroke-width="7"/>
          <line id="Línea_511" data-name="Línea 511" x2="117.199" transform="translate(11.332 91.275)" fill="none" stroke="#196fbc" stroke-linecap="round" stroke-miterlimit="10" stroke-width="7"/>
          <line id="Línea_512" data-name="Línea 512" x2="7.839" transform="translate(3.881 91.12)" fill="none" stroke="#196fbc" stroke-linecap="round" stroke-miterlimit="10" stroke-width="7"/>
          <line id="Línea_513" data-name="Línea 513" x2="7.451" transform="translate(3.881 107.264)" fill="none" stroke="#196fbc" stroke-linecap="round" stroke-miterlimit="10" stroke-width="7"/>
          <line id="Línea_514" data-name="Línea 514" x2="8.77" transform="translate(2.561 75.287)" fill="none" stroke="#196fbc" stroke-linecap="round" stroke-miterlimit="10" stroke-width="7"/>
          <line id="Línea_515" data-name="Línea 515" x2="7.839" transform="translate(130.083 91.12)" fill="none" stroke="#196fbc" stroke-linecap="round" stroke-miterlimit="10" stroke-width="7"/>
          <line id="Línea_516" data-name="Línea 516" x2="7.451" transform="translate(130.083 107.264)" fill="none" stroke="#196fbc" stroke-linecap="round" stroke-miterlimit="10" stroke-width="7"/>
          <line id="Línea_517" data-name="Línea 517" x2="8.77" transform="translate(128.763 75.287)" fill="none" stroke="#196fbc" stroke-linecap="round" stroke-miterlimit="10" stroke-width="7"/>
          <path id="Trazado_2429" data-name="Trazado 2429" d="M207.143,72.8v33.918a1.557,1.557,0,0,0,1.552,1.552h0a1.557,1.557,0,0,1,1.552,1.552v12.651a1.557,1.557,0,0,1-1.552,1.552h-.776a1.557,1.557,0,0,0-1.552,1.552v13.039a1.557,1.557,0,0,0,1.552,1.552h.776a1.557,1.557,0,0,1,1.552,1.552v31.124a1.557,1.557,0,0,1-1.552,1.552h-1.552a1.557,1.557,0,0,0-1.552,1.552v19.326a1.557,1.557,0,0,1-1.552,1.552H186.652a1.557,1.557,0,0,1-1.552-1.552V181.849" transform="translate(-69.221 -32.984)" fill="none" stroke="#196fbc" stroke-linecap="round" stroke-miterlimit="10" stroke-width="7"/>
          <line id="Línea_518" data-name="Línea 518" x1="8.77" transform="translate(129.695 75.287)" fill="none" stroke="#196fbc" stroke-linecap="round" stroke-miterlimit="10" stroke-width="7"/>
          <line id="Línea_519" data-name="Línea 519" x2="75.364" transform="translate(11.72 54.408)" fill="none" stroke="#196fbc" stroke-linecap="round" stroke-miterlimit="10" stroke-width="7"/>
          <line id="Línea_520" data-name="Línea 520" x2="28.795" transform="translate(99.735 54.408)" fill="none" stroke="#196fbc" stroke-linecap="round" stroke-miterlimit="10" stroke-width="7"/>
          <line id="Línea_521" data-name="Línea 521" x2="114.172" transform="translate(12.729 42.999)" fill="none" stroke="#196fbc" stroke-linecap="round" stroke-miterlimit="10" stroke-width="7"/>
          <line id="Línea_522" data-name="Línea 522" y1="42.999" transform="translate(24.526)" fill="none" stroke="#196fbc" stroke-linecap="round" stroke-miterlimit="10" stroke-width="7"/>
          <line id="Línea_523" data-name="Línea 523" y1="42.999" transform="translate(116.267)" fill="none" stroke="#196fbc" stroke-linecap="round" stroke-miterlimit="10" stroke-width="7"/>
          <line id="Línea_524" data-name="Línea 524" x2="91.353" transform="translate(24.526 27.165)" fill="none" stroke="#196fbc" stroke-linecap="round" stroke-miterlimit="10" stroke-width="7"/>
          <line id="Línea_525" data-name="Línea 525" y2="24.371" transform="translate(52.157 1.397)" fill="none" stroke="#196fbc" stroke-linecap="round" stroke-miterlimit="10" stroke-width="7"/>
          <line id="Línea_526" data-name="Línea 526" y2="24.371" transform="translate(70.707 1.397)" fill="none" stroke="#196fbc" stroke-linecap="round" stroke-miterlimit="10" stroke-width="7"/>
          <line id="Línea_527" data-name="Línea 527" y2="24.371" transform="translate(89.257 1.397)" fill="none" stroke="#196fbc" stroke-linecap="round" stroke-miterlimit="10" stroke-width="7"/>
          <circle id="Elipse_226" data-name="Elipse 226" cx="9.081" cy="9.081" r="9.081" transform="translate(22.819 102.529)" fill="none" stroke="#196fbc" stroke-linecap="round" stroke-miterlimit="10" stroke-width="7"/>
          <circle id="Elipse_227" data-name="Elipse 227" cx="9.081" cy="9.081" r="9.081" transform="translate(99.658 102.529)" fill="none" stroke="#196fbc" stroke-linecap="round" stroke-miterlimit="10" stroke-width="7"/>
        </g>
      </g>
      <g id="Grupo_1035" data-name="Grupo 1035" transform="translate(395.908 1863.069) rotate(90)">
        <line id="Línea_475-3" data-name="Línea 475" x1="17.479" transform="translate(61.044 90.295)" fill="none" stroke="#196fbc" stroke-linecap="round" stroke-miterlimit="10" stroke-width="7"/>
        <circle id="Elipse_199-3" data-name="Elipse 199" cx="8.918" cy="8.918" r="8.918" transform="translate(82.804 0)" fill="none" stroke="#196fbc" stroke-linecap="round" stroke-miterlimit="10" stroke-width="7"/>
        <path id="Trazado_2407-3" data-name="Trazado 2407" d="M15.6,15.6,3.378,27.813a2.019,2.019,0,0,1-2.809,0A2.019,2.019,0,0,1,.569,25L11.4,14.169.613,3.378a2.019,2.019,0,0,1,0-2.809,2.019,2.019,0,0,1,2.809,0L15.64,12.786a1.951,1.951,0,0,1,.58,1.427A2.088,2.088,0,0,1,15.6,15.6Zm0,0" transform="translate(92.937 138.107)" fill="#a2f4fc"/>
        <g id="Grupo_1019-3" data-name="Grupo 1019" transform="translate(36.118 147.326)">
          <circle id="Elipse_202-6" data-name="Elipse 202" cx="3.656" cy="3.656" r="3.656" transform="translate(34.067)" fill="#a2f4fc"/>
          <circle id="Elipse_203-6" data-name="Elipse 203" cx="3.656" cy="3.656" r="3.656" transform="translate(17.033)" fill="#a2f4fc"/>
          <circle id="Elipse_204-6" data-name="Elipse 204" cx="3.656" cy="3.656" r="3.656" fill="#a2f4fc"/>
        </g>
        <circle id="Elipse_206-3" data-name="Elipse 206" cx="8.517" cy="8.517" r="8.517" transform="translate(0 144.026)" fill="#fff"/>
        <circle id="Elipse_210-3" data-name="Elipse 210" cx="8.918" cy="8.918" r="8.918" transform="translate(0 143.669)" fill="none" stroke="#196fbc" stroke-linecap="round" stroke-miterlimit="10" stroke-width="7"/>
        <path id="Trazado_2409-3" data-name="Trazado 2409" d="M0,125.833V63.63a2.779,2.779,0,0,1,2.765-2.765H80.084A2.778,2.778,0,0,0,82.848,58.1V0" transform="translate(8.918 17.836)" fill="none" stroke="#196fbc" stroke-linecap="round" stroke-miterlimit="10" stroke-width="7"/>
      </g>
    </g>
    <rect id="Rectángulo_385" data-name="Rectángulo 385" width="618" height="50" transform="translate(-5922 -10061)" fill="#a0f2fb"/>
    <circle id="Elipse_294" data-name="Elipse 294" cx="17.5" cy="17.5" r="17.5" transform="translate(-5328 -9507)" fill="#196fbc"/>
    <circle id="Elipse_295" data-name="Elipse 295" cx="17.5" cy="17.5" r="17.5" transform="translate(-4977 -9962)" fill="#a0f2fb"/>
    <circle id="Elipse_296" data-name="Elipse 296" cx="11" cy="11" r="11" transform="translate(-5415 -10240)" fill="#a0f2fb"/>
    <rect id="Rectángulo_386" data-name="Rectángulo 386" width="239" height="25" transform="translate(-4876 -9975) rotate(90)" fill="#a0f2fb"/>
    <rect id="Rectángulo_387" data-name="Rectángulo 387" width="22" height="390" transform="translate(-5776 -9818)" fill="#196fbc"/>
    <circle id="Elipse_297" data-name="Elipse 297" cx="28" cy="28" r="28" transform="translate(-5885 -9538)" fill="#a0f2fb"/>
  </g>
</svg>
