<svg xmlns="http://www.w3.org/2000/svg" width="85.947" height="85.947" viewBox="0 0 85.947 85.947">
  <g id="Grupo_1141" data-name="Grupo 1141" transform="translate(-216.973 -774.716)">
    <ellipse id="Elipse_197" data-name="Elipse 197" cx="42.974" cy="42.973" rx="42.974" ry="42.973" transform="translate(216.973 774.716)" fill="#a2f4fc"/>
    <g id="intrmodl_logo_negative" transform="translate(238.515 793.496)">
      <g id="Grupo_322" data-name="Grupo 322" transform="translate(0)">
        <path id="Trazado_225" data-name="Trazado 225" d="M386.3,245.509l13.009-7.409,12.3,7.094-12.3,7.882Z" transform="translate(-370.134 -238.1)" fill="#196fbc"/>
        <path id="Trazado_226" data-name="Trazado 226" d="M410.2,259.482l12.3-7.882v15.87l-12.3,6.989Z" transform="translate(-381.025 -244.506)" fill="#196fbc"/>
        <path id="Trazado_227" data-name="Trazado 227" d="M356.6,263.441l12.3-7.041,12.3,7.146L369.01,270.64Z" transform="translate(-356.6 -246.784)" fill="#196fbc"/>
        <path id="Trazado_228" data-name="Trazado 228" d="M356.6,269.8l12.41,7.2V291.87l-12.41-7.147Z" transform="translate(-356.6 -253.142)" fill="#196fbc"/>
        <path id="Trazado_229" data-name="Trazado 229" d="M386.2,287.6l12.954,7.514v14.924L386.2,302.524Z" transform="translate(-370.089 -261.589)" fill="#196fbc"/>
        <path id="Trazado_230" data-name="Trazado 230" d="M410,310.512l12.519-7.252V288.6L410,295.589Z" transform="translate(-380.934 -262.063)" fill="#196fbc"/>
      </g>
    </g>
  </g>
</svg>
