<svg id="Grupo_1080" data-name="Grupo 1080" xmlns="http://www.w3.org/2000/svg" width="130.649" height="105.661" viewBox="0 0 130.649 105.661">
  <path id="Trazado_2562" data-name="Trazado 2562" d="M97.134,8.2s-7.156,17.593-3.481,20.3c3.53,2.6,20.423-5.956,20.423-5.956s-10.853,10.341-9.02,12.953,26.214,3.181,26.214,3.181S104.8,42.763,104.089,52.02c-.583,7.582,10.588,11.351,10.588,11.351s-11.5-1.225-14.251,3.085c-4.516,7.079,16.691,22.267,16.691,22.267S92.036,76.077,89.282,82.749C87,88.281,90.9,94.055,90.9,94.055S84.957,84,78.794,87.244a19.51,19.51,0,0,0-10.2,14.95s-3.9-18.32-10.345-18c-7.508.375-17.682,22.77-17.682,22.77S46.64,83.223,44,82.9c-1.9-.236-10.21,12.781-10.21,12.781s4.945-14.542,1.521-17.326S15.9,82.145,15.9,82.145s19.182-8.9,14.993-13.494-29.3,5.664-29.3,5.664,26.575-10.858,27.26-15.81c.985-7.112-17.081-9.73-17.081-9.73s14.91,3.963,19.176-6.919c2.961-7.555-12.9-26.82-12.9-26.82S32.729,25.77,38.151,22.1c4.289-2.9,4.855-12.9,4.855-12.9l-.025-.041s4.579,8.932,8.341,7.93c1.281-.342,3.719-.9,7.955-14,0,0,2.309,17.022,7.88,17.431,8.04.592,11.38-12.784,11.38-12.784s.853,9.785,6.492,10.671c4.81.755,12.154-10.262,12.154-10.262" transform="translate(-0.671 -1.304)" fill="#6c5ce6"/>
  <g id="Grupo_1070" data-name="Grupo 1070" transform="translate(104.71 66.877)">
    <path id="Trazado_2563" data-name="Trazado 2563" d="M183.693,115.871c1.792.18,3.561.464,5.322.779s3.512.68,5.255,1.074,3.479.826,5.2,1.3,3.443.983,5.137,1.6c-1.792-.179-3.561-.463-5.323-.778s-3.511-.68-5.255-1.076-3.478-.827-5.2-1.3S185.388,116.482,183.693,115.871Z" transform="translate(-182.353 -115.871)" fill="#fff"/>
    <path id="Trazado_2564" data-name="Trazado 2564" d="M181.377,119.488c1.682.643,3.315,1.379,4.933,2.145s3.212,1.574,4.791,2.411,3.142,1.707,4.684,2.613,3.066,1.85,4.541,2.883c-1.683-.641-3.316-1.378-4.934-2.143s-3.212-1.574-4.791-2.413-3.141-1.708-4.683-2.615S182.853,120.52,181.377,119.488Z" transform="translate(-181.377 -117.396)" fill="#fff"/>
  </g>
  <g id="Grupo_1071" data-name="Grupo 1071" transform="translate(98.671)">
    <path id="Trazado_2565" data-name="Trazado 2565" d="M170.935,16.691c.951-1.53,1.985-2.993,3.043-4.435s2.157-2.854,3.279-4.245,2.274-2.759,3.457-4.1,2.4-2.658,3.694-3.91c-.95,1.53-1.983,2.994-3.042,4.436s-2.157,2.854-3.28,4.244-2.274,2.758-3.458,4.1S172.229,15.439,170.935,16.691Z" transform="translate(-170.935)" fill="#fff"/>
    <path id="Trazado_2566" data-name="Trazado 2566" d="M173.163,23.356c1.318-1.227,2.7-2.369,4.1-3.484s2.828-2.19,4.275-3.24,2.916-2.068,4.409-3.054,3.011-1.938,4.588-2.807c-1.317,1.228-2.7,2.37-4.1,3.485s-2.828,2.19-4.276,3.238-2.917,2.068-4.41,3.053S174.74,22.487,173.163,23.356Z" transform="translate(-171.874 -4.541)" fill="#fff"/>
  </g>
  <g id="Grupo_1072" data-name="Grupo 1072" transform="translate(8.322 84.933)">
    <path id="Trazado_2567" data-name="Trazado 2567" d="M36.535,150.753c-.881,1.571-1.847,3.079-2.839,4.569s-2.025,2.949-3.083,4.389-2.146,2.86-3.267,4.254-2.276,2.764-3.513,4.073c.88-1.572,1.846-3.08,2.837-4.57s2.025-2.949,3.084-4.389,2.147-2.859,3.268-4.253S35.3,152.062,36.535,150.753Z" transform="translate(-18.371 -148.689)" fill="#fff"/>
    <path id="Trazado_2568" data-name="Trazado 2568" d="M31.169,147.185c-1.261,1.286-2.588,2.489-3.935,3.667s-2.725,2.316-4.123,3.43-2.819,2.2-4.266,3.251-2.92,2.073-4.456,3.013c1.26-1.287,2.586-2.49,3.934-3.668s2.725-2.316,4.124-3.429,2.82-2.2,4.267-3.25S29.633,148.126,31.169,147.185Z" transform="translate(-14.389 -147.185)" fill="#fff"/>
  </g>
  <g id="Grupo_1073" data-name="Grupo 1073" transform="translate(0 25.15)">
    <path id="Trazado_2569" data-name="Trazado 2569" d="M21.057,60.628c-1.8-.124-3.574-.353-5.344-.612s-3.531-.569-5.286-.909-3.5-.716-5.242-1.134S1.713,57.1,0,56.54c1.8.123,3.574.35,5.344.611s3.532.569,5.286.91,3.5.718,5.242,1.135S19.344,60.07,21.057,60.628Z" transform="translate(0 -49.041)" fill="#fff"/>
    <path id="Trazado_2570" data-name="Trazado 2570" d="M24.573,53.028c-1.7-.59-3.357-1.275-5-1.989s-3.259-1.473-4.864-2.26-3.194-1.607-4.763-2.465-3.123-1.752-4.629-2.74c1.7.589,3.357,1.274,5,1.987s3.26,1.473,4.864,2.261,3.193,1.609,4.763,2.467S23.065,52.042,24.573,53.028Z" transform="translate(-2.242 -43.574)" fill="#fff"/>
  </g>
  <g id="Grupo_1074" data-name="Grupo 1074" transform="translate(0.971 1.761)">
    <path id="Trazado_2571" data-name="Trazado 2571" d="M103.271,12.56c.227.778.475,1.552.764,2.316a20.81,20.81,0,0,0,.988,2.254,11.577,11.577,0,0,0,1.363,2.111,6.351,6.351,0,0,0,.929.92,4.324,4.324,0,0,0,1.187.681,3.316,3.316,0,0,0,.689.173,3.037,3.037,0,0,0,.344.03c.108,0,.215.012.323.012a7.232,7.232,0,0,0,1.293-.1,7.428,7.428,0,0,0,2.42-.87,9.639,9.639,0,0,0,2.008-1.533,13.692,13.692,0,0,0,1.6-1.9c.238-.336.46-.681.672-1.032s.415-.705.6-1.068q.563-1.086,1.019-2.215c.3-.755.567-1.517.8-2.291a22.523,22.523,0,0,0,.582-2.346c-.131.381-.268.758-.415,1.131s-.293.746-.45,1.115c-.312.736-.64,1.464-1,2.174s-.736,1.411-1.15,2.084a21.13,21.13,0,0,1-1.336,1.944q-.362.463-.754.895t-.817.822a11.019,11.019,0,0,1-.887.728,8,8,0,0,1-.96.6,7.16,7.16,0,0,1-1.024.453,6.387,6.387,0,0,1-1.077.268,6.251,6.251,0,0,1-1.105.08c-.093,0-.185-.009-.278-.012a2.149,2.149,0,0,1-.255-.023,2.475,2.475,0,0,1-.477-.119,4.217,4.217,0,0,1-1.68-1.276,11.228,11.228,0,0,1-1.277-1.906,28.888,28.888,0,0,1-1.848-4.35c-.516-1.5-.971-3.037-1.375-4.585s-.778-3.108-1.122-4.68c.116,1.606.346,3.2.621,4.791A47.784,47.784,0,0,0,103.271,12.56Z" transform="translate(-43.894 -3.045)" fill="#6140ff"/>
    <path id="Trazado_2572" data-name="Trazado 2572" d="M135.133,13.91c.049.312.109.622.175.931a14.6,14.6,0,0,0,1.256,3.609,9.536,9.536,0,0,0,1.07,1.643,6.713,6.713,0,0,0,1.484,1.356,5.425,5.425,0,0,0,1.888.791c.169.032.334.064.519.081a3.741,3.741,0,0,0,.539.012,4.573,4.573,0,0,0,1.03-.174,7.6,7.6,0,0,0,1.814-.817,13.606,13.606,0,0,0,1.569-1.121,24.236,24.236,0,0,0,2.707-2.651c.835-.939,1.61-1.925,2.343-2.937.369-.5.723-1.019,1.067-1.54.313-.471.611-.953.9-1.44-.366.78-.71,1.57-1.04,2.365-.349.827-.672,1.665-.992,2.5s-.615,1.688-.9,2.541q-.215.639-.419,1.283t-.387,1.295a34.914,34.914,0,0,0-1.141,5.317c-.053.455-.091.915-.108,1.379a9.838,9.838,0,0,0,.044,1.413,5.228,5.228,0,0,0,.35,1.447,2.965,2.965,0,0,0,.411.7,2.318,2.318,0,0,0,.652.562,3.706,3.706,0,0,0,1.5.429,8.019,8.019,0,0,0,1.435-.01,17.475,17.475,0,0,0,2.722-.488,41.887,41.887,0,0,0,5.152-1.715q.628-.251,1.25-.512t1.238-.538c.821-.368,1.635-.752,2.444-1.142,1.613-.793,3.208-1.618,4.754-2.534-3.316,1.374-6.63,2.726-9.993,3.9a52.547,52.547,0,0,1-5.089,1.532q-.641.151-1.285.264c-.428.076-.857.136-1.282.171a7.574,7.574,0,0,1-1.248.009,2.7,2.7,0,0,1-1.07-.285,1.274,1.274,0,0,1-.361-.308,1.974,1.974,0,0,1-.271-.452,4.23,4.23,0,0,1-.289-1.154,12.181,12.181,0,0,1,.012-2.571c.082-.871.215-1.744.378-2.614s.353-1.739.557-2.6q.154-.65.323-1.3t.341-1.294c.233-.862.488-1.717.739-2.576.5-1.693,1.042-3.379,1.6-5.061.022-.037.046-.072.068-.109l-.055.068.006-.02c0,.009-.007.017-.011.025a63.222,63.222,0,0,1-4.847,5.513,27.217,27.217,0,0,1-2.751,2.429,13.186,13.186,0,0,1-1.5.994,6.787,6.787,0,0,1-1.6.671,3.806,3.806,0,0,1-.809.121,2.674,2.674,0,0,1-.392-.014,3.855,3.855,0,0,1-.4-.072,4.674,4.674,0,0,1-1.526-.659,6.193,6.193,0,0,1-1.276-1.134,9.9,9.9,0,0,1-1.021-1.441,18.439,18.439,0,0,1-1.482-3.316,34.055,34.055,0,0,1-1.012-3.574,14.7,14.7,0,0,0,.1,1.88Q135.06,13.442,135.133,13.91Z" transform="translate(-58.046 -6.439)" fill="#6140ff"/>
    <path id="Trazado_2573" data-name="Trazado 2573" d="M181.766,44.5a17.534,17.534,0,0,0-1.508,2.3,6.862,6.862,0,0,0-.555,1.334,3.307,3.307,0,0,0-.128.781,1.915,1.915,0,0,0,.17.894,1.6,1.6,0,0,0,.125.217c.026.036.054.073.082.106s.056.064.085.093a2.123,2.123,0,0,0,.346.276,4.219,4.219,0,0,0,.68.352,10.623,10.623,0,0,0,1.341.444c.892.238,1.784.4,2.677.551,1.785.287,3.573.477,5.362.631.895.076,1.789.138,2.684.2s1.789.1,2.685.141c3.581.145,7.163.2,10.744.1-3.57-.3-7.135-.566-10.692-.885-.889-.081-1.779-.158-2.666-.247s-1.775-.175-2.66-.272c-1.77-.194-3.538-.411-5.283-.7-.871-.147-1.738-.316-2.576-.536a9.691,9.691,0,0,1-1.206-.392,3.286,3.286,0,0,1-.511-.259,1.122,1.122,0,0,1-.18-.139l-.029-.03c-.007-.009-.013-.017-.021-.025a.6.6,0,0,1-.043-.072.885.885,0,0,1-.077-.411,2.324,2.324,0,0,1,.083-.541,6.266,6.266,0,0,1,.449-1.148,18.4,18.4,0,0,1,1.354-2.228c.5-.725,1.036-1.431,1.582-2.131s1.108-1.391,1.685-2.071l.865-1.02q.436-.509.879-1.012t.884-1.008l.892-1.005c-1.378,1.149-2.684,2.381-3.947,3.658A42.873,42.873,0,0,0,181.766,44.5Z" transform="translate(-76.878 -17.311)" fill="#6140ff"/>
    <path id="Trazado_2574" data-name="Trazado 2574" d="M200.02,65.6c-.993.2-1.982.412-2.968.64s-1.966.489-2.944.759a54.579,54.579,0,0,0-5.781,1.936,30.2,30.2,0,0,0-5.471,2.8c-.431.285-.848.6-1.256.923a13.89,13.89,0,0,0-1.167,1.06,10.136,10.136,0,0,0-1.012,1.238,6.7,6.7,0,0,0-.757,1.442,5.777,5.777,0,0,0-.359,1.612,7.669,7.669,0,0,0,.062,1.608,7.768,7.768,0,0,0,.392,1.555,8.83,8.83,0,0,0,.691,1.432,10.067,10.067,0,0,0,.909,1.283,11.722,11.722,0,0,0,1.068,1.133A17.093,17.093,0,0,0,183.87,86.9q.647.41,1.321.771c.448.242.9.47,1.365.679a21.439,21.439,0,0,0,2.839,1.076q-.7-.294-1.373-.633t-1.333-.7a24.453,24.453,0,0,1-2.526-1.618,16.857,16.857,0,0,1-2.248-1.939A11,11,0,0,1,180.17,82.2a7.437,7.437,0,0,1-.873-2.7,7.066,7.066,0,0,1-.018-1.412,4.8,4.8,0,0,1,.326-1.324,5.964,5.964,0,0,1,.666-1.22,9.109,9.109,0,0,1,.915-1.09,13.665,13.665,0,0,1,1.078-.968c.382-.3.774-.593,1.185-.862a24.768,24.768,0,0,1,2.558-1.49c.881-.457,1.788-.87,2.706-1.259s1.851-.751,2.791-1.1c.47-.172.943-.337,1.417-.5s.949-.324,1.427-.477c.954-.311,1.917-.6,2.881-.88s1.935-.551,2.909-.806c1.945-.521,3.905-.992,5.876-1.434C204,64.887,202.007,65.224,200.02,65.6Z" transform="translate(-76.336 -29.119)" fill="#6140ff"/>
    <path id="Trazado_2575" data-name="Trazado 2575" d="M180.664,106.821a19.641,19.641,0,0,0-5.606.825,7.663,7.663,0,0,0-2.6,1.379,5.271,5.271,0,0,0-.547.544,3.975,3.975,0,0,0-.45.639,4.5,4.5,0,0,0-.541,1.463,5.2,5.2,0,0,0-.043,1.534,7.978,7.978,0,0,0,.308,1.462,12,12,0,0,0,.533,1.363c.208.437.427.866.671,1.278a28.168,28.168,0,0,0,3.417,4.532q.949,1.045,1.953,2.031.5.493,1.014.973t1.039.945c.7.622,1.4,1.237,2.125,1.829s1.452,1.175,2.191,1.745c1.487,1.128,3,2.227,4.57,3.227-1.434-1.19-2.851-2.393-4.239-3.629-.7-.615-1.387-1.235-2.065-1.866s-1.357-1.263-2.018-1.911c-1.321-1.3-2.609-2.624-3.816-4.013-.6-.7-1.187-1.4-1.733-2.137a22.616,22.616,0,0,1-1.519-2.263c-.232-.388-.438-.787-.632-1.19a11.043,11.043,0,0,1-.49-1.232,6.91,6.91,0,0,1-.285-1.26,4.346,4.346,0,0,1,.013-1.247,3.5,3.5,0,0,1,.4-1.149,3.659,3.659,0,0,1,.766-.962,5.709,5.709,0,0,1,1.052-.742,8.733,8.733,0,0,1,1.206-.559,15.871,15.871,0,0,1,2.624-.712,26.727,26.727,0,0,1,2.733-.374c.92-.09,1.845-.134,2.773-.16q.7-.02,1.393-.016c.465,0,.93.007,1.4.022-.921-.148-1.851-.239-2.783-.3S181.6,106.808,180.664,106.821Z" transform="translate(-73.195 -46.947)" fill="#6140ff"/>
    <path id="Trazado_2576" data-name="Trazado 2576" d="M156.871,140.578c-1.616-.681-3.255-1.312-4.921-1.879q-1.25-.424-2.522-.788c-.849-.239-1.706-.457-2.574-.642a24.871,24.871,0,0,0-2.641-.418,12.8,12.8,0,0,0-2.725-.006,6.643,6.643,0,0,0-1.38.315,3.846,3.846,0,0,0-1.286.737,3.072,3.072,0,0,0-.506.578l-.1.163c-.017.027-.035.054-.05.082l-.041.086-.082.173-.039.087-.028.081-.115.323c-.019.054-.039.108-.056.162l-.047.165-.1.329c-.029.11-.051.222-.078.333a9.956,9.956,0,0,0-.206,1.348,10.391,10.391,0,0,0-.02,1.355c.005.226.033.449.05.673.012.112.028.223.042.334s.028.222.049.332l.056.331.068.328c.021.109.047.218.075.326s.051.216.082.323a15.256,15.256,0,0,0,.925,2.487c.039.081.086.157.125.238q-.54-.8-1.149-1.555A15.371,15.371,0,0,0,134.5,144a8.9,8.9,0,0,0-1.988-1.025,6.264,6.264,0,0,0-2.263-.382,5.9,5.9,0,0,0-2.263.521c-.174.083-.351.169-.5.258l-.479.265-.239.133-.233.144-.465.289a18.329,18.329,0,0,0-5.965,6.295c-.176.318-.352.635-.51.962s-.312.654-.456.986a20.137,20.137,0,0,0-.736,2.036,19.076,19.076,0,0,0-.5,2.1,13.281,13.281,0,0,0-.214,2.135c.06-.352.135-.7.222-1.043s.176-.686.278-1.025c.205-.676.433-1.344.7-1.994a21.749,21.749,0,0,1,1.924-3.722,19.611,19.611,0,0,1,5.831-5.835l.44-.276.22-.138.226-.127c.3-.165.609-.352.895-.485a4.951,4.951,0,0,1,1.859-.468,5.518,5.518,0,0,1,1.93.263,8.706,8.706,0,0,1,1.837.841,13.893,13.893,0,0,1,1.687,1.2,19.03,19.03,0,0,1,1.545,1.421c.5.5.969,1.024,1.429,1.563.23.269.454.544.674.823s.437.561.647.849c-.213-.382-.4-.774-.579-1.173s-.341-.8-.486-1.208-.281-.818-.4-1.234-.214-.835-.293-1.256a12.289,12.289,0,0,1-.234-2.541l.008-.317.021-.316.01-.158.017-.157.035-.313a9.874,9.874,0,0,1,.252-1.23c.028-.1.053-.2.084-.3l.1-.3.049-.148c.018-.049.039-.1.058-.145l.117-.289.029-.072.032-.061.062-.121.031-.061c.011-.019.025-.037.038-.056l.076-.111a2.126,2.126,0,0,1,.368-.392,2.989,2.989,0,0,1,.991-.522,5.581,5.581,0,0,1,1.175-.237,12.284,12.284,0,0,1,2.5.05,24.568,24.568,0,0,1,2.529.415c.841.176,1.678.384,2.511.614s1.663.475,2.49.735c1.654.521,3.294,1.1,4.927,1.7.817.3,1.63.61,2.444.922s1.625.632,2.434.957c1.622.642,3.234,1.313,4.85,1.984-1.512-.883-3.069-1.684-4.638-2.462S158.488,141.257,156.871,140.578Z" transform="translate(-50.787 -59.624)" fill="#6140ff"/>
    <path id="Trazado_2577" data-name="Trazado 2577" d="M95.769,154.892q-.46-1.552-1.013-3.08t-1.256-3c-.235-.492-.482-.979-.749-1.459s-.558-.947-.872-1.4a9.541,9.541,0,0,0-2.32-2.458,4.79,4.79,0,0,0-1.625-.751,3.887,3.887,0,0,0-.919-.106,4.614,4.614,0,0,0-.9.1,6.372,6.372,0,0,0-1.644.6,10.475,10.475,0,0,0-1.431.909,18.867,18.867,0,0,0-2.444,2.237q-1.113,1.209-2.095,2.512t-1.877,2.656c-.6.9-1.167,1.822-1.717,2.751s-1.086,1.866-1.6,2.816-1.007,1.906-1.488,2.87c-.95,1.934-1.858,3.887-2.655,5.887,1.01-1.9,2.04-3.784,3.115-5.641q.8-1.4,1.632-2.77c.558-.914,1.115-1.828,1.7-2.726,1.165-1.793,2.371-3.558,3.687-5.226.657-.834,1.34-1.645,2.064-2.41a18.2,18.2,0,0,1,2.313-2.1,9.547,9.547,0,0,1,1.283-.822,5.388,5.388,0,0,1,1.371-.512,3.66,3.66,0,0,1,.7-.082,2.8,2.8,0,0,1,.678.07,3.869,3.869,0,0,1,1.29.58,8.869,8.869,0,0,1,2.124,2.165c.307.42.593.86.866,1.31s.532.911.777,1.38c.493.938.933,1.908,1.351,2.89s.8,1.979,1.166,2.986c.732,2.012,1.375,4.061,1.96,6.131-.173-1.062-.4-2.116-.64-3.166S96.068,155.93,95.769,154.892Z" transform="translate(-30.206 -62.093)" fill="#6140ff"/>
    <path id="Trazado_2578" data-name="Trazado 2578" d="M68.03,149.974c.312-1.7.588-3.412.744-5.156.036-.437.065-.875.076-1.319a10.741,10.741,0,0,0-.036-1.357,4.459,4.459,0,0,0-.131-.722,2.15,2.15,0,0,0-.15-.4,1.238,1.238,0,0,0-.341-.429.962.962,0,0,0-.311-.161.981.981,0,0,0-.175-.034c-.057,0-.115,0-.171,0a1.3,1.3,0,0,0-.27.057,1.46,1.46,0,0,0-.216.086,3.242,3.242,0,0,0-.636.421,10.145,10.145,0,0,0-.98.942c-.3.324-.585.659-.864,1-.555.674-1.077,1.368-1.586,2.069-1.017,1.4-1.968,2.845-2.9,4.3s-1.815,2.936-2.648,4.448c1.03-1.385,2.043-2.777,3.076-4.153s2.067-2.749,3.132-4.089c.534-.669,1.077-1.33,1.636-1.968q.42-.478.857-.929a9.008,9.008,0,0,1,.9-.826,2.427,2.427,0,0,1,.442-.285.457.457,0,0,1,.091-.034.379.379,0,0,1,.032.056,1.136,1.136,0,0,1,.073.209,3.4,3.4,0,0,1,.088.549,10.3,10.3,0,0,1,.024,1.223c-.013.416-.043.837-.079,1.259-.072.843-.176,1.69-.294,2.536s-.248,1.692-.385,2.538c-.275,1.692-.582,3.382-.894,5.072-.625,3.381-1.3,6.758-1.92,10.151,1.057-3.286,1.947-6.62,2.74-9.979Q67.55,152.524,68.03,149.974Z" transform="translate(-25.242 -61.151)" fill="#6140ff"/>
    <path id="Trazado_2579" data-name="Trazado 2579" d="M36.689,95.187c.15-.789.276-1.585.36-2.391a16.943,16.943,0,0,0,.1-2.448,9.436,9.436,0,0,0-.128-1.25,5.624,5.624,0,0,0-.358-1.259,3.232,3.232,0,0,0-.15-.309c-.051-.1-.118-.2-.181-.3a2.82,2.82,0,0,0-.484-.548,1.434,1.434,0,0,0-.146-.118c-.051-.036-.1-.076-.153-.107a3.025,3.025,0,0,0-.318-.175,3.851,3.851,0,0,0-.649-.242,6.469,6.469,0,0,0-1.286-.2,10.944,10.944,0,0,0-1.253,0,20.239,20.239,0,0,0-2.431.3,40.084,40.084,0,0,0-4.682,1.176c-1.533.473-3.038,1.017-4.527,1.6-.415.166-.825.34-1.237.511q1.41-.674,2.795-1.4,1.452-.777,2.868-1.628c.473-.283.937-.58,1.4-.884s.917-.617,1.364-.943a20.806,20.806,0,0,0,2.566-2.149,10.228,10.228,0,0,0,1.115-1.308,6.2,6.2,0,0,0,.457-.765c.072-.132.127-.279.187-.42a3.947,3.947,0,0,0,.136-.455,2.712,2.712,0,0,0,.062-.987,2.661,2.661,0,0,0-.321-.964,3.246,3.246,0,0,0-.628-.763c-.063-.053-.128-.1-.193-.151l-.1-.074c-.033-.023-.067-.043-.1-.064l-.2-.124c-.069-.037-.14-.07-.211-.1a6.043,6.043,0,0,0-1.723-.492,11.951,11.951,0,0,0-1.713-.115,23.986,23.986,0,0,0-3.345.269c-1.1.162-2.186.369-3.264.611-2.153.486-4.272,1.084-6.364,1.756q-1.319.426-2.625.882,1.34-.587,2.669-1.2l1.509-.706q.752-.358,1.5-.729c1-.49,1.986-1,2.968-1.524a55.742,55.742,0,0,0,5.737-3.464c.459-.327.91-.668,1.35-1.029a12.876,12.876,0,0,0,1.268-1.175c.1-.113.2-.215.292-.335l.141-.175c.047-.058.09-.124.134-.185a3.694,3.694,0,0,0,.46-.841c.027-.082.061-.158.081-.246s.038-.176.055-.265l.023-.232a2.232,2.232,0,0,0,.014-.233l0-.234c0-.078-.009-.156-.014-.234a4.2,4.2,0,0,0-.06-.464,4.848,4.848,0,0,0-.692-1.7A7.059,7.059,0,0,0,27.6,62.826a12.9,12.9,0,0,0-2.853-1.9,30.764,30.764,0,0,0-6.316-2.267c-.348-.087-.7-.164-1.046-.243.353.02.707.046,1.062.048.559,0,1.119-.012,1.679-.05s1.12-.1,1.676-.192a15.58,15.58,0,0,0,3.276-.895A11.969,11.969,0,0,0,28.051,55.6a11.081,11.081,0,0,0,2.327-2.547,11.506,11.506,0,0,0,.844-1.5c.127-.258.234-.524.345-.789a5.429,5.429,0,0,0,.263-.874,7.377,7.377,0,0,0,.142-1.77,11.582,11.582,0,0,0-.2-1.719,19.754,19.754,0,0,0-.944-3.256c-.4-1.051-.856-2.07-1.349-3.068S28.455,38.1,27.9,37.145s-1.145-1.9-1.748-2.829c-.3-.464-.606-.927-.917-1.384s-.629-.91-.949-1.361c-.642-.9-1.291-1.8-1.965-2.671s-1.352-1.748-2.055-2.6-1.412-1.7-2.152-2.518q1.969,2.66,3.821,5.394c.613.914,1.226,1.827,1.818,2.753q.445.694.879,1.395c.29.466.578.933.861,1.4q.848,1.41,1.633,2.853c.523.961,1.024,1.932,1.487,2.92s.893,1.986,1.262,3a19.236,19.236,0,0,1,.867,3.092,8.111,8.111,0,0,1,.05,3.078,4.356,4.356,0,0,1-.21.707c-.1.244-.2.49-.314.727a11.291,11.291,0,0,1-.762,1.382,10.492,10.492,0,0,1-2.079,2.352,11.532,11.532,0,0,1-2.7,1.658,14.822,14.822,0,0,1-3.062.977,21.322,21.322,0,0,1-3.229.414c-.545.027-1.091.042-1.639.038s-1.1-.025-1.644-.061c-.374-.023-.747-.062-1.12-.1-.718-.114-1.438-.216-2.161-.288a20.7,20.7,0,0,0,2.549.591c.228.057.457.11.685.17,1.07.281,2.134.578,3.183.916s2.091.694,3.108,1.107a26.6,26.6,0,0,1,2.961,1.389,15.4,15.4,0,0,1,1.37.856,10.4,10.4,0,0,1,1.232,1,6.386,6.386,0,0,1,.973,1.186,3.843,3.843,0,0,1,.527,1.361,3.1,3.1,0,0,1,.039.358c0,.06.01.119.008.18l0,.181a1.362,1.362,0,0,1-.013.181l-.019.18c-.012.047-.023.093-.032.141s-.035.1-.051.147a2.7,2.7,0,0,1-.345.6c-.037.05-.069.1-.11.149l-.121.147c-.077.1-.172.191-.256.287a12.26,12.26,0,0,1-1.172,1.073c-.417.34-.85.665-1.294.979-.888.63-1.811,1.222-2.75,1.79s-1.893,1.119-2.855,1.656c-1.924,1.075-3.886,2.09-5.854,3.1C9.682,79.194,5.687,81.1,1.679,83c2.075-.706,4.149-1.4,6.234-2.058q1.562-.5,3.131-.972c1.047-.312,2.092-.625,3.143-.916,2.1-.58,4.212-1.126,6.339-1.564,1.063-.218,2.128-.413,3.2-.557a23.418,23.418,0,0,1,3.2-.244,11.057,11.057,0,0,1,1.561.1,5.073,5.073,0,0,1,1.426.395c.053.025.108.048.158.076l.147.087c.024.015.05.028.073.044l.065.05c.043.033.09.065.132.1a2.247,2.247,0,0,1,.416.493,1.624,1.624,0,0,1,.2.577,1.776,1.776,0,0,1-.034.638,2.9,2.9,0,0,1-.092.332c-.046.11-.083.222-.14.331a5.289,5.289,0,0,1-.37.648,9.963,9.963,0,0,1-.983,1.208c-.361.385-.75.751-1.151,1.106s-.816.7-1.24,1.033c-.848.669-1.738,1.29-2.637,1.9S22.632,87,21.7,87.566c-1.858,1.143-3.762,2.218-5.689,3.261,1.521-.487,3.036-.972,4.562-1.425s3.05-.891,4.584-1.285,3.075-.744,4.622-.986a20.85,20.85,0,0,1,2.313-.244,10.646,10.646,0,0,1,1.136.008,5.474,5.474,0,0,1,1.071.167,2.195,2.195,0,0,1,.854.416,1.752,1.752,0,0,1,.3.343,2.335,2.335,0,0,1,.127.209c.02.037.041.072.059.111l.053.116A4.594,4.594,0,0,1,36,89.282a9.367,9.367,0,0,1,.135,1.118,17.692,17.692,0,0,1-.025,2.314c-.026.389-.064.778-.106,1.168s-.09.78-.145,1.169c-.108.779-.239,1.557-.379,2.334s-.3,1.554-.466,2.328c-.326,1.551-.7,3.094-1.088,4.64.613-1.472,1.124-2.985,1.6-4.51A47.075,47.075,0,0,0,36.689,95.187Z" transform="translate(-1.679 -11.788)" fill="#6140ff"/>
    <path id="Trazado_2580" data-name="Trazado 2580" d="M33.775,17.733q.475.318.955.629t.971.6c.652.4,1.309.784,1.979,1.153A36.583,36.583,0,0,0,41.832,22.1a22.3,22.3,0,0,0,2.2.75,14.3,14.3,0,0,0,2.308.467,8.058,8.058,0,0,0,2.423-.06,5.283,5.283,0,0,0,1.2-.385,4.354,4.354,0,0,0,.564-.315c.09-.058.172-.121.258-.182s.164-.128.243-.194a7.09,7.09,0,0,0,.866-.872,9.152,9.152,0,0,0,.7-.979,10.96,10.96,0,0,0,.575-1.04c.172-.355.331-.713.471-1.077a18.986,18.986,0,0,0,.7-2.217c.094-.374.179-.75.257-1.127s.14-.756.2-1.135.115-.758.156-1.138.077-.761.107-1.142c.053-.759.083-1.519.061-2.279.234.533.489,1.058.762,1.573.281.533.577,1.058.9,1.572a20.122,20.122,0,0,0,2.146,2.944,10.563,10.563,0,0,0,1.352,1.281,5.28,5.28,0,0,0,1.71.927,3.077,3.077,0,0,0,1.035.131,2.834,2.834,0,0,0,.533-.075c.15-.035.3-.072.467-.121a3.866,3.866,0,0,0,.929-.431,4.81,4.81,0,0,0,.779-.619,9.084,9.084,0,0,0,1.21-1.465,17.586,17.586,0,0,0,.95-1.587A30.292,30.292,0,0,0,69.393,9.98a45.894,45.894,0,0,0,2.035-6.935c-.127.274-.248.549-.369.825s-.239.551-.36.826c-.23.554-.478,1.1-.708,1.653-.473,1.1-.948,2.195-1.442,3.276-.247.541-.5,1.077-.759,1.61s-.527,1.057-.815,1.568-.583,1.014-.9,1.494c-.082.118-.16.239-.246.353s-.168.231-.258.34a7.06,7.06,0,0,1-.549.63,4.421,4.421,0,0,1-.61.518,2.857,2.857,0,0,1-.683.353c-.123.045-.257.088-.4.128a1.909,1.909,0,0,1-.353.063,2.231,2.231,0,0,1-.743-.067,4.536,4.536,0,0,1-1.468-.715,10.526,10.526,0,0,1-1.325-1.115,23.926,23.926,0,0,1-2.309-2.692c-.71-.958-1.388-1.945-2.022-2.966.007.016.016.032.023.048q-.377,2.25-.932,4.436a28.29,28.29,0,0,1-1.428,4.238,13.565,13.565,0,0,1-1.035,1.927,8.138,8.138,0,0,1-.643.854,6.093,6.093,0,0,1-.74.736c-.066.055-.135.106-.2.159s-.14.1-.208.145a3.4,3.4,0,0,1-.428.241,4.2,4.2,0,0,1-.958.309,7.351,7.351,0,0,1-2.11.07,14.609,14.609,0,0,1-2.157-.4c-.358-.092-.714-.195-1.069-.307s-.709-.23-1.06-.356a42.84,42.84,0,0,1-4.14-1.769Q37,18.971,36,18.443q-.5-.265-1-.538t-.994-.547c-1.319-.745-2.626-1.513-3.916-2.319.589.481,1.2.94,1.811,1.388S33.142,17.311,33.775,17.733Z" transform="translate(-13.658 -3.045)" fill="#6140ff"/>
  </g>
  <g id="Grupo_1079" data-name="Grupo 1079" transform="translate(20.997 17.182)">
    <g id="Grupo_1075" data-name="Grupo 1075" transform="translate(0 2.637)">
      <path id="Trazado_2581" data-name="Trazado 2581" d="M132.82,37.835a2.271,2.271,0,0,0-1.2-1.078,29.432,29.432,0,0,0-2.948-1.169q-1.5-.5-2.85-.871a5.455,5.455,0,0,0-1.9-.272,2.329,2.329,0,0,0-1.339.571,5.7,5.7,0,0,0-1.161,1.479q-.566.971-1.331,2.485-.766,1.316-1.58,2.8t-1.581,2.962q-.766,1.482-1.482,2.9t-1.249,2.6q-.512-3.4-.8-5.349t-.432-3q-.143-1.056-.191-1.469a6,6,0,0,1-.046-.71q-.129-.627-.242-1.123a2.9,2.9,0,0,0-.375-.909,2.954,2.954,0,0,0-.722-.762,5.091,5.091,0,0,0-1.251-.65q-1.252-.468-2.488-.8a27.989,27.989,0,0,0-3.016-.608,2.972,2.972,0,0,0-1.7.108,2.092,2.092,0,0,0-.848,1.4q-.3,1.55-.627,3.577t-.647,4.3q-.324,2.276-.6,4.617-.259,2.21-.474,4.271-.088-1.177-.171-2.353-.231-3.292-.371-6.327t-.154-5.386a2.935,2.935,0,0,0-.32-1.529,2.131,2.131,0,0,0-1.384-.836q-.774-.129-1.533-.293t-1.649-.282q-.889-.119-1.954-.172t-2.418,0a3.521,3.521,0,0,0-2.295.637,4.326,4.326,0,0,0-1.151,1.562q-1.159,2.589-2.4,5.9-1,2.672-1.958,5.394a12.773,12.773,0,0,0-.113-1.478,12.239,12.239,0,0,0-4.024-7.386,11.148,11.148,0,0,0-3.5-1.938,12.828,12.828,0,0,0-3.879-.656,19.285,19.285,0,0,0-3.9.334,21.106,21.106,0,0,0-6.506,2.4L58.775,60.577q-.382-3.206-.716-6.4-.343-3.282-.587-6.311t-.338-5.378a2.936,2.936,0,0,0-.372-1.516,2.131,2.131,0,0,0-1.411-.788q-.778-.1-1.543-.24t-1.658-.226q-.892-.089-1.958-.105t-2.416.085a3.514,3.514,0,0,0-2.272.716,4.318,4.318,0,0,0-1.1,1.6q-1.07,2.627-2.2,5.976t-2.182,6.773q-1.054,3.423-1.934,6.625t-1.386,5.559a3.748,3.748,0,0,0-.043,1.119,1.256,1.256,0,0,0,.777,1.034q.318.144.743.356.557.2,1.091.346t.98.26a2.142,2.142,0,0,0,1.15.023,1.086,1.086,0,0,0,.557-.735q.328-1.1.682-2.263t.85-2.517A38.143,38.143,0,0,1,47.7,63.2q2.4-.647,4.811-1.281.265,1.331.5,2.448t.488,2.05a2.57,2.57,0,0,0,.6,1.222,2.291,2.291,0,0,0,1.17.452,5.686,5.686,0,0,0,1.512.128q.725-.041,1.578-.147a1.759,1.759,0,0,0,1.068-.366,1.1,1.1,0,0,0,.143-.849q-.171-1.251-.344-2.6a2.8,2.8,0,0,0,.307.323c.2.182.417.368.642.561q.908.636,1.612,1.063a17.367,17.367,0,0,0,1.64.864,4.461,4.461,0,0,0,3.537.2,24.318,24.318,0,0,0,5.839-2.63,21.8,21.8,0,0,0,4.41-3.615,19.724,19.724,0,0,0,1.628-2Q78.217,61.126,77.8,62.8a3.744,3.744,0,0,0-.082,1.117,1.255,1.255,0,0,0,.741,1.06q.312.154.73.382.55.216,1.078.383t.971.293a2.132,2.132,0,0,0,1.148.062,1.084,1.084,0,0,0,.582-.715q.365-1.093.759-2.238t.936-2.486a38.2,38.2,0,0,1,4.246-1.227q2.417-.566,4.853-1.116.22,1.34.42,2.463t.418,2.066a2.566,2.566,0,0,0,.559,1.242,2.3,2.3,0,0,0,1.154.493,5.708,5.708,0,0,0,1.507.179q.727-.017,1.582-.093a1.763,1.763,0,0,0,1.08-.329,1.105,1.105,0,0,0,.172-.844q-.038-.371-.076-.752l.006,0a9.99,9.99,0,0,0,1.433.584q.774.252,1.533.42a1.642,1.642,0,0,0,1.088-.012,1.156,1.156,0,0,0,.433-.774q.138-1.417.394-3.231t.6-3.891q.339-2.078.746-4.319t.846-4.484q.48,3.3,1.076,6.406t1.245,5.483c.108.375.211.683.309.925a2.469,2.469,0,0,0,.344.612,1.569,1.569,0,0,0,.46.4,4.224,4.224,0,0,0,.626.283,19.423,19.423,0,0,0,2.307.6,2.53,2.53,0,0,0,.693.086.94.94,0,0,0,.429-.113.788.788,0,0,0,.282-.312q.116-.213.283-.576.533-1.152,1.416-2.881t1.931-3.67q1.048-1.942,2.163-3.95t2.112-3.719q-.57,1.944-1.058,4.021t-.892,3.972q-.405,1.9-.709,3.462t-.441,2.555a1.693,1.693,0,0,0,1.079,2.182,6.673,6.673,0,0,0,1.383.567q.79.234,1.549.4.856.2,1.155-.061a2.211,2.211,0,0,0,.532-.855q.269-1.153.739-2.9t1.057-3.823q.586-2.076,1.241-4.349t1.308-4.482q.653-2.207,1.29-4.217t1.138-3.559A2.537,2.537,0,0,0,132.82,37.835ZM48.6,57.351q-1.47.35-2.914.762,1.151-3.3,2.312-6.39t2.173-5.641q.261,2.628.626,5.292t.766,5.341Q50.065,57,48.6,57.351ZM74.652,49.54a11.92,11.92,0,0,1-.61,3.152A13.864,13.864,0,0,1,72.35,56.1a16.876,16.876,0,0,1-2.95,3.3,17.592,17.592,0,0,1-4.35,2.74q.711-4.31,1.49-8.539t1.82-8.581a5.471,5.471,0,0,1,3.625-.228,3.7,3.7,0,0,1,2.123,1.627A5.948,5.948,0,0,1,74.652,49.54Zm15.355,4.081q-1.481.3-2.939.662,1.263-3.26,2.53-6.307t2.365-5.563q.17,2.635.445,5.31t.582,5.364Q91.487,53.322,90.007,53.621Z" transform="translate(-36.638 -34.435)" fill="#6140ff"/>
      <path id="Trazado_2582" data-name="Trazado 2582" d="M125.457,93.829q-.57-.445-1.366-1a7.668,7.668,0,0,0-1.586-.868,2.722,2.722,0,0,0-1.442-.2,1.123,1.123,0,0,0-.875.957q-1.433,3.21-2.876,6.322t-2.962,6.1q-1.142-2.746-2.191-5.2t-1.983-4.36a7.747,7.747,0,0,0-1.11-1.474,2.647,2.647,0,0,0-1.5-.611,6.894,6.894,0,0,0-1.939-.008q-.932.134-1.945.291-.839.242-.992.57a.647.647,0,0,0-.019.385q-.4-.076-.8-.162-.76-.163-1.649-.282t-1.954-.172q-1.065-.053-2.418,0a3.514,3.514,0,0,0-2.295.637,4.319,4.319,0,0,0-1.151,1.561q-1.159,2.59-2.4,5.9-.56,1.492-1.105,3a6.872,6.872,0,0,0-.3-2.261,11.582,11.582,0,0,0-1.778-3.368,20.772,20.772,0,0,0-2.327-2.49,6.164,6.164,0,0,0-3.524-1.422A12.249,12.249,0,0,0,76.9,96.1a22.153,22.153,0,0,0-4.257,1.659q-2.139,1.087-4.093,2.191a2.326,2.326,0,0,0-.716,1.241,14.687,14.687,0,0,0-.51,2.431q-.1.725-.183,1.539v-.015q-.061-.855-.156-1.543a8.581,8.581,0,0,0-.837-2.31,5.177,5.177,0,0,0-1.752-1.8,8.661,8.661,0,0,0-1.412-.784,11.628,11.628,0,0,0-1.643-.581,17.614,17.614,0,0,0-1.774-.387,12.843,12.843,0,0,0-1.772-.172,7.764,7.764,0,0,0-1.29.017,10.07,10.07,0,0,0-1.388.224,6.43,6.43,0,0,0-1.364.487,4.969,4.969,0,0,0-1.217.839,16.335,16.335,0,0,0-3.01,3.551,24.133,24.133,0,0,0-2.162,4.319,25.217,25.217,0,0,0-1.287,4.655,24.516,24.516,0,0,0-.379,4.622,17.926,17.926,0,0,0,.545,4.208,10.24,10.24,0,0,0,1.5,3.36,6.193,6.193,0,0,0,1.418,1.578,7.678,7.678,0,0,0,1.77,1.083,18.09,18.09,0,0,0,5.054.936,9.358,9.358,0,0,0,2.759-.265,7.665,7.665,0,0,0,2.419-1.1,12.478,12.478,0,0,0,3.14-3.4,20.738,20.738,0,0,0,2.313-5.111q0,.259-.005.513-.015,1.674-.012,3t0,2.021a2.846,2.846,0,0,0,.287,1.349,1.978,1.978,0,0,0,.933.794,4.69,4.69,0,0,0,1.356.342q.7.069,1.61.22a1.6,1.6,0,0,0,1.035-.094,1.172,1.172,0,0,0,.381-.73q.2-1.807.414-3.681t.492-3.921a25.406,25.406,0,0,0,2.094,1.916q1.144.94,2.282,1.8t2.194,1.558q1.057.7,1.86,1.158a5.024,5.024,0,0,0,2.091.59,4.483,4.483,0,0,0,1.583-.258q.583-.152.986-.271l.035-.012.1.033q.529.167.971.294a2.144,2.144,0,0,0,1.148.062,1.085,1.085,0,0,0,.582-.715q.365-1.092.759-2.238t.936-2.486a38.033,38.033,0,0,1,4.246-1.227q2.417-.565,4.853-1.116.219,1.339.42,2.463t.418,2.066a2.574,2.574,0,0,0,.559,1.242,2.3,2.3,0,0,0,1.154.493,5.707,5.707,0,0,0,1.507.179q.727-.016,1.582-.093a1.764,1.764,0,0,0,1.08-.329,1.105,1.105,0,0,0,.172-.844q-.287-2.823-.568-6.128t-.511-6.6q-.231-3.292-.371-6.327-.052-1.105-.086-2.119.689,1.514,1.408,3.077.988,2.147,1.975,4.278t1.855,4.04q-.19,2.3-.22,4.178t-.133,3.309a2.479,2.479,0,0,0,.282,1.283,2.627,2.627,0,0,0,1.034.818q.75.231,1.629.433t1.686.329a2.154,2.154,0,0,0,1.156-.038q.284-.158.389-.83.2-1.807.426-3.732t.585-4.178q1.26-2.2,2.6-4.607t2.529-4.667q1.188-2.26,2.123-4.2a30.752,30.752,0,0,0,1.381-3.238q.182-.547.281-.936a1.893,1.893,0,0,0,.051-.717,1.549,1.549,0,0,0-.239-.625A4.2,4.2,0,0,0,125.457,93.829ZM66.662,114.494c-.008.344-.014.681-.021,1.013a3.356,3.356,0,0,0-.545-.8l-.718-.8a11.556,11.556,0,0,0-.82-.821,2.65,2.65,0,0,0-1.357-.722,4.694,4.694,0,0,0-1.809.146q-.939.251-2.239.517a25.558,25.558,0,0,0-2.493.639q-.649.158-1.167.287a4.03,4.03,0,0,0-.867.31,1.017,1.017,0,0,0-.474.44.827.827,0,0,0,.044.676,5.289,5.289,0,0,0,1.932,2.51,4.662,4.662,0,0,0,3.1.416,20.8,20.8,0,0,1-.935,2.121,10.339,10.339,0,0,1-1.072,1.7,4.249,4.249,0,0,1-1.179,1.067,1.635,1.635,0,0,1-1.224.209,1.916,1.916,0,0,1-1.2-1.135,7.591,7.591,0,0,1-.677-2.374,15.979,15.979,0,0,1-.1-3.089,17.319,17.319,0,0,1,.514-3.309,28.08,28.08,0,0,1,1.17-3.932,25.872,25.872,0,0,1,1.536-3.368,9.969,9.969,0,0,1,1.65-2.286,1.765,1.765,0,0,1,1.512-.682.678.678,0,0,1,.491.486q.154.417.341,1.03c.041.217.083.434.125.651s.073.447.095.687a4.712,4.712,0,0,0,.045.676,4.441,4.441,0,0,0,.139.633,4.157,4.157,0,0,0,1.475,2.584,6.057,6.057,0,0,0,3.489,1.044,1.87,1.87,0,0,0,1.121-.25,1.021,1.021,0,0,0,.233-.3c0,.053-.005.106-.007.16Q66.7,112.569,66.662,114.494Zm11.166-5.13a18.77,18.77,0,0,1-3.858,2.219q.429-2.225.751-4.176t.7-3.674a10.206,10.206,0,0,1,2.355-1.073,10.866,10.866,0,0,1,2.083-.419q1.938-.174,2.416.71a2.135,2.135,0,0,1-.186,1.607,8.545,8.545,0,0,1-1.515,2.307A18.281,18.281,0,0,1,77.828,109.364Zm9.766-.465q-1.17,3.385-2.16,6.555-.716,2.292-1.22,4.149-.594-.481-1.2-.983-1.039-.867-2.028-1.739t-1.822-1.658a35.877,35.877,0,0,0,6.006-4.119,13.316,13.316,0,0,0,2.77-3.208C87.828,108.231,87.71,108.564,87.595,108.9Zm8.475,2.881q-1.481.3-2.939.662,1.263-3.261,2.53-6.307t2.365-5.563q.17,2.636.445,5.311t.582,5.364Q97.55,111.481,96.07,111.78Z" transform="translate(-40.457 -58.591)" fill="#6140ff"/>
    </g>
    <g id="Grupo_1078" data-name="Grupo 1078" transform="translate(1.82)">
      <g id="Grupo_1076" data-name="Grupo 1076">
        <path id="Trazado_2583" data-name="Trazado 2583" d="M136.469,33.779a2.271,2.271,0,0,0-1.2-1.078,29.288,29.288,0,0,0-2.948-1.168q-1.5-.5-2.85-.871a5.444,5.444,0,0,0-1.9-.273,2.329,2.329,0,0,0-1.339.571,5.705,5.705,0,0,0-1.161,1.479q-.567.971-1.331,2.485-.766,1.316-1.58,2.8t-1.581,2.962q-.766,1.482-1.482,2.9t-1.249,2.6q-.512-3.4-.8-5.349t-.432-3q-.143-1.056-.191-1.469a6.008,6.008,0,0,1-.046-.71q-.129-.627-.242-1.123a2.892,2.892,0,0,0-.375-.909,2.947,2.947,0,0,0-.722-.762,5.092,5.092,0,0,0-1.251-.65q-1.252-.468-2.488-.8a27.991,27.991,0,0,0-3.016-.608,2.972,2.972,0,0,0-1.7.108,2.092,2.092,0,0,0-.848,1.4q-.3,1.55-.627,3.577t-.647,4.3q-.324,2.276-.6,4.617-.259,2.21-.474,4.271-.088-1.177-.171-2.353-.231-3.292-.371-6.328T102.7,35a2.934,2.934,0,0,0-.32-1.529,2.127,2.127,0,0,0-1.384-.836q-.774-.129-1.533-.293t-1.649-.282q-.889-.119-1.954-.172t-2.418,0a3.52,3.52,0,0,0-2.3.637,4.326,4.326,0,0,0-1.151,1.562q-1.159,2.589-2.4,5.9-1,2.672-1.958,5.394a12.779,12.779,0,0,0-.113-1.478A12.239,12.239,0,0,0,81.5,36.52,11.148,11.148,0,0,0,78,34.583a12.846,12.846,0,0,0-3.879-.656,19.244,19.244,0,0,0-3.9.335,21.087,21.087,0,0,0-6.506,2.4L62.424,56.521q-.382-3.206-.715-6.4-.344-3.282-.588-6.311t-.338-5.378a2.936,2.936,0,0,0-.372-1.516A2.13,2.13,0,0,0,59,36.126q-.778-.1-1.543-.24T55.8,35.661q-.892-.088-1.958-.1t-2.416.085a3.511,3.511,0,0,0-2.272.715,4.319,4.319,0,0,0-1.1,1.6q-1.069,2.627-2.2,5.976t-2.182,6.773q-1.054,3.423-1.934,6.625T40.357,62.89a3.71,3.71,0,0,0-.043,1.119,1.366,1.366,0,0,0,.264.649,1.381,1.381,0,0,0,.513.385q.318.143.743.356.557.2,1.091.346t.98.26a2.137,2.137,0,0,0,1.15.023,1.086,1.086,0,0,0,.557-.735q.327-1.1.682-2.263t.85-2.517a38.14,38.14,0,0,1,4.2-1.372q2.4-.647,4.811-1.281.266,1.331.5,2.448t.488,2.05a2.57,2.57,0,0,0,.6,1.222,2.291,2.291,0,0,0,1.17.452,5.687,5.687,0,0,0,1.512.128q.725-.041,1.578-.147a1.759,1.759,0,0,0,1.068-.366,1.1,1.1,0,0,0,.143-.849q-.171-1.251-.344-2.6a2.8,2.8,0,0,0,.307.323q.3.273.642.561.908.637,1.613,1.063a17.363,17.363,0,0,0,1.64.864,4.461,4.461,0,0,0,3.537.2,24.307,24.307,0,0,0,5.839-2.63,21.817,21.817,0,0,0,4.41-3.615,19.858,19.858,0,0,0,1.628-2q-.628,2.1-1.048,3.783a3.746,3.746,0,0,0-.082,1.117,1.368,1.368,0,0,0,.241.658,1.383,1.383,0,0,0,.5.4q.312.154.73.382.55.216,1.078.383t.971.293a2.132,2.132,0,0,0,1.148.062,1.084,1.084,0,0,0,.582-.715q.365-1.093.759-2.238t.936-2.486a38.036,38.036,0,0,1,4.246-1.227q2.417-.566,4.853-1.116.219,1.34.42,2.463t.418,2.067a2.577,2.577,0,0,0,.559,1.242,2.3,2.3,0,0,0,1.154.492,5.708,5.708,0,0,0,1.507.179q.727-.017,1.582-.093a1.759,1.759,0,0,0,1.08-.329,1.105,1.105,0,0,0,.172-.844q-.038-.371-.076-.752l.006,0a9.992,9.992,0,0,0,1.433.584q.774.252,1.533.42a1.642,1.642,0,0,0,1.089-.012,1.155,1.155,0,0,0,.433-.773q.138-1.418.394-3.232t.6-3.891q.339-2.078.746-4.319t.846-4.484q.48,3.3,1.076,6.406t1.245,5.483q.162.562.309.925a2.468,2.468,0,0,0,.344.612,1.58,1.58,0,0,0,.46.4,4.222,4.222,0,0,0,.626.283,19.3,19.3,0,0,0,2.307.6,2.523,2.523,0,0,0,.692.086.94.94,0,0,0,.429-.113.788.788,0,0,0,.282-.312q.116-.213.283-.576.533-1.152,1.416-2.881t1.931-3.67q1.048-1.942,2.163-3.95t2.112-3.719q-.57,1.944-1.058,4.021t-.893,3.972q-.4,1.9-.709,3.462t-.441,2.555a1.692,1.692,0,0,0,1.079,2.182,6.671,6.671,0,0,0,1.383.567q.79.234,1.549.4.856.2,1.155-.061a2.211,2.211,0,0,0,.532-.855q.269-1.153.739-2.9t1.057-3.823q.586-2.076,1.241-4.35t1.307-4.481q.654-2.207,1.29-4.217t1.138-3.558A2.538,2.538,0,0,0,136.469,33.779ZM52.245,53.295q-1.47.35-2.914.762,1.15-3.3,2.312-6.39t2.173-5.641q.261,2.628.627,5.292t.765,5.341Q53.714,52.945,52.245,53.295ZM78.3,45.484a11.918,11.918,0,0,1-.61,3.152A13.867,13.867,0,0,1,76,52.047a16.877,16.877,0,0,1-2.95,3.3,17.61,17.61,0,0,1-4.35,2.74q.711-4.309,1.49-8.539t1.82-8.581a5.471,5.471,0,0,1,3.625-.228,3.7,3.7,0,0,1,2.123,1.627A5.949,5.949,0,0,1,78.3,45.484Zm15.355,4.082q-1.481.3-2.939.662,1.263-3.26,2.53-6.307t2.365-5.563q.17,2.635.445,5.31t.582,5.364Q95.136,49.267,93.656,49.565Z" transform="translate(-39.997 -30.088)" fill="#fff"/>
        <path id="Trazado_2584" data-name="Trazado 2584" d="M44.413,66.174a3.806,3.806,0,0,1-.782-.1l-.01,0c-.3-.074-.628-.162-.988-.263s-.736-.22-1.109-.352l-.033-.014c-.279-.139-.526-.258-.733-.352a1.543,1.543,0,0,1-.944-1.25,3.965,3.965,0,0,1,.043-1.212l0-.016c.335-1.566.8-3.441,1.389-5.576s1.235-4.355,1.937-6.634c.695-2.26,1.429-4.541,2.184-6.78s1.493-4.246,2.2-5.994a4.638,4.638,0,0,1,1.171-1.7,3.8,3.8,0,0,1,2.451-.791c.906-.068,1.727-.1,2.438-.086s1.382.047,1.983.106,1.161.136,1.68.229c.5.09,1.017.17,1.53.238l.025,0a2.378,2.378,0,0,1,1.595.916,3.233,3.233,0,0,1,.417,1.666c.062,1.559.175,3.364.337,5.36.163,2.012.36,4.132.586,6.3.11,1.054.225,2.121.345,3.194l1.087-16.8.133-.078a21.391,21.391,0,0,1,6.6-2.435,19.649,19.649,0,0,1,3.961-.34,13.171,13.171,0,0,1,3.967.671,11.494,11.494,0,0,1,3.592,1.987,12.532,12.532,0,0,1,4.13,7.573c0,.037.01.074.014.111.494-1.386,1-2.757,1.5-4.09.827-2.2,1.637-4.191,2.408-5.914A4.631,4.631,0,0,1,90.744,32.1a3.8,3.8,0,0,1,2.477-.707c.909-.037,1.729-.038,2.44,0s1.379.094,1.978.174,1.156.176,1.671.286c.5.107,1.01.2,1.521.29l.025.005a2.376,2.376,0,0,1,1.562.971,3.226,3.226,0,0,1,.36,1.679c.009,1.559.06,3.368.154,5.369.081,1.75.186,3.585.312,5.469q.062-.538.125-1.08c.184-1.568.386-3.124.6-4.624.216-1.518.434-2.968.647-4.308s.425-2.549.629-3.587l0-.02a2.322,2.322,0,0,1,1-1.582,3.2,3.2,0,0,1,1.874-.136,28.4,28.4,0,0,1,3.05.615c.827.225,1.673.5,2.513.812a5.4,5.4,0,0,1,1.324.689,3.256,3.256,0,0,1,.792.838,3.212,3.212,0,0,1,.413,1c.075.327.154.7.244,1.129l.006.03v.031a5.794,5.794,0,0,0,.045.674c.031.274.094.752.19,1.464s.237,1.684.431,3c.169,1.145.389,2.618.655,4.389.258-.546.541-1.125.847-1.729.491-.971.99-1.947,1.483-2.9.511-.988,1.043-1.987,1.585-2.969s1.073-1.927,1.579-2.8c.511-1.01.961-1.849,1.336-2.493a6,6,0,0,1,1.224-1.554,2.623,2.623,0,0,1,1.5-.64,5.681,5.681,0,0,1,2,.283c.9.247,1.866.541,2.862.875a29.947,29.947,0,0,1,2.977,1.18,2.556,2.556,0,0,1,1.348,1.234h0a2.774,2.774,0,0,1-.117,1.9c-.345,1.065-.728,2.262-1.137,3.552-.417,1.315-.85,2.733-1.289,4.213s-.874,2.976-1.307,4.479c-.464,1.613-.87,3.036-1.241,4.349-.39,1.377-.745,2.662-1.056,3.819s-.559,2.128-.737,2.891l-.013.041a2.471,2.471,0,0,1-.61.966,1.572,1.572,0,0,1-1.414.126c-.506-.112-1.033-.25-1.565-.407a7.019,7.019,0,0,1-1.435-.588,1.971,1.971,0,0,1-1.231-2.489c.091-.661.235-1.5.442-2.562.2-1.036.44-2.2.71-3.467s.571-2.6.894-3.977q.215-.919.449-1.82-.474.836-.967,1.725c-.728,1.312-1.455,2.639-2.161,3.947s-1.352,2.536-1.928,3.665c-.585,1.145-1.06,2.111-1.411,2.87-.116.252-.211.445-.292.593a1.077,1.077,0,0,1-.389.423,1.232,1.232,0,0,1-.562.154,2.776,2.776,0,0,1-.776-.093,19.531,19.531,0,0,1-2.333-.613,4.471,4.471,0,0,1-.676-.306,1.863,1.863,0,0,1-.544-.47,2.747,2.747,0,0,1-.386-.684c-.1-.252-.209-.572-.319-.953-.433-1.588-.854-3.44-1.251-5.509-.295-1.533-.571-3.124-.826-4.748-.179.938-.354,1.882-.525,2.822-.273,1.507-.524,2.958-.745,4.314s-.424,2.675-.595,3.884-.3,2.289-.393,3.219l-.006.036a1.412,1.412,0,0,1-.565.958,1.834,1.834,0,0,1-1.3.047c-.517-.115-1.042-.259-1.562-.427-.352-.114-.689-.242-1.009-.382l.024.241a1.355,1.355,0,0,1-.245,1.067,1.932,1.932,0,0,1-1.271.425c-.574.051-1.113.083-1.6.094a6.017,6.017,0,0,1-1.577-.186,2.531,2.531,0,0,1-1.293-.567,2.8,2.8,0,0,1-.639-1.383c-.145-.626-.287-1.326-.422-2.082-.119-.665-.243-1.391-.371-2.163-1.535.348-3.064.7-4.549,1.047a38.551,38.551,0,0,0-4.092,1.174c-.335.834-.632,1.625-.881,2.351-.274.8-.522,1.529-.758,2.236a1.363,1.363,0,0,1-.759.9,2.368,2.368,0,0,1-1.317-.054l-.009,0c-.295-.084-.624-.183-.979-.3s-.728-.245-1.1-.39l-.032-.016c-.274-.149-.516-.275-.721-.376a1.683,1.683,0,0,1-.6-.488,1.66,1.66,0,0,1-.3-.795,3.961,3.961,0,0,1,.084-1.209l0-.016c.177-.708.385-1.483.62-2.315q-.339.408-.705.8A22.2,22.2,0,0,1,76.4,60.618a24.7,24.7,0,0,1-5.9,2.659,4.76,4.76,0,0,1-3.751-.213,17.618,17.618,0,0,1-1.672-.881c-.477-.289-1.025-.65-1.629-1.073l-.022-.017c-.13-.111-.251-.216-.366-.316.08.612.159,1.2.237,1.772a1.359,1.359,0,0,1-.208,1.075,1.929,1.929,0,0,1-1.256.468c-.572.072-1.109.121-1.6.149a5.994,5.994,0,0,1-1.582-.132,2.522,2.522,0,0,1-1.311-.523,2.8,2.8,0,0,1-.687-1.361c-.166-.621-.331-1.316-.492-2.066-.141-.66-.291-1.382-.445-2.149-1.525.4-3.041.805-4.511,1.2a38.609,38.609,0,0,0-4.049,1.313c-.307.846-.575,1.645-.8,2.38-.241.789-.471,1.549-.682,2.261a1.362,1.362,0,0,1-.728.921A1.447,1.447,0,0,1,44.413,66.174Zm-.656-.663a1.828,1.828,0,0,0,.977.036.833.833,0,0,0,.388-.555c.209-.7.439-1.467.681-2.257s.526-1.631.855-2.531l.045-.122.12-.048a38.64,38.64,0,0,1,4.234-1.383c1.568-.424,3.187-.855,4.813-1.282l.3-.078.06.3c.175.878.345,1.7.5,2.444s.322,1.426.485,2.036a2.257,2.257,0,0,0,.515,1.082,2.049,2.049,0,0,0,1.022.382l.014,0a5.426,5.426,0,0,0,1.436.121c.475-.027,1-.075,1.558-.145.684-.085.847-.223.881-.264a.893.893,0,0,0,.078-.627c-.112-.816-.227-1.692-.344-2.6l-.129-1.008.643.787a2.551,2.551,0,0,0,.276.29c.19.17.394.349.626.547.589.413,1.123.764,1.585,1.045a17.086,17.086,0,0,0,1.613.85,4.2,4.2,0,0,0,3.31.2l.019-.006a24.15,24.15,0,0,0,5.769-2.6,21.653,21.653,0,0,0,4.352-3.567,19.675,19.675,0,0,0,1.6-1.975l1.021-1.443-.505,1.694c-.416,1.394-.766,2.661-1.042,3.763a3.453,3.453,0,0,0-.078,1.017.968.968,0,0,0,.582.836c.207.1.451.23.725.378.352.138.7.262,1.043.37s.67.208.958.29a1.824,1.824,0,0,0,.975.069c.16-.057.3-.239.408-.541.234-.7.482-1.433.757-2.233.265-.772.582-1.613.941-2.5l.049-.12L88,56.121a38.45,38.45,0,0,1,4.279-1.237c1.584-.371,3.217-.747,4.854-1.117l.3-.068.05.3c.145.883.286,1.71.419,2.459s.273,1.437.415,2.051a2.248,2.248,0,0,0,.478,1.1,2.041,2.041,0,0,0,1.008.416l.014,0a5.456,5.456,0,0,0,1.43.17c.475-.01,1-.041,1.562-.091.687-.062.855-.195.89-.234a.894.894,0,0,0,.1-.624c-.025-.245-.05-.5-.075-.749l-.052-.524.471.235a9.824,9.824,0,0,0,1.4.571c.5.163,1.009.3,1.506.412.626.134.829.052.876.024.086-.052.206-.194.3-.572.091-.933.223-2.019.394-3.225s.371-2.525.6-3.9.472-2.813.747-4.324.556-3.009.846-4.488l.327-1.671.245,1.686c.319,2.195.68,4.346,1.073,6.393s.812,3.892,1.24,5.462c.1.358.2.66.3.893a2.211,2.211,0,0,0,.3.541,1.278,1.278,0,0,0,.376.326,3.965,3.965,0,0,0,.582.263,19.078,19.078,0,0,0,2.265.593,2.3,2.3,0,0,0,.617.08.681.681,0,0,0,.3-.073.514.514,0,0,0,.175-.2c.073-.134.165-.322.274-.558.355-.767.832-1.739,1.42-2.891.578-1.133,1.229-2.37,1.934-3.676s1.436-2.64,2.165-3.953c.739-1.331,1.451-2.584,2.115-3.724l1.2-2.06-.671,2.288c-.378,1.287-.732,2.635-1.054,4.005s-.622,2.707-.891,3.966-.507,2.424-.708,3.456-.35,1.9-.438,2.54l0,.019a1.413,1.413,0,0,0,.921,1.862l.016.009a6.471,6.471,0,0,0,1.323.542c.519.153,1.034.287,1.53.4.663.156.857.043.9,0a1.92,1.92,0,0,0,.446-.724c.179-.766.427-1.737.737-2.889s.667-2.447,1.058-3.826c.371-1.314.777-2.737,1.241-4.351.433-1.5.873-3.013,1.308-4.484s.874-2.9,1.291-4.223c.408-1.292.792-2.49,1.139-3.56a2.3,2.3,0,0,0,.13-1.5h0a2.015,2.015,0,0,0-1.058-.925,29.351,29.351,0,0,0-2.912-1.154c-.985-.33-1.939-.621-2.835-.866a5.205,5.205,0,0,0-1.8-.263,2.023,2.023,0,0,0-1.175.5,5.456,5.456,0,0,0-1.1,1.4c-.371.636-.816,1.467-1.323,2.47l-.008.015c-.5.868-1.035,1.807-1.577,2.791s-1.069,1.972-1.578,2.956c-.492.951-.99,1.925-1.48,2.895-.473.935-.892,1.806-1.244,2.589l-.4.9-.147-.977c-.332-2.2-.6-4-.8-5.35-.195-1.319-.337-2.3-.433-3.008s-.16-1.2-.191-1.475a6.53,6.53,0,0,1-.048-.713c-.086-.417-.164-.773-.235-1.088a2.617,2.617,0,0,0-.338-.818,2.672,2.672,0,0,0-.652-.686,4.829,4.829,0,0,0-1.179-.609c-.822-.307-1.651-.574-2.46-.795a27.75,27.75,0,0,0-2.984-.6,2.732,2.732,0,0,0-1.524.079,1.878,1.878,0,0,0-.7,1.205c-.2,1.029-.411,2.226-.623,3.557s-.43,2.783-.646,4.3c-.213,1.5-.414,3.046-.6,4.61-.17,1.451-.329,2.887-.473,4.267l-.578-.008c-.068-.9-.123-1.649-.172-2.355-.153-2.187-.278-4.318-.371-6.334s-.145-3.826-.154-5.4a2.69,2.69,0,0,0-.28-1.383,1.874,1.874,0,0,0-1.194-.7c-.515-.086-1.031-.185-1.534-.293s-1.047-.2-1.626-.278-1.232-.135-1.93-.17-1.5-.034-2.392,0h-.01a3.264,3.264,0,0,0-2.108.568A4.057,4.057,0,0,0,90.047,34c-.766,1.713-1.572,3.692-2.394,5.883C87,41.629,86.338,43.442,85.7,45.268l-.533,1.519-.031-1.61a12.445,12.445,0,0,0-.11-1.444,11.954,11.954,0,0,0-3.919-7.2,10.915,10.915,0,0,0-3.41-1.887,12.567,12.567,0,0,0-3.792-.641,19.037,19.037,0,0,0-3.843.329,20.281,20.281,0,0,0-3.537,1,20.678,20.678,0,0,0-2.743,1.283L62.5,56.329l-.579.016c-.256-2.15-.5-4.3-.716-6.406-.227-2.176-.425-4.3-.588-6.318s-.276-3.818-.339-5.39a2.678,2.678,0,0,0-.327-1.372,1.872,1.872,0,0,0-1.217-.658c-.518-.068-1.036-.149-1.544-.24s-1.053-.165-1.634-.223-1.235-.093-1.935-.1-1.5.017-2.39.084h-.01a3.268,3.268,0,0,0-2.087.64,4.058,4.058,0,0,0-1.024,1.494c-.707,1.737-1.444,3.743-2.192,5.961-.753,2.235-1.486,4.511-2.179,6.765-.7,2.274-1.35,4.5-1.932,6.617s-1.047,3.982-1.379,5.535a3.463,3.463,0,0,0-.043,1.02,1.1,1.1,0,0,0,.2.512,1.078,1.078,0,0,0,.408.3c.21.1.457.214.737.353.355.125.71.238,1.055.334S43.468,65.439,43.757,65.511Zm24.355-7.15.088-.537c.47-2.849.971-5.724,1.491-8.544s1.132-5.707,1.822-8.6l.037-.154.149-.052a5.774,5.774,0,0,1,3.817-.229,4,4,0,0,1,2.28,1.759,6.247,6.247,0,0,1,.582,3.275h0a12.256,12.256,0,0,1-.624,3.229A14.2,14.2,0,0,1,76.029,52a17.245,17.245,0,0,1-3,3.353,17.979,17.979,0,0,1-4.422,2.785Zm3.93-17.386c-.673,2.827-1.271,5.656-1.779,8.41-.486,2.637-.956,5.322-1.4,7.988a17.017,17.017,0,0,0,3.782-2.459,16.673,16.673,0,0,0,2.9-3.239,13.6,13.6,0,0,0,1.657-3.34,11.7,11.7,0,0,0,.6-3.073h0a5.7,5.7,0,0,0-.508-2.968,3.441,3.441,0,0,0-1.965-1.5A5.1,5.1,0,0,0,72.042,40.975ZM48.66,54.278l.184-.529c.763-2.19,1.543-4.342,2.315-6.4s1.5-3.951,2.175-5.645l.441-1.113.118,1.191c.172,1.737.383,3.514.625,5.281s.5,3.556.765,5.338l.041.276-.274.053c-.983.188-1.975.4-2.95.633s-1.947.486-2.9.759Zm4.778-11.249c-.547,1.4-1.128,2.916-1.735,4.528-.709,1.886-1.423,3.854-2.126,5.857.791-.219,1.592-.425,2.389-.615h0c.893-.212,1.8-.408,2.7-.585-.252-1.694-.5-3.4-.725-5.069C53.754,45.772,53.585,44.392,53.438,43.029Zm36.594,7.4.2-.522c.838-2.164,1.69-4.288,2.532-6.314s1.637-3.9,2.367-5.568l.479-1.1.077,1.195c.113,1.74.262,3.523.444,5.3s.377,3.58.582,5.361l.032.277-.276.043c-.99.155-1.989.334-2.97.532h0c-.978.2-1.962.419-2.927.659Zm5.16-11.079c-.6,1.379-1.228,2.876-1.889,4.466-.773,1.859-1.554,3.8-2.326,5.781.8-.191,1.606-.37,2.408-.533h0c.9-.181,1.813-.346,2.721-.492-.193-1.693-.379-3.4-.551-5.091C95.415,42.1,95.292,40.719,95.192,39.354Z" transform="translate(-39.785 -29.876)" fill="#6140ff"/>
      </g>
      <g id="Grupo_1077" data-name="Grupo 1077" transform="translate(5.253 33.302)">
        <path id="Trazado_2585" data-name="Trazado 2585" d="M129.132,90.057q-.571-.446-1.366-1a7.652,7.652,0,0,0-1.585-.868,2.728,2.728,0,0,0-1.442-.2,1.122,1.122,0,0,0-.875.957q-1.434,3.21-2.876,6.322t-2.962,6.1q-1.143-2.746-2.191-5.2T113.85,91.8a7.77,7.77,0,0,0-1.11-1.474,2.659,2.659,0,0,0-1.5-.611,6.894,6.894,0,0,0-1.939-.008q-.933.134-1.945.291-.84.242-.992.57a.646.646,0,0,0-.019.385c-.268-.051-.535-.1-.8-.161q-.76-.163-1.648-.282t-1.954-.172q-1.065-.053-2.418,0a3.519,3.519,0,0,0-2.295.637,4.328,4.328,0,0,0-1.152,1.562q-1.158,2.589-2.4,5.9-.56,1.493-1.105,3a6.876,6.876,0,0,0-.3-2.262,11.57,11.57,0,0,0-1.777-3.368,20.736,20.736,0,0,0-2.328-2.49,6.159,6.159,0,0,0-3.524-1.422,12.244,12.244,0,0,0-4.069.433,22.114,22.114,0,0,0-4.257,1.659q-2.138,1.087-4.093,2.19a2.328,2.328,0,0,0-.717,1.241A14.7,14.7,0,0,0,71,99.846q-.1.725-.183,1.538v-.014q-.061-.856-.155-1.543a8.587,8.587,0,0,0-.837-2.31,5.183,5.183,0,0,0-1.752-1.8,8.617,8.617,0,0,0-1.412-.784,11.658,11.658,0,0,0-1.643-.581,17.918,17.918,0,0,0-1.774-.387,12.927,12.927,0,0,0-1.771-.172,7.9,7.9,0,0,0-1.291.017,10.167,10.167,0,0,0-1.388.224,6.446,6.446,0,0,0-1.364.487,5,5,0,0,0-1.216.839,16.35,16.35,0,0,0-3.01,3.551,24.113,24.113,0,0,0-2.162,4.319,25.289,25.289,0,0,0-1.287,4.655,24.52,24.52,0,0,0-.379,4.622,17.918,17.918,0,0,0,.545,4.208,10.243,10.243,0,0,0,1.5,3.361,6.182,6.182,0,0,0,1.418,1.578,7.656,7.656,0,0,0,1.77,1.083,18.067,18.067,0,0,0,5.054.936,9.32,9.32,0,0,0,2.759-.265,7.676,7.676,0,0,0,2.419-1.1,12.494,12.494,0,0,0,3.139-3.4,20.726,20.726,0,0,0,2.314-5.111c0,.172,0,.344-.005.513q-.015,1.674-.012,3t0,2.021a2.842,2.842,0,0,0,.287,1.349,1.98,1.98,0,0,0,.932.794,4.735,4.735,0,0,0,1.356.342q.7.069,1.61.219a1.6,1.6,0,0,0,1.035-.093,1.175,1.175,0,0,0,.382-.73q.2-1.807.414-3.682t.492-3.92a25.408,25.408,0,0,0,2.094,1.915q1.144.94,2.282,1.8t2.194,1.559q1.058.7,1.861,1.157a5,5,0,0,0,2.09.591,4.47,4.47,0,0,0,1.584-.259c.389-.1.717-.191.986-.271l.035-.012.1.033c.353.112.676.209.971.293a2.134,2.134,0,0,0,1.149.062,1.084,1.084,0,0,0,.582-.715q.365-1.093.759-2.238t.936-2.486a38.17,38.17,0,0,1,4.246-1.227q2.416-.566,4.852-1.116.22,1.339.421,2.463t.418,2.067a2.566,2.566,0,0,0,.559,1.241,2.293,2.293,0,0,0,1.154.493,5.713,5.713,0,0,0,1.507.179q.727-.017,1.582-.093a1.758,1.758,0,0,0,1.08-.329,1.105,1.105,0,0,0,.173-.844q-.288-2.823-.569-6.127t-.511-6.6q-.231-3.292-.371-6.327-.051-1.105-.086-2.12.689,1.514,1.409,3.077.988,2.147,1.975,4.278t1.854,4.04q-.19,2.3-.22,4.178t-.133,3.308a2.483,2.483,0,0,0,.281,1.283,2.634,2.634,0,0,0,1.035.818q.749.231,1.629.433t1.686.329a2.157,2.157,0,0,0,1.156-.038q.284-.159.389-.831.2-1.807.426-3.732t.585-4.177q1.259-2.2,2.6-4.607t2.529-4.667q1.188-2.26,2.123-4.2a30.9,30.9,0,0,0,1.382-3.238q.182-.546.28-.936a1.879,1.879,0,0,0,.051-.717,1.533,1.533,0,0,0-.238-.625A4.144,4.144,0,0,0,129.132,90.057Zm-58.8,20.665q-.011.515-.02,1.013a3.372,3.372,0,0,0-.546-.8l-.718-.8a11.418,11.418,0,0,0-.819-.821,2.65,2.65,0,0,0-1.357-.723,4.692,4.692,0,0,0-1.809.146q-.939.251-2.239.516a25.57,25.57,0,0,0-2.494.639q-.648.158-1.167.287a3.991,3.991,0,0,0-.866.31,1.011,1.011,0,0,0-.474.44.826.826,0,0,0,.044.675,5.279,5.279,0,0,0,1.932,2.51,4.66,4.66,0,0,0,3.1.416,20.878,20.878,0,0,1-.935,2.122,10.339,10.339,0,0,1-1.073,1.7,4.223,4.223,0,0,1-1.179,1.067,1.632,1.632,0,0,1-1.223.21,1.913,1.913,0,0,1-1.2-1.135,7.61,7.61,0,0,1-.678-2.374,15.98,15.98,0,0,1-.1-3.089,17.318,17.318,0,0,1,.514-3.309,27.97,27.97,0,0,1,1.17-3.932,25.988,25.988,0,0,1,1.535-3.368,9.986,9.986,0,0,1,1.65-2.285,1.766,1.766,0,0,1,1.512-.683.681.681,0,0,1,.491.486q.153.417.341,1.03.062.326.125.651t.095.688a4.634,4.634,0,0,0,.044.675,4.412,4.412,0,0,0,.14.633,4.155,4.155,0,0,0,1.475,2.584,6.069,6.069,0,0,0,3.49,1.044,1.878,1.878,0,0,0,1.12-.25,1.021,1.021,0,0,0,.232-.3l-.007.16Q70.379,108.8,70.337,110.723Zm11.167-5.13a18.759,18.759,0,0,1-3.858,2.219q.429-2.225.75-4.175t.7-3.674a10.194,10.194,0,0,1,2.355-1.073,10.851,10.851,0,0,1,2.082-.419q1.939-.175,2.416.71a2.134,2.134,0,0,1-.187,1.607,8.536,8.536,0,0,1-1.515,2.307A18.313,18.313,0,0,1,81.5,105.593Zm9.766-.465q-1.169,3.385-2.16,6.555-.715,2.293-1.219,4.15-.6-.481-1.2-.984-1.039-.867-2.028-1.739t-1.822-1.658a35.927,35.927,0,0,0,6.007-4.119,13.321,13.321,0,0,0,2.77-3.208C91.5,104.459,91.385,104.793,91.269,105.128Zm8.475,2.881q-1.481.3-2.938.662,1.263-3.26,2.53-6.307T101.7,96.8q.171,2.636.445,5.31t.582,5.364Q101.225,107.71,99.745,108.009Z" transform="translate(-49.079 -87.666)" fill="#fff"/>
        <path id="Trazado_2586" data-name="Trazado 2586" d="M59.923,123.767q-.246,0-.494-.012a18.471,18.471,0,0,1-5.133-.951l-.021-.009a7.982,7.982,0,0,1-1.838-1.123,6.517,6.517,0,0,1-1.479-1.645,10.606,10.606,0,0,1-1.534-3.448,18.3,18.3,0,0,1-.554-4.276,24.954,24.954,0,0,1,.383-4.678,25.734,25.734,0,0,1,1.3-4.708,24.561,24.561,0,0,1,2.189-4.371,16.7,16.7,0,0,1,3.063-3.613,5.284,5.284,0,0,1,1.281-.881,6.747,6.747,0,0,1,1.426-.509,10.365,10.365,0,0,1,1.427-.231,8.207,8.207,0,0,1,1.331-.018,13.192,13.192,0,0,1,1.8.176,18,18,0,0,1,1.8.393,11.96,11.96,0,0,1,1.684.6,8.986,8.986,0,0,1,1.46.811,5.475,5.475,0,0,1,1.842,1.9,8.506,8.506,0,0,1,.726,1.818,13.466,13.466,0,0,1,.429-1.868,2.547,2.547,0,0,1,.833-1.4l.017-.01c1.306-.737,2.687-1.476,4.1-2.2a22.51,22.51,0,0,1,4.313-1.68,12.593,12.593,0,0,1,4.165-.442,6.478,6.478,0,0,1,3.687,1.486l.012.01a21.159,21.159,0,0,1,2.36,2.525,11.922,11.922,0,0,1,1.824,3.452l.005.016a8.959,8.959,0,0,1,.222.954c.216-.589.427-1.157.637-1.715.827-2.2,1.637-4.192,2.408-5.914a4.631,4.631,0,0,1,1.228-1.664,3.8,3.8,0,0,1,2.477-.707c.908-.037,1.729-.038,2.44,0s1.379.094,1.977.174,1.157.176,1.672.286c.143.031.293.061.445.092a.684.684,0,0,1,.049-.153c.143-.307.516-.537,1.176-.727l.036-.008c.687-.106,1.342-.2,1.948-.291a7.211,7.211,0,0,1,2.02.008,2.935,2.935,0,0,1,1.657.689,7.907,7.907,0,0,1,1.156,1.53l.014.025c.622,1.268,1.291,2.74,1.989,4.374.634,1.485,1.289,3.038,1.95,4.623.908-1.8,1.806-3.655,2.673-5.526.957-2.065,1.921-4.184,2.865-6.3a1.38,1.38,0,0,1,1.1-1.146,3.016,3.016,0,0,1,1.6.217,7.985,7.985,0,0,1,1.647.9c.532.374,1,.714,1.378,1.013l.029.025a4.471,4.471,0,0,1,.556.677,1.841,1.841,0,0,1,.283.742,2.188,2.188,0,0,1-.057.828c-.067.265-.163.588-.286.958a31.455,31.455,0,0,1-1.4,3.273c-.625,1.295-1.341,2.711-2.128,4.209s-1.635,3.062-2.532,4.673c-.886,1.59-1.752,3.126-2.575,4.565-.234,1.463-.427,2.846-.574,4.112-.158,1.354-.3,2.574-.426,3.731v.013a1.341,1.341,0,0,1-.535,1.039,2.3,2.3,0,0,1-1.337.072c-.543-.085-1.116-.2-1.711-.334s-1.148-.284-1.65-.438l-.048-.02a2.873,2.873,0,0,1-1.146-.92,2.723,2.723,0,0,1-.326-1.436v-.024c.068-.95.112-2.058.132-3.292s.093-2.618.215-4.121c-.56-1.233-1.174-2.569-1.822-3.97q-.987-2.131-1.976-4.279c-.267-.58-.533-1.161-.8-1.738q.014.32.029.645c.093,2.01.217,4.137.371,6.321s.323,4.393.511,6.592.377,4.245.567,6.123a1.358,1.358,0,0,1-.245,1.067,1.929,1.929,0,0,1-1.271.425c-.574.052-1.113.084-1.6.094a6.015,6.015,0,0,1-1.576-.186,2.531,2.531,0,0,1-1.293-.567,2.8,2.8,0,0,1-.64-1.383c-.145-.627-.286-1.327-.421-2.082-.118-.66-.242-1.386-.371-2.163-1.539.349-3.068.7-4.549,1.047a38.389,38.389,0,0,0-4.091,1.174c-.335.834-.632,1.624-.882,2.351-.274.8-.522,1.528-.758,2.236a1.364,1.364,0,0,1-.759.9,2.37,2.37,0,0,1-1.318-.054l-.009,0c-.295-.084-.624-.183-.979-.3l-.014-.005c-.259.076-.564.16-.932.256a4.745,4.745,0,0,1-1.672.271,5.316,5.316,0,0,1-2.216-.619l-.017-.009c-.532-.3-1.164-.7-1.877-1.168s-1.455-1-2.209-1.569-1.525-1.176-2.292-1.806c-.6-.5-1.175-1.006-1.7-1.519-.154,1.149-.292,2.268-.412,3.333q-.213,1.875-.414,3.681l0,.03a1.431,1.431,0,0,1-.5.9,1.789,1.789,0,0,1-1.241.146l-.012,0c-.6-.1-1.134-.172-1.591-.217a5.025,5.025,0,0,1-1.44-.363l-.01,0a2.268,2.268,0,0,1-1.064-.914,3.087,3.087,0,0,1-.324-1.488c0-.451,0-1.111,0-2.024,0-.549,0-1.138,0-1.762A19.161,19.161,0,0,1,68,118.867a12.847,12.847,0,0,1-3.213,3.474,8.014,8.014,0,0,1-2.517,1.141A9.464,9.464,0,0,1,59.923,123.767Zm-5.431-1.51a17.836,17.836,0,0,0,4.961.918,9.111,9.111,0,0,0,2.676-.256,7.418,7.418,0,0,0,2.327-1.055,12.253,12.253,0,0,0,3.06-3.315,20.542,20.542,0,0,0,2.281-5.039l.367-1.171-.323-.693a3.087,3.087,0,0,0-.5-.726l-.717-.8a11.194,11.194,0,0,0-.8-.8,2.385,2.385,0,0,0-1.211-.651,4.426,4.426,0,0,0-1.693.142c-.616.164-1.375.339-2.249.518a25.362,25.362,0,0,0-2.466.632l-.018,0q-.648.158-1.165.287a3.754,3.754,0,0,0-.8.286.746.746,0,0,0-.346.308.607.607,0,0,0,.051.439,5.024,5.024,0,0,0,1.814,2.371,4.409,4.409,0,0,0,2.911.377l.486-.068-.174.459a21.29,21.29,0,0,1-.949,2.152,10.684,10.684,0,0,1-1.1,1.751,4.538,4.538,0,0,1-1.262,1.139,1.921,1.921,0,0,1-1.436.24,2.19,2.19,0,0,1-1.388-1.287,7.916,7.916,0,0,1-.706-2.465,16.364,16.364,0,0,1-.1-3.145,17.734,17.734,0,0,1,.521-3.36,28.388,28.388,0,0,1,1.181-3.968,26.406,26.406,0,0,1,1.553-3.406,10.294,10.294,0,0,1,1.7-2.352,2.033,2.033,0,0,1,1.773-.76.953.953,0,0,1,.706.67c.1.283.22.635.346,1.045l.008.031c.041.217.083.434.125.651s.077.47.1.717v.026a4.529,4.529,0,0,0,.041.633,4.209,4.209,0,0,0,.131.592l.008.029a3.888,3.888,0,0,0,1.37,2.41,5.805,5.805,0,0,0,3.315.981,1.555,1.555,0,0,0,.929-.183.729.729,0,0,0,.164-.213l.594-1.073-.057,1.385c-.049,1.256-.088,2.551-.117,3.849h0c-.007.344-.014.68-.02,1.012l-.02,1.086-.011.986c0,.173,0,.344-.005.512-.01,1.09-.013,2.1-.012,3,0,.914,0,1.576,0,2.024a2.576,2.576,0,0,0,.249,1.2,1.707,1.707,0,0,0,.8.671,4.453,4.453,0,0,0,1.268.319c.467.046,1.014.12,1.623.221.606.075.784-.013.824-.042a.877.877,0,0,0,.264-.541q.2-1.8.412-3.666c.141-1.248.307-2.569.492-3.927l.081-.59.415.427a25.324,25.324,0,0,0,2.07,1.893c.761.625,1.526,1.228,2.273,1.791s1.478,1.084,2.18,1.548,1.316.847,1.835,1.143a4.748,4.748,0,0,0,1.956.557,4.127,4.127,0,0,0,1.481-.241l.028-.009c.386-.1.715-.191.977-.268l.116-.039.19.062c.347.11.669.207.958.29a1.824,1.824,0,0,0,.975.069c.16-.057.3-.239.407-.541.234-.7.483-1.434.757-2.233.265-.772.582-1.613.942-2.5l.049-.12.121-.044a38.526,38.526,0,0,1,4.279-1.237c1.579-.37,3.212-.746,4.855-1.117l.3-.068.05.3c.146.889.287,1.717.42,2.459s.272,1.436.415,2.052a2.259,2.259,0,0,0,.478,1.1,2.047,2.047,0,0,0,1.009.416l.014,0a5.455,5.455,0,0,0,1.43.17c.475-.01,1-.041,1.562-.091.686-.062.855-.194.89-.234a.888.888,0,0,0,.1-.624c-.191-1.878-.382-3.941-.568-6.129s-.36-4.422-.512-6.6-.278-4.32-.371-6.334c-.034-.73-.062-1.445-.086-2.123l-.049-1.457.6,1.327c.459,1.01.933,2.045,1.408,3.076q.988,2.147,1.975,4.278c.662,1.429,1.286,2.789,1.855,4.042l.031.069-.006.075c-.125,1.52-.2,2.919-.219,4.159s-.065,2.354-.133,3.312a2.219,2.219,0,0,0,.235,1.119,2.346,2.346,0,0,0,.9.7c.481.148,1.014.289,1.584.42s1.142.243,1.666.325c.715.1.924.021.971-.005s.164-.126.242-.615c.129-1.156.268-2.375.426-3.727.15-1.29.348-2.7.586-4.19l.008-.052.027-.046c.83-1.45,1.7-3,2.6-4.6s1.744-3.174,2.525-4.661,1.5-2.9,2.119-4.191a30.848,30.848,0,0,0,1.368-3.207c.118-.355.211-.662.273-.913a1.609,1.609,0,0,0,.046-.606,1.251,1.251,0,0,0-.195-.507,3.85,3.85,0,0,0-.471-.573c-.371-.29-.822-.62-1.338-.983a7.39,7.39,0,0,0-1.525-.835,2.452,2.452,0,0,0-1.289-.185c-.2.033-.485.146-.641.743l-.016.045c-.948,2.123-1.917,4.25-2.878,6.325s-1.96,4.127-2.968,6.108l-.286.561-.241-.581c-.743-1.785-1.479-3.535-2.19-5.2-.692-1.619-1.355-3.077-1.97-4.333a7.471,7.471,0,0,0-1.057-1.4,2.387,2.387,0,0,0-1.335-.533,6.643,6.643,0,0,0-1.857-.008c-.6.086-1.245.183-1.923.288-.646.189-.77.36-.792.408a.388.388,0,0,0,0,.208l.078.418-.418-.079c-.28-.053-.552-.108-.807-.163-.5-.107-1.047-.2-1.626-.278s-1.231-.135-1.929-.17-1.5-.034-2.392,0h-.01a3.265,3.265,0,0,0-2.108.568,4.055,4.055,0,0,0-1.075,1.458c-.766,1.713-1.571,3.691-2.394,5.882-.357.953-.719,1.934-1.1,3l-.669,1.848.106-1.963a6.6,6.6,0,0,0-.29-2.158,11.348,11.348,0,0,0-1.729-3.276,20.579,20.579,0,0,0-2.289-2.45,5.9,5.9,0,0,0-3.355-1.353,12.009,12.009,0,0,0-3.973.423,21.913,21.913,0,0,0-4.2,1.637c-1.407.715-2.776,1.448-4.072,2.179a2.059,2.059,0,0,0-.592,1.082,14.52,14.52,0,0,0-.5,2.382c-.065.477-.126.991-.181,1.529l-.579-.011v-.009c-.04-.558-.091-1.067-.152-1.517a8.312,8.312,0,0,0-.806-2.221A4.916,4.916,0,0,0,67.7,95.752a8.436,8.436,0,0,0-1.371-.761,11.383,11.383,0,0,0-1.6-.566,17.522,17.522,0,0,0-1.745-.381,12.672,12.672,0,0,0-1.731-.168h-.014a7.637,7.637,0,0,0-1.243.016,10.017,10.017,0,0,0-1.348.218,6.163,6.163,0,0,0-1.3.466,4.714,4.714,0,0,0-1.145.789,16.155,16.155,0,0,0-2.963,3.494,23.975,23.975,0,0,0-2.136,4.267,25.119,25.119,0,0,0-1.272,4.6,24.319,24.319,0,0,0-.375,4.567,17.729,17.729,0,0,0,.536,4.14,10,10,0,0,0,1.451,3.266l.01.014a5.92,5.92,0,0,0,1.352,1.5A7.4,7.4,0,0,0,54.492,122.257ZM62.5,99.524a1.75,1.75,0,0,0-1.112.619,9.692,9.692,0,0,0-1.6,2.219,25.845,25.845,0,0,0-1.518,3.33,27.965,27.965,0,0,0-1.158,3.891l0,.01a17.145,17.145,0,0,0-.5,3.254,15.762,15.762,0,0,0,.094,3.033,7.353,7.353,0,0,0,.65,2.283,1.658,1.658,0,0,0,1,.982,1.347,1.347,0,0,0,1.012-.179,3.983,3.983,0,0,0,1.1-1,10.124,10.124,0,0,0,1.042-1.656c.264-.515.515-1.067.748-1.647a4.6,4.6,0,0,1-2.807-.511,5.582,5.582,0,0,1-2.048-2.641,1.108,1.108,0,0,1-.039-.918,1.3,1.3,0,0,1,.6-.571,4.272,4.272,0,0,1,.929-.334q.515-.128,1.16-.286a25.847,25.847,0,0,1,2.513-.643c.863-.176,1.611-.349,2.223-.512a5,5,0,0,1,1.932-.152,2.945,2.945,0,0,1,1.507.8c.292.264.574.548.837.839l.718.8.057.066,0-.094h0c.025-1.12.057-2.238.1-3.33a2.857,2.857,0,0,1-1.033.16h-.018a6.364,6.364,0,0,1-3.656-1.106,4.454,4.454,0,0,1-1.577-2.743,4.772,4.772,0,0,1-.145-.661,4.991,4.991,0,0,1-.047-.7c-.02-.223-.05-.44-.09-.645s-.082-.424-.122-.636c-.121-.393-.232-.729-.331-1-.087-.238-.2-.286-.276-.3A.683.683,0,0,0,62.5,99.524Zm25.344,16.6-.346-.281c-.42-.34-.813-.662-1.2-.986-.691-.577-1.375-1.164-2.034-1.744s-1.274-1.141-1.83-1.665l-.287-.272.345-.193a35.745,35.745,0,0,0,5.958-4.084,13.085,13.085,0,0,0,2.71-3.137l.524.244-.089.253c-.087.249-.175.5-.261.748h0c-.777,2.249-1.5,4.451-2.157,6.547-.474,1.517-.883,2.91-1.216,4.139ZM83.118,111.3c.473.441.985.9,1.527,1.382.655.577,1.335,1.16,2.023,1.733.278.232.558.463.848.7.312-1.127.683-2.379,1.1-3.73.572-1.833,1.2-3.748,1.867-5.7a15.664,15.664,0,0,1-1.66,1.66A35.758,35.758,0,0,1,83.118,111.3Zm13-2.422.2-.522c.84-2.168,1.692-4.293,2.533-6.314s1.636-3.895,2.367-5.568l.479-1.1.077,1.195c.112,1.741.262,3.524.444,5.3s.376,3.571.581,5.361l.032.277-.275.043c-.991.155-1.99.334-2.97.532h0c-.978.2-1.962.42-2.926.659Zm5.16-11.079c-.6,1.38-1.228,2.877-1.888,4.466-.772,1.855-1.553,3.8-2.326,5.781.8-.191,1.6-.37,2.408-.533h0c.9-.181,1.812-.346,2.721-.492-.194-1.7-.379-3.413-.551-5.091C101.5,100.549,101.381,99.164,101.281,97.8ZM77.044,108.087l.1-.542c.286-1.486.538-2.888.75-4.168.215-1.3.45-2.545.7-3.688l.027-.123.108-.064a10.531,10.531,0,0,1,2.422-1.1,11.271,11.271,0,0,1,2.139-.43c1.413-.127,2.321.163,2.7.862l.009.017a2.363,2.363,0,0,1-.182,1.837,8.859,8.859,0,0,1-1.565,2.388,18.648,18.648,0,0,1-2.783,2.54h0a19.151,19.151,0,0,1-3.918,2.255Zm2.094-8.152c-.237,1.1-.462,2.289-.667,3.536-.186,1.125-.4,2.345-.647,3.634a18.083,18.083,0,0,0,3.292-1.956h0a18.115,18.115,0,0,0,2.7-2.459,8.307,8.307,0,0,0,1.465-2.226,1.96,1.96,0,0,0,.2-1.368c-.261-.469-.977-.654-2.13-.55a10.609,10.609,0,0,0-2.026.409A9.8,9.8,0,0,0,79.137,99.936Z" transform="translate(-48.867 -87.455)" fill="#6140ff"/>
      </g>
    </g>
  </g>
</svg>
