<svg xmlns="http://www.w3.org/2000/svg" width="257.776" height="141.847" viewBox="0 0 257.776 141.847">
  <g id="Grupo_1124" data-name="Grupo 1124" transform="translate(-175 -778.793)">
    <g id="Grupo_1089" data-name="Grupo 1089" transform="translate(175 778.793)">
      <g id="Grupo_1069" data-name="Grupo 1069" transform="translate(0 0)">
        <g id="Grupo_1067" data-name="Grupo 1067" transform="translate(0 28.136)">
          <path id="Trazado_2538" data-name="Trazado 2538" d="M266.894,177.686a46.6,46.6,0,0,0-.519-4.708,7.477,7.477,0,0,1-.1,2.437,1.47,1.47,0,0,1-.346.538c-.008.007-.012.015-.02.022l-.015.011a6.359,6.359,0,0,1-3.18,1.09c-.247.03-.5.052-.742.08-1.883.2-4.459.416-7.715.583-.3.016-.6.031-.9.045L253,177.8q-2.235.1-4.471.153l-.483.01q-1.964.042-3.929.052c-.386,0-.783,0-1.179,0q-1.6,0-3.194-.018-.864-.01-1.756-.027-1.492-.027-2.984-.069c-.5-.015-1.007-.029-1.522-.046q-1.5-.051-3.005-.117-1.218-.052-2.479-.117-.925-.046-1.851-.1c-1.014-.057-2.042-.118-3.094-.188l-.083-.006q-6.612-.435-14.227-1.214-1.349-.141-2.7-.29c-.649-.072-1.307-.148-1.966-.225q-1.691-.2-3.381-.4c-.376-.046-.76-.1-1.14-.144q-1.782-.227-3.563-.465l-.649-.087q-2.042-.28-4.08-.576l-1-.146q-2.035-.3-4.07-.617l-.767-.122q-1.728-.273-3.455-.559l-1.184-.2q-1.978-.332-3.954-.679l-1.132-.2q-1.556-.278-3.112-.565l-1.342-.249q-2.023-.379-4.042-.772l-.705-.14q-1.774-.349-3.545-.71-.642-.13-1.289-.264-1.634-.337-3.267-.683l-.912-.193q-4.454-.952-8.893-1.976l-.775-.179q-4.407-1.021-8.8-2.1c-.088-.021-.174-.042-.262-.064q-4.452-1.1-8.887-2.271l-.853-.226q-4.206-1.11-8.4-2.277l-.779-.216q-3.831-1.07-7.649-2.185c-.7-.2-1.395-.407-2.1-.614q-3.236-.952-6.462-1.938-1.526-.467-3.067-.944-3.228-1-6.447-2.033l-1.641-.528q-4.1-1.329-8.172-2.709l-.106-.036q-3.266-1.11-6.52-2.263l-.925-.33q-3.074-1.095-6.132-2.233c-.314-.117-.619-.232-.93-.349-.651-.244-1.3-.5-1.947-.748l0,.012q-2.082-.793-4.055-1.57c-.044-.018-.088-.034-.131-.051l-.508-.2c-.047-.018-.093-.038-.139-.056q-3.318-1.314-6.343-2.582l-.035-.015-.282-.119-.081-.035q-2.168-.913-4.188-1.8l-.012-.006-.033-.015-.356-.156-.316-.139c-.055-.024-.109-.049-.165-.074-1.349-.6-2.654-1.188-3.9-1.769l-.065-.029c-.287-.133-.567-.265-.85-.4l-.058-.029q-2.023-.948-3.877-1.863c-.056-.028-.113-.054-.168-.081l-.344-.172c-1.571-.781-3.048-1.541-4.444-2.282l-.051-.026-.259-.138-.007,0a116.008,116.008,0,0,1-11.988-7.254l-.034-.024-.1-.07-.085-.062q-.743-.526-1.418-1.029l-.039-.028c-.133-.1-.259-.2-.387-.292L23,119.233q-.606-.462-1.157-.9L21.8,118.3l-.048-.039-.14-.113c-.1-.076-.193-.154-.286-.23l-.054-.045c-.437-.358-.842-.7-1.224-1.037l-.027-.024-.115-.1-.128-.113-.033-.028-.012-.012q-.807-.721-1.45-1.362l-.013-.013-.02-.019-.039-.04q-.315-.317-.6-.612l-.007-.007-.027-.029-.277-.3h0v0c-.113-.124-.22-.244-.325-.362l-.026-.029-.012-.015c-.148-.17-.285-.332-.414-.489l0,0,0,0q-.2-.244-.371-.466l-.027-.034-.043-.057c-.036-.047-.071-.093-.1-.139l-.038-.051-.006-.009a11.454,11.454,0,0,1-.856-1.321h0a.426.426,0,0,1-.047-.15l.457,4.087a.426.426,0,0,0,.047.15c.062.115.136.243.221.384l0,.006.006.009c.128.21.285.448.474.715l.055.076c.15.209.319.432.512.674l0,.006v0c.276.345.6.724.976,1.133.077.085.155.168.234.253.247.264.519.541.811.83q.248.244.5.483c.249.237.511.48.792.731.107.1.212.19.32.283q.47.414,1,.851l.076.065.042.034c.649.537,1.361,1.1,2.147,1.69.117.088.234.173.35.259q.812.6,1.724,1.239c.262,3.347.3,6.972-.483,8.812-1.005,2.37,4.536.475,9.15-3.415.161.091.328.184.492.275s.33.185.5.276q1.6.889,3.381,1.819c.273.143.545.285.819.427q1.639.846,3.429,1.726l.656.32q1.752.854,3.649,1.736l.136.065.061.027q2.763,1.282,5.842,2.622c.183.08.366.157.548.237,1.734.749,3.537,1.51,5.429,2.286.32.131.641.261.961.391q2.508,1.019,5.2,2.069c.211.082.422.166.633.247q2.783,1.078,5.776,2.184c.08.029.159.061.239.091s.139.048.209.074q3.794,1.4,7.927,2.845c.279.1.558.2.838.293q3.617,1.257,7.5,2.547l1.362.45q3.61,1.189,7.457,2.4c.408.129.814.256,1.222.384.445.139.882.279,1.331.418q3.292,1.026,6.524,2c.058.018.116.037.174.054l.076.022.213.065q4.547,1.366,8.965,2.63l.674.191q4.38,1.25,8.631,2.4l.932.253q4.627,1.247,9.11,2.39l.134.033q4.656,1.184,9.146,2.248c.129.031.257.065.386.1.22.053.44.1.66.154q1.715.406,3.406.794l.994.23q2.144.49,4.248.953c.438.1.877.191,1.315.286q1.546.337,3.074.663c.5.106,1,.212,1.5.317q1.956.411,3.878.8l.961.193q1.819.364,3.606.71l1.38.264q1.917.366,3.8.712l.48.089c1.445.263,2.867.513,4.279.758l1.051.182c1.452.248,2.891.49,4.307.72l.084.013.284.045q2.016.325,3.981.624l1.033.158q1.978.3,3.907.572c.483.068.967.135,1.45.2q1.592.221,3.15.426,1.044.138,2.088.269,1.25.158,2.476.307t2.45.289q1.306.15,2.585.289c.627.067,1.253.136,1.88.2,1.1.113,2.182.22,3.251.322.5.047.995.1,1.491.14,1.244.115,2.459.218,3.659.317.376.03.751.062,1.127.091,1.361.108,2.69.2,3.993.291.188.014.374.029.562.042l.421.025q2.141.138,4.178.245l.879.044q2.09.1,4.068.175l.631.024q2.377.082,4.581.122l.3.006q2.461.044,4.71.045h.1l.658,0,.763,0a168.387,168.387,0,0,0,17.62-.846l.341-.035.331-.035.1-.012.093-.01.051-.008a5.768,5.768,0,0,0,3.126-1.08l.018-.015.006,0,.014-.017a1.024,1.024,0,0,0,.34-.5l.006-.03A4.225,4.225,0,0,0,266.894,177.686Z" transform="translate(-12.067 -81.251)" fill="#1d9e9e"/>
          <path id="Trazado_2539" data-name="Trazado 2539" d="M162.859,187.911c.012-.285.019-.569.024-.854a6.313,6.313,0,0,0,.577-.57,7.3,7.3,0,0,0,.584-.742,4.874,4.874,0,0,0,.752-1.636,4.321,4.321,0,0,1-1.441.767c-.173.055-.347.091-.521.13a18.541,18.541,0,0,0-.875-4.767,18.16,18.16,0,0,1-.062,4.894s-.012,0-.018,0l.014.033c-.036.266-.066.532-.111.8-.134.766-.3,1.523-.5,2.273l-.228.686c-.134.4-3.511,9.767-24.357,4.364l-.086-.02c-8.128-1.594-17.011-3.668-20.7-4.963.877-.484,1.734-1,2.577-1.535a9.951,9.951,0,0,0,1.227.323,11.247,11.247,0,0,0,1.4.177,7.511,7.511,0,0,0,2.694-.282,6.824,6.824,0,0,1-2.281-1.018,9.649,9.649,0,0,1-.875-.674,28.926,28.926,0,0,0,5.664-5.289,28.485,28.485,0,0,1-6.531,4.424l0,0-.006.008c-.287.146-.569.3-.86.442q-2,.943-4.071,1.69c-1.066.383-2.162.722-3.238,1.015-3.589.843-14.366,2.434-20.425-6.857l-.538-.827-.97.181c-2.845.53-10.891,1.334-13.9-1.269a3.055,3.055,0,0,1-1.085-2.132c-.079-.729-.082-.931-.163-1.878l-1.006-.245c-.088-.02-8.8-2.087-12.216-9.3-1.836-3.873-1.857-8.566-.081-14q.443-1.356,1.037-2.772c.363-.867.764-1.749,1.211-2.649l.127-.257.024-.284c.007-.1.855-9.933,6.618-10.222l.217-.011c.989.792,1.989,1.571,3.011,2.318,1.165.847,2.354,1.661,3.588,2.384a2.983,2.983,0,0,0-.226.437,4,4,0,0,0,.19,3.131c.048-.524.093-1.02.162-1.5a6.058,6.058,0,0,1,.336-1.36,3.026,3.026,0,0,1,.729-1.1,4.773,4.773,0,0,1,1.232-.77,2.4,2.4,0,0,0-1.573.305,2.475,2.475,0,0,0-.779.755c-1.026-.984-1.984-2.026-2.9-3.1-.887-1.039-1.74-2.106-2.575-3.184.026-2.046.678-17.977,14.54-19.518l1.087-.122c.621.162,1.244.34,1.854.536a31.764,31.764,0,0,1,3.3,1.272,24.189,24.189,0,0,1,3.106,1.724,15.438,15.438,0,0,1,2.7,2.348,15.706,15.706,0,0,0-2.357-2.782,25.1,25.1,0,0,0-2.913-2.26,33.2,33.2,0,0,0-3.211-1.841c-.747-.372-1.491-.716-2.266-1.038.028-1.868.464-7.684,4.618-11.793,3.493-3.456,8.819-4.959,15.813-4.48l.585.036.45-.365c.069-.055,6.7-5.265,20.1-4.6-.843,1.235-1.669,2.479-2.461,3.748a51.333,51.333,0,0,0-3.388,6.2,3.343,3.343,0,0,0-.614-.228,4.465,4.465,0,0,0-1.87-.006,4.6,4.6,0,0,0-1.686.674c.6-.053,1.18-.094,1.746-.1a6.741,6.741,0,0,1,1.637.154,3.453,3.453,0,0,1,1.4.685,5.192,5.192,0,0,1,1.052,1.324,2.868,2.868,0,0,0-.639-1.727,2.906,2.906,0,0,0-1.023-.773,51.047,51.047,0,0,1,4.278-5.545c1.262-1.451,2.576-2.865,3.908-4.243l.084.007.464-.376a15.709,15.709,0,0,1,18.865-.016,36.728,36.728,0,0,0-3.681,1.777,30.66,30.66,0,0,0-5.291,3.695,21.553,21.553,0,0,0-4.2,4.945,17,17,0,0,0-2.11,5.4,13.642,13.642,0,0,0-4.06-.42,10.166,10.166,0,0,0-4.623,1.331,9.585,9.585,0,0,0-3.367,3.385,15.056,15.056,0,0,0-1.7,4.23,30.354,30.354,0,0,0-3.9,2.152,27.092,27.092,0,0,0-3.636,2.808,17.838,17.838,0,0,0-2.965,3.493,13.568,13.568,0,0,0-1.05,2.035,11.721,11.721,0,0,0-.622,2.2,11.529,11.529,0,0,1,1.8-4.148,17.627,17.627,0,0,1,3.042-3.349,26.756,26.756,0,0,1,3.674-2.646,29.774,29.774,0,0,1,4.026-2.042l.139-.057.043-.15a14.518,14.518,0,0,1,1.807-4.1,8.714,8.714,0,0,1,3.174-2.968,9.123,9.123,0,0,1,4.192-1.033,12.422,12.422,0,0,1,4.284.706l.724.261.154-.761a15.6,15.6,0,0,1,2.27-5.5,19.913,19.913,0,0,1,4.045-4.419,28.77,28.77,0,0,1,5.087-3.284,32.482,32.482,0,0,1,5.068-2.075l.347-.07c.075-.015,7.391-1.379,8.758,2.041l.477,1.195,1.249-.309c.1-.024,9.788-2.275,12.246,2.215l.482.879,1-.124c.513-.062,12.659-1.452,14.4,8.281l.031.172c-1.4.918-2.784,1.852-4.139,2.83a51.459,51.459,0,0,0-5.488,4.471,50.862,50.862,0,0,1,6.066-3.524c1.944-.983,3.931-1.9,5.916-2.763a10.1,10.1,0,0,1,6.294,2.328c2.746,2.327,4.269,6.251,4.527,11.664l.036.772.656.411a16.113,16.113,0,0,1,6.5,10.322,17.764,17.764,0,0,1,.007,5.7q-.084.563-.2,1.131c-.022.107-.043.213-.066.32-.1.442-.208.887-.335,1.335-4.486-1.964-9.593-4.016-14.1-5.752q-7.105-2.746-14.322-5.2c-4.8-1.661-9.638-3.21-14.483-4.728s-9.725-2.932-14.6-4.351l-.477-.139-.412.308-13.015,9.74q-6.506,4.875-12.979,9.789l-1.883,1.433,2.341.511a16.475,16.475,0,0,1,5.421,2.288,11.31,11.31,0,0,1,3.9,4.215,9.611,9.611,0,0,1,.949,2.71,11.756,11.756,0,0,1,.219,2.919,19.761,19.761,0,0,1-1.226,5.9l-.533,1.482,1.573-.194a31.526,31.526,0,0,1,6.1-.107A25.963,25.963,0,0,1,150.363,163a17.132,17.132,0,0,1,5.314,2.809,14.1,14.1,0,0,1,3.79,4.622l.241.463.494-.117a8.63,8.63,0,0,1,2.148-.206,6.512,6.512,0,0,1,2.1.392,4.238,4.238,0,0,1,1.688,1.172,5.125,5.125,0,0,1,1,1.863l.11.3.256.036s11.813,5.024,14.611,5.833A23.837,23.837,0,0,1,162.859,187.911Z" transform="translate(-6.545 -84.194)" fill="#8066fc"/>
          <path id="Trazado_2540" data-name="Trazado 2540" d="M75.7,131.957s-.179-19.42,15.857-21.2a19.874,19.874,0,0,1,.6-5.415c-27.96-4.485-45.383-4.846-50.959-4.822a5.772,5.772,0,0,0-3,.756c-1.731,1.222-5.027,3.593-6.577,5.627a2.5,2.5,0,0,1-1.411.646c-5.054,1-10.938,2.839-13.745,3.69-1.061.323-1.617.828-1.391,1.256,1.561,2.882,10.076,14.2,52.678,30.425C68.062,140.564,69.584,132.262,75.7,131.957Z" transform="translate(-12.068 -82.547)" fill="#00c691"/>
          <path id="Trazado_2541" data-name="Trazado 2541" d="M89.052,110.467s-.031-.535.012-1.413c-26.542-4.375-44.595-6.089-44.595-6.089a8.366,8.366,0,0,0-5.544.914,23.758,23.758,0,0,0-3.128,2.906,1.586,1.586,0,0,0,.88,2.638c11.953,2.131,25.692,5.072,40.332,8.5A15.672,15.672,0,0,1,89.052,110.467Z" transform="translate(-9.564 -82.259)" fill="#abf5f5"/>
          <path id="Trazado_2542" data-name="Trazado 2542" d="M76.371,164.075s-19.657-.378-9.013-22.193c-.144-3.345.153-7.482,2.591-8.867,3.911-2.225,8.329,5.481,20.119,9.405,11.282,3.755,23.616,2.148,31.934,1.065,1.92-.25,3.511-.513,4.612-.71,0,0,13-1.871,4.548,17.693,0,0,20.378-4.564,25.434,8.564,0,0,5.54-1.883,7.249,2.651,0,0,10.022,4.288,13.659,3.844a21.467,21.467,0,0,1-18.158,2.907s2.317,17.191-43.466.641c0,0-16.366,3.04-24.083-7.205,0,0-8.466,3.593-13.015,0C78.782,171.871,72.923,168.609,76.371,164.075Z" transform="translate(-6.019 -78.598)" fill="#6140ff"/>
          <path id="Trazado_2543" data-name="Trazado 2543" d="M86.76,109S88,97.755,102.9,98.287c0,0,8.262-6.565,18.678-6.388l-5.834,11.532s-14.8,4.382-17.812,13.9C97.936,117.332,90.662,108.948,86.76,109Z" transform="translate(-3.244 -83.607)" fill="#a795ff"/>
          <path id="Trazado_2544" data-name="Trazado 2544" d="M117.718,101.535S126.86,83.619,140.3,89.872c0,0-11.418,4.717-13.241,14.373C127.058,104.246,122.1,101.487,117.718,101.535Z" transform="translate(0.565 -84.019)" fill="#a795ff"/>
          <path id="Trazado_2545" data-name="Trazado 2545" d="M161.828,122.55q-3.47-1.043-7.112-2.1-4.1-1.189-8.07-2.291l-25.952,19.585s16,2.965,9.97,19.434c0,0,16.321-2.291,21.91,9.151,0,0,6.143-1.494,7.533,3.732,53.371,9.674,80.76,7.247,89.608,6.14,1.861-.233,3.39-.907,3.554-1.628C254.388,169.594,252.19,149.717,161.828,122.55Z" transform="translate(0.931 -80.376)" fill="#01e0a4"/>
          <path id="Trazado_2546" data-name="Trazado 2546" d="M146.139,121.225q-1.781-.462-3.554-.911l-14.926,11.264C188.1,147.94,244.336,165.4,244.336,165.4,231.562,149.434,181.825,130.5,146.139,121.225Z" transform="translate(1.787 -80.111)" fill="#abf5f5"/>
          <path id="Trazado_2547" data-name="Trazado 2547" d="M168.378,123.87c-2.905-.951-5.116-1.564-5.649-1.724q-3.47-1.043-7.112-2.1-4.1-1.188-8.069-2.29L121.6,137.34s16,2.966,9.97,19.435a8.673,8.673,0,0,1,6.483-.039C145.549,140.113,157.059,127.6,168.378,123.87Z" transform="translate(1.042 -80.426)" opacity="0.29"/>
          <path id="Trazado_2548" data-name="Trazado 2548" d="M106.051,127.965s2.221-10.182,11.488-10.812c0,0,3.325-12.925,13.88-8.331,0,0,10.315-22.813,25.192-13.017,0,0,11.621-4.565,12.508,3.064,0,0,13.2-2.353,15.382,5.566l-9,6.2S156.631,99.7,106.051,127.965Z" transform="translate(-0.871 -83.427)" fill="#a795ff"/>
          <path id="Trazado_2549" data-name="Trazado 2549" d="M169.7,112.307l11.995-5.788s8.321,1.815,8.854,13.712c0,0,7.113,4.721,6.4,15.6C196.95,135.83,182.864,113.487,169.7,112.307Z" transform="translate(6.958 -81.808)" fill="#a795ff"/>
          <path id="Trazado_2550" data-name="Trazado 2550" d="M270.166,181.094l0-.066c-.008-.359-.029-.7-.066-1.029l-.457-4.087h0c-.728-6.539-6.64-13.512-17.575-20.726-7.824-5.162-18.142-10.382-30.865-15.62l0,0a20.91,20.91,0,0,0,.075-7.215,19.139,19.139,0,0,0-7.2-11.871c-.4-5.9-2.262-10.288-5.527-13.053a13.078,13.078,0,0,0-7.958-3.021c-2.265-8.328-11.171-9.911-16.461-9.541-3.336-4.458-10.972-3.579-13.871-3.052-2.531-3.691-8.7-3.144-10.794-2.838-10.838-8.423-20.695-2.62-23.014-1.02-13.531-1.022-21.07,3.467-23,4.819-7.629-.422-13.545,1.386-17.574,5.386a17.654,17.654,0,0,0-3.936,6.049c-26.3-4.166-43.247-4.68-49.908-4.68h-.506a8.527,8.527,0,0,0-4.7,1.3,38.578,38.578,0,0,0-6.853,5.789h-.007c-4.81.951-10.354,2.641-13.332,3.55l-.694.211a4.736,4.736,0,0,0-3.275,2.576,3.39,3.39,0,0,0-.244,1.687h0l.457,4.085a3.362,3.362,0,0,0,.372,1.2,15.1,15.1,0,0,0,1.317,2q.254.332.563.7a31.152,31.152,0,0,0,2.317,2.463q.47.451,1.01.937a59.168,59.168,0,0,0,4.8,3.84c.236,4.273-.2,5.7-.348,6.058a3.564,3.564,0,0,0,3.4,5.155c2.43,0,5.942-1.836,8.749-3.878a255.019,255.019,0,0,0,29.285,13.313c-2.073,6.246-2.025,11.733.176,16.357,3.3,6.924,10.373,9.726,13.118,10.58a6.023,6.023,0,0,0,2.075,3.911c3.986,3.453,12.437,2.55,15.416,2.1,7.635,10.624,20.681,7.948,23.811,7.114,3.986,2.074,18.274,4.986,22.927,5.9A48.9,48.9,0,0,0,154,198.226c10.28,0,14.045-4.776,15.24-7,7.559.207,14.756-3.92,19.491-7.448.316.048.637.1.951.146l.193.028.154.022q1.235.184,2.452.359l.6.084.349.049c.6.085,1.205.17,1.8.252l.813.11.271.036,1.612.216,1.124.145.347.045.488.063.255.031.2.025q1.684.211,3.33.405l.079.01.093.011c1.149.135,2.276.261,3.394.382l.831.09.064.007q1.386.148,2.744.284l.247.025.356.036q1.607.157,3.166.3l.107.01.146.014.347.03.265.022c.63.055,1.257.109,1.875.161l.942.076q.921.074,1.824.143l.287.021.563.042q1.1.081,2.169.152l.172.012.232.016c.838.055,1.662.106,2.477.154l.07,0,.1.006.418.024.289.016c.465.026.929.052,1.386.075l.777.038.159.008,1.287.061.915.04,1.253.051.876.031,1.222.04.217.008.3.01.208,0,.157,0,.977.026.929.022.948.019.891.016.935.012h.091l.752.008.914.007h.23l.345,0h1.877l.724,0h.038l.815-.007.733-.009.779-.01.718-.013.188,0,.28-.006.165,0,.116,0,.663-.016.724-.019.638-.02.7-.022.6-.022.678-.026.581-.025.121-.006L254,188.1l.21-.01.146-.007.551-.027.621-.033.511-.028.61-.035.069,0,.4-.025.584-.037.131-.009.314-.021.051,0,.075,0,.266-.019.149-.011.086-.006.352-.026.532-.042.125-.009.257-.02.419-.035.086-.008.126-.01.244-.021.328-.029.094-.008.116-.01.274-.026.075-.007c.332-.031.633-.061.922-.09l.236-.025c.3-.03.591-.062.859-.092l.08-.009c.115-.014.224-.028.33-.043.124-.018.245-.037.364-.058l.035-.006.068-.014.063-.012.045-.009.222-.043c.1-.02.189-.044.281-.067l.052-.012.047-.011.181-.045c.051-.011.1-.024.145-.036.084-.024.163-.049.239-.076.2-.062.4-.126.583-.2.082-.027.159-.055.231-.084s.15-.064.221-.1c.1-.043.188-.084.276-.128s.174-.081.25-.12.172-.1.256-.147l.064-.037c.046-.026.09-.053.131-.08.122-.077.241-.161.354-.245.075-.056.148-.116.219-.175l.027-.02.064-.057c.1-.086.2-.179.284-.272s.181-.2.262-.3c.045-.056.089-.116.13-.175l.042-.056.067-.1a3.724,3.724,0,0,0,.222-.4,3.507,3.507,0,0,0,.186-.464c.033-.1.063-.208.088-.317.039-.173.074-.35.1-.54l.015-.088.008-.072c.012-.087.024-.184.034-.282l.006-.051c.018-.153.03-.276.04-.41s.013-.258.016-.391l0-.061c.007-.13.01-.236.01-.35Zm-235.4-47.427c-3.221,2.714-6.892,4.457-8.474,4.457-.685,0-.979-.327-.675-1.042.78-1.841.743-5.466.483-8.812-.164-.113-.329-.228-.487-.34a57.626,57.626,0,0,1-5.191-4.1q-.5-.451-.938-.87a27.722,27.722,0,0,1-2.094-2.225c-.179-.213-.34-.417-.487-.608a12.278,12.278,0,0,1-1.049-1.581.426.426,0,0,1-.047-.151l-.457-4.087a.413.413,0,0,0,.047.149c-.225-.427.33-.931,1.391-1.254,2.806-.851,8.691-2.69,13.745-3.69a2.5,2.5,0,0,0,1.411-.646c1.551-2.035,4.847-4.406,6.577-5.627a5.772,5.772,0,0,1,3-.756h.494c5.952,0,22.665.447,49,4.59h0a22.718,22.718,0,0,0-.613,4.367,16.952,16.952,0,0,0-11.989,8.3c-2.131-.44-4.263-.88-6.4-1.3l6.175,1.683a30.474,30.474,0,0,0-3.59,12.5c-6.538,1.441-7.846,10.651-8.042,12.468-.44.9-.833,1.781-1.2,2.654A241.888,241.888,0,0,1,34.767,133.667Zm133.939,54.565c.012-.285.019-.569.024-.853a6.306,6.306,0,0,0,.577-.571,7.3,7.3,0,0,0,.584-.742,4.875,4.875,0,0,0,.752-1.636,4.321,4.321,0,0,1-1.441.767c-.173.055-.347.091-.521.13a18.542,18.542,0,0,0-.875-4.767,18.159,18.159,0,0,1-.062,4.894s-.012,0-.018,0l.014.033c-.036.266-.066.532-.111.8-.134.766-.3,1.523-.5,2.273l-.228.686c-.134.4-3.511,9.767-24.357,4.364l-.086-.02c-8.128-1.594-17.011-3.668-20.7-4.963.877-.484,1.734-1,2.577-1.535a9.942,9.942,0,0,0,1.227.323,11.259,11.259,0,0,0,1.4.177,7.51,7.51,0,0,0,2.694-.282,6.825,6.825,0,0,1-2.281-1.017,9.66,9.66,0,0,1-.875-.674,28.925,28.925,0,0,0,5.664-5.289,28.483,28.483,0,0,1-6.531,4.424l0,0-.006.008c-.288.146-.569.3-.86.442q-2,.943-4.071,1.69c-1.066.383-2.162.722-3.238,1.015-3.589.843-14.366,2.434-20.425-6.857l-.538-.827-.97.181c-2.845.53-10.891,1.334-13.9-1.269A3.055,3.055,0,0,1,80.547,177c-.079-.729-.082-.931-.163-1.878l-1.006-.245c-.088-.02-8.8-2.087-12.216-9.3-1.836-3.873-1.857-8.566-.081-14q.443-1.356,1.037-2.772c.363-.867.764-1.749,1.211-2.649l.127-.257.024-.284c.007-.1.855-9.933,6.618-10.222l.217-.011c.989.792,1.989,1.571,3.011,2.318,1.165.847,2.354,1.661,3.588,2.384a2.981,2.981,0,0,0-.226.437,4,4,0,0,0,.19,3.131c.048-.524.093-1.02.162-1.5a6.057,6.057,0,0,1,.336-1.36,3.026,3.026,0,0,1,.729-1.1,4.773,4.773,0,0,1,1.232-.77,2.4,2.4,0,0,0-1.573.305,2.474,2.474,0,0,0-.779.755c-1.026-.984-1.984-2.026-2.9-3.1-.887-1.039-1.74-2.106-2.575-3.184.026-2.046.678-17.977,14.54-19.518l1.087-.122c.621.162,1.244.34,1.854.536a31.767,31.767,0,0,1,3.3,1.272,24.2,24.2,0,0,1,3.106,1.724,15.439,15.439,0,0,1,2.7,2.348,15.707,15.707,0,0,0-2.357-2.782,25.106,25.106,0,0,0-2.913-2.259,33.2,33.2,0,0,0-3.211-1.841c-.747-.372-1.491-.716-2.266-1.038.028-1.868.464-7.684,4.618-11.793,3.493-3.456,8.819-4.959,15.813-4.48l.585.036.45-.365c.068-.055,6.7-5.265,20.1-4.6-.843,1.235-1.669,2.478-2.461,3.747a51.342,51.342,0,0,0-3.388,6.2,3.346,3.346,0,0,0-.614-.228,4.466,4.466,0,0,0-1.87-.006,4.6,4.6,0,0,0-1.686.674c.6-.053,1.18-.094,1.746-.1a6.74,6.74,0,0,1,1.637.154,3.453,3.453,0,0,1,1.4.685,5.192,5.192,0,0,1,1.052,1.324,2.868,2.868,0,0,0-.639-1.727,2.9,2.9,0,0,0-1.023-.773,51.041,51.041,0,0,1,4.278-5.545c1.262-1.451,2.576-2.865,3.908-4.243l.084.007.464-.376a15.709,15.709,0,0,1,18.865-.016,36.741,36.741,0,0,0-3.681,1.777,30.661,30.661,0,0,0-5.29,3.695,21.553,21.553,0,0,0-4.2,4.945,17,17,0,0,0-2.11,5.4,13.644,13.644,0,0,0-4.06-.42,10.166,10.166,0,0,0-4.623,1.331,9.585,9.585,0,0,0-3.367,3.385,15.056,15.056,0,0,0-1.7,4.23,30.353,30.353,0,0,0-3.9,2.152A27.092,27.092,0,0,0,120.1,119.9a17.837,17.837,0,0,0-2.965,3.493,13.566,13.566,0,0,0-1.05,2.035,11.721,11.721,0,0,0-.622,2.2,11.528,11.528,0,0,1,1.8-4.148,17.628,17.628,0,0,1,3.042-3.349,26.757,26.757,0,0,1,3.674-2.646,29.777,29.777,0,0,1,4.026-2.042l.139-.057.043-.15a14.517,14.517,0,0,1,1.807-4.1,8.714,8.714,0,0,1,3.174-2.968,9.123,9.123,0,0,1,4.192-1.033,12.421,12.421,0,0,1,4.284.706l.724.261.154-.761a15.6,15.6,0,0,1,2.27-5.5,19.913,19.913,0,0,1,4.045-4.419,28.769,28.769,0,0,1,5.087-3.284,32.484,32.484,0,0,1,5.068-2.075l.347-.07c.075-.015,7.391-1.379,8.758,2.041l.477,1.195,1.249-.309c.1-.024,9.788-2.275,12.246,2.215l.482.879,1-.124c.513-.062,12.659-1.452,14.4,8.281l.031.172c-1.4.917-2.784,1.852-4.139,2.83a51.461,51.461,0,0,0-5.488,4.471,50.865,50.865,0,0,1,6.067-3.524c1.944-.983,3.931-1.9,5.916-2.763a10.1,10.1,0,0,1,6.294,2.328c2.746,2.327,4.269,6.251,4.527,11.664l.036.771.656.411a16.113,16.113,0,0,1,6.5,10.322,17.765,17.765,0,0,1,.007,5.7c-.056.375-.125.752-.2,1.131-.022.107-.043.213-.066.32-.1.443-.08.438-.208.887-4.485-1.965-9.72-3.568-14.232-5.3q-7.105-2.746-14.322-5.2c-4.8-1.661-9.638-3.21-14.483-4.728s-9.725-2.932-14.6-4.351l-.477-.139-.412.308-13.015,9.74q-6.506,4.875-12.979,9.789l-1.883,1.433,2.341.511a16.476,16.476,0,0,1,5.421,2.288,11.31,11.31,0,0,1,3.9,4.215,9.611,9.611,0,0,1,.949,2.71,11.753,11.753,0,0,1,.219,2.919,19.761,19.761,0,0,1-1.226,5.9l-.533,1.482,1.573-.194a31.532,31.532,0,0,1,6.1-.107,25.967,25.967,0,0,1,5.991,1.154,17.132,17.132,0,0,1,5.314,2.809,14.1,14.1,0,0,1,3.79,4.622l.241.463.494-.117a8.628,8.628,0,0,1,2.148-.206,6.512,6.512,0,0,1,2.1.392,4.238,4.238,0,0,1,1.688,1.172,5.124,5.124,0,0,1,1,1.863l.11.3.256.036,7.428,3.261a66.04,66.04,0,0,1,6.619,3.123A23.346,23.346,0,0,1,168.706,188.232Zm98.5-6.754c0,.109,0,.219-.012.322s-.018.2-.028.291-.02.192-.034.28c0,.02,0,.044-.008.063-.021.129-.045.252-.071.365a.528.528,0,0,1-.016.056.609.609,0,0,1-.036.091.913.913,0,0,1-.052.09l-.017.025-.01.015c-.012.017-.024.035-.038.053a1.035,1.035,0,0,1-.082.093c-.031.034-.066.066-.1.1l-.007.006-.008.007c-.037.031-.074.063-.116.093s-.111.081-.172.119l-.034.02-.056.033c-.052.03-.1.061-.156.09-.038.02-.085.038-.126.058-.074.036-.149.072-.229.106-.038.017-.071.035-.111.052s-.075.024-.11.037c-.158.061-.326.116-.5.168-.044.013-.081.029-.126.043l-.073.018-.2.049c-.083.02-.163.043-.249.061l-.2.038-.071.013-.061.011c-.091.017-.184.031-.277.045l-.252.033-.063.008h0c-.261.029-.544.058-.837.089l-.229.024c-.282.029-.575.057-.885.087l-.066.007-.022,0-.381.034-.412.037-.362.031-.5.04-.375.029-.521.04c-.139.011-.285.021-.43.031l-.408.029-.123.009-.439.028c-.189.012-.377.026-.572.037l-.465.028-.6.035-.5.028-.611.031-.541.026-.353.018-.28.011-.573.025-.668.026-.591.021-.7.024-.628.019-.715.019-.654.016-.277.007-.46.008-.71.013-.768.011-.724.008c-.266,0-.537,0-.807.007l-.754,0h-1.855c-.186,0-.38,0-.568,0-.3,0-.6,0-.9-.007l-.834-.009-.925-.012-.882-.016-.939-.018-.919-.022-.967-.026-.362-.009c-.167-.006-.34-.012-.509-.017l-1.211-.04-.868-.033c-.41-.015-.824-.031-1.241-.049l-.907-.039-1.275-.061c-.309-.015-.615-.029-.928-.046l-1.375-.074-.7-.038-.17-.011q-1.211-.071-2.456-.152l-.4-.028q-1.063-.071-2.151-.15l-.843-.063c-.6-.045-1.2-.092-1.809-.14l-.934-.076q-.923-.077-1.862-.159l-.606-.052c-.082-.008-.168-.017-.252-.024q-1.548-.14-3.141-.3l-.6-.06q-1.346-.135-2.724-.282l-.888-.1c-1.11-.121-2.228-.246-3.368-.38l-.172-.021c-1.087-.127-2.192-.263-3.307-.4-.152-.019-.3-.035-.451-.055l-.829-.107-1.117-.145q-.8-.1-1.6-.213l-1.076-.146c-.592-.081-1.19-.165-1.789-.249-.316-.045-.627-.088-.943-.134-.343-.048-2.251-.418-2.6-.468-2.892-1.269-7.256-3.371-8.643-3.952l-7.877-3.189a5.584,5.584,0,0,0-1.006-2,5.152,5.152,0,0,0-2.056-1.561,7.674,7.674,0,0,0-2.47-.554,10.114,10.114,0,0,0-2.009.079,15.417,15.417,0,0,0-3.767-4.792,18.64,18.64,0,0,0-5.731-3.216,27.736,27.736,0,0,0-6.367-1.391,31.988,31.988,0,0,0-5.009-.118,20.533,20.533,0,0,0,.956-5.064,13.067,13.067,0,0,0-1.306-6.681,13.376,13.376,0,0,0-4.593-5.042,18.314,18.314,0,0,0-2.971-1.6c-.351-.147-.7-.281-1.052-.408,1.874-1.407,3.742-2.826,5.613-4.238l33.885,9.02,17.315,4.629c5.795,1.468,11.538,3.116,17.34,4.572-11.323-3.844-22.712-7.5-34.187-10.866q-4.29-1.3-8.607-2.516l-8.624-2.462q-7.435-2.062-14.889-4.064c1.131-.856,2.266-1.7,3.395-2.563l12.537-9.541,6.835,1.887,7.311,2.075c4.874,1.384,9.721,2.86,14.569,4.334q7.264,2.235,14.485,4.621c4.791,1.591,10.246,3.559,15,5.284.713.289,1.424.576,2.115.862v0c38.835,16.061,45.586,28.1,46.2,33.8l0-.036.457,4.087c.033.294.046.568.049.83,0,.02,0,.045,0,.066C267.211,181.314,267.2,181.392,267.2,181.478Z" transform="translate(-12.392 -84.515)"/>
          <path id="Trazado_2551" data-name="Trazado 2551" d="M99.086,130.074a8.148,8.148,0,0,0-1.454.555,9.5,9.5,0,0,0-1.3.856c-.094.074-.181.158-.271.236a3.574,3.574,0,0,0-.775-1.28,3.909,3.909,0,0,0-1.451-1.01A4.445,4.445,0,0,0,92.1,129.1a3.8,3.8,0,0,0-1.679.383,9.523,9.523,0,0,1,3.126.629,5.771,5.771,0,0,1,1.346.755,10.247,10.247,0,0,1,1.078.924,8.633,8.633,0,0,0-2.77,4.863,15.987,15.987,0,0,1,1.562-2.523,11.414,11.414,0,0,1,2.02-2.069,9.126,9.126,0,0,1,2.485-1.442,14.571,14.571,0,0,1,2.854-.784A7.83,7.83,0,0,0,99.086,130.074Z" transform="translate(-2.793 -79.03)"/>
          <path id="Trazado_2552" data-name="Trazado 2552" d="M236.789,165.946a42.817,42.817,0,0,1-6.607,1.1q-3.33.322-6.667.419c-4.447.156-8.889.054-13.319-.172-4.429-.252-8.848-.632-13.247-1.2a129.682,129.682,0,0,1-13.135-2.265c4.462-.22,8.89-.154,13.31-.036s8.829.308,13.231.554,8.8.512,13.2.827l6.6.435C232.359,165.753,234.559,165.893,236.789,165.946Z" transform="translate(8.695 -74.777)" fill="#abf5f5"/>
        </g>
        <g id="Grupo_1068" data-name="Grupo 1068" transform="translate(63.785 0)">
          <path id="Trazado_2553" data-name="Trazado 2553" d="M76.847,93.807a6.111,6.111,0,0,1-2.119.727,4.441,4.441,0,0,1-1.886-.108,2.613,2.613,0,0,1-1.333-.887,2.343,2.343,0,0,1-.472-1.583q.106-1.169,1.945-1.635a14.911,14.911,0,0,0,1.87-.59,2.031,2.031,0,0,0,.755-.535q1.3-1.285,1.19-1.976c-.063-.34-.421-.594-1.072-.765a8.46,8.46,0,0,0-.871-.2,4.705,4.705,0,0,1-.828-.223,6.816,6.816,0,0,1-2.576-.985,4.113,4.113,0,0,1-1.618-1.992,8.7,8.7,0,0,1-.6-2.21,6.469,6.469,0,0,1,1.2-4.567,12.685,12.685,0,0,1,1.838-2.114,9.789,9.789,0,0,1,3.454-1.8,2.825,2.825,0,0,1,1.222-.106q.573.086,1.158.192a1.372,1.372,0,0,1,1.114,1.329,1.418,1.418,0,0,1-.192.786,1.507,1.507,0,0,1-.563.573,1.224,1.224,0,0,1,.212.957,3.215,3.215,0,0,1-1.382,1.486,5.625,5.625,0,0,0-2.263,1.37q-.532.743.3,1.923a1.2,1.2,0,0,0,.638.4q.456.143,1.041.277c.389.088.807.2,1.253.329a5.3,5.3,0,0,1,1.284.579q2.168,1.363,2.091,4.666a7.124,7.124,0,0,1-2.021,4.673A9.058,9.058,0,0,1,76.847,93.807Z" transform="translate(-69.19 -57.891)"/>
          <path id="Trazado_2554" data-name="Trazado 2554" d="M84.14,70.377l.017.045c.006.015.011.021.019.018s.013,0,.02.018l.016.045.024-.009.267.3q.468.559.369,4.436a14.914,14.914,0,0,0,.769,6.087q.787,1.327,1.5-3.19.586-3.529.851-7.57c.016-.362.034-.738.054-1.126a2.965,2.965,0,0,1,.237-1.044,1.63,1.63,0,0,1,1.616-1.1,1.943,1.943,0,0,1,.612-.9,1.882,1.882,0,0,1,.885-.412,1.5,1.5,0,0,1,.9.126,1.354,1.354,0,0,1,.659.729,7.167,7.167,0,0,1,.348,2.282q.113,1.863.194,3.409t.232,3.343q.33,4.272.959,7.921a1.608,1.608,0,0,1-.162,1.409,3.275,3.275,0,0,1-1.077,1.11,2.923,2.923,0,0,1-1.386.465,1.167,1.167,0,0,1-1.244-.8q-.093-.244-.209-.48.332.738-.6,1.7l-.467.508a5.241,5.241,0,0,1-3.339,1.044,5.382,5.382,0,0,1-1.774-.353,3.186,3.186,0,0,1-1.389-1.01,12.923,12.923,0,0,1-2.2-6.635,30.9,30.9,0,0,1-.2-3.789q.017-1.887.037-2.735c.015-.565.03-.956.048-1.175s.046-.437.081-.655a4.519,4.519,0,0,1,.255-1.267l.173-.345a.233.233,0,0,1,.067-.09.391.391,0,0,0,.091-.1,1.274,1.274,0,0,1,.318-.3l.285-.185.134-.051a1.541,1.541,0,0,1,1.211-.157c.006.016.024.017.054.006l.236.089.092.04.1.063c.007.015.012.021.02.019s.015,0,.02.017l.03.015.017.044a.021.021,0,0,1,.03.013l.008.022a.06.06,0,0,0,.053,0l.009.024c.006.015.012.02.019.017a.011.011,0,0,1,.016.008c0,.008.015.016.035.025l.009.022A.065.065,0,0,0,84.14,70.377Zm6.234,14.555-.025-.067a.393.393,0,0,0,.045.186.138.138,0,0,1-.012-.1Z" transform="translate(-67.78 -58.662)"/>
          <path id="Trazado_2555" data-name="Trazado 2555" d="M99.774,83.073a1.582,1.582,0,0,1-1.115,1.51,3.625,3.625,0,0,1-2.2.33q-1.253-.175-1.354-1.084-.5-1.292-.179-6.156Q95.4,70.38,96.909,66.89a3.775,3.775,0,0,1,.761-1.227,7.159,7.159,0,0,1,.864-.668q.5-.334,1.052-.656a16.6,16.6,0,0,1,2.135-1.062,3.717,3.717,0,0,1,1.983-.271,3.047,3.047,0,0,1,1.619.752,4.138,4.138,0,0,1,1.057,1.571,7.691,7.691,0,0,1,.5,2.1,9.917,9.917,0,0,1-.064,2.381,10.286,10.286,0,0,1-.649,2.406,7.49,7.49,0,0,1-3.014,3.753l.336.327c.281.252.614.522,1,.811s.768.587,1.154.893.747.617,1.08.937a5.339,5.339,0,0,1,.8.939,1.258,1.258,0,0,1-.128,1.783q-.632.664-1.13.554a2.472,2.472,0,0,1-.445-.185,1.476,1.476,0,0,0-.582-.149,1.742,1.742,0,0,1-2.251-.126,8.1,8.1,0,0,1-1.008-1.078q-.386-.509-.652-.857a7.143,7.143,0,0,0-1.34-1.209q-.083.687-.14,1.737-.059,1.321-.184,2.758Zm.989-14.6q-.165,1.105-.22,1.537-.108.868-.241,1.914c.046.348.072.6.08.741l.232-.408.34-.291c.234-.228.447-.433.643-.619a2.688,2.688,0,0,0,.493-.627,4.5,4.5,0,0,0,.448-1.969,1.45,1.45,0,0,1-.045-.481,2.049,2.049,0,0,0-.022-.486.612.612,0,0,0-.605-.6q-.472.081-.94,1.069C100.864,68.389,100.809,68.461,100.763,68.473Z" transform="translate(-66.039 -59.03)"/>
          <path id="Trazado_2556" data-name="Trazado 2556" d="M110.751,80.041a2.121,2.121,0,0,1-1.27,1.755,2.4,2.4,0,0,1-2.052.137,1.381,1.381,0,0,1-.926-1.616q.062-1.364.4-4.4t.469-4.266q.283-3.047.321-4.02a20.693,20.693,0,0,1,.5-3.088,3.533,3.533,0,0,1,.405-.884,4.288,4.288,0,0,1,.663-.666,4.749,4.749,0,0,1,1.047-.676,7.489,7.489,0,0,1,1.174-.446q.6-.17,1.221-.322a7.86,7.86,0,0,0,1.361-.481,2.954,2.954,0,0,0,.54-.147c.157-.062.313-.115.466-.158a2.792,2.792,0,0,1,1.084-.08,1.422,1.422,0,0,1,.9.438,1.764,1.764,0,0,1,.446.907,3.4,3.4,0,0,1-.01,1.186,5.055,5.055,0,0,1-.4,1.282,4.845,4.845,0,0,1-1.853,2.129,5.289,5.289,0,0,1-1.257.521,1.142,1.142,0,0,1-.566.008.534.534,0,0,1-.2-.108c-.02-.028-.065.037-.132.193a2.068,2.068,0,0,0-.179.734,1.882,1.882,0,0,1-.109.587,4.14,4.14,0,0,0-.189.747,2.807,2.807,0,0,1-.345.947c-.161.263-.253.421-.275.473l2.018-.59a1.282,1.282,0,0,1,.888.042,1.406,1.406,0,0,1,.623.5,1.138,1.138,0,0,1,.209.674.738.738,0,0,1-.326.592,1.111,1.111,0,0,0-.39.434,2.816,2.816,0,0,0-.113.372,2.214,2.214,0,0,1-.115.359.973.973,0,0,1-.4.387,10.343,10.343,0,0,1-2.77,1.09q-.052.372-.162.888t-.226,1.068q-.32,1.678-.34,2.02c-.015.228-.025.414-.029.56A4.419,4.419,0,0,1,110.751,80.041Z" transform="translate(-64.602 -59.313)"/>
          <path id="Trazado_2557" data-name="Trazado 2557" d="M134.136,60.054l.1.021a5.371,5.371,0,0,1,1.056.767,9.269,9.269,0,0,1,.833.9,4.217,4.217,0,0,1,.611,1.041q.964,2.16-1.431,4.935a11.039,11.039,0,0,1-2.3,2.014,2.614,2.614,0,0,0,.639.327,6.6,6.6,0,0,1,.855.38,1.523,1.523,0,0,1,.743,1.1,4.191,4.191,0,0,1-.031,1.843,7.76,7.76,0,0,1-2.486,4.109,7.194,7.194,0,0,1-5.462,1.817,1.389,1.389,0,0,1-.572-.055c-.081-.046-.145-.084-.194-.113a.76.76,0,0,0-.31-.063,2.831,2.831,0,0,1-1.338.631,2.914,2.914,0,0,1-1.44-.079,2.512,2.512,0,0,1-1.162-.775,2.307,2.307,0,0,1-.505-1.483,3.245,3.245,0,0,1,.211-.979,1.664,1.664,0,0,1-.086-.521,61.4,61.4,0,0,1,1.336-6.62,24.411,24.411,0,0,1,2.942-6.926A6.245,6.245,0,0,1,129.9,59.7,5.816,5.816,0,0,1,134.136,60.054Zm-6.919,16.781a1.18,1.18,0,0,1,.485-.049,1.45,1.45,0,0,0,.486-.025,4.552,4.552,0,0,0,1.828-.907,2.334,2.334,0,0,0,.743-1.47c.018-.476-.062-.778-.239-.909a1.118,1.118,0,0,0-.707-.182,4.119,4.119,0,0,0-.968.157,5.38,5.38,0,0,1-1.03.183v.048q-.106.478-.213.838t-.2.7a13.266,13.266,0,0,0-.286,1.623Zm4.07-12.47q-.714-.076-1.512,1.158a6.129,6.129,0,0,0-.743,2.326q.494-.227.976-.4a9.074,9.074,0,0,0,.9-.369,3.451,3.451,0,0,0,1.465-1.134q.5-.632.3-1.053a2.479,2.479,0,0,0-.944-.664A.515.515,0,0,1,131.287,64.365Z" transform="translate(-62.726 -59.461)"/>
          <path id="Trazado_2558" data-name="Trazado 2558" d="M138.164,78.247a1.579,1.579,0,0,1-1.58,1.014,3.624,3.624,0,0,1-2.173-.476q-1.108-.608-.879-1.494-.007-1.385,2.027-5.816,3.039-6.649,5.694-9.37a3.787,3.787,0,0,1,1.148-.878,7.267,7.267,0,0,1,1.047-.316c.389-.088.8-.167,1.216-.238a16.387,16.387,0,0,1,2.373-.232,3.716,3.716,0,0,1,1.948.454,3.053,3.053,0,0,1,1.247,1.28,4.15,4.15,0,0,1,.428,1.844,7.683,7.683,0,0,1-.282,2.144,9.824,9.824,0,0,1-.909,2.2,10.293,10.293,0,0,1-1.462,2.017,7.5,7.5,0,0,1-4.154,2.432l.2.426q.261.5.642,1.113t.761,1.244q.379.635.675,1.26a5.347,5.347,0,0,1,.412,1.162,1.258,1.258,0,0,1-.756,1.619q-.827.4-1.252.117a2.53,2.53,0,0,1-.35-.332,1.478,1.478,0,0,0-.491-.347,1.74,1.74,0,0,1-2.057-.919,8.11,8.11,0,0,1-.559-1.367c-.118-.409-.22-.754-.3-1.033a7.218,7.218,0,0,0-.821-1.608q-.323.613-.751,1.573-.526,1.215-1.153,2.513Zm6.126-13.29q-.549.972-.754,1.358l-.907,1.7c-.081.343-.145.583-.19.722l.363-.3.421-.149c.3-.129.573-.246.822-.348a2.715,2.715,0,0,0,.684-.411,4.519,4.519,0,0,0,1.12-1.679,1.406,1.406,0,0,1,.129-.465,2.107,2.107,0,0,0,.153-.463.612.612,0,0,0-.354-.774q-.468-.094-1.259.664C144.413,64.913,144.337,64.961,144.29,64.957Z" transform="translate(-61.28 -59.341)"/>
          <path id="Trazado_2559" data-name="Trazado 2559" d="M162.333,66.039a1.922,1.922,0,0,1,.7,1.46q-1.076,2.48-2.051,4.946t-1.731,4.107q-.755,1.639-1.085,2.465t-.694,1.641l-.254.453c-.071.163-.139.312-.2.453s-.134.29-.206.451a2.271,2.271,0,0,1-1.932.322,2.838,2.838,0,0,1-1.731-1.044c-.226-.282-.164-.746.185-1.4a5.345,5.345,0,0,0,.405-1.039c.127-.435.24-.793.34-1.079l.012-.046a5.27,5.27,0,0,0-1.4.363q-.65.273-.814.344a1.027,1.027,0,0,1-.409.074,3.45,3.45,0,0,1-.435-.017,1.262,1.262,0,0,0-.633,0q-1.912,2.087-3.04,2.112a3.044,3.044,0,0,1-1.366-.215,1.5,1.5,0,0,1-.874-1.049q-.576-.869,1.268-3.7.99-1.5,2.657-3.533t3.112-3.5a30.317,30.317,0,0,1,6.392-5.025q.482-.083,1.048-.2a2.677,2.677,0,0,1,1.069-.028,3.575,3.575,0,0,1,1,.359,2.679,2.679,0,0,1,.8.63A1.141,1.141,0,0,1,162.333,66.039Zm-6.387,4.906q-.815,1.27-1.577,2.324t-1.317,1.848l1.843.363q.536-1.434,1.112-2.836t1.13-2.809Zm-1.72,4.474a4.6,4.6,0,0,0,.658.108l.006-.024c-.2-.033-.393-.06-.566-.085S154.118,75.4,154.226,75.42Z" transform="translate(-59.867 -58.988)"/>
          <path id="Trazado_2560" data-name="Trazado 2560" d="M171.906,69.663q-1.664,2.151-3.037,3.877t-2.519,3.179q-1.147,1.454-2.122,2.68t-1.84,2.352a2.755,2.755,0,0,1-2.2,1.55,4.213,4.213,0,0,1-1.819-.281,4.16,4.16,0,0,1-1.4-.747,1.153,1.153,0,0,1-.414-.846,1.768,1.768,0,0,1,.353-.971q.354-.517,1.07-1.38t1.88-2.363q1.164-1.5,2.4-3.021a53.956,53.956,0,0,1,4.555-5.169,2.363,2.363,0,0,1,.975-.594,2.946,2.946,0,0,1,.76-.077,4.443,4.443,0,0,0,.666-.025,1.289,1.289,0,0,0,.724-.5,1.317,1.317,0,0,1,1.049-.453,1.708,1.708,0,0,1,1.083.355,1.357,1.357,0,0,1,.5.99A2,2,0,0,1,171.906,69.663Z" transform="translate(-58.443 -58.549)"/>
          <path id="Trazado_2561" data-name="Trazado 2561" d="M169.6,75.94q1.147-1.2,1.807-1.837t1.226-1.12a11.5,11.5,0,0,1,1.188-.887,8.5,8.5,0,0,1,1.254-.678,3.83,3.83,0,0,1,1.22-.323,1.95,1.95,0,0,1,1.071.2,1.98,1.98,0,0,1,.82.9q-.236,2.547-.414,3.365a28.47,28.47,0,0,1-1.06,3.22q.44-.389.958-.8t1.033-.846a13.575,13.575,0,0,0,1.907-1.692,4.1,4.1,0,0,1,3.061-1.236,4.026,4.026,0,0,1,2.574.811,1.017,1.017,0,0,1,.439.678.562.562,0,0,1-.292.572.867.867,0,0,0-.413.5c-.055.194-.13.418-.223.673a3.542,3.542,0,0,1-1.221,1.55,17.9,17.9,0,0,0-1.777,1.44q-.992.893-2.063,1.919t-2.176,2.089q-1.105,1.061-2.067,1.9-2.176,1.956-2.9,1.907a5.282,5.282,0,0,1-1.477-.035,6.19,6.19,0,0,1-1.373-.7q-.529-.325-.228-1.9a15.617,15.617,0,0,1,.628-2.268,18.93,18.93,0,0,0,.822-2.754,36.468,36.468,0,0,1-2.969,2.857,7.217,7.217,0,0,1-1.015.681q-.3.141-.748.392a2.188,2.188,0,0,1-1.884.449,2.672,2.672,0,0,1-1.662-.716.716.716,0,0,1,.033-1.211A54.833,54.833,0,0,1,169.6,75.94Z" transform="translate(-57.61 -58.031)"/>
        </g>
      </g>
    </g>
  </g>
</svg>
