<svg xmlns="http://www.w3.org/2000/svg" xmlns:xlink="http://www.w3.org/1999/xlink" width="913" height="978" viewBox="0 0 913 978">
  <defs>
    <clipPath id="clip-path">
      <rect id="Rectángulo_397" data-name="Rectángulo 397" width="913" height="978" transform="translate(-6936 -14094)" fill="#fff"/>
    </clipPath>
  </defs>
  <g id="Enmascarar_grupo_19" data-name="Enmascarar grupo 19" transform="translate(6936 14094)" clip-path="url(#clip-path)">
    <g id="Grupo_862" data-name="Grupo 862" transform="translate(-7963 -14214)">
      <path id="Trazado_2173" data-name="Trazado 2173" d="M1566.6,2312.985c4.157-25.859,18.978-49.076,21.959-75.151,1.47-12.778.042-25.773,1.806-38.464,1.6-11.3,5.668-22,9.783-32.616,15.073-38.723,32.246-78.616,63.652-104.908,6.676-5.588,16.123-10.569,23.387-5.891,3.317,2.123,5.332,5.891,6.466,9.746,3.191,11-.084,22.784-.084,34.262s5.71,25.036,16.795,26.119c8.733.866,16.039-6.5,21.581-13.558,48.957-62.33,69.992-147.7,130.873-197.6,5.542-4.548,11.8-8.88,18.894-9.139,10.077-.39,18.894,7.97,22.631,17.586,3.737,9.66,3.485,20.4,3.107,30.754-1.05,27.808-2.645,55.616-3.695,83.467a2110.308,2110.308,0,0,0,4.661,240.614" transform="translate(66.161 -1172.842)" fill="#6140ff"/>
      <path id="Trazado_2175" data-name="Trazado 2175" d="M1280.993,0c-23.932,5.154-48.243,10.785-69.572,23.173C1179.763,41.582,1156.25,76.537,1156,114c-.21,37.467,26.074,74.891,61.847,81.432,32.456,5.934,64.828-12.345,97.745-11.175,29.517,1.04,56.808,17.759,77.76,39.243s36.7,47.646,53.407,72.812c7.683,11.565,19.566,24.516,32.456,20.141,5-1.689,8.943-5.8,11.8-10.4,11.378-17.932,8.565-42.145-.588-61.334-9.2-19.188-23.849-34.912-36.655-51.718-20.28-26.639-42.239-76.191-53.071-108.157" transform="translate(304.365 -92.553)" fill="#6140ff"/>
      <path id="Trazado_2176" data-name="Trazado 2176" d="M2165.165,356.6q-46.92,48.859-93.84,97.762c-27.627,28.761-56.808,60.771-61.133,101.01-1.008,9.443-.5,19.4,3.821,27.808,7.264,14.164,24.1,20.834,39.635,20.011,15.493-.823,30.021-7.84,43.792-15.16a657.783,657.783,0,0,0,73.435-45.654" transform="translate(-190.925 -294.692)" fill="#6140ff"/>
      <path id="Trazado_2177" data-name="Trazado 2177" d="M1590.664,825.607a662.421,662.421,0,0,1-84.813,40.109c-41.021,15.94-88.928,27.158-127.052,4.808-24.478-14.337-40.223-40.023-56.934-63.413-16.669-23.39-37.368-46.737-65-52.368-28.257-5.717-56.85,8.75-79.4,27.245s-41.735,41.366-66.129,57.176c-14.779,9.573-31.112,16.286-46.185,25.252-15.115,9.01-29.433,20.878-36.738,37.207s-5.878,37.814,7.012,49.9c12.6,11.781,31.49,11.781,48.453,11.132q35.08-1.429,70.2-2.815c11.588-.476,23.807-.78,34.051,4.851,15.829,8.706,22.211,30.1,18.1,48.123s-16.711,32.833-30.86,44.224-30.146,20.1-44.674,30.97c-10.917,8.143-21.665,18.8-23.3,32.616-1.385,11.695,4.073,22.957,9.531,33.309,12.344,23.563,28.131,48.9,53.449,54.88,25.822,6.064,51.014-10.482,72.637-26.249,11.42-8.317,22.925-16.676,32.666-27.028,6.634-7.017,12.344-14.9,18.81-22.091,36.151-40.413,90.985-56.569,143.721-64.582,17.047-2.6,34.681-4.5,51.392-.13,25.99,6.757,50.468,28.371,76.29,20.878" transform="translate(380.931 -519.664)" fill="#aeffd6"/>
      <path id="Trazado_2178" data-name="Trazado 2178" d="M2012.244,344.208a16.95,16.95,0,0,0-3.443,4.5,13.513,13.513,0,0,0-1.217,4.808,20.693,20.693,0,0,0,6.55,16.979,19.317,19.317,0,0,0,17.173,4.418,12.721,12.721,0,0,0,6.13-3.162c2.184-2.166,3.275-5.2,3.947-8.23,1.469-6.5,1.217-13.731-2.225-19.362C2031.978,332.47,2020.138,336.411,2012.244,344.208Z" transform="translate(-189.619 -283.47)" fill="#6140ff"/>
      <path id="Trazado_2179" data-name="Trazado 2179" d="M811.062,1058.59a11.5,11.5,0,0,0-2.393,3.119,9.066,9.066,0,0,0-.84,3.335,14.4,14.4,0,0,0,4.535,11.738,13.287,13.287,0,0,0,11.882,3.075,8.963,8.963,0,0,0,4.241-2.209,11.13,11.13,0,0,0,2.729-5.718c1.008-4.5.84-9.486-1.553-13.385C824.75,1050.447,816.562,1053.219,811.062,1058.59Z" transform="translate(506.378 -689.71)" fill="#6140ff"/>
      <path id="Trazado_2184" data-name="Trazado 2184" d="M1510.062,2319.19a11.5,11.5,0,0,0-2.393,3.118,9.062,9.062,0,0,0-.84,3.335,14.4,14.4,0,0,0,4.535,11.738,13.413,13.413,0,0,0,11.882,3.075,8.961,8.961,0,0,0,4.241-2.209,11.131,11.131,0,0,0,2.729-5.718c1.008-4.5.84-9.486-1.553-13.384C1523.708,2311.047,1515.52,2313.819,1510.062,2319.19Z" transform="translate(100.866 -1404.284)" fill="#6140ff"/>
      <path id="Trazado_2185" data-name="Trazado 2185" d="M1944.953,2146.431a5.216,5.216,0,0,0-1.176,1.559,4.527,4.527,0,0,0-.42,1.646,7.091,7.091,0,0,0,2.267,5.847,6.591,6.591,0,0,0,5.92,1.516,4.112,4.112,0,0,0,2.1-1.083,5.453,5.453,0,0,0,1.344-2.859,9.253,9.253,0,0,0-.756-6.714C1951.8,2142.359,1947.682,2143.745,1944.953,2146.431Z" transform="translate(-152.39 -1307.802)" fill="#6140ff"/>
      <path id="Trazado_2186" data-name="Trazado 2186" d="M1811.553,1794.731a5.22,5.22,0,0,0-1.176,1.56,4.526,4.526,0,0,0-.42,1.646,7.091,7.091,0,0,0,2.267,5.848,6.591,6.591,0,0,0,5.92,1.516,4.114,4.114,0,0,0,2.1-1.083,5.457,5.457,0,0,0,1.343-2.859,9.254,9.254,0,0,0-.756-6.714C1818.4,1790.659,1814.324,1792.045,1811.553,1794.731Z" transform="translate(-75.001 -1108.44)" fill="#6140ff"/>
      <path id="Trazado_2187" data-name="Trazado 2187" d="M1011.353,1770.831a5.215,5.215,0,0,0-1.176,1.559,4.531,4.531,0,0,0-.42,1.646,7.091,7.091,0,0,0,2.267,5.847,6.591,6.591,0,0,0,5.92,1.516,4.112,4.112,0,0,0,2.1-1.083,5.455,5.455,0,0,0,1.344-2.859,9.253,9.253,0,0,0-.756-6.714C1018.2,1766.759,1014.082,1768.145,1011.353,1770.831Z" transform="translate(413.221 -1089.893)" fill="#6140ff"/>
      <path id="Trazado_2188" data-name="Trazado 2188" d="M1562.253,2524.731a5.214,5.214,0,0,0-1.176,1.56,4.533,4.533,0,0,0-.42,1.646,7.09,7.09,0,0,0,2.267,5.847,6.59,6.59,0,0,0,5.92,1.516,4.112,4.112,0,0,0,2.1-1.083,5.454,5.454,0,0,0,1.344-2.859,9.254,9.254,0,0,0-.756-6.714C1569.1,2520.659,1564.982,2522.045,1562.253,2524.731Z" transform="translate(69.626 -1522.242)" fill="#6140ff"/>
      <path id="Trazado_2189" data-name="Trazado 2189" d="M1039.153,1444.489a5.216,5.216,0,0,0-1.176,1.559,4.535,4.535,0,0,0-.42,1.646,7.089,7.089,0,0,0,2.267,5.847,6.59,6.59,0,0,0,5.92,1.516,4.109,4.109,0,0,0,2.1-1.083,5.455,5.455,0,0,0,1.344-2.859,9.254,9.254,0,0,0-.756-6.714C1046,1440.374,1041.882,1441.76,1039.153,1444.489Z" transform="translate(373.093 -909.886)" fill="#6140ff"/>
      <path id="Trazado_2190" data-name="Trazado 2190" d="M2036.153,1579.531a5.226,5.226,0,0,0-1.176,1.559,4.535,4.535,0,0,0-.42,1.646,7.092,7.092,0,0,0,2.267,5.848,6.591,6.591,0,0,0,5.92,1.516,4.112,4.112,0,0,0,2.1-1.083,5.453,5.453,0,0,0,1.344-2.859,9.252,9.252,0,0,0-.756-6.714C2043,1575.459,2038.882,1576.845,2036.153,1579.531Z" transform="translate(-205.299 -986.454)" fill="#6140ff"/>
      <path id="Trazado_2191" data-name="Trazado 2191" d="M1965.053,906.331a5.217,5.217,0,0,0-1.176,1.559,4.532,4.532,0,0,0-.42,1.646,7.092,7.092,0,0,0,2.267,5.848,6.592,6.592,0,0,0,5.92,1.516,4.112,4.112,0,0,0,2.1-1.083,5.454,5.454,0,0,0,1.344-2.859,9.254,9.254,0,0,0-.756-6.714C1971.855,902.259,1967.782,903.645,1965.053,906.331Z" transform="translate(-164.051 -604.849)" fill="#6140ff"/>
      <path id="Trazado_2192" data-name="Trazado 2192" d="M1892.053,878.931a5.213,5.213,0,0,0-1.176,1.559,4.531,4.531,0,0,0-.42,1.646,7.09,7.09,0,0,0,2.267,5.847,6.59,6.59,0,0,0,5.92,1.516,4.111,4.111,0,0,0,2.1-1.083,5.454,5.454,0,0,0,1.344-2.859,9.254,9.254,0,0,0-.756-6.714C1898.9,874.859,1894.782,876.245,1892.053,878.931Z" transform="translate(-121.701 -589.317)" fill="#6140ff"/>
      <path id="Trazado_2193" data-name="Trazado 2193" d="M951.053,1131.331a5.218,5.218,0,0,0-1.176,1.559,4.533,4.533,0,0,0-.42,1.646,7.091,7.091,0,0,0,2.267,5.848,6.591,6.591,0,0,0,5.92,1.516,4.114,4.114,0,0,0,2.1-1.083,5.456,5.456,0,0,0,1.344-2.859,9.253,9.253,0,0,0-.756-6.714C957.9,1127.259,953.782,1128.645,951.053,1131.331Z" transform="translate(424.203 -732.391)" fill="#6140ff"/>
      <path id="Trazado_2194" data-name="Trazado 2194" d="M1290.553,667.112a5.22,5.22,0,0,0-1.176,1.559,4.534,4.534,0,0,0-.42,1.646,7.091,7.091,0,0,0,2.267,5.847,6.591,6.591,0,0,0,5.92,1.516,4.113,4.113,0,0,0,2.1-1.083,5.456,5.456,0,0,0,1.344-2.859,9.252,9.252,0,0,0-.756-6.714C1297.4,663.04,1293.282,664.383,1290.553,667.112Z" transform="translate(227.248 -469.239)" fill="#6140ff"/>
      <path id="Trazado_2195" data-name="Trazado 2195" d="M1070.853,894.331a5.217,5.217,0,0,0-1.176,1.559,4.532,4.532,0,0,0-.42,1.646,7.091,7.091,0,0,0,2.267,5.847,6.591,6.591,0,0,0,5.92,1.516,4.112,4.112,0,0,0,2.1-1.083,5.455,5.455,0,0,0,1.344-2.859,9.252,9.252,0,0,0-.756-6.714C1077.7,890.259,1073.582,891.645,1070.853,894.331Z" transform="translate(354.703 -598.047)" fill="#6140ff"/>
      <path id="Trazado_2196" data-name="Trazado 2196" d="M1098.553,370.731a5.225,5.225,0,0,0-1.176,1.559,4.536,4.536,0,0,0-.42,1.646,7.091,7.091,0,0,0,2.267,5.848,6.591,6.591,0,0,0,5.92,1.516,4.113,4.113,0,0,0,2.1-1.083,5.455,5.455,0,0,0,1.343-2.859,9.252,9.252,0,0,0-.756-6.714C1105.4,366.659,1101.282,368.045,1098.553,370.731Z" transform="translate(338.633 -301.243)" fill="#6140ff"/>
      <path id="Trazado_2197" data-name="Trazado 2197" d="M2051.853,497.931a5.218,5.218,0,0,0-1.175,1.559,4.511,4.511,0,0,0-.42,1.646,7.09,7.09,0,0,0,2.267,5.848,6.59,6.59,0,0,0,5.919,1.516,4.114,4.114,0,0,0,2.1-1.083,5.458,5.458,0,0,0,1.344-2.859,9.257,9.257,0,0,0-.756-6.714C2058.7,493.859,2054.583,495.245,2051.853,497.931Z" transform="translate(-214.407 -373.346)" fill="#6140ff"/>
      <path id="Trazado_2198" data-name="Trazado 2198" d="M1056.553,2524.731a5.215,5.215,0,0,0-1.176,1.56,4.533,4.533,0,0,0-.42,1.646,7.09,7.09,0,0,0,2.267,5.847,6.59,6.59,0,0,0,5.92,1.516,4.112,4.112,0,0,0,2.1-1.083,5.455,5.455,0,0,0,1.344-2.859,9.253,9.253,0,0,0-.756-6.714C1063.4,2520.659,1059.282,2522.045,1056.553,2524.731Z" transform="translate(362.999 -1522.242)" fill="#6140ff"/>
      <path id="Trazado_2199" data-name="Trazado 2199" d="M1482.653,2635.231a5.222,5.222,0,0,0-1.176,1.559,4.531,4.531,0,0,0-.42,1.646,7.089,7.089,0,0,0,2.267,5.847,6.591,6.591,0,0,0,5.92,1.516,4.114,4.114,0,0,0,2.1-1.083,5.453,5.453,0,0,0,1.344-2.859,9.252,9.252,0,0,0-.756-6.713C1489.455,2631.159,1485.382,2632.545,1482.653,2635.231Z" transform="translate(115.805 -1584.879)" fill="#6140ff"/>
      <path id="Trazado_2200" data-name="Trazado 2200" d="M1793.662,1678.648a11.5,11.5,0,0,0-2.393,3.119,9.071,9.071,0,0,0-.84,3.335,14.4,14.4,0,0,0,4.535,11.738,13.288,13.288,0,0,0,11.882,3.075,8.964,8.964,0,0,0,4.241-2.209,11.13,11.13,0,0,0,2.729-5.718c1.008-4.5.84-9.486-1.553-13.384C1807.349,1670.462,1799.12,1673.234,1793.662,1678.648Z" transform="translate(-63.659 -1041.173)" fill="#6140ff"/>
      <path id="Trazado_2201" data-name="Trazado 2201" d="M1059.187,1864.957a15.409,15.409,0,0,0-3.149,4.072,12.912,12.912,0,0,0-1.134,4.375,18.769,18.769,0,0,0,5.962,15.377,17.535,17.535,0,0,0,15.577,4.028,11.629,11.629,0,0,0,5.542-2.859,14.61,14.61,0,0,0,3.569-7.493c1.3-5.891,1.091-12.431-2.016-17.586C1077.115,1854.259,1066.367,1857.854,1059.187,1864.957Z" transform="translate(299.052 -1212.878)" fill="#6140ff"/>
      <path id="Trazado_2202" data-name="Trazado 2202" d="M1757.087,2465.8a15.406,15.406,0,0,0-3.149,4.072,12.918,12.918,0,0,0-1.134,4.375,18.771,18.771,0,0,0,5.962,15.377,17.537,17.537,0,0,0,15.577,4.028,11.629,11.629,0,0,0,5.542-2.859,14.607,14.607,0,0,0,3.569-7.493c1.3-5.891,1.092-12.431-2.015-17.586C1775.015,2455.144,1764.267,2458.739,1757.087,2465.8Z" transform="translate(-41.822 -1486.484)" fill="#fff"/>
      <path id="Trazado_2203" data-name="Trazado 2203" d="M1126.787,1405.3a15.4,15.4,0,0,0-3.149,4.072,12.919,12.919,0,0,0-1.134,4.375,18.769,18.769,0,0,0,5.962,15.377,17.535,17.535,0,0,0,15.577,4.028,11.625,11.625,0,0,0,5.542-2.859,14.609,14.609,0,0,0,3.569-7.494c1.3-5.891,1.092-12.431-2.015-17.586C1144.715,1394.644,1133.925,1398.239,1126.787,1405.3Z" transform="translate(323.835 -885.338)" fill="#6140ff"/>
      <path id="Trazado_2204" data-name="Trazado 2204" d="M1360.494,584.765c1.931-7.58,2.351-15.637,5.291-22.914a33.84,33.84,0,0,1,14.737-16.893c2.939-1.689,6.424-2.9,9.657-1.863,4.786,1.516,7.012,7.06,8.481,12.042,1.722,5.674,3.191,12.3-.084,17.2-1.89,2.816-5.081,4.5-7.054,7.277-3.191,4.461-2.645,10.569-4.283,15.853-3.443,11.089-16,16.373-27.249,16.719C1339.039,612.789,1358.185,593.817,1360.494,584.765Z" transform="translate(191.652 -400.189)" fill="#6140ff"/>
      <path id="Trazado_2206" data-name="Trazado 2206" d="M890.5,2604.754c60.755-68.351,135.743-123.188,218.415-159.615,7.809-3.465,18.306-6.151,23.681.65,1.889,2.339,2.645,5.458,2.939,8.49,1.553,15.81-8.565,30.06-18.138,42.535q-23.743,30.991-47.529,62.027c-14.654,19.145-29.475,38.42-47.487,54.187-17.047,14.944-36.739,26.552-57.144,35.995" transform="translate(458.388 -1476.566)" fill="#aeffd6"/>
      <path id="Trazado_2207" data-name="Trazado 2207" d="M2080.484,1640.27a138.275,138.275,0,0,1-93.84,5.284c-12.932-3.9-25.864-9.789-39.258-8.273-22.379,2.556-38.04,25.6-41.9,48.469-1.3,7.8-1.554,16.2,2.015,23.26s11.84,11.955,19.062,9.356c7.222-2.642,13.394-11.955,20.364-8.663,2.771,1.3,4.409,4.375,4.871,7.45,1.427,9.7-6.634,17.759-13.31,24.819a126.8,126.8,0,0,0-16.417,21.571c-4.325,7.1-8.019,14.944-8.229,23.3s3.9,17.326,11.421,20.445c3.9,1.646,8.313,1.559,12.428.78,16.165-3.162,28.341-16.849,37.7-30.8s17.551-29.411,30.776-39.5c8.02-6.151,17.467-9.919,26.788-13.644l61.72-24.689" transform="translate(-129.925 -1020.51)" fill="#6140ff"/>
      <path id="Trazado_2212" data-name="Trazado 2212" d="M1476.223,1113.8c-4.115-27.938-21.833-55.443-48.327-62.59-7.348-1.992-15.871-2.772-20.7-8.836-6.046-7.493-2.477-19.968,5.416-25.339s18.348-4.981,27.375-2.079c21.455,6.93,37.368,26.6,45.3,48.3s8.9,45.394,8.565,68.611c-.168,12.258-5.71,98.324-27.082,87.886-12.806-6.237,2.309-35.3,4.576-44.571C1476.223,1155.211,1479.288,1134.376,1476.223,1113.8Z" transform="translate(160.401 -666.696)" fill="#fff"/>
      <path id="Trazado_2213" data-name="Trazado 2213" d="M1414.356,1580.024c-8.062,5.761-10.833,18.669-4.828,26.725s20.028,7.883,24.9-.909c2.519-4.548,2.435-10.092,2.267-15.333-.042-1.819-.126-3.768-1.134-5.241a8.491,8.491,0,0,0-3.653-2.685,31.972,31.972,0,0,0-20.952-1.646" transform="translate(159.162 -988.116)" fill="#fff"/>
      <path id="Trazado_2215" data-name="Trazado 2215" d="M1866.179,1231.033c.126-7.19,1.343-14.77,6-20.141,7.935-9.14,23.6-7.364,31.7,1.646C1938.019,1250.785,1864.962,1303.889,1866.179,1231.033Z" transform="translate(-107.625 -775.524)" fill="#fff"/>
      <path id="Trazado_2216" data-name="Trazado 2216" d="M1603.579,180.833c.126-7.19,1.344-14.77,6-20.141,7.936-9.139,23.6-7.363,31.7,1.646C1675.419,200.541,1602.362,253.645,1603.579,180.833Z" transform="translate(44.717 -180.216)" fill="#fff"/>
      <path id="Trazado_2217" data-name="Trazado 2217" d="M1990.755,1194.874c-1.092,5.631-3.023,11.392-1.722,16.979,4.787,3.205,11.547.953,15.241-3.552s4.912-10.526,5.626-16.373c1.763-14.381,1.008-29.367-4.661-42.622-4.031-9.4-34.471-42.362-33.379-14.251.378,9.616,10.5,16.98,14.36,25.383A56.92,56.92,0,0,1,1990.755,1194.874Z" transform="translate(-168.927 -729.663)" fill="#fff"/>
      <path id="Trazado_2218" data-name="Trazado 2218" d="M1781.867,1335.454c4.367,7.71,10.707,13.948,16.921,20.1,2.981,2.946,6.676,6.107,10.707,5.328,4.535-.866,6.844-6.368,6.8-11.132-.084-12.561-10.371-22.567-13.184-34.782-1.931-8.36-.672-18.409-6.718-24.256a12.217,12.217,0,0,0-13.73-2.123C1768.767,1295.648,1776.031,1325.232,1781.867,1335.454Z" transform="translate(-54.551 -822.293)" fill="#fff"/>
      <path id="Trazado_2219" data-name="Trazado 2219" d="M2236.483,603.1a219.315,219.315,0,0,0-40.224,41.236c-3.862,5.154-7.683,11.175-7.053,17.672.84,8.317,9.237,14.251,17.34,14.38s15.7-4.245,22-9.529,11.757-11.608,18.348-16.5" transform="translate(-294.992 -434.421)" fill="#fff"/>
      <path id="Trazado_2220" data-name="Trazado 2220" d="M2049.759,2607.131c14.822-7.364,31.616-8.923,48.033-10.4,7.641-.693,16.081-1.169,22.211,3.682,9.111,7.234,7.81,21.354,7.684,33.223-.126,12.084,1.931,24.559-1.805,35.995-6.508,19.968-28.173,30.1-48.327,33.526-19.314,3.292-83.134,7.19-82.462-22.48C1995.638,2654.69,2028.682,2617.613,2049.759,2607.131Z" transform="translate(-182.418 -1564.273)" fill="#fff"/>
      <path id="Trazado_2221" data-name="Trazado 2221" d="M1368.153,2524.731a5.215,5.215,0,0,0-1.176,1.56,4.529,4.529,0,0,0-.42,1.646,7.091,7.091,0,0,0,2.267,5.847,6.59,6.59,0,0,0,5.92,1.516,4.11,4.11,0,0,0,2.1-1.083,5.454,5.454,0,0,0,1.344-2.859,9.254,9.254,0,0,0-.756-6.714C1374.955,2520.659,1370.882,2522.045,1368.153,2524.731Z" transform="translate(182.23 -1522.242)" fill="#fff"/>
      <path id="Trazado_2225" data-name="Trazado 2225" d="M1246.253,2643.012a5.216,5.216,0,0,0-1.176,1.56,4.532,4.532,0,0,0-.42,1.646,7.091,7.091,0,0,0,2.267,5.848,6.59,6.59,0,0,0,5.92,1.516,4.113,4.113,0,0,0,2.1-1.082,5.46,5.46,0,0,0,1.344-2.859,9.254,9.254,0,0,0-.756-6.714C1253.1,2638.94,1248.982,2640.283,1246.253,2643.012Z" transform="translate(252.948 -1589.282)" fill="#fff"/>
      <path id="Trazado_2226" data-name="Trazado 2226" d="M1098.553,2673.831a5.218,5.218,0,0,0-1.176,1.559,4.537,4.537,0,0,0-.42,1.646,7.091,7.091,0,0,0,2.267,5.847,6.591,6.591,0,0,0,5.92,1.516,4.108,4.108,0,0,0,2.1-1.083,5.454,5.454,0,0,0,1.343-2.859,9.253,9.253,0,0,0-.756-6.714C1105.4,2669.759,1101.282,2671.145,1098.553,2673.831Z" transform="translate(338.633 -1606.76)" fill="#fff"/>
      <path id="Trazado_2227" data-name="Trazado 2227" d="M1260.553,1131.331a5.216,5.216,0,0,0-1.176,1.559,4.535,4.535,0,0,0-.42,1.646,7.092,7.092,0,0,0,2.267,5.848,6.592,6.592,0,0,0,5.92,1.516,4.114,4.114,0,0,0,2.1-1.083,5.458,5.458,0,0,0,1.344-2.859,9.254,9.254,0,0,0-.756-6.714C1267.4,1127.259,1263.282,1128.645,1260.553,1131.331Z" transform="translate(244.652 -732.391)" fill="#fff"/>
      <path id="Trazado_2228" data-name="Trazado 2228" d="M1605.253,975.712a5.219,5.219,0,0,0-1.176,1.559,4.532,4.532,0,0,0-.42,1.646,7.091,7.091,0,0,0,2.267,5.847,6.591,6.591,0,0,0,5.92,1.516,4.113,4.113,0,0,0,2.1-1.083,5.454,5.454,0,0,0,1.344-2.859,9.253,9.253,0,0,0-.756-6.714C1612.1,971.64,1607.982,972.983,1605.253,975.712Z" transform="translate(44.681 -644.17)" fill="#fff"/>
      <path id="Trazado_2229" data-name="Trazado 2229" d="M2036.153,1776.731a5.227,5.227,0,0,0-1.176,1.559,4.536,4.536,0,0,0-.42,1.646,7.092,7.092,0,0,0,2.267,5.848,6.591,6.591,0,0,0,5.92,1.516,4.112,4.112,0,0,0,2.1-1.083,5.454,5.454,0,0,0,1.344-2.859,9.252,9.252,0,0,0-.756-6.714C2043,1772.659,2038.882,1774.045,2036.153,1776.731Z" transform="translate(-205.299 -1098.237)" fill="#fff"/>
      <path id="Trazado_2230" data-name="Trazado 2230" d="M2005.553,1691.431a5.215,5.215,0,0,0-1.176,1.559,4.532,4.532,0,0,0-.42,1.646,7.091,7.091,0,0,0,2.267,5.847,6.591,6.591,0,0,0,5.92,1.516,4.112,4.112,0,0,0,2.1-1.083,5.454,5.454,0,0,0,1.343-2.859,9.253,9.253,0,0,0-.756-6.714C2012.4,1687.359,2008.282,1688.745,2005.553,1691.431Z" transform="translate(-187.546 -1049.885)" fill="#fff"/>
      <path id="Trazado_2231" data-name="Trazado 2231" d="M2155.053,1765.731a5.215,5.215,0,0,0-1.176,1.559,4.527,4.527,0,0,0-.42,1.646,7.091,7.091,0,0,0,2.267,5.847,6.591,6.591,0,0,0,5.92,1.516,4.112,4.112,0,0,0,2.1-1.083,5.455,5.455,0,0,0,1.344-2.859,9.253,9.253,0,0,0-.756-6.714C2161.9,1761.659,2157.824,1763.045,2155.053,1765.731Z" transform="translate(-274.276 -1092.002)" fill="#fff"/>
      <path id="Trazado_2232" data-name="Trazado 2232" d="M2106.153,2297.531a5.22,5.22,0,0,0-1.176,1.559,4.533,4.533,0,0,0-.42,1.646,7.091,7.091,0,0,0,2.267,5.847,6.59,6.59,0,0,0,5.92,1.516,4.114,4.114,0,0,0,2.1-1.083,5.46,5.46,0,0,0,1.344-2.859,9.255,9.255,0,0,0-.756-6.714C2112.955,2293.459,2108.882,2294.845,2106.153,2297.531Z" transform="translate(-245.908 -1393.454)" fill="#fff"/>
      <path id="Trazado_2233" data-name="Trazado 2233" d="M2019.853,2455.031a5.228,5.228,0,0,0-1.176,1.56,4.527,4.527,0,0,0-.42,1.646,7.091,7.091,0,0,0,2.267,5.848,6.591,6.591,0,0,0,5.92,1.516,4.117,4.117,0,0,0,2.1-1.083,5.456,5.456,0,0,0,1.343-2.859,9.254,9.254,0,0,0-.756-6.714C2026.7,2450.959,2022.582,2452.345,2019.853,2455.031Z" transform="translate(-195.842 -1482.733)" fill="#fff"/>
      <path id="Trazado_2234" data-name="Trazado 2234" d="M2188.953,2161.289a5.206,5.206,0,0,0-1.176,1.559,4.526,4.526,0,0,0-.42,1.646,7.09,7.09,0,0,0,2.267,5.847,6.59,6.59,0,0,0,5.92,1.516,4.112,4.112,0,0,0,2.1-1.083,5.456,5.456,0,0,0,1.344-2.859,9.253,9.253,0,0,0-.756-6.714C2195.8,2157.174,2191.682,2158.56,2188.953,2161.289Z" transform="translate(-293.943 -1316.206)" fill="#fff"/>
      <path id="Trazado_2235" data-name="Trazado 2235" d="M1328.653,1636.131a5.22,5.22,0,0,0-1.176,1.559,4.534,4.534,0,0,0-.42,1.646,7.091,7.091,0,0,0,2.267,5.847,6.592,6.592,0,0,0,5.92,1.516,4.112,4.112,0,0,0,2.1-1.083,5.454,5.454,0,0,0,1.344-2.859,9.254,9.254,0,0,0-.756-6.714C1335.5,1632.059,1331.382,1633.445,1328.653,1636.131Z" transform="translate(205.145 -1018.537)" fill="#fff"/>
      <path id="Trazado_2236" data-name="Trazado 2236" d="M2140.753,1268.631a5.212,5.212,0,0,0-1.176,1.559,4.526,4.526,0,0,0-.42,1.646,7.091,7.091,0,0,0,2.267,5.848,6.592,6.592,0,0,0,5.92,1.516,4.11,4.11,0,0,0,2.1-1.083,5.456,5.456,0,0,0,1.344-2.859,9.254,9.254,0,0,0-.756-6.714C2147.6,1264.559,2143.524,1265.945,2140.753,1268.631Z" transform="translate(-265.98 -810.219)" fill="#fff"/>
      <path id="Trazado_2237" data-name="Trazado 2237" d="M1303.753,309.031a5.214,5.214,0,0,0-1.176,1.559,4.534,4.534,0,0,0-.42,1.646,7.091,7.091,0,0,0,2.267,5.848,6.591,6.591,0,0,0,5.92,1.516,4.111,4.111,0,0,0,2.1-1.083,5.453,5.453,0,0,0,1.344-2.859,9.253,9.253,0,0,0-.756-6.714C1310.6,304.959,1306.482,306.345,1303.753,309.031Z" transform="translate(219.59 -266.268)" fill="#fff"/>
      <path id="Trazado_2238" data-name="Trazado 2238" d="M1777.753,1162.231a5.215,5.215,0,0,0-1.176,1.559,4.533,4.533,0,0,0-.42,1.646,7.091,7.091,0,0,0,2.267,5.847,6.59,6.59,0,0,0,5.92,1.516,4.113,4.113,0,0,0,2.1-1.083,5.455,5.455,0,0,0,1.344-2.859,9.254,9.254,0,0,0-.756-6.714C1784.6,1158.159,1780.483,1159.545,1777.753,1162.231Z" transform="translate(-55.392 -749.906)" fill="#fff"/>
      <path id="Trazado_2239" data-name="Trazado 2239" d="M2091.853,849.531a5.218,5.218,0,0,0-1.175,1.559,4.526,4.526,0,0,0-.42,1.646,7.09,7.09,0,0,0,2.267,5.847,6.59,6.59,0,0,0,5.92,1.516,4.115,4.115,0,0,0,2.1-1.083,5.456,5.456,0,0,0,1.343-2.859,9.252,9.252,0,0,0-.756-6.714C2098.655,845.459,2094.582,846.845,2091.853,849.531Z" transform="translate(-237.612 -572.652)" fill="#fff"/>
      <path id="Trazado_2240" data-name="Trazado 2240" d="M1716.553,441.031a5.221,5.221,0,0,0-1.176,1.559,4.534,4.534,0,0,0-.42,1.646,7.091,7.091,0,0,0,2.267,5.848,6.591,6.591,0,0,0,5.92,1.516,4.114,4.114,0,0,0,2.1-1.083,5.455,5.455,0,0,0,1.343-2.859,9.254,9.254,0,0,0-.756-6.714C1723.4,436.959,1719.282,438.345,1716.553,441.031Z" transform="translate(-19.888 -341.093)" fill="#fff"/>
      <path id="Trazado_2241" data-name="Trazado 2241" d="M1825.953,537.531a5.22,5.22,0,0,0-1.176,1.559,4.533,4.533,0,0,0-.42,1.646,7.091,7.091,0,0,0,2.267,5.847,6.591,6.591,0,0,0,5.92,1.516,4.112,4.112,0,0,0,2.1-1.083,5.454,5.454,0,0,0,1.344-2.859,9.254,9.254,0,0,0-.756-6.714C1832.755,533.459,1828.682,534.845,1825.953,537.531Z" transform="translate(-83.355 -395.794)" fill="#fff"/>
      <path id="Trazado_2242" data-name="Trazado 2242" d="M1444.353,332.731a5.221,5.221,0,0,0-1.176,1.559,4.531,4.531,0,0,0-.42,1.646,7.091,7.091,0,0,0,2.267,5.848,6.592,6.592,0,0,0,5.92,1.516,4.112,4.112,0,0,0,2.1-1.083,5.455,5.455,0,0,0,1.344-2.859,9.252,9.252,0,0,0-.756-6.714C1451.155,328.659,1447.082,330.045,1444.353,332.731Z" transform="translate(138.024 -279.702)" fill="#fff"/>
      <path id="Trazado_2244" data-name="Trazado 2244" d="M1328.653,2568.031a5.222,5.222,0,0,0-1.176,1.559,4.534,4.534,0,0,0-.42,1.646,7.091,7.091,0,0,0,2.267,5.848,6.591,6.591,0,0,0,5.92,1.516,4.111,4.111,0,0,0,2.1-1.083,5.455,5.455,0,0,0,1.344-2.859,9.255,9.255,0,0,0-.756-6.714C1335.5,2563.959,1331.382,2565.345,1328.653,2568.031Z" transform="translate(205.145 -1546.787)" fill="#fff"/>
      <path id="Trazado_2245" data-name="Trazado 2245" d="M1304.853,2518.331a5.218,5.218,0,0,0-1.176,1.56,4.526,4.526,0,0,0-.42,1.646,7.09,7.09,0,0,0,2.267,5.847,6.592,6.592,0,0,0,5.92,1.516,4.112,4.112,0,0,0,2.1-1.083,5.452,5.452,0,0,0,1.344-2.859,9.253,9.253,0,0,0-.756-6.714C1311.7,2514.259,1307.582,2515.645,1304.853,2518.331Z" transform="translate(218.952 -1518.614)" fill="#fff"/>
      <path id="Trazado_2246" data-name="Trazado 2246" d="M85.893,60.082c19.786-7.846,39.348-17.084,58.82-25.764A501.226,501.226,0,0,1,242.565,1.931c10.748-2.337,22.709-4.007,31.7,3.561,9.668,8.124,12.591,24.652,10.388,38.9s-8.544,26.766-14.21,39.454c-9.623,21.535-17.718,44.573-20.011,69s1.8,50.527,14.345,69.614c15.514,23.594,41.731,33.11,66.285,31.83s48.117-11.908,71.186-22.426Q483.6,194.886,564.9,157.853c16.774-7.624,35.841-15.192,51.895-5.4,14.525,8.848,26.937,31.886,33.232,49.748,2.7,7.679,4.542,16.082,3.822,24.429-1.214,13.745-9.264,25.152-18.258,33.388-53.468,48.858-116.65,83.3-176.639,117.749-56.616,32.5-115.751,62.77-166.881,107.565A303.533,303.533,0,0,0,204.791,614.6c-12.456,35.558-31.523,66.164-58.325,86.7-24.6,18.809-56.886,27.323-84.947,16.471-17.538-6.733-31.254-29.715-39.573-49.025-9.533-22.2-13.536-47.411-14.93-72.508-1.484-27.156.4-55.981,12.861-78.406C35.572,489.508,65.971,475.1,76,443.1c9.129-29.215-2.293-61.545-13.491-89.591C39.394,295.913,16.055,237.762,4.049,175.271c-4.677-24.373-7.24-51.751,3.418-73.064C17.9,81.228,33.728,76.831,51.716,71.823A347.281,347.281,0,0,0,85.893,60.082Z" transform="translate(1072.466 540.6)" fill="#6140ff"/>
      <path id="Trazado_2209" data-name="Trazado 2209" d="M1323.542,2018.857c3.737-1.429,7.557-2.9,11.546-2.859s8.23,1.949,9.951,5.674c2.855,6.194-2.309,13.038-7.306,17.543a164.639,164.639,0,0,1-71.252,37.554c-6.466,1.559-13.52,2.642-19.566-.13-24.94-11.478,7.852-28.068,16.963-32.53C1283.235,2034.494,1303.43,2026.654,1323.542,2018.857Z" transform="translate(256.945 -1235.325)" fill="#fff"/>
      <path id="Trazado_2255" data-name="Trazado 2255" d="M1375.086,2020.575c5.982-2.288,12.1-4.645,18.482-4.576s13.173,3.12,15.928,9.083c4.571,9.915-3.7,20.87-11.694,28.081a263.536,263.536,0,0,1-114.053,60.113c-10.35,2.5-21.641,4.23-31.319-.208-39.922-18.373,12.568-44.929,27.152-52.07C1310.566,2045.6,1342.893,2033.055,1375.086,2020.575Z" transform="translate(-95.529 -1585.052)" fill="#6140ff"/>
      <path id="Trazado_2210" data-name="Trazado 2210" d="M1015.875,2192.491c-.126-5.977.294-12.907,4.955-16.459s11.714-1.733,15.829,2.512,5.92,10.266,7.348,16.07c2.813,11.3,5.5,40.023-12.974,38.463C1013.86,2231.648,1016.085,2204.1,1015.875,2192.491Z" transform="translate(385.665 -1324.972)" fill="#fff"/>
      <path id="Trazado_2252" data-name="Trazado 2252" d="M1015.87,2187.978c-.095-4.507.222-9.731,3.736-12.41s8.832-1.306,11.934,1.894,4.463,7.74,5.54,12.116c2.121,8.523,4.147,30.175-9.782,29C1014.351,2217.5,1016.029,2196.73,1015.87,2187.978Z" transform="matrix(0.035, 0.999, -0.999, 0.035, 3313.415, -64.037)" fill="#fff"/>
      <path id="Trazado_2211" data-name="Trazado 2211" d="M766.249,2153.291c-2.267,4.938-4.87,9.919-5.542,15.333-.672,5.458,1.05,11.608,5.626,14.38,3.989,2.382,9.2,1.646,13.142-.78s6.886-6.281,9.489-10.179a127.554,127.554,0,0,0,19.65-88.016c-3.527-24.3-26.788-27.981-29.6-2.036C776.241,2107.377,777.291,2129.208,766.249,2153.291Z" transform="translate(533.767 -1262.598)" fill="#fff"/>
      <path id="Trazado_2222" data-name="Trazado 2222" d="M689.153,2518.331a5.217,5.217,0,0,0-1.176,1.56,4.53,4.53,0,0,0-.42,1.646,7.09,7.09,0,0,0,2.267,5.847,6.592,6.592,0,0,0,5.92,1.516,4.112,4.112,0,0,0,2.1-1.083,5.453,5.453,0,0,0,1.344-2.859,9.252,9.252,0,0,0-.756-6.714C696,2514.259,691.882,2515.645,689.153,2518.331Z" transform="translate(576.139 -1518.614)" fill="#fff"/>
      <path id="Trazado_2224" data-name="Trazado 2224" d="M1169.853,2090.431a5.208,5.208,0,0,0-1.176,1.56,4.526,4.526,0,0,0-.42,1.646,7.09,7.09,0,0,0,2.267,5.847,6.59,6.59,0,0,0,5.92,1.516,4.11,4.11,0,0,0,2.1-1.083,5.456,5.456,0,0,0,1.344-2.859,9.254,9.254,0,0,0-.756-6.714C1176.7,2086.36,1172.582,2087.746,1169.853,2090.431Z" transform="translate(297.27 -1276.059)" fill="#fff"/>
      <path id="Trazado_2243" data-name="Trazado 2243" d="M795.153,1954.231a5.217,5.217,0,0,0-1.176,1.559,4.531,4.531,0,0,0-.42,1.646,7.092,7.092,0,0,0,2.267,5.848,6.592,6.592,0,0,0,5.92,1.516,4.115,4.115,0,0,0,2.1-1.083,5.456,5.456,0,0,0,1.344-2.859,9.253,9.253,0,0,0-.756-6.714C802,1950.159,797.882,1951.545,795.153,1954.231Z" transform="translate(496.645 -1189.853)" fill="#fff"/>
      <path id="Trazado_2223" data-name="Trazado 2223" d="M1568.253,2075.03a5.222,5.222,0,0,0-1.176,1.56,4.531,4.531,0,0,0-.42,1.646,7.091,7.091,0,0,0,2.267,5.847,6.591,6.591,0,0,0,5.92,1.516,4.113,4.113,0,0,0,2.1-1.083,5.456,5.456,0,0,0,1.344-2.858,9.253,9.253,0,0,0-.756-6.714C1575.1,2070.959,1570.982,2072.345,1568.253,2075.03Z" transform="translate(66.146 -1267.329)" fill="#fff"/>
      <path id="Trazado_2247" data-name="Trazado 2247" d="M1059.187,1864.957a15.409,15.409,0,0,0-3.149,4.072,12.912,12.912,0,0,0-1.134,4.375,18.769,18.769,0,0,0,5.962,15.377,17.535,17.535,0,0,0,15.577,4.028,11.629,11.629,0,0,0,5.542-2.859,14.61,14.61,0,0,0,3.569-7.493c1.3-5.891,1.091-12.431-2.016-17.586C1077.115,1854.259,1066.367,1857.854,1059.187,1864.957Z" transform="translate(158.053 -1216.877)" fill="#2de8f5"/>
      <path id="Trazado_2251" data-name="Trazado 2251" d="M1057.817,1862.83a10.557,10.557,0,0,0-2.157,2.79,8.847,8.847,0,0,0-.777,3,12.859,12.859,0,0,0,4.085,10.535,12.014,12.014,0,0,0,10.672,2.76,7.967,7.967,0,0,0,3.8-1.959,10.009,10.009,0,0,0,2.445-5.134c.892-4.036.748-8.517-1.381-12.048C1070.1,1855.5,1062.735,1857.963,1057.817,1862.83Z" transform="translate(120.053 -1094.837)" fill="#fff"/>
      <path id="Trazado_2253" data-name="Trazado 2253" d="M1056.093,1860.154a4.458,4.458,0,0,0-.911,1.177,3.736,3.736,0,0,0-.328,1.265,5.427,5.427,0,0,0,1.724,4.446,5.07,5.07,0,0,0,4.5,1.165,3.362,3.362,0,0,0,1.6-.827,4.224,4.224,0,0,0,1.032-2.167,7.007,7.007,0,0,0-.583-5.085C1061.277,1857.061,1058.169,1858.1,1056.093,1860.154Z" transform="translate(126.053 -1189.955)" fill="#fff"/>
      <path id="Trazado_2250" data-name="Trazado 2250" d="M1056.163,1860.263a4.7,4.7,0,0,0-.961,1.243,3.942,3.942,0,0,0-.346,1.335,5.729,5.729,0,0,0,1.82,4.693,5.352,5.352,0,0,0,4.755,1.229,3.55,3.55,0,0,0,1.692-.873,4.46,4.46,0,0,0,1.089-2.287,7.4,7.4,0,0,0-.615-5.368C1061.635,1857,1058.355,1858.095,1056.163,1860.263Z" transform="translate(207.92 -1244.519)" fill="#2de8f5"/>
      <path id="Trazado_2256" data-name="Trazado 2256" d="M215.294,364.433c40.672-23.389,82.781-45.341,125.384-63.073,12.256-6.105,26.262-14.635,26.845-28.282.673-15.488-15.174-29.449-25.185-39.37C291.7,183.472,285.1,104.6,250.984,41.972c-4.13-7.542-8.709-14.994-14.994-20.83-9.338-8.709-21.683-13.378-34.073-16.431C142.031-9.968,76.4,10.683,30.7,52.028,21.36,60.468,12.651,69.9,7.085,81.208c-15.847,32.233-2.649,71.019,14.949,102.309s40.089,61.816,43.411,97.551c3.412,36.677-13.961,71.6-23.209,107.247-3.771,14.5-6.105,30.257-.449,44.129,9.7,23.927,32.771,23.03,50.324,9.921,23.7-17.688,49.157-33.445,74.341-48.888C182.478,383.691,198.774,373.95,215.294,364.433Z" transform="translate(1122.455 -55.637)" fill="#6140ff"/>
      <path id="Trazado_2180" data-name="Trazado 2180" d="M752.907,583.32a9.254,9.254,0,0,0-1.679,2.166,7.354,7.354,0,0,0-.588,2.339,9.829,9.829,0,0,0,3.191,8.186,9.535,9.535,0,0,0,8.313,2.166,6.222,6.222,0,0,0,2.939-1.516,7.628,7.628,0,0,0,1.889-3.985,12.638,12.638,0,0,0-1.092-9.356C762.438,577.646,756.728,579.551,752.907,583.32Z" transform="translate(500.551 -413.181)" fill="#fff"/>
      <path id="Trazado_2181" data-name="Trazado 2181" d="M847.307,626.42a9.256,9.256,0,0,0-1.68,2.166,7.354,7.354,0,0,0-.588,2.339,9.829,9.829,0,0,0,3.191,8.186,9.535,9.535,0,0,0,8.313,2.166,6.222,6.222,0,0,0,2.939-1.516,7.627,7.627,0,0,0,1.889-3.985,12.638,12.638,0,0,0-1.092-9.356C856.88,620.745,851.128,622.651,847.307,626.42Z" transform="translate(534.786 -446.613)" fill="#fff"/>
      <path id="Trazado_2182" data-name="Trazado 2182" d="M752.907,708.52a9.253,9.253,0,0,0-1.679,2.166,7.354,7.354,0,0,0-.588,2.339,9.829,9.829,0,0,0,3.191,8.186,9.535,9.535,0,0,0,8.313,2.166,6.222,6.222,0,0,0,2.939-1.516,7.627,7.627,0,0,0,1.889-3.985,12.638,12.638,0,0,0-1.092-9.356C762.438,702.845,756.728,704.751,752.907,708.52Z" transform="translate(531.551 -455.151)" fill="#81efea"/>
      <path id="Trazado_2183" data-name="Trazado 2183" d="M847.307,730.1a9.255,9.255,0,0,0-1.68,2.166,7.355,7.355,0,0,0-.588,2.339,9.829,9.829,0,0,0,3.191,8.187,9.535,9.535,0,0,0,8.313,2.166,6.222,6.222,0,0,0,2.939-1.516,7.627,7.627,0,0,0,1.889-3.985,12.638,12.638,0,0,0-1.092-9.356C856.88,724.379,851.128,726.328,847.307,730.1Z" transform="translate(476.786 -531.372)" fill="#fff"/>
      <path id="Trazado_2214" data-name="Trazado 2214" d="M733.989,422.741c27.921,26.9,40.9,65.925,60.335,99.884.924,1.6,2.015,3.335,3.695,4.028,2.351.91,4.87-.476,6.97-1.819,5.332-3.378,11.084-7.234,13.016-13.341,1.554-4.895.294-10.179-1.134-15.117-11.252-38.074-36.361-71.123-68.354-93.127a164.805,164.805,0,0,0-51.938-24c-5.92-1.559-24.52-7.927-29.643-3.032-5.584,5.328-1.428,11.825,3.989,15.42,8.649,5.718,23.891,5.934,33.757,10.742A112.568,112.568,0,0,1,733.989,422.741Z" transform="translate(548.623 -408.784)" fill="#fff"/>
      <path id="Trazado_2248" data-name="Trazado 2248" d="M1058.382,1863.708a12.556,12.556,0,0,0-2.567,3.319,10.525,10.525,0,0,0-.924,3.566,15.3,15.3,0,0,0,4.86,12.533,14.292,14.292,0,0,0,12.7,3.283,9.479,9.479,0,0,0,4.517-2.33,11.909,11.909,0,0,0,2.909-6.107c1.061-4.8.89-10.132-1.643-14.333C1072.995,1854.988,1064.234,1857.918,1058.382,1863.708Z" transform="translate(94.053 -1792.393)" fill="#81efea"/>
      <path id="Trazado_2249" data-name="Trazado 2249" d="M733.989,422.741c27.921,26.9,40.9,65.925,60.335,99.884.924,1.6,2.015,3.335,3.695,4.028,2.351.91,4.87-.476,6.97-1.819,5.332-3.378,11.084-7.234,13.016-13.341,1.554-4.895.294-10.179-1.134-15.117-11.252-38.074-36.361-71.123-68.354-93.127a164.805,164.805,0,0,0-51.938-24c-5.92-1.559-24.52-7.927-29.643-3.032-5.584,5.328-1.428,11.825,3.989,15.42,8.649,5.718,23.891,5.934,33.757,10.742A112.568,112.568,0,0,1,733.989,422.741Z" transform="matrix(-0.035, 0.999, -0.999, -0.035, 1654.402, -583.432)" fill="#81efea"/>
    </g>
  </g>
</svg>
