<svg xmlns="http://www.w3.org/2000/svg" width="601.258" height="330.855" viewBox="0 0 601.258 330.855">
  <g id="Grupo_1124" data-name="Grupo 1124" transform="translate(-175 -778.793)">
    <g id="Grupo_1089" data-name="Grupo 1089" transform="translate(175 778.793)">
      <g id="Grupo_1069" data-name="Grupo 1069" transform="translate(0 0)">
        <g id="Grupo_1067" data-name="Grupo 1067" transform="translate(0 65.626)">
          <path id="Trazado_2538" data-name="Trazado 2538" d="M602.505,266.482c-.034-3.675-.823-7.515-1.21-10.981a17.442,17.442,0,0,1-.236,5.684,3.428,3.428,0,0,1-.807,1.255c-.018.016-.029.034-.047.052l-.034.026c-1.375,1.181-4.175,2.179-7.418,2.544-.576.071-1.155.12-1.731.186-4.393.458-10.4.969-18,1.36-.7.037-1.394.073-2.09.1l-.843.039q-5.214.232-10.428.356l-1.126.024q-4.581.1-9.165.121c-.9.005-1.826.005-2.75.005q-3.725,0-7.45-.042-2.016-.024-4.1-.063-3.481-.063-6.96-.16c-1.171-.034-2.35-.068-3.549-.107q-3.5-.118-7.009-.272-2.841-.122-5.781-.272-2.157-.106-4.317-.231c-2.365-.134-4.762-.275-7.216-.437l-.194-.013q-15.422-1.014-33.185-2.832-3.147-.33-6.292-.676c-1.514-.168-3.049-.346-4.587-.524q-3.945-.456-7.887-.94c-.877-.107-1.773-.225-2.659-.335q-4.157-.53-8.311-1.084l-1.514-.2q-4.762-.652-9.516-1.344-1.155-.169-2.323-.341-4.746-.7-9.493-1.438l-1.789-.286q-4.031-.636-8.06-1.3l-2.761-.458q-4.613-.774-9.223-1.585c-.872-.154-1.76-.314-2.64-.471q-3.63-.648-7.258-1.318c-1.043-.194-2.082-.385-3.13-.582q-4.719-.884-9.427-1.8c-.545-.107-1.1-.22-1.645-.327q-4.137-.813-8.269-1.655-1.5-.3-3.007-.616-3.811-.786-7.62-1.593c-.71-.152-1.414-.3-2.127-.451q-10.389-2.22-20.743-4.61l-1.807-.417q-10.278-2.381-20.52-4.909c-.2-.05-.406-.1-.61-.149q-10.385-2.57-20.73-5.3c-.66-.173-1.325-.351-1.991-.527q-9.811-2.589-19.588-5.312c-.608-.168-1.21-.333-1.818-.5q-8.935-2.5-17.841-5.1c-1.627-.474-3.253-.948-4.888-1.433q-7.548-2.22-15.072-4.521-3.56-1.088-7.154-2.2-7.528-2.334-15.038-4.741-1.925-.617-3.827-1.231-9.552-3.1-19.061-6.318l-.246-.084q-7.619-2.589-15.208-5.278-1.084-.385-2.158-.77-7.171-2.554-14.3-5.207c-.733-.272-1.443-.542-2.169-.815-1.519-.569-3.025-1.168-4.542-1.745l-.005.029q-4.856-1.85-9.459-3.662c-.1-.042-.2-.079-.306-.118-.4-.157-.788-.314-1.184-.471-.11-.042-.217-.089-.325-.131q-7.74-3.065-14.794-6.022l-.081-.034c-.22-.092-.437-.186-.657-.278l-.189-.081q-5.057-2.129-9.768-4.2l-.029-.013-.076-.034c-.278-.121-.555-.244-.83-.364l-.736-.325c-.128-.055-.254-.115-.385-.173-3.146-1.4-6.19-2.771-9.108-4.126l-.152-.068c-.671-.309-1.323-.618-1.983-.925l-.136-.068q-4.719-2.212-9.042-4.346c-.131-.065-.265-.126-.393-.189l-.8-.4c-3.665-1.821-7.109-3.594-10.365-5.323l-.118-.06-.605-.322-.016-.008a270.582,270.582,0,0,1-27.962-16.919l-.079-.055c-.076-.052-.157-.107-.233-.162s-.131-.1-.2-.144q-1.733-1.226-3.308-2.4l-.092-.066c-.309-.23-.605-.456-.9-.681l-.076-.058q-1.414-1.077-2.7-2.1l-.1-.076-.113-.092c-.113-.089-.22-.176-.327-.265-.225-.178-.451-.359-.668-.537l-.126-.1c-1.019-.836-1.965-1.64-2.855-2.418l-.063-.055-.267-.236L26.1,124l-.076-.066L26,123.9q-1.882-1.682-3.382-3.177l-.031-.031-.047-.045-.092-.094q-.735-.739-1.388-1.428l-.016-.016-.063-.068c-.223-.238-.437-.469-.647-.7l0,0,0-.005c-.265-.288-.513-.568-.757-.844l-.06-.068-.029-.034c-.346-.4-.665-.775-.967-1.139l-.005-.005-.005-.005q-.464-.57-.864-1.087l-.063-.079-.1-.134c-.084-.11-.165-.217-.244-.325l-.089-.118-.013-.021a26.718,26.718,0,0,1-2-3.08v0a.993.993,0,0,1-.11-.351l1.066,9.532a.994.994,0,0,0,.11.351c.144.267.317.566.516.9l.008.013.013.021c.3.49.665,1.045,1.105,1.669l.128.178c.351.487.744,1.008,1.194,1.572l.01.013,0,.005c.644.8,1.4,1.689,2.276,2.643.181.2.361.393.545.589.576.616,1.21,1.263,1.891,1.936q.578.57,1.168,1.126c.582.553,1.192,1.119,1.847,1.705.249.223.5.443.747.66q1.1.967,2.323,1.985c.06.05.118.1.178.152l.1.079c1.514,1.252,3.175,2.564,5.008,3.942.272.2.545.4.817.605q1.894,1.4,4.021,2.889c.61,7.806.694,16.261-1.126,20.555-2.344,5.527,10.58,1.108,21.343-7.966.375.212.765.43,1.147.642s.77.432,1.155.644q3.74,2.075,7.887,4.243c.637.333,1.27.665,1.91,1q3.823,1.972,8,4.026l1.53.746q4.086,1.992,8.51,4.05c.1.05.21.1.317.152l.141.063q6.444,2.99,13.626,6.116c.427.186.854.367,1.278.553,4.044,1.747,8.251,3.523,12.662,5.333.747.307,1.5.608,2.242.912q5.85,2.377,12.136,4.825c.492.191.985.388,1.477.576q6.491,2.515,13.472,5.095c.186.068.372.142.558.212.162.058.325.113.487.173q8.848,3.265,18.49,6.635c.65.228,1.3.458,1.954.684q8.436,2.931,17.5,5.941,1.587.526,3.177,1.05,8.42,2.774,17.393,5.606c.951.3,1.9.6,2.85.9,1.037.325,2.056.65,3.1.975Q221,219.732,228.536,222c.136.042.27.086.406.126l.178.052.5.152q10.6,3.187,20.911,6.135l1.572.445q10.216,2.915,20.133,5.6l2.174.589q10.793,2.908,21.249,5.574l.312.076q10.86,2.762,21.332,5.244c.3.073.6.152.9.223.513.123,1.027.238,1.54.359q4,.947,7.945,1.852l2.318.537q5,1.143,9.909,2.224c1.022.225,2.046.445,3.067.668q3.607.786,7.169,1.545c1.166.246,2.331.5,3.5.739q4.562.959,9.045,1.865,1.12.228,2.242.451,4.243.849,8.411,1.656,1.607.31,3.219.616,4.471.853,8.861,1.661l1.119.207c3.371.613,6.687,1.2,9.98,1.768l2.452.424c3.387.579,6.742,1.142,10.045,1.679l.2.031c.22.037.443.068.663.1q4.7.758,9.286,1.456l2.41.369q4.613.692,9.113,1.333c1.126.16,2.255.314,3.382.471q3.713.515,7.347.993,2.436.322,4.869.629,2.915.37,5.776.715t5.716.673q3.045.35,6.03.673c1.462.157,2.923.317,4.385.469,2.567.265,5.089.513,7.583.752,1.16.11,2.321.223,3.478.327,2.9.267,5.737.508,8.534.739.878.071,1.752.144,2.63.212,3.175.252,6.273.474,9.315.678.437.032.872.068,1.31.1.327.021.655.037.982.058q4.994.322,9.744.571l2.051.1q4.876.24,9.487.409l1.472.055q5.544.192,10.685.286c.231.005.461.01.694.013q5.74.1,10.986.1l.236,0c.511,0,1.024-.005,1.535-.005.595,0,1.195,0,1.779-.005a392.754,392.754,0,0,0,41.1-1.972c.27-.026.537-.055.8-.081s.513-.052.773-.081l.238-.029.217-.024.118-.018c2.491-.307,5.4-.828,7.292-2.52l.042-.034.013-.01.032-.039a2.388,2.388,0,0,0,.794-1.176l.013-.071A9.854,9.854,0,0,0,602.505,266.482Z" transform="translate(-8.125 -41.55)" fill="#1d9e9e"/>
          <path id="Trazado_2539" data-name="Trazado 2539" d="M300.024,322.208c.029-.665.045-1.328.055-1.991a14.722,14.722,0,0,0,1.346-1.331,17.028,17.028,0,0,0,1.362-1.731,11.369,11.369,0,0,0,1.755-3.817,10.079,10.079,0,0,1-3.361,1.789c-.4.128-.809.212-1.215.3a43.245,43.245,0,0,0-2.04-11.119,42.36,42.36,0,0,1-.144,11.415c-.01,0-.029,0-.042,0l.031.076c-.084.621-.155,1.242-.259,1.857-.312,1.786-.71,3.552-1.155,5.3l-.532,1.6c-.312.935-8.188,22.781-56.812,10.179l-.2-.047c-18.959-3.717-39.679-8.555-48.276-11.575,2.046-1.129,4.044-2.331,6.012-3.581a23.21,23.21,0,0,0,2.863.754,26.245,26.245,0,0,0,3.261.414,17.518,17.518,0,0,0,6.284-.657,15.917,15.917,0,0,1-5.32-2.373,22.5,22.5,0,0,1-2.041-1.572,67.471,67.471,0,0,0,13.212-12.337,66.441,66.441,0,0,1-15.234,10.318l-.008-.008-.013.018c-.671.341-1.328.707-2.006,1.032q-4.66,2.2-9.5,3.942c-2.486.893-5.042,1.684-7.552,2.368-8.372,1.967-33.507,5.676-47.642-15.994l-1.255-1.928-2.263.422c-6.635,1.236-25.4,3.112-32.412-2.96a7.126,7.126,0,0,1-2.53-4.972c-.183-1.7-.191-2.171-.38-4.38l-2.347-.571c-.2-.047-20.526-4.867-28.494-21.681-4.283-9.034-4.333-19.981-.189-32.646q1.033-3.163,2.418-6.465c.846-2.022,1.781-4.079,2.824-6.179l.3-.6.055-.663c.016-.233,1.993-23.169,15.436-23.842l.506-.026c2.308,1.847,4.639,3.665,7.023,5.407,2.716,1.975,5.49,3.874,8.369,5.561a6.959,6.959,0,0,0-.526,1.019,9.32,9.32,0,0,0,.443,7.3c.113-1.223.217-2.378.377-3.5a14.13,14.13,0,0,1,.783-3.172,7.057,7.057,0,0,1,1.7-2.559,11.133,11.133,0,0,1,2.874-1.8,5.6,5.6,0,0,0-3.67.712,5.772,5.772,0,0,0-1.818,1.76c-2.394-2.295-4.628-4.725-6.774-7.227-2.069-2.423-4.057-4.911-6.006-7.426.06-4.773,1.582-41.932,33.913-45.525l2.536-.286c1.448.377,2.9.794,4.325,1.249a74.083,74.083,0,0,1,7.706,2.968,56.42,56.42,0,0,1,7.245,4.021,36.01,36.01,0,0,1,6.3,5.477,36.632,36.632,0,0,0-5.5-6.488,58.547,58.547,0,0,0-6.795-5.27,77.433,77.433,0,0,0-7.489-4.293c-1.742-.867-3.479-1.671-5.286-2.42.066-4.356,1.082-17.922,10.771-27.506,8.146-8.06,20.57-11.567,36.884-10.449l1.365.084,1.05-.851c.16-.128,15.633-12.28,46.879-10.737-1.967,2.881-3.892,5.781-5.739,8.741a119.733,119.733,0,0,0-7.9,14.467,7.8,7.8,0,0,0-1.433-.532,10.415,10.415,0,0,0-4.361-.013,10.724,10.724,0,0,0-3.932,1.572c1.407-.123,2.753-.22,4.073-.241a15.724,15.724,0,0,1,3.819.359,8.054,8.054,0,0,1,3.261,1.6,12.111,12.111,0,0,1,2.454,3.088,6.69,6.69,0,0,0-1.49-4.029,6.777,6.777,0,0,0-2.386-1.8,119.067,119.067,0,0,1,9.977-12.935c2.944-3.384,6.009-6.682,9.116-9.9l.2.016,1.082-.878c.867-.7,20.625-16.267,44-.037a85.664,85.664,0,0,0-8.586,4.144,71.513,71.513,0,0,0-12.34,8.618,50.273,50.273,0,0,0-9.807,11.533,39.653,39.653,0,0,0-4.922,12.594,31.821,31.821,0,0,0-9.469-.98,23.712,23.712,0,0,0-10.784,3.1,22.357,22.357,0,0,0-7.853,7.895,35.118,35.118,0,0,0-3.961,9.867,70.8,70.8,0,0,0-9.087,5.019,63.192,63.192,0,0,0-8.482,6.549,41.608,41.608,0,0,0-6.915,8.146,31.648,31.648,0,0,0-2.449,4.746,27.34,27.34,0,0,0-1.451,5.126,26.89,26.89,0,0,1,4.2-9.676,41.114,41.114,0,0,1,7.1-7.811,62.408,62.408,0,0,1,8.571-6.171,69.446,69.446,0,0,1,9.391-4.762l.325-.134.1-.351a33.863,33.863,0,0,1,4.215-9.561,20.327,20.327,0,0,1,7.4-6.923,21.278,21.278,0,0,1,9.778-2.41,28.975,28.975,0,0,1,9.993,1.648l1.689.608.359-1.776a36.392,36.392,0,0,1,5.294-12.835,46.447,46.447,0,0,1,9.435-10.307,67.106,67.106,0,0,1,11.866-7.659,75.767,75.767,0,0,1,11.821-4.841l.81-.162c.175-.034,17.238-3.217,20.429,4.76l1.113,2.787,2.913-.72c.228-.055,22.831-5.307,28.564,5.166l1.124,2.051,2.326-.288c1.2-.144,29.526-3.387,33.581,19.316l.073.4c-3.269,2.14-6.494,4.319-9.655,6.6a120.029,120.029,0,0,0-12.8,10.428A118.64,118.64,0,0,1,360,140c4.534-2.292,9.168-4.442,13.8-6.444a23.553,23.553,0,0,1,14.682,5.43c6.4,5.428,9.956,14.58,10.559,27.205l.084,1.8,1.53.959a37.583,37.583,0,0,1,15.172,24.075,41.433,41.433,0,0,1,.016,13.307q-.2,1.312-.474,2.638c-.052.249-.1.5-.155.747-.23,1.032-.485,2.069-.781,3.115-10.464-4.581-22.375-9.367-32.9-13.417q-16.573-6.4-33.405-12.118c-11.2-3.874-22.48-7.486-33.782-11.028s-22.684-6.839-34.06-10.148l-1.113-.325-.961.718-30.356,22.718q-15.174,11.371-30.272,22.833l-4.393,3.342,5.461,1.192a38.427,38.427,0,0,1,12.644,5.336,26.381,26.381,0,0,1,9.1,9.831,22.418,22.418,0,0,1,2.213,6.321,27.42,27.42,0,0,1,.511,6.808,46.093,46.093,0,0,1-2.86,13.76l-1.244,3.458,3.67-.453a73.53,73.53,0,0,1,14.223-.249,60.556,60.556,0,0,1,13.974,2.693,39.959,39.959,0,0,1,12.4,6.551,32.889,32.889,0,0,1,8.84,10.782l.563,1.079,1.152-.273a20.13,20.13,0,0,1,5.011-.479,15.191,15.191,0,0,1,4.89.914,9.885,9.885,0,0,1,3.937,2.735,11.953,11.953,0,0,1,2.326,4.345l.257.7.6.084s27.553,11.719,34.081,13.605A55.6,55.6,0,0,1,300.024,322.208Z" transform="translate(64.577 -80.289)" fill="#8066fc"/>
          <path id="Trazado_2540" data-name="Trazado 2540" d="M156.548,173.852s-.416-45.3,36.986-49.455a46.354,46.354,0,0,1,1.409-12.631c-65.215-10.462-105.855-11.3-118.86-11.248a13.463,13.463,0,0,0-7.007,1.763c-4.036,2.85-11.724,8.38-15.342,13.126a5.839,5.839,0,0,1-3.29,1.506c-11.787,2.334-25.513,6.622-32.059,8.607-2.475.754-3.772,1.931-3.245,2.928,3.641,6.721,23.5,33.122,122.871,70.965C138.734,193.927,142.285,174.564,156.548,173.852Z" transform="translate(-8.129 -58.603)" fill="#00c691"/>
          <path id="Trazado_2541" data-name="Trazado 2541" d="M160.575,120.616s-.073-1.247.029-3.3c-61.91-10.205-104.016-14.2-104.016-14.2-2-.092-7.45-1.257-12.932,2.132-1.957,1.21-6.072,5.435-7.3,6.779a3.7,3.7,0,0,0,2.054,6.153c27.881,4.972,59.927,11.829,94.073,19.832C137.9,129.475,146.59,122.169,160.575,120.616Z" transform="translate(24.83 -54.821)" fill="#abf5f5"/>
          <path id="Trazado_2542" data-name="Trazado 2542" d="M92.592,205.989s-45.85-.883-21.023-51.765c-.335-7.8.356-17.451,6.043-20.683,9.123-5.189,19.428,12.785,46.927,21.938,26.315,8.759,55.083,5.011,74.485,2.483,4.479-.584,8.188-1.2,10.758-1.655,0,0,30.322-4.364,10.609,41.269,0,0,47.532-10.645,59.324,19.976,0,0,12.921-4.393,16.908,6.184,0,0,23.375,10,31.86,8.966a50.071,50.071,0,0,1-42.353,6.782s5.4,40.1-101.384,1.5c0,0-38.173,7.091-56.173-16.806,0,0-19.748,8.379-30.356,0C98.216,224.173,84.548,216.567,92.592,205.989Z" transform="translate(71.504 -6.615)" fill="#6140ff"/>
          <path id="Trazado_2543" data-name="Trazado 2543" d="M86.76,131.8s2.894-26.233,37.657-24.992c0,0,19.271-15.313,43.566-14.9l-13.608,26.9s-34.511,10.221-41.546,32.423C112.828,151.226,95.862,131.669,86.76,131.8Z" transform="translate(108.041 -72.562)" fill="#a795ff"/>
          <path id="Trazado_2544" data-name="Trazado 2544" d="M117.718,118.84s21.325-41.787,52.671-27.2c0,0-26.631,11-30.885,33.526C139.5,125.163,127.947,118.73,117.718,118.84Z" transform="translate(158.174 -77.985)" fill="#a795ff"/>
          <path id="Trazado_2545" data-name="Trazado 2545" d="M216.637,128.4q-8.094-2.432-16.589-4.9-9.556-2.774-18.823-5.344l-60.532,45.683s37.324,6.915,23.255,45.329c0,0,38.068-5.344,51.1,21.346,0,0,14.328-3.484,17.571,8.7,124.487,22.564,188.372,16.9,209.01,14.32,4.34-.542,7.908-2.117,8.29-3.8C432.534,238.129,427.407,191.766,216.637,128.4Z" transform="translate(162.993 -30.03)" fill="#01e0a4"/>
          <path id="Trazado_2546" data-name="Trazado 2546" d="M170.764,122.438q-4.153-1.077-8.29-2.124l-34.814,26.273c140.971,38.165,272.148,78.892,272.148,78.892C370.011,188.235,254,144.062,170.764,122.438Z" transform="translate(174.273 -26.542)" fill="#abf5f5"/>
          <path id="Trazado_2547" data-name="Trazado 2547" d="M230.715,132.016c-6.776-2.219-11.934-3.649-13.176-4.021q-8.094-2.432-16.589-4.9-9.555-2.77-18.82-5.341L121.6,163.436s37.324,6.918,23.255,45.332c0,0,5.925-3.159,15.122-.092C177.465,169.9,204.314,140.713,230.715,132.016Z" transform="translate(164.454 -30.684)" opacity="0.29"/>
          <path id="Trazado_2548" data-name="Trazado 2548" d="M106.051,174.074s5.181-23.75,26.8-25.22c0,0,7.756-30.147,32.376-19.431,0,0,24.059-53.211,58.761-30.362,0,0,27.106-10.648,29.175,7.146,0,0,30.788-5.488,35.878,12.982l-20.982,14.459S224.029,108.141,106.051,174.074Z" transform="translate(139.281 -70.19)" fill="#a795ff"/>
          <path id="Trazado_2549" data-name="Trazado 2549" d="M169.7,120.019l27.978-13.5s19.41,4.233,20.651,31.983c0,0,16.591,11.012,14.936,36.384C233.263,174.886,200.408,122.772,169.7,120.019Z" transform="translate(242.35 -48.881)" fill="#a795ff"/>
          <path id="Trazado_2550" data-name="Trazado 2550" d="M613.647,309.785l-.01-.155c-.018-.838-.068-1.627-.155-2.4l-1.066-9.532-.005,0c-1.7-15.253-15.489-31.517-40.994-48.344-18.249-12.041-42.316-24.217-71.992-36.433l-.01-.005a48.774,48.774,0,0,0,.175-16.83,44.642,44.642,0,0,0-16.8-27.69c-.943-13.757-5.275-24-12.893-30.445a30.5,30.5,0,0,0-18.561-7.046c-5.283-19.426-26.055-23.116-38.4-22.254-7.782-10.4-25.591-8.348-32.355-7.12-5.9-8.61-20.282-7.334-25.178-6.619-25.28-19.646-48.27-6.111-53.679-2.379-31.561-2.384-49.145,8.086-53.656,11.24-17.794-.985-31.593,3.232-40.991,12.563a41.178,41.178,0,0,0-9.181,14.108C136.555,120.728,97.033,119.531,81.5,119.531l-1.181,0a19.89,19.89,0,0,0-10.954,3.023c-5.388,3.809-11.944,8.7-15.984,13.5l-.016,0c-11.219,2.219-24.151,6.161-31.1,8.28l-1.619.492c-4.859,1.48-6.837,4.084-7.638,6.009a7.906,7.906,0,0,0-.568,3.934h0l1.066,9.529a7.842,7.842,0,0,0,.867,2.805,35.224,35.224,0,0,0,3.073,4.665q.593.774,1.312,1.64a72.661,72.661,0,0,0,5.4,5.744q1.1,1.053,2.355,2.185A138.008,138.008,0,0,0,37.7,190.3c.55,9.967-.461,13.3-.812,14.129a8.312,8.312,0,0,0,7.924,12.023c5.668,0,13.859-4.283,20.408-9.045,18.705,10.237,41.562,20.612,68.306,31.053-4.835,14.569-4.723,27.368.411,38.152,7.688,16.151,24.2,22.687,30.6,24.677a14.048,14.048,0,0,0,4.841,9.123c9.3,8.055,29.01,5.949,35.957,4.9,17.809,24.78,48.239,18.538,55.539,16.594,9.3,4.838,42.623,11.63,53.478,13.762a114.061,114.061,0,0,0,28.345,4.073c23.978,0,32.761-11.14,35.548-16.329,17.631.482,34.419-9.144,45.462-17.372.736.113,1.485.231,2.219.341l.45.066.359.052q2.88.428,5.718.838l1.4.2.815.115c1.407.2,2.811.4,4.2.587l1.9.257.631.084c1.257.17,2.515.338,3.759.5l2.622.338.809.1,1.139.147.595.073.464.058q3.929.491,7.767.946l.183.024.217.026c2.68.314,5.31.608,7.916.891l1.938.21.149.016q3.234.346,6.4.663l.576.058.83.084q3.749.365,7.384.694l.249.024.341.032.809.071.618.052c1.47.128,2.931.254,4.374.375l2.2.178q2.149.173,4.254.333l.671.05,1.312.1q2.562.189,5.058.354l.4.029.542.037c1.954.128,3.877.246,5.778.359l.162.01.236.013.974.055.673.037c1.084.06,2.166.12,3.232.176l1.813.089.372.018c1.009.05,2.012.1,3,.141l2.135.094c.982.039,1.957.081,2.923.118l2.043.073c.961.034,1.909.065,2.85.094l.506.018.694.024.485.01.367.011,2.279.06,2.166.052,2.211.044,2.077.037,2.182.029.212,0,1.755.018,2.132.016.537,0,.8.005h.576l1.037,0h1.066l1.7,0,1.69-.01h.089l1.9-.016,1.71-.021,1.818-.024,1.674-.031.437-.008.652-.013.385-.008.27-.008,1.545-.037,1.69-.044,1.488-.047,1.642-.052,1.4-.052,1.582-.06,1.354-.058.283-.013.382-.016.49-.024.341-.016,1.286-.063,1.448-.076,1.192-.065,1.422-.081.16-.01.94-.058,1.362-.086.307-.021.733-.05.118-.008.175-.01.621-.045.348-.026.2-.013.82-.06,1.242-.1.291-.021.6-.047.977-.081.2-.018.294-.024.568-.05.765-.068.22-.018.27-.024.639-.06.175-.016c.775-.073,1.478-.141,2.151-.21l.55-.058c.7-.071,1.378-.144,2-.215l.186-.021c.267-.031.521-.065.77-.1.288-.042.571-.086.849-.136l.081-.013.16-.031.147-.029.1-.021c.173-.031.348-.065.519-.1.225-.047.44-.1.655-.157l.12-.029.11-.026c.141-.034.283-.068.422-.1.118-.026.231-.055.338-.084.2-.055.38-.115.558-.178.477-.144.925-.293,1.359-.456.191-.063.372-.128.54-.2.183-.073.351-.149.516-.228.225-.1.437-.2.644-.3s.406-.189.584-.28c.2-.11.4-.225.6-.343l.149-.087c.107-.06.21-.123.307-.186.286-.181.563-.375.825-.571.175-.131.346-.27.511-.409l.063-.047.149-.134c.233-.2.456-.416.663-.634s.422-.461.61-.7c.1-.131.207-.27.3-.409l.1-.131.157-.244a8.687,8.687,0,0,0,.519-.927,8.184,8.184,0,0,0,.435-1.082c.076-.23.147-.484.2-.739.092-.4.173-.817.244-1.26l.034-.2.018-.168c.029-.2.055-.43.079-.658l.013-.118c.042-.356.071-.644.094-.956s.031-.6.037-.912l.005-.141c.016-.3.024-.55.024-.817ZM64.582,199.162c-7.512,6.331-16.075,10.4-19.766,10.4-1.6,0-2.284-.762-1.574-2.431,1.82-4.293,1.734-12.749,1.126-20.555-.382-.265-.767-.532-1.137-.794a134.408,134.408,0,0,1-12.107-9.561q-1.171-1.053-2.187-2.03A64.662,64.662,0,0,1,24.052,169c-.416-.5-.794-.972-1.137-1.417a28.638,28.638,0,0,1-2.447-3.688.994.994,0,0,1-.11-.351l-1.066-9.532a.964.964,0,0,0,.11.348c-.524-1,.77-2.172,3.245-2.926,6.546-1.985,20.272-6.273,32.059-8.607A5.839,5.839,0,0,0,58,141.32c3.617-4.746,11.305-10.276,15.342-13.126a13.462,13.462,0,0,1,7.007-1.763l1.153,0c13.883,0,52.865,1.043,114.284,10.706v0a52.991,52.991,0,0,0-1.43,10.187c-13.88,2.439-22.548,10.378-27.965,19.368-4.972-1.027-9.943-2.054-14.923-3.041l14.4,3.927c-6.376,11.088-7.979,23.53-8.374,29.165-15.25,3.361-18.3,24.842-18.758,29.081-1.027,2.1-1.944,4.154-2.79,6.19C104.407,219.685,81.372,208.636,64.582,199.162ZM376.992,326.434c.029-.665.045-1.328.055-1.991a14.713,14.713,0,0,0,1.346-1.331,17.021,17.021,0,0,0,1.362-1.731,11.37,11.37,0,0,0,1.755-3.817,10.079,10.079,0,0,1-3.361,1.789c-.4.128-.809.212-1.215.3a43.25,43.25,0,0,0-2.04-11.119,42.353,42.353,0,0,1-.144,11.415c-.01,0-.029,0-.042,0l.031.076c-.084.621-.155,1.242-.259,1.857-.312,1.786-.71,3.552-1.155,5.3l-.532,1.6c-.312.935-8.188,22.781-56.812,10.179l-.2-.047C296.82,335.2,276.1,330.365,267.5,327.345c2.046-1.129,4.044-2.331,6.011-3.581a23.194,23.194,0,0,0,2.863.754,26.261,26.261,0,0,0,3.261.414,17.517,17.517,0,0,0,6.284-.657,15.919,15.919,0,0,1-5.32-2.373,22.53,22.53,0,0,1-2.04-1.572,67.468,67.468,0,0,0,13.212-12.338,66.435,66.435,0,0,1-15.234,10.318l-.008-.008-.013.018c-.671.341-1.328.707-2.007,1.032q-4.66,2.2-9.5,3.942c-2.486.893-5.042,1.684-7.552,2.368-8.372,1.967-33.507,5.676-47.642-15.994l-1.255-1.928-2.263.422c-6.635,1.236-25.4,3.112-32.412-2.96a7.126,7.126,0,0,1-2.53-4.972c-.183-1.7-.191-2.171-.38-4.38l-2.347-.571c-.2-.047-20.526-4.867-28.494-21.681-4.283-9.034-4.332-19.981-.189-32.646q1.033-3.163,2.418-6.465c.846-2.022,1.781-4.078,2.824-6.179l.3-.6.055-.663c.016-.233,1.993-23.169,15.436-23.842l.505-.026c2.308,1.847,4.639,3.665,7.023,5.407,2.716,1.975,5.49,3.874,8.369,5.561a6.954,6.954,0,0,0-.527,1.019,9.32,9.32,0,0,0,.443,7.3c.113-1.223.217-2.378.377-3.5a14.129,14.129,0,0,1,.783-3.172,7.059,7.059,0,0,1,1.7-2.559,11.133,11.133,0,0,1,2.874-1.8,5.6,5.6,0,0,0-3.67.713,5.771,5.771,0,0,0-1.818,1.76c-2.394-2.295-4.628-4.726-6.774-7.227-2.069-2.423-4.057-4.911-6.006-7.426.06-4.773,1.582-41.931,33.913-45.525l2.536-.286c1.448.377,2.9.794,4.325,1.249a74.087,74.087,0,0,1,7.706,2.968,56.435,56.435,0,0,1,7.245,4.021,36.01,36.01,0,0,1,6.3,5.477,36.635,36.635,0,0,0-5.5-6.488,58.56,58.56,0,0,0-6.795-5.27,77.448,77.448,0,0,0-7.489-4.293c-1.742-.867-3.479-1.671-5.286-2.42.066-4.356,1.082-17.922,10.771-27.506,8.146-8.06,20.57-11.567,36.884-10.449l1.365.084,1.05-.851c.16-.128,15.633-12.28,46.879-10.737-1.967,2.881-3.892,5.781-5.739,8.741a119.758,119.758,0,0,0-7.9,14.467,7.805,7.805,0,0,0-1.433-.532,10.416,10.416,0,0,0-4.361-.013,10.723,10.723,0,0,0-3.932,1.572c1.407-.123,2.753-.22,4.073-.241a15.722,15.722,0,0,1,3.819.359,8.055,8.055,0,0,1,3.261,1.6,12.111,12.111,0,0,1,2.454,3.088,6.69,6.69,0,0,0-1.49-4.029,6.775,6.775,0,0,0-2.386-1.8,119.054,119.054,0,0,1,9.977-12.935c2.944-3.384,6.009-6.682,9.115-9.9l.2.016,1.082-.877c.867-.7,20.625-16.267,44-.037a85.7,85.7,0,0,0-8.586,4.144,71.518,71.518,0,0,0-12.34,8.618,50.272,50.272,0,0,0-9.807,11.533,39.652,39.652,0,0,0-4.922,12.594,31.826,31.826,0,0,0-9.469-.98,23.713,23.713,0,0,0-10.784,3.1,22.358,22.358,0,0,0-7.853,7.9,35.12,35.12,0,0,0-3.96,9.867,70.8,70.8,0,0,0-9.087,5.019,63.2,63.2,0,0,0-8.482,6.549,41.6,41.6,0,0,0-6.915,8.146,31.642,31.642,0,0,0-2.449,4.746,27.34,27.34,0,0,0-1.451,5.126,26.889,26.889,0,0,1,4.2-9.676,41.117,41.117,0,0,1,7.1-7.811,62.409,62.409,0,0,1,8.571-6.171,69.448,69.448,0,0,1,9.391-4.762l.325-.134.1-.351a33.86,33.86,0,0,1,4.215-9.561,20.325,20.325,0,0,1,7.4-6.923,21.279,21.279,0,0,1,9.778-2.41,28.972,28.972,0,0,1,9.993,1.648l1.69.608.359-1.776a36.389,36.389,0,0,1,5.294-12.835,46.446,46.446,0,0,1,9.435-10.307,67.1,67.1,0,0,1,11.866-7.659,75.769,75.769,0,0,1,11.821-4.841l.809-.162c.176-.034,17.238-3.217,20.429,4.759l1.113,2.787,2.913-.72c.228-.055,22.831-5.307,28.565,5.165l1.124,2.051,2.326-.288c1.2-.144,29.526-3.387,33.581,19.316l.073.4c-3.269,2.14-6.493,4.319-9.655,6.6a120.03,120.03,0,0,0-12.8,10.428,118.637,118.637,0,0,1,14.15-8.22c4.534-2.292,9.168-4.443,13.8-6.444a23.552,23.552,0,0,1,14.682,5.43c6.4,5.427,9.956,14.58,10.559,27.205l.084,1.8,1.53.959a37.583,37.583,0,0,1,15.171,24.075,41.436,41.436,0,0,1,.016,13.307c-.131.875-.291,1.755-.474,2.638-.052.249-.1.5-.155.746-.231,1.032-.186,1.022-.485,2.069-10.462-4.584-22.671-8.322-33.2-12.371q-16.573-6.4-33.405-12.117c-11.2-3.874-22.48-7.486-33.783-11.028s-22.684-6.839-34.06-10.148l-1.113-.325-.961.718-30.356,22.718q-15.174,11.371-30.272,22.833l-4.393,3.342,5.461,1.192a38.43,38.43,0,0,1,12.644,5.336,26.382,26.382,0,0,1,9.1,9.831,22.417,22.417,0,0,1,2.213,6.321,27.414,27.414,0,0,1,.511,6.808,46.091,46.091,0,0,1-2.86,13.76l-1.244,3.458,3.67-.453a73.548,73.548,0,0,1,14.223-.249,60.567,60.567,0,0,1,13.974,2.693,39.96,39.96,0,0,1,12.4,6.551,32.888,32.888,0,0,1,8.84,10.781l.563,1.079,1.152-.272a20.125,20.125,0,0,1,5.011-.479,15.189,15.189,0,0,1,4.89.914,9.885,9.885,0,0,1,3.937,2.735,11.953,11.953,0,0,1,2.326,4.346l.257.7.6.084,17.325,7.607a154.048,154.048,0,0,1,15.439,7.285C416,314.156,401.8,328.16,376.992,326.434Zm229.74-15.753c-.008.254-.01.511-.029.752s-.042.456-.065.678-.047.448-.079.652c-.008.047-.01.1-.018.147-.05.3-.1.587-.165.851a1.233,1.233,0,0,1-.037.131,1.412,1.412,0,0,1-.084.212,2.112,2.112,0,0,1-.12.21l-.039.058-.023.034c-.029.039-.055.081-.089.123a2.414,2.414,0,0,1-.191.217c-.073.079-.155.155-.241.231l-.016.013-.018.016c-.086.073-.173.147-.27.217-.126.094-.259.189-.4.278l-.078.047c-.042.024-.089.05-.131.076-.12.071-.233.141-.364.21-.089.047-.2.089-.293.136-.173.084-.348.168-.534.246-.089.039-.165.081-.259.12-.079.031-.175.055-.257.086-.369.142-.76.27-1.171.393-.1.031-.189.068-.293.1-.055.013-.115.026-.17.042-.154.039-.314.076-.474.115-.194.047-.38.1-.582.141-.152.031-.309.06-.464.089l-.165.031-.141.026c-.212.039-.429.073-.647.1-.194.026-.39.052-.587.076l-.147.018h0c-.608.068-1.268.136-1.951.207l-.534.055c-.657.068-1.341.134-2.064.2l-.155.016-.052.005c-.285.026-.592.052-.888.079l-.961.086c-.272.024-.563.047-.844.073l-1.155.094c-.283.024-.582.047-.875.068l-1.215.094c-.325.026-.665.05-1,.073-.317.024-.626.047-.951.068l-.288.021c-.333.021-.679.045-1.024.066-.44.029-.88.06-1.333.086-.356.024-.723.045-1.085.065-.464.029-.924.055-1.4.081-.385.024-.778.045-1.174.066-.469.023-.94.05-1.425.073-.414.021-.838.042-1.263.06-.278.013-.542.029-.823.042l-.652.026c-.44.021-.885.039-1.336.058q-.77.031-1.558.06c-.456.018-.914.034-1.378.05l-1.622.055c-.485.016-.969.029-1.464.044-.55.016-1.108.029-1.669.045-.505.013-1.011.026-1.524.037l-.647.016c-.351.008-.718.013-1.074.018l-1.655.031c-.589.01-1.189.018-1.792.026l-1.69.018c-.621.008-1.252.01-1.883.016-.584,0-1.166.008-1.758.01-.634,0-1.278,0-1.923,0h-.815c-.338,0-.679,0-1.022,0h-.113l-.291,0-.165,0c-.435,0-.885-.005-1.325-.008-.7-.005-1.4-.008-2.109-.016-.642-.005-1.294-.013-1.946-.021-.715-.008-1.43-.018-2.158-.029-.678-.01-1.367-.024-2.056-.037-.726-.013-1.451-.026-2.19-.042-.707-.016-1.425-.034-2.143-.052-.746-.018-1.5-.039-2.255-.06l-.844-.021c-.39-.013-.794-.029-1.187-.039q-1.4-.043-2.824-.094-1.006-.035-2.025-.076c-.956-.034-1.923-.073-2.895-.115q-1.053-.043-2.116-.092c-.98-.044-1.975-.092-2.973-.142-.72-.034-1.435-.068-2.164-.107-1.058-.055-2.132-.113-3.206-.173-.547-.031-1.082-.058-1.632-.089l-.4-.026q-2.825-.165-5.729-.354l-.935-.066q-2.479-.165-5.016-.351c-.65-.047-1.31-.1-1.967-.147-1.393-.1-2.8-.215-4.22-.327q-1.084-.086-2.179-.178-2.153-.181-4.343-.372c-.474-.042-.935-.078-1.414-.121-.191-.018-.393-.039-.587-.055q-3.611-.326-7.327-.692c-.461-.045-.932-.094-1.4-.139q-3.139-.314-6.355-.658c-.689-.073-1.378-.147-2.072-.223-2.588-.283-5.2-.574-7.856-.885l-.4-.05c-2.536-.3-5.113-.613-7.714-.94-.354-.045-.7-.081-1.053-.128-.636-.081-1.291-.168-1.933-.249-.867-.113-1.731-.223-2.606-.338q-1.855-.244-3.735-.5c-.836-.113-1.669-.225-2.509-.341-1.38-.189-2.777-.385-4.173-.581-.736-.1-1.462-.2-2.2-.312-.8-.113-5.249-.974-6.056-1.092-6.745-2.96-16.924-7.863-20.159-9.218l-18.373-7.439a13.024,13.024,0,0,0-2.347-4.67,12.017,12.017,0,0,0-4.8-3.641,17.9,17.9,0,0,0-5.76-1.291,23.591,23.591,0,0,0-4.686.183,35.96,35.96,0,0,0-8.785-11.177,43.477,43.477,0,0,0-13.367-7.5,64.691,64.691,0,0,0-14.852-3.245,74.609,74.609,0,0,0-11.683-.275,47.893,47.893,0,0,0,2.229-11.811,30.479,30.479,0,0,0-3.046-15.583,31.2,31.2,0,0,0-10.713-11.761,42.711,42.711,0,0,0-6.931-3.727c-.82-.343-1.634-.655-2.454-.951,4.372-3.282,8.728-6.59,13.092-9.886l79.035,21.039,40.386,10.8c13.516,3.423,26.912,7.269,40.446,10.664-26.411-8.966-52.975-17.5-79.74-25.346q-10.007-3.033-20.075-5.867l-20.114-5.742q-17.343-4.809-34.728-9.48c2.638-2,5.286-3.976,7.918-5.977l29.243-22.255,15.942,4.4L390.11,184.5c11.368,3.227,22.674,6.672,33.982,10.108q16.942,5.214,33.785,10.779c11.174,3.712,23.9,8.3,35,12.324,1.663.673,3.321,1.344,4.932,2.012l0-.005c90.582,37.463,106.329,65.548,107.76,78.834l-.005-.084L606.627,308c.076.686.107,1.325.115,1.936,0,.047.011.1.011.155C606.753,310.3,606.737,310.479,606.732,310.681Z" transform="translate(-12.392 -84.515)"/>
          <path id="Trazado_2551" data-name="Trazado 2551" d="M110.629,131.37a19,19,0,0,0-3.392,1.294,22.15,22.15,0,0,0-3.044,2c-.22.173-.422.369-.631.55a8.336,8.336,0,0,0-1.807-2.986,9.119,9.119,0,0,0-3.384-2.355,10.368,10.368,0,0,0-4.031-.767,8.863,8.863,0,0,0-3.916.893,22.213,22.213,0,0,1,7.292,1.467,13.459,13.459,0,0,1,3.141,1.76,23.9,23.9,0,0,1,2.515,2.156,20.136,20.136,0,0,0-6.462,11.342,37.288,37.288,0,0,1,3.644-5.886,26.623,26.623,0,0,1,4.712-4.825,21.286,21.286,0,0,1,5.8-3.363,33.987,33.987,0,0,1,6.656-1.828A18.263,18.263,0,0,0,110.629,131.37Z" transform="translate(113.973 -12.313)"/>
          <path id="Trazado_2552" data-name="Trazado 2552" d="M307.376,168.972a99.871,99.871,0,0,1-15.41,2.559q-7.768.751-15.551.977c-10.373.364-20.732.126-31.066-.4-10.331-.587-20.638-1.475-30.9-2.811a302.476,302.476,0,0,1-30.636-5.283c10.407-.513,20.735-.359,31.045-.084,10.313.244,20.594.718,30.862,1.291q15.406.825,30.786,1.928l15.4,1.014C297.045,168.521,302.177,168.848,307.376,168.972Z" transform="translate(265.21 43.678)" fill="#abf5f5"/>
        </g>
        <g id="Grupo_1068" data-name="Grupo 1068" transform="translate(148.777 0)">
          <path id="Trazado_2553" data-name="Trazado 2553" d="M87.049,122.564a14.253,14.253,0,0,1-4.943,1.695,10.358,10.358,0,0,1-4.4-.252,6.094,6.094,0,0,1-3.109-2.069,5.464,5.464,0,0,1-1.1-3.693q.248-2.727,4.537-3.814a34.78,34.78,0,0,0,4.361-1.375,4.738,4.738,0,0,0,1.76-1.247q3.021-3,2.777-4.61c-.147-.794-.982-1.386-2.5-1.784a19.732,19.732,0,0,0-2.033-.471,10.975,10.975,0,0,1-1.931-.521,15.9,15.9,0,0,1-6.009-2.3,9.594,9.594,0,0,1-3.775-4.647,20.294,20.294,0,0,1-1.4-5.155A15.09,15.09,0,0,1,72.082,81.67a29.588,29.588,0,0,1,4.288-4.93,22.834,22.834,0,0,1,8.057-4.207,6.588,6.588,0,0,1,2.85-.246q1.336.2,2.7.448c1.731.581,2.6,1.611,2.6,3.1a3.307,3.307,0,0,1-.448,1.834A3.515,3.515,0,0,1,90.816,79a2.856,2.856,0,0,1,.5,2.232A7.5,7.5,0,0,1,88.087,84.7q-4.212,1.737-5.278,3.2-1.242,1.733.689,4.484a2.8,2.8,0,0,0,1.488.93q1.065.334,2.428.647c.906.2,1.883.461,2.923.767a12.36,12.36,0,0,1,2.994,1.352q5.057,3.179,4.877,10.884-.1,5.748-4.715,10.9A21.128,21.128,0,0,1,87.049,122.564Z" transform="translate(-69.19 -38.791)"/>
          <path id="Trazado_2554" data-name="Trazado 2554" d="M88.788,76.259l.039.1c.013.034.026.05.045.042s.031.008.047.042l.037.1.055-.021.623.71q1.092,1.3.862,10.347-.24,9.638,1.794,14.2,1.835,3.1,3.507-7.442,1.367-8.232,1.985-17.657c.037-.843.079-1.721.126-2.627a6.916,6.916,0,0,1,.553-2.436,3.8,3.8,0,0,1,3.769-2.562,4.531,4.531,0,0,1,1.428-2.088,4.389,4.389,0,0,1,2.064-.961,3.5,3.5,0,0,1,2.1.293,3.158,3.158,0,0,1,1.538,1.7c.367.652.636,2.423.812,5.323s.325,5.548.453,7.953.3,5,.542,7.8q.77,9.964,2.237,18.475a3.751,3.751,0,0,1-.377,3.287,7.639,7.639,0,0,1-2.512,2.588,6.818,6.818,0,0,1-3.232,1.084,2.722,2.722,0,0,1-2.9-1.86q-.216-.57-.487-1.118.774,1.721-1.391,3.971l-1.09,1.184a12.223,12.223,0,0,1-7.787,2.436,12.554,12.554,0,0,1-4.139-.823,7.431,7.431,0,0,1-3.24-2.355q-4.023-5.1-5.129-15.476a72.085,72.085,0,0,1-.461-8.838q.039-4.4.086-6.378c.034-1.318.071-2.229.113-2.74s.107-1.019.189-1.527a10.541,10.541,0,0,1,.595-2.955l.4-.8a.543.543,0,0,1,.157-.209.913.913,0,0,0,.212-.228,2.972,2.972,0,0,1,.741-.7l.665-.432.312-.118a3.6,3.6,0,0,1,2.824-.367c.013.037.055.039.126.013l.55.207.215.094.233.147c.016.034.029.05.047.045s.034.008.047.039l.071.034.039.1a.048.048,0,0,1,.071.031l.018.052a.14.14,0,0,0,.123.01l.021.055c.013.034.029.047.045.039a.026.026,0,0,1,.037.018c.008.018.034.037.081.058l.021.052A.151.151,0,0,0,88.788,76.259Zm14.54,33.95-.058-.157a.917.917,0,0,0,.1.435.322.322,0,0,1-.029-.225Z" transform="translate(-50.628 -48.934)"/>
          <path id="Trazado_2555" data-name="Trazado 2555" d="M106.4,109.865q.1,2.267-2.6,3.523a8.455,8.455,0,0,1-5.131.77q-2.923-.409-3.159-2.528-1.167-3.014-.416-14.36,1.1-17.013,4.626-25.154a8.805,8.805,0,0,1,1.776-2.863,16.7,16.7,0,0,1,2.014-1.559q1.167-.778,2.454-1.53a38.712,38.712,0,0,1,4.98-2.478,8.671,8.671,0,0,1,4.626-.631,7.107,7.107,0,0,1,3.777,1.755,9.652,9.652,0,0,1,2.465,3.665,17.939,17.939,0,0,1,1.168,4.906,23.131,23.131,0,0,1-.149,5.553,23.992,23.992,0,0,1-1.514,5.611,17.47,17.47,0,0,1-7.03,8.754l.783.762c.655.587,1.433,1.218,2.323,1.891s1.792,1.37,2.693,2.082,1.742,1.438,2.52,2.185a12.452,12.452,0,0,1,1.86,2.19q1.572,2.389-.3,4.16-1.473,1.548-2.635,1.291a5.766,5.766,0,0,1-1.037-.432,3.443,3.443,0,0,0-1.357-.348,4.063,4.063,0,0,1-5.249-.293,18.886,18.886,0,0,1-2.352-2.515q-.9-1.187-1.522-2a16.659,16.659,0,0,0-3.125-2.821q-.193,1.6-.327,4.052-.138,3.08-.43,6.433Zm2.308-34.055q-.385,2.577-.513,3.586-.251,2.023-.563,4.464c.107.812.168,1.388.186,1.729l.542-.951.794-.678c.545-.532,1.042-1.011,1.5-1.443a6.269,6.269,0,0,0,1.15-1.462,10.486,10.486,0,0,0,1.045-4.592,3.383,3.383,0,0,1-.1-1.121,4.78,4.78,0,0,0-.052-1.134,1.426,1.426,0,0,0-1.412-1.4q-1.1.189-2.192,2.494C108.944,75.613,108.816,75.781,108.708,75.81Z" transform="translate(-27.716 -53.784)"/>
          <path id="Trazado_2556" data-name="Trazado 2556" d="M116.434,105.859a4.947,4.947,0,0,1-2.963,4.094,5.6,5.6,0,0,1-4.786.32,3.22,3.22,0,0,1-2.161-3.769q.145-3.183.925-10.255t1.095-9.951q.66-7.108.749-9.377a48.267,48.267,0,0,1,1.176-7.2,8.24,8.24,0,0,1,.946-2.061A10,10,0,0,1,112.96,66.1a11.077,11.077,0,0,1,2.441-1.577,17.467,17.467,0,0,1,2.737-1.04q1.391-.4,2.847-.752a18.334,18.334,0,0,0,3.175-1.121,6.89,6.89,0,0,0,1.26-.343c.367-.144.731-.267,1.087-.369a6.512,6.512,0,0,1,2.528-.186,3.317,3.317,0,0,1,2.1,1.022,4.115,4.115,0,0,1,1.04,2.117,7.932,7.932,0,0,1-.023,2.766,11.79,11.79,0,0,1-.943,2.991,11.3,11.3,0,0,1-4.322,4.966,12.337,12.337,0,0,1-2.931,1.215,2.665,2.665,0,0,1-1.32.018,1.245,1.245,0,0,1-.472-.251c-.047-.065-.152.086-.309.451a4.825,4.825,0,0,0-.416,1.713,4.389,4.389,0,0,1-.254,1.37,9.658,9.658,0,0,0-.44,1.742,6.547,6.547,0,0,1-.8,2.208c-.375.613-.589.982-.642,1.1l4.707-1.375a2.99,2.99,0,0,1,2.072.1,3.279,3.279,0,0,1,1.454,1.168,2.653,2.653,0,0,1,.487,1.572,1.722,1.722,0,0,1-.76,1.38A2.591,2.591,0,0,0,126.353,88a6.571,6.571,0,0,0-.265.867,5.163,5.163,0,0,1-.267.838,2.27,2.27,0,0,1-.932.9,24.123,24.123,0,0,1-6.462,2.543q-.122.868-.377,2.072t-.527,2.491q-.746,3.914-.794,4.712c-.034.532-.058.966-.068,1.307A10.307,10.307,0,0,1,116.434,105.859Z" transform="translate(-8.791 -57.511)"/>
          <path id="Trazado_2557" data-name="Trazado 2557" d="M150.651,60.844l.225.05a12.525,12.525,0,0,1,2.462,1.789,21.62,21.62,0,0,1,1.944,2.106,9.835,9.835,0,0,1,1.425,2.428q2.247,5.037-3.337,11.51a25.748,25.748,0,0,1-5.357,4.7,6.1,6.1,0,0,0,1.49.762,15.4,15.4,0,0,1,1.993.885,3.553,3.553,0,0,1,1.734,2.557,9.775,9.775,0,0,1-.073,4.3,18.1,18.1,0,0,1-5.8,9.584,16.78,16.78,0,0,1-12.741,4.238,3.24,3.24,0,0,1-1.333-.128c-.189-.107-.338-.2-.453-.265a1.773,1.773,0,0,0-.723-.147,6.6,6.6,0,0,1-3.12,1.472,6.8,6.8,0,0,1-3.358-.183,5.859,5.859,0,0,1-2.711-1.807,5.382,5.382,0,0,1-1.179-3.46,7.569,7.569,0,0,1,.492-2.284,3.881,3.881,0,0,1-.2-1.215,143.213,143.213,0,0,1,3.117-15.441q3.08-10.672,6.863-16.154a14.566,14.566,0,0,1,8.754-6.122A13.566,13.566,0,0,1,150.651,60.844ZM134.513,99.986a2.751,2.751,0,0,1,1.132-.115,3.381,3.381,0,0,0,1.134-.058,10.618,10.618,0,0,0,4.264-2.116,5.443,5.443,0,0,0,1.734-3.429c.042-1.111-.144-1.815-.558-2.119a2.608,2.608,0,0,0-1.65-.424,9.608,9.608,0,0,0-2.258.367,12.55,12.55,0,0,1-2.4.427l0,.113q-.248,1.116-.5,1.954t-.456,1.621a30.947,30.947,0,0,0-.668,3.785ZM144.006,70.9q-1.666-.177-3.526,2.7a14.3,14.3,0,0,0-1.734,5.425q1.151-.53,2.276-.922a21.166,21.166,0,0,0,2.109-.862,8.05,8.05,0,0,0,3.418-2.646q1.175-1.473.7-2.457a5.781,5.781,0,0,0-2.2-1.548A1.2,1.2,0,0,1,144.006,70.9Z" transform="translate(15.912 -59.461)"/>
          <path id="Trazado_2558" data-name="Trazado 2558" d="M144.389,101.975q-.711,2.157-3.686,2.365a8.454,8.454,0,0,1-5.068-1.111q-2.585-1.418-2.051-3.484-.016-3.23,4.728-13.566,7.088-15.508,13.28-21.856a8.834,8.834,0,0,1,2.677-2.048,16.948,16.948,0,0,1,2.441-.736c.906-.2,1.854-.39,2.837-.555a38.223,38.223,0,0,1,5.535-.542,8.667,8.667,0,0,1,4.545,1.058,7.12,7.12,0,0,1,2.908,2.986,9.68,9.68,0,0,1,1,4.3,17.918,17.918,0,0,1-.657,5,22.916,22.916,0,0,1-2.119,5.137,24.009,24.009,0,0,1-3.41,4.7,17.5,17.5,0,0,1-9.689,5.674l.461.993q.609,1.171,1.5,2.6c.595.948,1.184,1.917,1.776,2.9s1.113,1.967,1.574,2.939a12.471,12.471,0,0,1,.961,2.711q.613,2.786-1.763,3.777-1.929.927-2.921.272a5.9,5.9,0,0,1-.817-.775,3.447,3.447,0,0,0-1.145-.809,4.059,4.059,0,0,1-4.8-2.143,18.918,18.918,0,0,1-1.3-3.188c-.275-.953-.513-1.758-.707-2.41a16.838,16.838,0,0,0-1.915-3.751q-.754,1.43-1.752,3.67-1.226,2.833-2.69,5.862Zm14.289-31q-1.281,2.267-1.758,3.167-.959,1.8-2.117,3.966c-.189.8-.338,1.359-.443,1.684l.846-.7.982-.348c.7-.3,1.336-.574,1.917-.812a6.332,6.332,0,0,0,1.6-.959,10.541,10.541,0,0,0,2.611-3.916,3.281,3.281,0,0,1,.3-1.084,4.912,4.912,0,0,0,.356-1.079,1.427,1.427,0,0,0-.825-1.8q-1.092-.22-2.936,1.548C158.966,70.875,158.788,70.987,158.678,70.977Z" transform="translate(34.941 -57.878)"/>
          <path id="Trazado_2559" data-name="Trazado 2559" d="M185.453,69.68a4.484,4.484,0,0,1,1.64,3.405q-2.511,5.784-4.783,11.536T178.274,94.2q-1.76,3.823-2.53,5.75t-1.619,3.827l-.592,1.056c-.165.38-.325.728-.477,1.056s-.312.676-.479,1.053a5.3,5.3,0,0,1-4.505.752,6.62,6.62,0,0,1-4.037-2.436c-.527-.657-.382-1.739.432-3.256a12.467,12.467,0,0,0,.946-2.423c.3-1.014.561-1.849.794-2.517l.029-.107a12.291,12.291,0,0,0-3.277.846q-1.517.636-1.9.8a2.4,2.4,0,0,1-.954.173,8.049,8.049,0,0,1-1.014-.039,2.943,2.943,0,0,0-1.477-.01q-4.46,4.868-7.091,4.927a7.1,7.1,0,0,1-3.185-.5A3.5,3.5,0,0,1,145.3,100.7q-1.344-2.027,2.957-8.639,2.31-3.493,6.2-8.241t7.258-8.16a70.713,70.713,0,0,1,14.91-11.722q1.124-.193,2.444-.474a6.244,6.244,0,0,1,2.494-.065,8.339,8.339,0,0,1,2.336.838,6.25,6.25,0,0,1,1.87,1.469Q187.4,67.7,185.453,69.68Zm-14.9,11.444q-1.9,2.962-3.678,5.42t-3.073,4.312l4.3.846q1.249-3.344,2.593-6.614t2.635-6.551ZM166.544,91.56a10.721,10.721,0,0,0,1.535.251l.013-.055c-.477-.076-.917-.139-1.32-.2S166.293,91.5,166.544,91.56Z" transform="translate(53.546 -53.233)"/>
          <path id="Trazado_2560" data-name="Trazado 2560" d="M192.361,73.374q-3.882,5.017-7.083,9.042T179.4,89.832q-2.676,3.391-4.951,6.25t-4.291,5.485a6.426,6.426,0,0,1-5.142,3.615,9.826,9.826,0,0,1-4.243-.655,9.7,9.7,0,0,1-3.256-1.742,2.69,2.69,0,0,1-.967-1.972,4.124,4.124,0,0,1,.822-2.266q.825-1.206,2.5-3.219t4.385-5.511q2.715-3.493,5.6-7.046a125.857,125.857,0,0,1,10.624-12.057,5.512,5.512,0,0,1,2.274-1.386,6.872,6.872,0,0,1,1.773-.181,10.364,10.364,0,0,0,1.553-.058,3.007,3.007,0,0,0,1.69-1.155,3.072,3.072,0,0,1,2.446-1.056,3.984,3.984,0,0,1,2.525.828,3.166,3.166,0,0,1,1.166,2.31A4.666,4.666,0,0,1,192.361,73.374Z" transform="translate(72.288 -47.45)"/>
          <path id="Trazado_2561" data-name="Trazado 2561" d="M177.955,82.407q2.676-2.8,4.215-4.285t2.86-2.612a26.827,26.827,0,0,1,2.771-2.069,19.837,19.837,0,0,1,2.926-1.582,8.933,8.933,0,0,1,2.845-.754,4.549,4.549,0,0,1,2.5.469,4.619,4.619,0,0,1,1.912,2.1q-.55,5.941-.967,7.848a66.417,66.417,0,0,1-2.473,7.51q1.025-.908,2.234-1.875t2.41-1.972a31.665,31.665,0,0,0,4.448-3.947,9.574,9.574,0,0,1,7.14-2.884,9.391,9.391,0,0,1,6,1.891,2.372,2.372,0,0,1,1.024,1.582,1.312,1.312,0,0,1-.681,1.333,2.023,2.023,0,0,0-.964,1.155c-.128.453-.3.974-.521,1.569a8.261,8.261,0,0,1-2.847,3.615,41.751,41.751,0,0,0-4.144,3.358q-2.314,2.082-4.812,4.477t-5.076,4.872q-2.577,2.475-4.822,4.44-5.076,4.562-6.758,4.448a12.32,12.32,0,0,1-3.444-.081,14.439,14.439,0,0,1-3.2-1.642q-1.234-.758-.532-4.44a36.43,36.43,0,0,1,1.464-5.291,44.154,44.154,0,0,0,1.917-6.423,85.06,85.06,0,0,1-6.926,6.664,16.835,16.835,0,0,1-2.368,1.587q-.7.33-1.744.914a5.1,5.1,0,0,1-4.4,1.048,6.233,6.233,0,0,1-3.877-1.671q-1.517-1.524.076-2.824Q167.721,93.288,177.955,82.407Z" transform="translate(83.26 -40.636)"/>
        </g>
      </g>
    </g>
  </g>
</svg>
