<svg xmlns="http://www.w3.org/2000/svg" width="19.189" height="21.959" viewBox="0 0 19.189 21.959">
  <g id="down-arrow" transform="translate(51.493 21.959) rotate(180)">
    <g id="Grupo_319" data-name="Grupo 319" transform="translate(32.304)">
      <path id="Trazado_1191" data-name="Trazado 1191" d="M51.458,12.173a.458.458,0,0,0-.423-.283H46.024V.457A.458.458,0,0,0,45.567,0H38.249a.458.458,0,0,0-.457.457V11.891H32.761a.457.457,0,0,0-.324.78l9.124,9.154a.458.458,0,0,0,.648,0l9.15-9.154A.456.456,0,0,0,51.458,12.173Z" transform="translate(-32.304)" fill="#27364b"/>
    </g>
  </g>
</svg>
