<svg xmlns="http://www.w3.org/2000/svg" width="90.424" height="72.14" viewBox="0 0 90.424 72.14">
  <g id="uranus" transform="translate(-0.001 -50.689)">
    <path id="Trazado_1367" data-name="Trazado 1367" d="M49.918,313.909q-.143-.29-.282-.582l-.082-.175q-.133-.285-.261-.572l-.084-.192c-.083-.189-.164-.378-.244-.568-.028-.066-.054-.133-.082-.2-.078-.19-.156-.381-.231-.573-.024-.063-.048-.126-.072-.189-.076-.2-.152-.4-.224-.6l-.038-.108q-.322-.894-.6-1.81c-1.968,1.913-2.853,3.521-2.393,4.652s2.22,1.66,4.964,1.654q-.154-.294-.3-.591Z" transform="translate(-37.056 -211.186)" fill="none"/>
    <path id="Trazado_1368" data-name="Trazado 1368" d="M432.947,159.725c-.461-1.131-2.219-1.662-4.964-1.655a35.848,35.848,0,0,1,2.571,6.305C432.521,162.463,433.408,160.854,432.947,159.725Z" transform="translate(-350.796 -88.015)" fill="none"/>
    <path id="Trazado_1369" data-name="Trazado 1369" d="M229.326,66.132a36.027,36.027,0,0,0-29.638,15.511q1.989-.869,4.045-1.709c12.64-5.15,24.658-8.331,33.784-9.289a36.1,36.1,0,0,0-19.078-12.851A36.046,36.046,0,0,1,233.684,66.4,36.388,36.388,0,0,0,229.326,66.132Z" transform="translate(-163.674 -5.824)" fill="#6140ff"/>
    <path id="Trazado_1370" data-name="Trazado 1370" d="M88.7,367.96c-.1-.14-.206-.282-.309-.424Q88.544,367.749,88.7,367.96Z" transform="translate(-72.449 -259.704)" fill="#708aff"/>
    <path id="Trazado_1371" data-name="Trazado 1371" d="M285.187,53.664c.217.038.433.078.648.12C285.62,53.742,285.4,53.7,285.187,53.664Z" transform="translate(-233.753 -2.438)" fill="#708aff"/>
    <path id="Trazado_1372" data-name="Trazado 1372" d="M289.9,54.544q.347.069.69.145C290.365,54.639,290.135,54.59,289.9,54.544Z" transform="translate(-237.62 -3.16)" fill="#708aff"/>
    <path id="Trazado_1373" data-name="Trazado 1373" d="M299.141,56.613q.391.1.779.2Q299.532,56.711,299.141,56.613Z" transform="translate(-245.191 -4.856)" fill="#708aff"/>
    <path id="Trazado_1374" data-name="Trazado 1374" d="M153.835,164.384l.009-.009a35.837,35.837,0,0,0-2.571-6.305c-6.966.017-20.291,3.5-34.924,9.463-3.717,1.514-7.261,3.084-10.564,4.663a36.086,36.086,0,0,0,9.156,38.376A36.049,36.049,0,0,1,90.388,196.34c.075.1.15.2.226.3a36.069,36.069,0,0,0,64.755-21.867,36.433,36.433,0,0,0-.259-4.321l0,0A35.822,35.822,0,0,0,153.835,164.384Z" transform="translate(-74.086 -88.015)" fill="#6140ff"/>
    <path id="Trazado_1375" data-name="Trazado 1375" d="M69.75,335.978q.138.293.282.582Q69.888,336.27,69.75,335.978Z" transform="translate(-57.17 -233.837)" fill="#708aff"/>
    <path id="Trazado_1376" data-name="Trazado 1376" d="M66.033,327.62c.079.19.161.379.244.568C66.194,328,66.112,327.81,66.033,327.62Z" transform="translate(-54.124 -226.987)" fill="#708aff"/>
    <path id="Trazado_1377" data-name="Trazado 1377" d="M64.3,323.333c.075.192.153.383.231.573C64.454,323.716,64.376,323.525,64.3,323.333Z" transform="translate(-52.704 -223.473)" fill="#708aff"/>
    <path id="Trazado_1378" data-name="Trazado 1378" d="M62.66,318.981c.073.2.148.4.224.6C62.808,319.379,62.733,319.181,62.66,318.981Z" transform="translate(-51.359 -219.906)" fill="#708aff"/>
    <path id="Trazado_1379" data-name="Trazado 1379" d="M86.779,365.269l-.041-.059Z" transform="translate(-71.094 -257.797)" fill="#708aff"/>
    <path id="Trazado_1380" data-name="Trazado 1380" d="M67.851,331.837q.128.287.261.572Q67.979,332.124,67.851,331.837Z" transform="translate(-55.614 -230.443)" fill="#708aff"/>
    <path id="Trazado_1381" data-name="Trazado 1381" d="M59.142,308.342h0q.275.915.6,1.81Q59.416,309.258,59.142,308.342Z" transform="translate(-48.475 -211.186)" fill="#708aff"/>
    <path id="Trazado_1382" data-name="Trazado 1382" d="M294.554,55.528q.368.083.734.173Q294.922,55.611,294.554,55.528Z" transform="translate(-241.431 -3.966)" fill="#708aff"/>
    <path id="Trazado_1383" data-name="Trazado 1383" d="M51.271,265.915c-.011-.126-.022-.252-.031-.379C51.249,265.662,51.261,265.788,51.271,265.915Z" transform="translate(-41.998 -176.1)" fill="#708aff"/>
    <path id="Trazado_1384" data-name="Trazado 1384" d="M265.767,51.254c.161.012.321.027.481.041C266.088,51.281,265.928,51.266,265.767,51.254Z" transform="translate(-217.836 -0.463)" fill="#708aff"/>
    <path id="Trazado_1385" data-name="Trazado 1385" d="M50.765,255.967c0-.1-.008-.2-.01-.3C50.757,255.768,50.762,255.867,50.765,255.967Z" transform="translate(-41.601 -168.011)" fill="#708aff"/>
    <path id="Trazado_1386" data-name="Trazado 1386" d="M260.784,50.943c.143.007.285.017.427.026C261.069,50.96,260.927,50.95,260.784,50.943Z" transform="translate(-213.751 -0.208)" fill="#708aff"/>
    <path id="Trazado_1387" data-name="Trazado 1387" d="M255.759,50.755c.114,0,.227.009.341.013C255.986,50.764,255.873,50.758,255.759,50.755Z" transform="translate(-209.633 -0.054)" fill="#708aff"/>
    <path id="Trazado_1388" data-name="Trazado 1388" d="M72.022,340.619h0q-.154-.294-.3-.591Q71.869,340.325,72.022,340.619Z" transform="translate(-58.785 -237.157)" fill="#708aff"/>
    <path id="Trazado_1389" data-name="Trazado 1389" d="M280.413,52.892c.2.03.406.064.608.1C280.819,52.956,280.616,52.922,280.413,52.892Z" transform="translate(-229.84 -1.806)" fill="#708aff"/>
    <path id="Trazado_1390" data-name="Trazado 1390" d="M51.7,270.809c-.014-.131-.029-.261-.041-.392C51.673,270.548,51.687,270.678,51.7,270.809Z" transform="translate(-42.343 -180.1)" fill="#708aff"/>
    <path id="Trazado_1391" data-name="Trazado 1391" d="M275.583,52.231c.19.024.379.05.568.077C275.962,52.281,275.773,52.255,275.583,52.231Z" transform="translate(-225.881 -1.264)" fill="#708aff"/>
    <path id="Trazado_1392" data-name="Trazado 1392" d="M270.7,51.684c.176.017.351.038.527.058C271.051,51.722,270.876,51.7,270.7,51.684Z" transform="translate(-221.879 -0.816)" fill="#708aff"/>
    <path id="Trazado_1393" data-name="Trazado 1393" d="M50.959,260.974c-.007-.118-.015-.236-.021-.355C50.944,260.737,50.952,260.855,50.959,260.974Z" transform="translate(-41.751 -172.069)" fill="#708aff"/>
    <path id="Trazado_1394" data-name="Trazado 1394" d="M89.331,274.773A36.086,36.086,0,0,1,80.175,236.4c-9.7,4.637-17.306,9.353-21.032,12.975q.275.915.6,1.811l.038.108c.073.2.148.4.224.6.024.063.047.126.072.189.075.192.152.383.231.573.027.067.054.134.082.2q.119.286.244.568l.084.192q.128.287.261.572l.082.175q.138.293.282.582l.074.148q.149.3.3.591h.021a37.1,37.1,0,0,0,2.385,3.951l.041.059c.084.121.171.24.257.36.1.142.2.284.309.424l.052.069A36.05,36.05,0,0,0,89.331,274.773Z" transform="translate(-48.476 -152.216)" fill="#4425d6"/>
    <path id="Trazado_1395" data-name="Trazado 1395" d="M77.564,75.819a35.971,35.971,0,0,1,34-15.239,36.046,36.046,0,0,0-15.245-8.609l-.035-.01q-.388-.106-.779-.2l-.093-.023q-.366-.09-.734-.173l-.148-.032q-.344-.076-.69-.145l-.2-.039c-.216-.042-.431-.082-.648-.12l-.252-.042c-.2-.034-.4-.067-.608-.1l-.3-.042c-.189-.027-.378-.053-.568-.077-.118-.015-.236-.027-.354-.041-.175-.02-.35-.041-.527-.058-.136-.014-.272-.024-.408-.036-.16-.014-.32-.029-.481-.041s-.314-.02-.471-.03-.284-.019-.427-.026c-.188-.009-.377-.015-.565-.021-.114,0-.227-.01-.341-.013q-.456-.011-.914-.012a36.07,36.07,0,0,0-36.07,36.07q0,.45.011.9c0,.1.007.2.01.3.006.2.013.4.023.594.006.118.014.236.021.355.01.178.021.355.034.532.009.126.021.252.031.379.014.168.028.335.045.5.013.131.027.261.041.392s.026.246.04.369C57.366,86,66.664,80.584,77.564,75.819Z" transform="translate(-41.55)" fill="#4425d6"/>
    <path id="Trazado_1396" data-name="Trazado 1396" d="M90.126,131.293c-1.4-3.426-7.5-4.562-16.283-3.64-9.126.958-21.144,4.139-33.784,9.289q-2.057.838-4.045,1.709c-10.9,4.766-20.2,10.183-26.615,15.259-6.925,5.477-10.5,10.554-9.1,13.98s7.5,4.557,16.279,3.637l-.051-.068c-.076-.1-.151-.2-.226-.3l-.052-.069q-.156-.21-.309-.424c-.086-.12-.172-.239-.257-.36l-.041-.059a37.083,37.083,0,0,1-2.385-3.951h-.021c-2.744.006-4.5-.524-4.964-1.654s.425-2.738,2.393-4.652h0C14.393,156.366,22,151.65,31.7,147.013c3.3-1.579,6.847-3.149,10.564-4.663,14.634-5.962,27.958-9.445,34.924-9.463,2.745-.007,4.5.524,4.964,1.655s-.427,2.738-2.393,4.65l-.009.009a35.826,35.826,0,0,1,1.27,6.072l0,0C87.945,139.794,91.521,134.717,90.126,131.293Z" transform="translate(0 -62.832)" fill="#2de8f5"/>
  </g>
</svg>
